G04 #@! TF.GenerationSoftware,KiCad,Pcbnew,7.0.9*
G04 #@! TF.CreationDate,2023-11-12T17:18:31+09:00*
G04 #@! TF.ProjectId,SharpKeyQ,53686172-704b-4657-9951-2e6b69636164,rev?*
G04 #@! TF.SameCoordinates,Original*
G04 #@! TF.FileFunction,Copper,L1,Top*
G04 #@! TF.FilePolarity,Positive*
%FSLAX46Y46*%
G04 Gerber Fmt 4.6, Leading zero omitted, Abs format (unit mm)*
G04 Created by KiCad (PCBNEW 7.0.9) date 2023-11-12 17:18:31*
%MOMM*%
%LPD*%
G01*
G04 APERTURE LIST*
G04 #@! TA.AperFunction,ComponentPad*
%ADD10C,1.400000*%
G04 #@! TD*
G04 #@! TA.AperFunction,ComponentPad*
%ADD11O,1.400000X1.400000*%
G04 #@! TD*
G04 #@! TA.AperFunction,ComponentPad*
%ADD12R,1.600000X1.600000*%
G04 #@! TD*
G04 #@! TA.AperFunction,ComponentPad*
%ADD13O,1.600000X1.600000*%
G04 #@! TD*
G04 #@! TA.AperFunction,ComponentPad*
%ADD14R,1.700000X1.700000*%
G04 #@! TD*
G04 #@! TA.AperFunction,ComponentPad*
%ADD15O,1.700000X1.700000*%
G04 #@! TD*
G04 #@! TA.AperFunction,ComponentPad*
%ADD16R,1.200000X2.000000*%
G04 #@! TD*
G04 #@! TA.AperFunction,ComponentPad*
%ADD17O,1.200000X2.000000*%
G04 #@! TD*
G04 #@! TA.AperFunction,ComponentPad*
%ADD18R,1.500000X1.500000*%
G04 #@! TD*
G04 #@! TA.AperFunction,ComponentPad*
%ADD19O,1.500000X1.500000*%
G04 #@! TD*
G04 #@! TA.AperFunction,ComponentPad*
%ADD20C,1.600000*%
G04 #@! TD*
G04 #@! TA.AperFunction,ComponentPad*
%ADD21R,1.800000X1.800000*%
G04 #@! TD*
G04 #@! TA.AperFunction,ComponentPad*
%ADD22C,1.800000*%
G04 #@! TD*
G04 #@! TA.AperFunction,ComponentPad*
%ADD23C,2.200000*%
G04 #@! TD*
G04 #@! TA.AperFunction,ComponentPad*
%ADD24C,1.700000*%
G04 #@! TD*
G04 #@! TA.AperFunction,ComponentPad*
%ADD25O,3.500000X2.000000*%
G04 #@! TD*
G04 #@! TA.AperFunction,ComponentPad*
%ADD26O,2.000000X4.000000*%
G04 #@! TD*
G04 #@! TA.AperFunction,ViaPad*
%ADD27C,0.800000*%
G04 #@! TD*
G04 #@! TA.AperFunction,Conductor*
%ADD28C,1.000000*%
G04 #@! TD*
G04 #@! TA.AperFunction,Conductor*
%ADD29C,0.250000*%
G04 #@! TD*
G04 APERTURE END LIST*
D10*
G04 #@! TO.P,R9,1*
G04 #@! TO.N,Net-(U1-ADC2_CH7{slash}GPIO27)*
X142240000Y-100330000D03*
D11*
G04 #@! TO.P,R9,2*
G04 #@! TO.N,Net-(J4-Pin_6)*
X149860000Y-100330000D03*
G04 #@! TD*
D10*
G04 #@! TO.P,R4,1*
G04 #@! TO.N,Net-(J2-Pin_2)*
X138430000Y-77470000D03*
D11*
G04 #@! TO.P,R4,2*
G04 #@! TO.N,Net-(U1-32K_XP{slash}GPIO32{slash}ADC1_CH4)*
X138430000Y-69850000D03*
G04 #@! TD*
D10*
G04 #@! TO.P,R2,1*
G04 #@! TO.N,+3V3*
X149860000Y-82550000D03*
D11*
G04 #@! TO.P,R2,2*
G04 #@! TO.N,Net-(J2-Pin_3)*
X142240000Y-82550000D03*
G04 #@! TD*
D10*
G04 #@! TO.P,R5,1*
G04 #@! TO.N,+3V3*
X157480000Y-86360000D03*
D11*
G04 #@! TO.P,R5,2*
G04 #@! TO.N,Net-(U1-VDET_1{slash}GPIO34{slash}ADC1_CH6)*
X165100000Y-86360000D03*
G04 #@! TD*
D10*
G04 #@! TO.P,R15,1*
G04 #@! TO.N,Net-(U1-ADC2_CH2{slash}GPIO2)*
X125730000Y-116840000D03*
D11*
G04 #@! TO.P,R15,2*
G04 #@! TO.N,Net-(D2-A)*
X133350000Y-116840000D03*
G04 #@! TD*
D10*
G04 #@! TO.P,R14,1*
G04 #@! TO.N,Net-(J4-Pin_3)*
X149860000Y-97790000D03*
D11*
G04 #@! TO.P,R14,2*
G04 #@! TO.N,Net-(U1-GPIO23)*
X142240000Y-97790000D03*
G04 #@! TD*
D12*
G04 #@! TO.P,U2,1,S*
G04 #@! TO.N,Net-(U1-MTDI{slash}GPIO12{slash}ADC2_CH5)*
X91440000Y-114300000D03*
D13*
G04 #@! TO.P,U2,2,I0a*
G04 #@! TO.N,Net-(U1-MTMS{slash}GPIO14{slash}ADC2_CH6)*
X93980000Y-114300000D03*
G04 #@! TO.P,U2,3,I1a*
G04 #@! TO.N,Net-(U1-GPIO18)*
X96520000Y-114300000D03*
G04 #@! TO.P,U2,4,Za*
G04 #@! TO.N,Net-(U1-GPIO23)*
X99060000Y-114300000D03*
G04 #@! TO.P,U2,5,I0b*
G04 #@! TO.N,Net-(U1-MTDO{slash}GPIO15{slash}ADC2_CH3)*
X101600000Y-114300000D03*
G04 #@! TO.P,U2,6,I1b*
G04 #@! TO.N,Net-(U1-GPIO19)*
X104140000Y-114300000D03*
G04 #@! TO.P,U2,7,Zb*
G04 #@! TO.N,Net-(U1-DAC_1{slash}ADC2_CH8{slash}GPIO25)*
X106680000Y-114300000D03*
G04 #@! TO.P,U2,8,GND*
G04 #@! TO.N,GND*
X109220000Y-114300000D03*
G04 #@! TO.P,U2,9,Zd*
G04 #@! TO.N,Net-(U1-ADC2_CH7{slash}GPIO27)*
X109220000Y-106680000D03*
G04 #@! TO.P,U2,10,I1d*
G04 #@! TO.N,Net-(U1-GPIO22)*
X106680000Y-106680000D03*
G04 #@! TO.P,U2,11,I0d*
G04 #@! TO.N,Net-(U1-GPIO17)*
X104140000Y-106680000D03*
G04 #@! TO.P,U2,12,Zc*
G04 #@! TO.N,Net-(U1-DAC_2{slash}ADC2_CH9{slash}GPIO26)*
X101600000Y-106680000D03*
G04 #@! TO.P,U2,13,I1c*
G04 #@! TO.N,Net-(U1-GPIO21)*
X99060000Y-106680000D03*
G04 #@! TO.P,U2,14,I0c*
G04 #@! TO.N,Net-(U1-GPIO16)*
X96520000Y-106680000D03*
G04 #@! TO.P,U2,15,OE*
G04 #@! TO.N,Net-(U1-VDET_2{slash}GPIO35{slash}ADC1_CH7)*
X93980000Y-106680000D03*
G04 #@! TO.P,U2,16,VCC*
G04 #@! TO.N,+5V*
X91440000Y-106680000D03*
G04 #@! TD*
D14*
G04 #@! TO.P,J3,1,Pin_1*
G04 #@! TO.N,+5V*
X149860000Y-113030000D03*
D15*
G04 #@! TO.P,J3,2,Pin_2*
G04 #@! TO.N,GND*
X147320000Y-113030000D03*
G04 #@! TO.P,J3,3,Pin_3*
X144780000Y-113030000D03*
G04 #@! TO.P,J3,4,Pin_4*
G04 #@! TO.N,+3V3*
X142240000Y-113030000D03*
G04 #@! TD*
D16*
G04 #@! TO.P,U1,1,3V3*
G04 #@! TO.N,+3V3*
X132080000Y-76200000D03*
D17*
G04 #@! TO.P,U1,2,CHIP_PU*
G04 #@! TO.N,unconnected-(U1-CHIP_PU-Pad2)*
X129540000Y-76200000D03*
G04 #@! TO.P,U1,3,SENSOR_VP/GPIO36/ADC1_CH0*
G04 #@! TO.N,unconnected-(U1-SENSOR_VP{slash}GPIO36{slash}ADC1_CH0-Pad3)*
X127000000Y-76200000D03*
G04 #@! TO.P,U1,4,SENSOR_VN/GPIO39/ADC1_CH3*
G04 #@! TO.N,unconnected-(U1-SENSOR_VN{slash}GPIO39{slash}ADC1_CH3-Pad4)*
X124460000Y-76200000D03*
G04 #@! TO.P,U1,5,VDET_1/GPIO34/ADC1_CH6*
G04 #@! TO.N,Net-(U1-VDET_1{slash}GPIO34{slash}ADC1_CH6)*
X121920000Y-76200000D03*
G04 #@! TO.P,U1,6,VDET_2/GPIO35/ADC1_CH7*
G04 #@! TO.N,Net-(U1-VDET_2{slash}GPIO35{slash}ADC1_CH7)*
X119380000Y-76200000D03*
G04 #@! TO.P,U1,7,32K_XP/GPIO32/ADC1_CH4*
G04 #@! TO.N,Net-(U1-32K_XP{slash}GPIO32{slash}ADC1_CH4)*
X116840000Y-76200000D03*
G04 #@! TO.P,U1,8,32K_XN/GPIO33/ADC1_CH5*
G04 #@! TO.N,Net-(U1-32K_XN{slash}GPIO33{slash}ADC1_CH5)*
X114300000Y-76200000D03*
G04 #@! TO.P,U1,9,DAC_1/ADC2_CH8/GPIO25*
G04 #@! TO.N,Net-(U1-DAC_1{slash}ADC2_CH8{slash}GPIO25)*
X111760000Y-76200000D03*
G04 #@! TO.P,U1,10,DAC_2/ADC2_CH9/GPIO26*
G04 #@! TO.N,Net-(U1-DAC_2{slash}ADC2_CH9{slash}GPIO26)*
X109220000Y-76200000D03*
G04 #@! TO.P,U1,11,ADC2_CH7/GPIO27*
G04 #@! TO.N,Net-(U1-ADC2_CH7{slash}GPIO27)*
X106680000Y-76200000D03*
G04 #@! TO.P,U1,12,MTMS/GPIO14/ADC2_CH6*
G04 #@! TO.N,Net-(U1-MTMS{slash}GPIO14{slash}ADC2_CH6)*
X104140000Y-76200000D03*
G04 #@! TO.P,U1,13,MTDI/GPIO12/ADC2_CH5*
G04 #@! TO.N,Net-(U1-MTDI{slash}GPIO12{slash}ADC2_CH5)*
X101600000Y-76200000D03*
G04 #@! TO.P,U1,14,GND*
G04 #@! TO.N,GND*
X99060000Y-76200000D03*
G04 #@! TO.P,U1,15,MTCK/GPIO13/ADC2_CH4*
G04 #@! TO.N,Net-(U1-MTCK{slash}GPIO13{slash}ADC2_CH4)*
X96520000Y-76200000D03*
G04 #@! TO.P,U1,16,SD_DATA2/GPIO9*
G04 #@! TO.N,unconnected-(U1-SD_DATA2{slash}GPIO9-Pad16)*
X93980000Y-76200000D03*
G04 #@! TO.P,U1,17,SD_DATA3/GPIO10*
G04 #@! TO.N,unconnected-(U1-SD_DATA3{slash}GPIO10-Pad17)*
X91440000Y-76200000D03*
G04 #@! TO.P,U1,18,CMD*
G04 #@! TO.N,unconnected-(U1-CMD-Pad18)*
X88900000Y-76200000D03*
G04 #@! TO.P,U1,19,5V*
G04 #@! TO.N,+5V*
X86360000Y-76200000D03*
G04 #@! TO.P,U1,20,SD_CLK/GPIO6*
G04 #@! TO.N,unconnected-(U1-SD_CLK{slash}GPIO6-Pad20)*
X86362720Y-101596320D03*
G04 #@! TO.P,U1,21,SD_DATA0/GPIO7*
G04 #@! TO.N,unconnected-(U1-SD_DATA0{slash}GPIO7-Pad21)*
X88902720Y-101596320D03*
G04 #@! TO.P,U1,22,SD_DATA1/GPIO8*
G04 #@! TO.N,unconnected-(U1-SD_DATA1{slash}GPIO8-Pad22)*
X91440000Y-101600000D03*
G04 #@! TO.P,U1,23,MTDO/GPIO15/ADC2_CH3*
G04 #@! TO.N,Net-(U1-MTDO{slash}GPIO15{slash}ADC2_CH3)*
X93980000Y-101600000D03*
G04 #@! TO.P,U1,24,ADC2_CH2/GPIO2*
G04 #@! TO.N,Net-(U1-ADC2_CH2{slash}GPIO2)*
X96520000Y-101600000D03*
G04 #@! TO.P,U1,25,GPIO0/BOOT/ADC2_CH1*
G04 #@! TO.N,unconnected-(U1-GPIO0{slash}BOOT{slash}ADC2_CH1-Pad25)*
X99060000Y-101600000D03*
G04 #@! TO.P,U1,26,ADC2_CH0/GPIO4*
G04 #@! TO.N,unconnected-(U1-ADC2_CH0{slash}GPIO4-Pad26)*
X101600000Y-101600000D03*
G04 #@! TO.P,U1,27,GPIO16*
G04 #@! TO.N,Net-(U1-GPIO16)*
X104140000Y-101600000D03*
G04 #@! TO.P,U1,28,GPIO17*
G04 #@! TO.N,Net-(U1-GPIO17)*
X106680000Y-101600000D03*
G04 #@! TO.P,U1,29,GPIO5*
G04 #@! TO.N,unconnected-(U1-GPIO5-Pad29)*
X109220000Y-101600000D03*
G04 #@! TO.P,U1,30,GPIO18*
G04 #@! TO.N,Net-(U1-GPIO18)*
X111760000Y-101600000D03*
G04 #@! TO.P,U1,31,GPIO19*
G04 #@! TO.N,Net-(U1-GPIO19)*
X114300000Y-101600000D03*
G04 #@! TO.P,U1,32,GND*
G04 #@! TO.N,GND*
X116840000Y-101600000D03*
G04 #@! TO.P,U1,33,GPIO21*
G04 #@! TO.N,Net-(U1-GPIO21)*
X119380000Y-101600000D03*
G04 #@! TO.P,U1,34,U0RXD/GPIO3*
G04 #@! TO.N,unconnected-(U1-U0RXD{slash}GPIO3-Pad34)*
X121920000Y-101600000D03*
G04 #@! TO.P,U1,35,U0TXD/GPIO1*
G04 #@! TO.N,unconnected-(U1-U0TXD{slash}GPIO1-Pad35)*
X124460000Y-101600000D03*
G04 #@! TO.P,U1,36,GPIO22*
G04 #@! TO.N,Net-(U1-GPIO22)*
X127000000Y-101600000D03*
G04 #@! TO.P,U1,37,GPIO23*
G04 #@! TO.N,Net-(U1-GPIO23)*
X129540000Y-101600000D03*
G04 #@! TO.P,U1,38,GND*
G04 #@! TO.N,GND*
X132080000Y-101600000D03*
G04 #@! TD*
D10*
G04 #@! TO.P,R12,1*
G04 #@! TO.N,Net-(J4-Pin_7)*
X149860000Y-107950000D03*
D11*
G04 #@! TO.P,R12,2*
G04 #@! TO.N,Net-(U1-MTCK{slash}GPIO13{slash}ADC2_CH4)*
X142240000Y-107950000D03*
G04 #@! TD*
D18*
G04 #@! TO.P,D1,1,K*
G04 #@! TO.N,+5V*
X157480000Y-92705000D03*
D19*
G04 #@! TO.P,D1,2,A*
G04 #@! TO.N,Net-(D1-A)*
X157480000Y-100325000D03*
G04 #@! TD*
D20*
G04 #@! TO.P,C1,1*
G04 #@! TO.N,+5V*
X153710000Y-118110000D03*
G04 #@! TO.P,C1,2*
G04 #@! TO.N,GND*
X158710000Y-118110000D03*
G04 #@! TD*
D10*
G04 #@! TO.P,R8,1*
G04 #@! TO.N,Net-(U1-MTDI{slash}GPIO12{slash}ADC2_CH5)*
X149860000Y-105410000D03*
D11*
G04 #@! TO.P,R8,2*
G04 #@! TO.N,Net-(J4-Pin_8)*
X142240000Y-105410000D03*
G04 #@! TD*
D10*
G04 #@! TO.P,R10,1*
G04 #@! TO.N,Net-(U1-DAC_1{slash}ADC2_CH8{slash}GPIO25)*
X142240000Y-95250000D03*
D11*
G04 #@! TO.P,R10,2*
G04 #@! TO.N,Net-(J4-Pin_4)*
X149860000Y-95250000D03*
G04 #@! TD*
D10*
G04 #@! TO.P,R6,1*
G04 #@! TO.N,+3V3*
X142240000Y-90170000D03*
D11*
G04 #@! TO.P,R6,2*
G04 #@! TO.N,Net-(U1-VDET_2{slash}GPIO35{slash}ADC1_CH7)*
X149860000Y-90170000D03*
G04 #@! TD*
D14*
G04 #@! TO.P,J2,1,Pin_1*
G04 #@! TO.N,GND*
X142240000Y-74930000D03*
D15*
G04 #@! TO.P,J2,2,Pin_2*
G04 #@! TO.N,Net-(J2-Pin_2)*
X144780000Y-74930000D03*
G04 #@! TO.P,J2,3,Pin_3*
G04 #@! TO.N,Net-(J2-Pin_3)*
X147320000Y-74930000D03*
G04 #@! TO.P,J2,4,Pin_4*
G04 #@! TO.N,+5V*
X149860000Y-74930000D03*
G04 #@! TD*
D10*
G04 #@! TO.P,R11,1*
G04 #@! TO.N,Net-(U1-VDET_2{slash}GPIO35{slash}ADC1_CH7)*
X142240000Y-92710000D03*
D11*
G04 #@! TO.P,R11,2*
G04 #@! TO.N,Net-(J4-Pin_2)*
X149860000Y-92710000D03*
G04 #@! TD*
D10*
G04 #@! TO.P,R1,1*
G04 #@! TO.N,+3V3*
X149860000Y-80010000D03*
D11*
G04 #@! TO.P,R1,2*
G04 #@! TO.N,Net-(J2-Pin_2)*
X142240000Y-80010000D03*
G04 #@! TD*
D10*
G04 #@! TO.P,R7,1*
G04 #@! TO.N,+3V3*
X142240000Y-87630000D03*
D11*
G04 #@! TO.P,R7,2*
G04 #@! TO.N,Net-(U1-MTDI{slash}GPIO12{slash}ADC2_CH5)*
X149860000Y-87630000D03*
G04 #@! TD*
D21*
G04 #@! TO.P,D2,1,K*
G04 #@! TO.N,GND*
X138430000Y-116840000D03*
D22*
G04 #@! TO.P,D2,2,A*
G04 #@! TO.N,Net-(D2-A)*
X135890000Y-116840000D03*
G04 #@! TD*
D23*
G04 #@! TO.P,SW1,*
G04 #@! TO.N,*
X162600000Y-90190000D03*
X162600000Y-97190000D03*
D24*
G04 #@! TO.P,SW1,1,1*
G04 #@! TO.N,Net-(U1-VDET_1{slash}GPIO34{slash}ADC1_CH6)*
X165100000Y-91440000D03*
G04 #@! TO.P,SW1,2,2*
G04 #@! TO.N,GND*
X165100000Y-95940000D03*
G04 #@! TD*
D14*
G04 #@! TO.P,J4,1,Pin_1*
G04 #@! TO.N,Net-(D1-A)*
X157480000Y-104145000D03*
D15*
G04 #@! TO.P,J4,2,Pin_2*
G04 #@! TO.N,Net-(J4-Pin_2)*
X160020000Y-104145000D03*
G04 #@! TO.P,J4,3,Pin_3*
G04 #@! TO.N,Net-(J4-Pin_3)*
X157480000Y-106685000D03*
G04 #@! TO.P,J4,4,Pin_4*
G04 #@! TO.N,Net-(J4-Pin_4)*
X160020000Y-106685000D03*
G04 #@! TO.P,J4,5,Pin_5*
G04 #@! TO.N,Net-(J4-Pin_5)*
X157480000Y-109225000D03*
G04 #@! TO.P,J4,6,Pin_6*
G04 #@! TO.N,Net-(J4-Pin_6)*
X160020000Y-109225000D03*
G04 #@! TO.P,J4,7,Pin_7*
G04 #@! TO.N,Net-(J4-Pin_7)*
X157480000Y-111765000D03*
G04 #@! TO.P,J4,8,Pin_8*
G04 #@! TO.N,Net-(J4-Pin_8)*
X160020000Y-111765000D03*
G04 #@! TO.P,J4,9,Pin_9*
G04 #@! TO.N,GND*
X157480000Y-114305000D03*
G04 #@! TO.P,J4,10,Pin_10*
G04 #@! TO.N,unconnected-(J4-Pin_10-Pad10)*
X160020000Y-114305000D03*
G04 #@! TD*
D10*
G04 #@! TO.P,R3,1*
G04 #@! TO.N,Net-(J2-Pin_3)*
X135890000Y-77470000D03*
D11*
G04 #@! TO.P,R3,2*
G04 #@! TO.N,Net-(U1-32K_XN{slash}GPIO33{slash}ADC1_CH5)*
X135890000Y-69850000D03*
G04 #@! TD*
D12*
G04 #@! TO.P,J1,1*
G04 #@! TO.N,Net-(J2-Pin_2)*
X161450000Y-74700000D03*
D20*
G04 #@! TO.P,J1,2*
G04 #@! TO.N,unconnected-(J1-Pad2)*
X161450000Y-77300000D03*
G04 #@! TO.P,J1,3*
G04 #@! TO.N,GND*
X161450000Y-72600000D03*
G04 #@! TO.P,J1,4*
G04 #@! TO.N,+5V*
X161450000Y-79400000D03*
G04 #@! TO.P,J1,5*
G04 #@! TO.N,Net-(J2-Pin_3)*
X158650000Y-72600000D03*
G04 #@! TO.P,J1,6*
G04 #@! TO.N,Net-(JP1-A)*
X158650000Y-79400000D03*
D25*
G04 #@! TO.P,J1,7*
G04 #@! TO.N,N/C*
X164300000Y-82850000D03*
D26*
X165100000Y-76000000D03*
D25*
X164300000Y-69150000D03*
G04 #@! TD*
D10*
G04 #@! TO.P,R13,1*
G04 #@! TO.N,Net-(J4-Pin_5)*
X149860000Y-102870000D03*
D11*
G04 #@! TO.P,R13,2*
G04 #@! TO.N,Net-(U1-DAC_2{slash}ADC2_CH9{slash}GPIO26)*
X142240000Y-102870000D03*
G04 #@! TD*
D27*
G04 #@! TO.N,Net-(U1-DAC_1{slash}ADC2_CH8{slash}GPIO25)*
X116840000Y-95250000D03*
G04 #@! TD*
D28*
G04 #@! TO.N,+5V*
X157480000Y-82550000D02*
X149860000Y-74930000D01*
X161450000Y-81120000D02*
X160020000Y-82550000D01*
X149860000Y-113030000D02*
X149860000Y-111760000D01*
X161450000Y-79400000D02*
X161450000Y-81120000D01*
X95250000Y-111125000D02*
X91440000Y-107315000D01*
X149225000Y-111125000D02*
X95250000Y-111125000D01*
X91440000Y-107315000D02*
X91440000Y-106680000D01*
X149860000Y-111760000D02*
X149225000Y-111125000D01*
X160020000Y-82550000D02*
X157480000Y-82550000D01*
G04 #@! TO.N,Net-(D1-A)*
X157480000Y-104145000D02*
X157480000Y-100325000D01*
D29*
G04 #@! TO.N,Net-(D2-A)*
X135890000Y-116840000D02*
X133350000Y-116840000D01*
G04 #@! TO.N,Net-(J2-Pin_2)*
X145415000Y-73660000D02*
X144780000Y-74295000D01*
X161450000Y-74700000D02*
X158520000Y-74700000D01*
X157480000Y-73660000D02*
X145415000Y-73660000D01*
X158520000Y-74700000D02*
X157480000Y-73660000D01*
X144780000Y-74295000D02*
X144780000Y-74930000D01*
G04 #@! TO.N,Net-(U1-VDET_1{slash}GPIO34{slash}ADC1_CH6)*
X129540000Y-85090000D02*
X121920000Y-77470000D01*
X162560000Y-85090000D02*
X129540000Y-85090000D01*
X163830000Y-86360000D02*
X162560000Y-85090000D01*
X121920000Y-77470000D02*
X121920000Y-76200000D01*
X165100000Y-86360000D02*
X163830000Y-86360000D01*
G04 #@! TO.N,Net-(U1-VDET_2{slash}GPIO35{slash}ADC1_CH7)*
X144780000Y-90170000D02*
X149860000Y-90170000D01*
X119380000Y-77525100D02*
X97790000Y-99115100D01*
X142240000Y-92710000D02*
X144780000Y-90170000D01*
X119380000Y-76200000D02*
X119380000Y-77525100D01*
X97790000Y-102870000D02*
X93980000Y-106680000D01*
X97790000Y-99115100D02*
X97790000Y-102870000D01*
G04 #@! TO.N,Net-(U1-MTDI{slash}GPIO12{slash}ADC2_CH5)*
X102235000Y-74295000D02*
X120015000Y-74295000D01*
X120015000Y-74295000D02*
X120650000Y-74930000D01*
X101600000Y-74930000D02*
X102235000Y-74295000D01*
X127635000Y-85725000D02*
X146685000Y-85725000D01*
X146685000Y-85725000D02*
X148590000Y-87630000D01*
X120650000Y-78740000D02*
X127635000Y-85725000D01*
X120650000Y-74930000D02*
X120650000Y-78740000D01*
X101600000Y-76200000D02*
X101600000Y-74930000D01*
X148590000Y-87630000D02*
X149860000Y-87630000D01*
G04 #@! TO.N,Net-(U1-ADC2_CH7{slash}GPIO27)*
X140970000Y-100330000D02*
X142240000Y-100330000D01*
X134620000Y-106680000D02*
X140970000Y-100330000D01*
X109220000Y-106680000D02*
X134620000Y-106680000D01*
G04 #@! TO.N,Net-(U1-DAC_1{slash}ADC2_CH8{slash}GPIO25)*
X116840000Y-95250000D02*
X142240000Y-95250000D01*
G04 #@! TO.N,Net-(U1-DAC_2{slash}ADC2_CH9{slash}GPIO26)*
X101600000Y-107315000D02*
X102235000Y-107950000D01*
X102235000Y-107950000D02*
X135890000Y-107950000D01*
X101600000Y-106680000D02*
X101600000Y-107315000D01*
X135890000Y-107950000D02*
X140970000Y-102870000D01*
X140970000Y-102870000D02*
X142240000Y-102870000D01*
G04 #@! TO.N,Net-(U1-GPIO23)*
X139065000Y-99695000D02*
X140970000Y-97790000D01*
X129540000Y-100330000D02*
X130175000Y-99695000D01*
X130175000Y-99695000D02*
X139065000Y-99695000D01*
X129540000Y-101600000D02*
X129540000Y-100330000D01*
X140970000Y-97790000D02*
X142240000Y-97790000D01*
G04 #@! TO.N,Net-(U1-ADC2_CH2{slash}GPIO2)*
X90170000Y-106045000D02*
X90170000Y-108585000D01*
X96520000Y-101600000D02*
X96520000Y-102925100D01*
X96520000Y-102925100D02*
X94670100Y-104775000D01*
X90170000Y-108585000D02*
X93980000Y-112395000D01*
X94670100Y-104775000D02*
X91440000Y-104775000D01*
X91440000Y-104775000D02*
X90170000Y-106045000D01*
X93980000Y-112395000D02*
X121285000Y-112395000D01*
X121285000Y-112395000D02*
X125730000Y-116840000D01*
G04 #@! TO.N,Net-(U1-MTDO{slash}GPIO15{slash}ADC2_CH3)*
X90804302Y-104140000D02*
X89535000Y-105409302D01*
X89535000Y-109220000D02*
X93321900Y-113006900D01*
X92710000Y-104140000D02*
X90804302Y-104140000D01*
X100306900Y-113006900D02*
X101600000Y-114300000D01*
X93980000Y-102870000D02*
X92710000Y-104140000D01*
X93321900Y-113006900D02*
X100306900Y-113006900D01*
X89535000Y-105409302D02*
X89535000Y-109220000D01*
X93980000Y-101600000D02*
X93980000Y-102870000D01*
G04 #@! TO.N,Net-(U1-GPIO21)*
X99060000Y-105410000D02*
X99060000Y-106680000D01*
X118745000Y-103505000D02*
X100965000Y-103505000D01*
X100965000Y-103505000D02*
X99060000Y-105410000D01*
X119380000Y-102870000D02*
X118745000Y-103505000D01*
X119380000Y-101600000D02*
X119380000Y-102870000D01*
G04 #@! TO.N,Net-(U1-GPIO22)*
X127000000Y-102925100D02*
X125150100Y-104775000D01*
X107315000Y-104775000D02*
X106680000Y-105410000D01*
X106680000Y-105410000D02*
X106680000Y-106680000D01*
X125150100Y-104775000D02*
X107315000Y-104775000D01*
X127000000Y-101600000D02*
X127000000Y-102925100D01*
G04 #@! TO.N,Net-(J4-Pin_8)*
X154940000Y-109855000D02*
X149225000Y-109855000D01*
X159385000Y-111125000D02*
X158750000Y-110490000D01*
X149225000Y-109855000D02*
X144780000Y-105410000D01*
X144780000Y-105410000D02*
X142240000Y-105410000D01*
X155575000Y-110490000D02*
X154940000Y-109855000D01*
X159385000Y-111130000D02*
X159385000Y-111125000D01*
X158750000Y-110490000D02*
X155575000Y-110490000D01*
X160020000Y-111765000D02*
X159385000Y-111130000D01*
G04 #@! TD*
G04 #@! TA.AperFunction,Conductor*
G04 #@! TO.N,GND*
G36*
X146860507Y-112820156D02*
G01*
X146820000Y-112958111D01*
X146820000Y-113101889D01*
X146860507Y-113239844D01*
X146886314Y-113280000D01*
X145213686Y-113280000D01*
X145239493Y-113239844D01*
X145280000Y-113101889D01*
X145280000Y-112958111D01*
X145239493Y-112820156D01*
X145213686Y-112780000D01*
X146886314Y-112780000D01*
X146860507Y-112820156D01*
G37*
G04 #@! TD.AperFunction*
G04 #@! TA.AperFunction,Conductor*
G36*
X119940162Y-77948220D02*
G01*
X119997384Y-77988314D01*
X120023845Y-78052979D01*
X120024500Y-78065706D01*
X120024500Y-78657255D01*
X120022775Y-78672872D01*
X120023061Y-78672899D01*
X120022326Y-78680665D01*
X120024500Y-78749814D01*
X120024500Y-78779343D01*
X120024501Y-78779360D01*
X120025368Y-78786231D01*
X120025826Y-78792050D01*
X120027290Y-78838624D01*
X120027291Y-78838627D01*
X120032880Y-78857867D01*
X120036824Y-78876911D01*
X120039336Y-78896792D01*
X120052782Y-78930753D01*
X120056490Y-78940119D01*
X120058382Y-78945647D01*
X120071381Y-78990388D01*
X120081580Y-79007634D01*
X120090138Y-79025103D01*
X120097514Y-79043732D01*
X120124898Y-79081423D01*
X120128106Y-79086307D01*
X120151827Y-79126416D01*
X120151833Y-79126424D01*
X120165990Y-79140580D01*
X120178627Y-79155375D01*
X120190406Y-79171587D01*
X120222045Y-79197761D01*
X120226309Y-79201288D01*
X120230620Y-79205210D01*
X123751075Y-82725665D01*
X127134194Y-86108784D01*
X127144019Y-86121048D01*
X127144240Y-86120866D01*
X127149210Y-86126873D01*
X127149213Y-86126876D01*
X127149214Y-86126877D01*
X127199651Y-86174241D01*
X127220530Y-86195120D01*
X127226004Y-86199366D01*
X127230442Y-86203156D01*
X127264418Y-86235062D01*
X127264422Y-86235064D01*
X127281973Y-86244713D01*
X127298231Y-86255392D01*
X127314064Y-86267674D01*
X127336015Y-86277172D01*
X127356837Y-86286183D01*
X127362081Y-86288752D01*
X127402908Y-86311197D01*
X127422312Y-86316179D01*
X127440710Y-86322478D01*
X127459105Y-86330438D01*
X127505129Y-86337726D01*
X127510832Y-86338907D01*
X127555981Y-86350500D01*
X127576016Y-86350500D01*
X127595413Y-86352026D01*
X127615196Y-86355160D01*
X127661584Y-86350775D01*
X127667422Y-86350500D01*
X141590204Y-86350500D01*
X141657243Y-86370185D01*
X141702998Y-86422989D01*
X141712942Y-86492147D01*
X141683917Y-86555703D01*
X141655481Y-86579927D01*
X141513439Y-86667874D01*
X141513437Y-86667876D01*
X141349020Y-86817761D01*
X141214943Y-86995308D01*
X141214938Y-86995316D01*
X141115775Y-87194461D01*
X141115769Y-87194476D01*
X141054885Y-87408462D01*
X141054884Y-87408464D01*
X141034357Y-87629999D01*
X141034357Y-87630000D01*
X141054884Y-87851535D01*
X141054885Y-87851537D01*
X141115769Y-88065523D01*
X141115775Y-88065538D01*
X141214938Y-88264683D01*
X141214943Y-88264691D01*
X141349020Y-88442238D01*
X141513437Y-88592123D01*
X141513439Y-88592125D01*
X141702595Y-88709245D01*
X141702596Y-88709245D01*
X141702599Y-88709247D01*
X141896524Y-88784374D01*
X141951924Y-88826946D01*
X141975515Y-88892713D01*
X141959804Y-88960793D01*
X141909780Y-89009572D01*
X141896533Y-89015622D01*
X141748488Y-89072975D01*
X141702601Y-89090752D01*
X141702595Y-89090754D01*
X141513439Y-89207874D01*
X141513437Y-89207876D01*
X141349020Y-89357761D01*
X141214943Y-89535308D01*
X141214938Y-89535316D01*
X141115775Y-89734461D01*
X141115769Y-89734476D01*
X141054885Y-89948462D01*
X141054884Y-89948464D01*
X141034357Y-90169999D01*
X141034357Y-90170000D01*
X141054884Y-90391535D01*
X141054885Y-90391537D01*
X141115769Y-90605523D01*
X141115775Y-90605538D01*
X141214938Y-90804683D01*
X141214943Y-90804691D01*
X141349020Y-90982238D01*
X141513437Y-91132123D01*
X141513439Y-91132125D01*
X141702595Y-91249245D01*
X141702596Y-91249245D01*
X141702599Y-91249247D01*
X141896524Y-91324374D01*
X141951924Y-91366946D01*
X141975515Y-91432713D01*
X141959804Y-91500793D01*
X141909780Y-91549572D01*
X141896533Y-91555622D01*
X141788551Y-91597455D01*
X141702601Y-91630752D01*
X141702595Y-91630754D01*
X141513439Y-91747874D01*
X141513437Y-91747876D01*
X141349020Y-91897761D01*
X141214943Y-92075308D01*
X141214938Y-92075316D01*
X141115775Y-92274461D01*
X141115769Y-92274476D01*
X141054885Y-92488462D01*
X141054884Y-92488464D01*
X141034357Y-92709999D01*
X141034357Y-92710000D01*
X141054884Y-92931535D01*
X141054885Y-92931537D01*
X141115769Y-93145523D01*
X141115775Y-93145538D01*
X141214938Y-93344683D01*
X141214943Y-93344691D01*
X141349020Y-93522238D01*
X141513437Y-93672123D01*
X141513439Y-93672125D01*
X141702595Y-93789245D01*
X141702596Y-93789245D01*
X141702599Y-93789247D01*
X141896524Y-93864374D01*
X141951924Y-93906946D01*
X141975515Y-93972713D01*
X141959804Y-94040793D01*
X141909780Y-94089572D01*
X141896533Y-94095622D01*
X141748488Y-94152975D01*
X141702601Y-94170752D01*
X141702595Y-94170754D01*
X141513439Y-94287874D01*
X141513437Y-94287876D01*
X141349020Y-94437761D01*
X141245212Y-94575227D01*
X141189103Y-94616863D01*
X141146258Y-94624500D01*
X117543748Y-94624500D01*
X117476709Y-94604815D01*
X117451600Y-94583474D01*
X117445873Y-94577114D01*
X117445869Y-94577110D01*
X117292734Y-94465851D01*
X117292729Y-94465848D01*
X117119807Y-94388857D01*
X117119802Y-94388855D01*
X116974001Y-94357865D01*
X116934646Y-94349500D01*
X116745354Y-94349500D01*
X116712897Y-94356398D01*
X116560197Y-94388855D01*
X116560192Y-94388857D01*
X116387270Y-94465848D01*
X116387265Y-94465851D01*
X116234129Y-94577111D01*
X116107466Y-94717785D01*
X116012821Y-94881715D01*
X116012818Y-94881722D01*
X115965140Y-95028462D01*
X115954326Y-95061744D01*
X115934540Y-95250000D01*
X115954326Y-95438256D01*
X115954327Y-95438259D01*
X116012818Y-95618277D01*
X116012821Y-95618284D01*
X116107467Y-95782216D01*
X116199736Y-95884691D01*
X116234129Y-95922888D01*
X116387265Y-96034148D01*
X116387270Y-96034151D01*
X116560192Y-96111142D01*
X116560197Y-96111144D01*
X116745354Y-96150500D01*
X116745355Y-96150500D01*
X116934644Y-96150500D01*
X116934646Y-96150500D01*
X117119803Y-96111144D01*
X117292730Y-96034151D01*
X117445871Y-95922888D01*
X117448788Y-95919647D01*
X117451600Y-95916526D01*
X117511087Y-95879879D01*
X117543748Y-95875500D01*
X141146258Y-95875500D01*
X141213297Y-95895185D01*
X141245212Y-95924773D01*
X141349020Y-96062238D01*
X141513437Y-96212123D01*
X141513439Y-96212125D01*
X141702595Y-96329245D01*
X141702596Y-96329245D01*
X141702599Y-96329247D01*
X141896524Y-96404374D01*
X141951924Y-96446946D01*
X141975515Y-96512713D01*
X141959804Y-96580793D01*
X141909780Y-96629572D01*
X141896533Y-96635622D01*
X141748488Y-96692975D01*
X141702601Y-96710752D01*
X141702595Y-96710754D01*
X141513439Y-96827874D01*
X141513437Y-96827876D01*
X141349020Y-96977761D01*
X141245212Y-97115227D01*
X141189103Y-97156863D01*
X141146258Y-97164500D01*
X141052743Y-97164500D01*
X141037122Y-97162775D01*
X141037096Y-97163061D01*
X141029334Y-97162327D01*
X141029333Y-97162327D01*
X140960186Y-97164500D01*
X140930649Y-97164500D01*
X140923766Y-97165369D01*
X140917949Y-97165826D01*
X140871373Y-97167290D01*
X140852129Y-97172881D01*
X140833079Y-97176825D01*
X140813211Y-97179334D01*
X140769884Y-97196488D01*
X140764358Y-97198379D01*
X140719614Y-97211379D01*
X140719610Y-97211381D01*
X140702366Y-97221579D01*
X140684905Y-97230133D01*
X140666274Y-97237510D01*
X140666262Y-97237517D01*
X140628570Y-97264902D01*
X140623687Y-97268109D01*
X140583580Y-97291829D01*
X140569414Y-97305995D01*
X140554624Y-97318627D01*
X140538414Y-97330404D01*
X140538411Y-97330407D01*
X140508710Y-97366309D01*
X140504777Y-97370631D01*
X138842228Y-99033181D01*
X138780905Y-99066666D01*
X138754547Y-99069500D01*
X130257743Y-99069500D01*
X130242122Y-99067775D01*
X130242095Y-99068061D01*
X130234333Y-99067326D01*
X130165172Y-99069500D01*
X130135649Y-99069500D01*
X130128778Y-99070367D01*
X130122959Y-99070825D01*
X130076374Y-99072289D01*
X130076368Y-99072290D01*
X130057126Y-99077880D01*
X130038087Y-99081823D01*
X130018217Y-99084334D01*
X130018203Y-99084337D01*
X129974883Y-99101488D01*
X129969358Y-99103380D01*
X129924613Y-99116380D01*
X129924610Y-99116381D01*
X129907366Y-99126579D01*
X129889905Y-99135133D01*
X129871274Y-99142510D01*
X129871262Y-99142517D01*
X129833570Y-99169902D01*
X129828687Y-99173109D01*
X129788580Y-99196829D01*
X129774414Y-99210995D01*
X129759624Y-99223627D01*
X129743414Y-99235404D01*
X129743411Y-99235407D01*
X129713710Y-99271309D01*
X129709777Y-99275631D01*
X129156208Y-99829199D01*
X129143951Y-99839020D01*
X129144134Y-99839241D01*
X129138123Y-99844213D01*
X129090772Y-99894636D01*
X129069889Y-99915519D01*
X129069877Y-99915532D01*
X129065621Y-99921017D01*
X129061837Y-99925447D01*
X129029937Y-99959418D01*
X129029936Y-99959420D01*
X129020284Y-99976976D01*
X129009610Y-99993226D01*
X128997329Y-100009061D01*
X128997324Y-100009068D01*
X128978815Y-100051838D01*
X128976245Y-100057084D01*
X128953803Y-100097906D01*
X128948822Y-100117307D01*
X128942521Y-100135710D01*
X128934562Y-100154102D01*
X128934561Y-100154105D01*
X128927271Y-100200127D01*
X128926087Y-100205846D01*
X128912560Y-100258534D01*
X128909617Y-100257778D01*
X128887322Y-100308846D01*
X128864191Y-100330230D01*
X128816055Y-100364508D01*
X128816047Y-100364515D01*
X128671012Y-100516623D01*
X128557388Y-100693425D01*
X128479274Y-100888544D01*
X128440209Y-101091234D01*
X128439500Y-101094915D01*
X128439500Y-102052425D01*
X128453136Y-102195227D01*
X128454472Y-102209217D01*
X128454473Y-102209221D01*
X128513628Y-102410686D01*
X128513684Y-102410875D01*
X128563019Y-102506572D01*
X128609991Y-102597686D01*
X128739905Y-102762883D01*
X128739909Y-102762887D01*
X128898746Y-102900521D01*
X129080750Y-103005601D01*
X129080752Y-103005601D01*
X129080756Y-103005604D01*
X129279367Y-103074344D01*
X129487398Y-103104254D01*
X129697330Y-103094254D01*
X129901576Y-103044704D01*
X130012278Y-102994148D01*
X130092743Y-102957401D01*
X130092746Y-102957399D01*
X130092753Y-102957396D01*
X130263952Y-102835486D01*
X130264317Y-102835104D01*
X130408985Y-102683379D01*
X130464057Y-102597686D01*
X130522613Y-102506572D01*
X130600725Y-102311457D01*
X130640500Y-102105085D01*
X130640500Y-101147575D01*
X130625528Y-100990782D01*
X130566316Y-100789125D01*
X130470011Y-100602318D01*
X130470009Y-100602316D01*
X130470008Y-100602313D01*
X130406181Y-100521152D01*
X130380213Y-100456288D01*
X130393435Y-100387681D01*
X130441650Y-100337113D01*
X130503651Y-100320500D01*
X131110619Y-100320500D01*
X131177658Y-100340185D01*
X131223413Y-100392989D01*
X131233357Y-100462147D01*
X131212569Y-100510655D01*
X131214602Y-100511962D01*
X131097833Y-100693657D01*
X131019755Y-100888685D01*
X130980000Y-101094962D01*
X130980000Y-101350000D01*
X131764314Y-101350000D01*
X131752359Y-101361955D01*
X131694835Y-101474852D01*
X131675014Y-101600000D01*
X131694835Y-101725148D01*
X131752359Y-101838045D01*
X131764314Y-101850000D01*
X130980000Y-101850000D01*
X130980000Y-102052398D01*
X130994965Y-102209122D01*
X130994966Y-102209126D01*
X131054149Y-102410686D01*
X131150413Y-102597414D01*
X131280268Y-102762537D01*
X131280271Y-102762540D01*
X131439030Y-102900105D01*
X131439041Y-102900114D01*
X131620960Y-103005144D01*
X131620967Y-103005147D01*
X131819487Y-103073856D01*
X131830000Y-103075367D01*
X131830000Y-101915686D01*
X131841955Y-101927641D01*
X131954852Y-101985165D01*
X132048519Y-102000000D01*
X132111481Y-102000000D01*
X132205148Y-101985165D01*
X132318045Y-101927641D01*
X132330000Y-101915686D01*
X132330000Y-103071257D01*
X132441409Y-103044229D01*
X132632507Y-102956959D01*
X132803619Y-102835110D01*
X132803625Y-102835104D01*
X132948592Y-102683067D01*
X133062166Y-102506342D01*
X133140244Y-102311314D01*
X133180000Y-102105037D01*
X133180000Y-101850000D01*
X132395686Y-101850000D01*
X132407641Y-101838045D01*
X132465165Y-101725148D01*
X132484986Y-101600000D01*
X132465165Y-101474852D01*
X132407641Y-101361955D01*
X132395686Y-101350000D01*
X133180000Y-101350000D01*
X133180000Y-101147601D01*
X133165034Y-100990877D01*
X133165033Y-100990873D01*
X133105850Y-100789313D01*
X133009586Y-100602585D01*
X132945546Y-100521152D01*
X132919577Y-100456287D01*
X132932800Y-100387680D01*
X132981016Y-100337113D01*
X133043016Y-100320500D01*
X138982257Y-100320500D01*
X138997877Y-100322224D01*
X138997904Y-100321939D01*
X139005660Y-100322671D01*
X139005667Y-100322673D01*
X139074814Y-100320500D01*
X139104350Y-100320500D01*
X139111228Y-100319630D01*
X139117041Y-100319172D01*
X139163627Y-100317709D01*
X139182869Y-100312117D01*
X139201912Y-100308174D01*
X139221792Y-100305664D01*
X139265122Y-100288507D01*
X139270646Y-100286617D01*
X139274396Y-100285527D01*
X139315390Y-100273618D01*
X139332629Y-100263422D01*
X139350103Y-100254862D01*
X139368727Y-100247488D01*
X139368727Y-100247487D01*
X139368732Y-100247486D01*
X139406449Y-100220082D01*
X139411305Y-100216892D01*
X139451420Y-100193170D01*
X139465589Y-100178999D01*
X139480379Y-100166368D01*
X139496587Y-100154594D01*
X139526299Y-100118676D01*
X139530212Y-100114376D01*
X141116316Y-98528273D01*
X141177637Y-98494790D01*
X141247329Y-98499774D01*
X141302949Y-98541230D01*
X141349016Y-98602233D01*
X141349018Y-98602236D01*
X141513437Y-98752123D01*
X141513439Y-98752125D01*
X141702595Y-98869245D01*
X141702596Y-98869245D01*
X141702599Y-98869247D01*
X141896524Y-98944374D01*
X141951924Y-98986946D01*
X141975515Y-99052713D01*
X141959804Y-99120793D01*
X141909780Y-99169572D01*
X141896533Y-99175622D01*
X141787418Y-99217894D01*
X141702601Y-99250752D01*
X141702595Y-99250754D01*
X141513439Y-99367874D01*
X141513437Y-99367876D01*
X141349020Y-99517761D01*
X141245212Y-99655227D01*
X141189103Y-99696863D01*
X141146258Y-99704500D01*
X141052738Y-99704500D01*
X141037121Y-99702776D01*
X141037094Y-99703062D01*
X141029332Y-99702327D01*
X140960204Y-99704500D01*
X140930650Y-99704500D01*
X140929929Y-99704590D01*
X140923757Y-99705369D01*
X140917945Y-99705826D01*
X140871373Y-99707290D01*
X140871372Y-99707290D01*
X140852129Y-99712881D01*
X140833079Y-99716825D01*
X140813211Y-99719334D01*
X140813209Y-99719335D01*
X140769884Y-99736488D01*
X140764357Y-99738380D01*
X140719610Y-99751381D01*
X140719609Y-99751382D01*
X140702367Y-99761579D01*
X140684899Y-99770137D01*
X140666269Y-99777513D01*
X140666267Y-99777514D01*
X140628576Y-99804898D01*
X140623694Y-99808105D01*
X140583579Y-99831830D01*
X140569408Y-99846000D01*
X140554623Y-99858628D01*
X140538412Y-99870407D01*
X140508709Y-99906310D01*
X140504776Y-99910631D01*
X137435507Y-102979902D01*
X134397228Y-106018181D01*
X134335905Y-106051666D01*
X134309547Y-106054500D01*
X110434188Y-106054500D01*
X110367149Y-106034815D01*
X110332613Y-106001623D01*
X110220045Y-105840858D01*
X110059141Y-105679954D01*
X109982193Y-105626075D01*
X109938568Y-105571499D01*
X109931374Y-105502000D01*
X109962897Y-105439645D01*
X110023126Y-105404231D01*
X110053316Y-105400500D01*
X125067357Y-105400500D01*
X125082977Y-105402224D01*
X125083004Y-105401939D01*
X125090760Y-105402671D01*
X125090767Y-105402673D01*
X125159914Y-105400500D01*
X125189450Y-105400500D01*
X125196328Y-105399630D01*
X125202141Y-105399172D01*
X125248727Y-105397709D01*
X125267969Y-105392117D01*
X125287012Y-105388174D01*
X125306892Y-105385664D01*
X125350222Y-105368507D01*
X125355746Y-105366617D01*
X125362609Y-105364623D01*
X125400490Y-105353618D01*
X125417729Y-105343422D01*
X125435203Y-105334862D01*
X125453827Y-105327488D01*
X125453827Y-105327487D01*
X125453832Y-105327486D01*
X125491549Y-105300082D01*
X125496405Y-105296892D01*
X125536520Y-105273170D01*
X125550686Y-105259003D01*
X125565481Y-105246368D01*
X125568719Y-105244014D01*
X125581687Y-105234594D01*
X125611402Y-105198674D01*
X125615302Y-105194387D01*
X127383786Y-103425902D01*
X127396048Y-103416080D01*
X127395865Y-103415859D01*
X127401867Y-103410892D01*
X127401877Y-103410886D01*
X127449241Y-103360448D01*
X127470120Y-103339570D01*
X127474373Y-103334086D01*
X127478150Y-103329663D01*
X127510062Y-103295682D01*
X127519714Y-103278123D01*
X127530389Y-103261872D01*
X127542674Y-103246036D01*
X127561186Y-103203252D01*
X127563742Y-103198035D01*
X127586197Y-103157192D01*
X127591180Y-103137780D01*
X127597477Y-103119391D01*
X127605438Y-103100995D01*
X127612729Y-103054953D01*
X127613908Y-103049262D01*
X127625500Y-103004119D01*
X127625500Y-102984083D01*
X127627027Y-102964685D01*
X127629627Y-102948269D01*
X127659556Y-102885135D01*
X127680169Y-102866662D01*
X127723952Y-102835486D01*
X127724317Y-102835104D01*
X127868985Y-102683379D01*
X127924057Y-102597686D01*
X127982613Y-102506572D01*
X128060725Y-102311457D01*
X128100500Y-102105085D01*
X128100500Y-101147575D01*
X128085528Y-100990782D01*
X128026316Y-100789125D01*
X127930011Y-100602318D01*
X127930009Y-100602316D01*
X127930008Y-100602313D01*
X127800094Y-100437116D01*
X127800090Y-100437112D01*
X127641253Y-100299478D01*
X127459249Y-100194398D01*
X127459245Y-100194396D01*
X127459244Y-100194396D01*
X127260633Y-100125656D01*
X127052602Y-100095746D01*
X127052598Y-100095746D01*
X126842672Y-100105745D01*
X126638421Y-100155296D01*
X126638417Y-100155298D01*
X126447256Y-100242598D01*
X126447251Y-100242601D01*
X126276046Y-100364515D01*
X126276040Y-100364520D01*
X126131014Y-100516620D01*
X126017388Y-100693425D01*
X125939274Y-100888544D01*
X125900209Y-101091234D01*
X125899500Y-101094915D01*
X125899500Y-102052425D01*
X125913136Y-102195227D01*
X125914472Y-102209217D01*
X125914473Y-102209221D01*
X125973628Y-102410686D01*
X125973684Y-102410875D01*
X126023019Y-102506572D01*
X126069991Y-102597686D01*
X126166085Y-102719878D01*
X126192053Y-102784743D01*
X126178831Y-102853350D01*
X126156296Y-102884211D01*
X124927328Y-104113181D01*
X124866005Y-104146666D01*
X124839647Y-104149500D01*
X119287133Y-104149500D01*
X119220094Y-104129815D01*
X119174339Y-104077011D01*
X119164395Y-104007853D01*
X119191583Y-103946467D01*
X119198736Y-103937819D01*
X119206302Y-103928673D01*
X119210211Y-103924377D01*
X119763786Y-103370802D01*
X119776048Y-103360980D01*
X119775865Y-103360759D01*
X119781867Y-103355792D01*
X119781877Y-103355786D01*
X119829241Y-103305348D01*
X119850120Y-103284470D01*
X119854373Y-103278986D01*
X119858150Y-103274563D01*
X119890062Y-103240582D01*
X119899714Y-103223023D01*
X119910389Y-103206772D01*
X119922674Y-103190936D01*
X119941186Y-103148152D01*
X119943742Y-103142935D01*
X119963773Y-103106501D01*
X119966194Y-103102098D01*
X119966195Y-103102095D01*
X119966197Y-103102092D01*
X119971180Y-103082680D01*
X119977477Y-103064291D01*
X119985438Y-103045895D01*
X119992729Y-102999853D01*
X119993909Y-102994158D01*
X120005500Y-102949019D01*
X120007441Y-102941461D01*
X120010390Y-102942218D01*
X120032645Y-102891191D01*
X120055807Y-102869768D01*
X120103952Y-102835486D01*
X120104317Y-102835104D01*
X120248985Y-102683379D01*
X120304057Y-102597686D01*
X120362613Y-102506572D01*
X120440725Y-102311457D01*
X120480500Y-102105085D01*
X120480500Y-102052425D01*
X120819500Y-102052425D01*
X120833136Y-102195227D01*
X120834472Y-102209217D01*
X120834473Y-102209221D01*
X120893628Y-102410686D01*
X120893684Y-102410875D01*
X120943019Y-102506572D01*
X120989991Y-102597686D01*
X121119905Y-102762883D01*
X121119909Y-102762887D01*
X121278746Y-102900521D01*
X121460750Y-103005601D01*
X121460752Y-103005601D01*
X121460756Y-103005604D01*
X121659367Y-103074344D01*
X121867398Y-103104254D01*
X122077330Y-103094254D01*
X122281576Y-103044704D01*
X122392278Y-102994148D01*
X122472743Y-102957401D01*
X122472746Y-102957399D01*
X122472753Y-102957396D01*
X122643952Y-102835486D01*
X122644317Y-102835104D01*
X122788985Y-102683379D01*
X122844057Y-102597686D01*
X122902613Y-102506572D01*
X122980725Y-102311457D01*
X123020500Y-102105085D01*
X123020500Y-102052425D01*
X123359500Y-102052425D01*
X123373136Y-102195227D01*
X123374472Y-102209217D01*
X123374473Y-102209221D01*
X123433628Y-102410686D01*
X123433684Y-102410875D01*
X123483019Y-102506572D01*
X123529991Y-102597686D01*
X123659905Y-102762883D01*
X123659909Y-102762887D01*
X123818746Y-102900521D01*
X124000750Y-103005601D01*
X124000752Y-103005601D01*
X124000756Y-103005604D01*
X124199367Y-103074344D01*
X124407398Y-103104254D01*
X124617330Y-103094254D01*
X124821576Y-103044704D01*
X124932278Y-102994148D01*
X125012743Y-102957401D01*
X125012746Y-102957399D01*
X125012753Y-102957396D01*
X125183952Y-102835486D01*
X125184317Y-102835104D01*
X125328985Y-102683379D01*
X125384057Y-102597686D01*
X125442613Y-102506572D01*
X125520725Y-102311457D01*
X125560500Y-102105085D01*
X125560500Y-101147575D01*
X125545528Y-100990782D01*
X125486316Y-100789125D01*
X125390011Y-100602318D01*
X125390009Y-100602316D01*
X125390008Y-100602313D01*
X125260094Y-100437116D01*
X125260090Y-100437112D01*
X125101253Y-100299478D01*
X124919249Y-100194398D01*
X124919245Y-100194396D01*
X124919244Y-100194396D01*
X124720633Y-100125656D01*
X124512602Y-100095746D01*
X124512598Y-100095746D01*
X124302672Y-100105745D01*
X124098421Y-100155296D01*
X124098417Y-100155298D01*
X123907256Y-100242598D01*
X123907251Y-100242601D01*
X123736046Y-100364515D01*
X123736040Y-100364520D01*
X123591014Y-100516620D01*
X123477388Y-100693425D01*
X123399274Y-100888544D01*
X123360209Y-101091234D01*
X123359500Y-101094915D01*
X123359500Y-102052425D01*
X123020500Y-102052425D01*
X123020500Y-101147575D01*
X123005528Y-100990782D01*
X122946316Y-100789125D01*
X122850011Y-100602318D01*
X122850009Y-100602316D01*
X122850008Y-100602313D01*
X122720094Y-100437116D01*
X122720090Y-100437112D01*
X122561253Y-100299478D01*
X122379249Y-100194398D01*
X122379245Y-100194396D01*
X122379244Y-100194396D01*
X122180633Y-100125656D01*
X121972602Y-100095746D01*
X121972598Y-100095746D01*
X121762672Y-100105745D01*
X121558421Y-100155296D01*
X121558417Y-100155298D01*
X121367256Y-100242598D01*
X121367251Y-100242601D01*
X121196046Y-100364515D01*
X121196040Y-100364520D01*
X121051014Y-100516620D01*
X120937388Y-100693425D01*
X120859274Y-100888544D01*
X120820209Y-101091234D01*
X120819500Y-101094915D01*
X120819500Y-102052425D01*
X120480500Y-102052425D01*
X120480500Y-101147575D01*
X120465528Y-100990782D01*
X120406316Y-100789125D01*
X120310011Y-100602318D01*
X120310009Y-100602316D01*
X120310008Y-100602313D01*
X120180094Y-100437116D01*
X120180090Y-100437112D01*
X120021253Y-100299478D01*
X119839249Y-100194398D01*
X119839245Y-100194396D01*
X119839244Y-100194396D01*
X119640633Y-100125656D01*
X119432602Y-100095746D01*
X119432598Y-100095746D01*
X119222672Y-100105745D01*
X119018421Y-100155296D01*
X119018417Y-100155298D01*
X118827256Y-100242598D01*
X118827251Y-100242601D01*
X118656046Y-100364515D01*
X118656040Y-100364520D01*
X118511014Y-100516620D01*
X118397388Y-100693425D01*
X118319274Y-100888544D01*
X118280209Y-101091234D01*
X118279500Y-101094915D01*
X118279500Y-102052425D01*
X118293136Y-102195227D01*
X118294472Y-102209217D01*
X118294473Y-102209221D01*
X118353628Y-102410686D01*
X118353684Y-102410875D01*
X118403019Y-102506572D01*
X118449991Y-102597686D01*
X118513819Y-102678848D01*
X118539787Y-102743712D01*
X118526565Y-102812319D01*
X118478350Y-102862887D01*
X118416349Y-102879500D01*
X117809381Y-102879500D01*
X117742342Y-102859815D01*
X117696587Y-102807011D01*
X117686643Y-102737853D01*
X117707430Y-102689344D01*
X117705398Y-102688038D01*
X117822166Y-102506342D01*
X117900244Y-102311314D01*
X117940000Y-102105037D01*
X117940000Y-101850000D01*
X117155686Y-101850000D01*
X117167641Y-101838045D01*
X117225165Y-101725148D01*
X117244986Y-101600000D01*
X117225165Y-101474852D01*
X117167641Y-101361955D01*
X117155686Y-101350000D01*
X117940000Y-101350000D01*
X117940000Y-101147601D01*
X117925034Y-100990877D01*
X117925033Y-100990873D01*
X117865850Y-100789313D01*
X117769586Y-100602585D01*
X117639731Y-100437462D01*
X117639728Y-100437459D01*
X117480969Y-100299894D01*
X117480958Y-100299885D01*
X117299039Y-100194855D01*
X117299032Y-100194852D01*
X117100516Y-100126144D01*
X117090000Y-100124632D01*
X117090000Y-101284314D01*
X117078045Y-101272359D01*
X116965148Y-101214835D01*
X116871481Y-101200000D01*
X116808519Y-101200000D01*
X116714852Y-101214835D01*
X116601955Y-101272359D01*
X116590000Y-101284314D01*
X116590000Y-100128740D01*
X116589999Y-100128740D01*
X116478594Y-100155768D01*
X116478582Y-100155772D01*
X116287497Y-100243037D01*
X116287496Y-100243038D01*
X116116380Y-100364889D01*
X116116374Y-100364895D01*
X115971407Y-100516932D01*
X115857833Y-100693657D01*
X115779755Y-100888685D01*
X115740000Y-101094962D01*
X115740000Y-101350000D01*
X116524314Y-101350000D01*
X116512359Y-101361955D01*
X116454835Y-101474852D01*
X116435014Y-101600000D01*
X116454835Y-101725148D01*
X116512359Y-101838045D01*
X116524314Y-101850000D01*
X115740000Y-101850000D01*
X115740000Y-102052398D01*
X115754965Y-102209122D01*
X115754966Y-102209126D01*
X115814149Y-102410686D01*
X115910413Y-102597414D01*
X115974454Y-102678848D01*
X116000423Y-102743713D01*
X115987200Y-102812320D01*
X115938984Y-102862887D01*
X115876984Y-102879500D01*
X115270019Y-102879500D01*
X115202980Y-102859815D01*
X115157225Y-102807011D01*
X115147281Y-102737853D01*
X115167917Y-102689712D01*
X115165793Y-102688347D01*
X115226425Y-102594002D01*
X115282613Y-102506572D01*
X115360725Y-102311457D01*
X115400500Y-102105085D01*
X115400500Y-101147575D01*
X115385528Y-100990782D01*
X115326316Y-100789125D01*
X115230011Y-100602318D01*
X115230009Y-100602316D01*
X115230008Y-100602313D01*
X115100094Y-100437116D01*
X115100090Y-100437112D01*
X114941253Y-100299478D01*
X114759249Y-100194398D01*
X114759245Y-100194396D01*
X114759244Y-100194396D01*
X114560633Y-100125656D01*
X114352602Y-100095746D01*
X114352598Y-100095746D01*
X114142672Y-100105745D01*
X113938421Y-100155296D01*
X113938417Y-100155298D01*
X113747256Y-100242598D01*
X113747251Y-100242601D01*
X113576046Y-100364515D01*
X113576040Y-100364520D01*
X113431014Y-100516620D01*
X113317388Y-100693425D01*
X113239274Y-100888544D01*
X113200209Y-101091234D01*
X113199500Y-101094915D01*
X113199500Y-102052425D01*
X113213136Y-102195227D01*
X113214472Y-102209217D01*
X113214473Y-102209221D01*
X113273628Y-102410686D01*
X113273684Y-102410875D01*
X113323019Y-102506572D01*
X113369991Y-102597686D01*
X113433819Y-102678848D01*
X113459787Y-102743712D01*
X113446565Y-102812319D01*
X113398350Y-102862887D01*
X113336349Y-102879500D01*
X112730019Y-102879500D01*
X112662980Y-102859815D01*
X112617225Y-102807011D01*
X112607281Y-102737853D01*
X112627917Y-102689712D01*
X112625793Y-102688347D01*
X112686425Y-102594002D01*
X112742613Y-102506572D01*
X112820725Y-102311457D01*
X112860500Y-102105085D01*
X112860500Y-101147575D01*
X112845528Y-100990782D01*
X112786316Y-100789125D01*
X112690011Y-100602318D01*
X112690009Y-100602316D01*
X112690008Y-100602313D01*
X112560094Y-100437116D01*
X112560090Y-100437112D01*
X112401253Y-100299478D01*
X112219249Y-100194398D01*
X112219245Y-100194396D01*
X112219244Y-100194396D01*
X112020633Y-100125656D01*
X111812602Y-100095746D01*
X111812598Y-100095746D01*
X111602672Y-100105745D01*
X111398421Y-100155296D01*
X111398417Y-100155298D01*
X111207256Y-100242598D01*
X111207251Y-100242601D01*
X111036046Y-100364515D01*
X111036040Y-100364520D01*
X110891014Y-100516620D01*
X110777388Y-100693425D01*
X110699274Y-100888544D01*
X110660209Y-101091234D01*
X110659500Y-101094915D01*
X110659500Y-102052425D01*
X110673136Y-102195227D01*
X110674472Y-102209217D01*
X110674473Y-102209221D01*
X110733628Y-102410686D01*
X110733684Y-102410875D01*
X110783019Y-102506572D01*
X110829991Y-102597686D01*
X110893819Y-102678848D01*
X110919787Y-102743712D01*
X110906565Y-102812319D01*
X110858350Y-102862887D01*
X110796349Y-102879500D01*
X110190019Y-102879500D01*
X110122980Y-102859815D01*
X110077225Y-102807011D01*
X110067281Y-102737853D01*
X110087917Y-102689712D01*
X110085793Y-102688347D01*
X110146425Y-102594002D01*
X110202613Y-102506572D01*
X110280725Y-102311457D01*
X110320500Y-102105085D01*
X110320500Y-101147575D01*
X110305528Y-100990782D01*
X110246316Y-100789125D01*
X110150011Y-100602318D01*
X110150009Y-100602316D01*
X110150008Y-100602313D01*
X110020094Y-100437116D01*
X110020090Y-100437112D01*
X109861253Y-100299478D01*
X109679249Y-100194398D01*
X109679245Y-100194396D01*
X109679244Y-100194396D01*
X109480633Y-100125656D01*
X109272602Y-100095746D01*
X109272598Y-100095746D01*
X109062672Y-100105745D01*
X108858421Y-100155296D01*
X108858417Y-100155298D01*
X108667256Y-100242598D01*
X108667251Y-100242601D01*
X108496046Y-100364515D01*
X108496040Y-100364520D01*
X108351014Y-100516620D01*
X108237388Y-100693425D01*
X108159274Y-100888544D01*
X108120209Y-101091234D01*
X108119500Y-101094915D01*
X108119500Y-102052425D01*
X108133136Y-102195227D01*
X108134472Y-102209217D01*
X108134473Y-102209221D01*
X108193628Y-102410686D01*
X108193684Y-102410875D01*
X108243019Y-102506572D01*
X108289991Y-102597686D01*
X108353819Y-102678848D01*
X108379787Y-102743712D01*
X108366565Y-102812319D01*
X108318350Y-102862887D01*
X108256349Y-102879500D01*
X107650019Y-102879500D01*
X107582980Y-102859815D01*
X107537225Y-102807011D01*
X107527281Y-102737853D01*
X107547917Y-102689712D01*
X107545793Y-102688347D01*
X107606425Y-102594002D01*
X107662613Y-102506572D01*
X107740725Y-102311457D01*
X107780500Y-102105085D01*
X107780500Y-101147575D01*
X107765528Y-100990782D01*
X107706316Y-100789125D01*
X107610011Y-100602318D01*
X107610009Y-100602316D01*
X107610008Y-100602313D01*
X107480094Y-100437116D01*
X107480090Y-100437112D01*
X107321253Y-100299478D01*
X107139249Y-100194398D01*
X107139245Y-100194396D01*
X107139244Y-100194396D01*
X106940633Y-100125656D01*
X106732602Y-100095746D01*
X106732598Y-100095746D01*
X106522672Y-100105745D01*
X106318421Y-100155296D01*
X106318417Y-100155298D01*
X106127256Y-100242598D01*
X106127251Y-100242601D01*
X105956046Y-100364515D01*
X105956040Y-100364520D01*
X105811014Y-100516620D01*
X105697388Y-100693425D01*
X105619274Y-100888544D01*
X105580209Y-101091234D01*
X105579500Y-101094915D01*
X105579500Y-102052425D01*
X105593136Y-102195227D01*
X105594472Y-102209217D01*
X105594473Y-102209221D01*
X105653628Y-102410686D01*
X105653684Y-102410875D01*
X105703019Y-102506572D01*
X105749991Y-102597686D01*
X105813819Y-102678848D01*
X105839787Y-102743712D01*
X105826565Y-102812319D01*
X105778350Y-102862887D01*
X105716349Y-102879500D01*
X105110019Y-102879500D01*
X105042980Y-102859815D01*
X104997225Y-102807011D01*
X104987281Y-102737853D01*
X105007917Y-102689712D01*
X105005793Y-102688347D01*
X105066425Y-102594002D01*
X105122613Y-102506572D01*
X105200725Y-102311457D01*
X105240500Y-102105085D01*
X105240500Y-101147575D01*
X105225528Y-100990782D01*
X105166316Y-100789125D01*
X105070011Y-100602318D01*
X105070009Y-100602316D01*
X105070008Y-100602313D01*
X104940094Y-100437116D01*
X104940090Y-100437112D01*
X104781253Y-100299478D01*
X104599249Y-100194398D01*
X104599245Y-100194396D01*
X104599244Y-100194396D01*
X104400633Y-100125656D01*
X104192602Y-100095746D01*
X104192598Y-100095746D01*
X103982672Y-100105745D01*
X103778421Y-100155296D01*
X103778417Y-100155298D01*
X103587256Y-100242598D01*
X103587251Y-100242601D01*
X103416046Y-100364515D01*
X103416040Y-100364520D01*
X103271014Y-100516620D01*
X103157388Y-100693425D01*
X103079274Y-100888544D01*
X103040209Y-101091234D01*
X103039500Y-101094915D01*
X103039500Y-102052425D01*
X103053136Y-102195227D01*
X103054472Y-102209217D01*
X103054473Y-102209221D01*
X103113628Y-102410686D01*
X103113684Y-102410875D01*
X103163019Y-102506572D01*
X103209991Y-102597686D01*
X103273819Y-102678848D01*
X103299787Y-102743712D01*
X103286565Y-102812319D01*
X103238350Y-102862887D01*
X103176349Y-102879500D01*
X102570019Y-102879500D01*
X102502980Y-102859815D01*
X102457225Y-102807011D01*
X102447281Y-102737853D01*
X102467917Y-102689712D01*
X102465793Y-102688347D01*
X102526425Y-102594002D01*
X102582613Y-102506572D01*
X102660725Y-102311457D01*
X102700500Y-102105085D01*
X102700500Y-101147575D01*
X102685528Y-100990782D01*
X102626316Y-100789125D01*
X102530011Y-100602318D01*
X102530009Y-100602316D01*
X102530008Y-100602313D01*
X102400094Y-100437116D01*
X102400090Y-100437112D01*
X102241253Y-100299478D01*
X102059249Y-100194398D01*
X102059245Y-100194396D01*
X102059244Y-100194396D01*
X101860633Y-100125656D01*
X101652602Y-100095746D01*
X101652598Y-100095746D01*
X101442672Y-100105745D01*
X101238421Y-100155296D01*
X101238417Y-100155298D01*
X101047256Y-100242598D01*
X101047251Y-100242601D01*
X100876046Y-100364515D01*
X100876040Y-100364520D01*
X100731014Y-100516620D01*
X100617388Y-100693425D01*
X100539274Y-100888544D01*
X100500209Y-101091234D01*
X100499500Y-101094915D01*
X100499500Y-102052425D01*
X100513136Y-102195227D01*
X100514472Y-102209217D01*
X100514473Y-102209221D01*
X100573628Y-102410686D01*
X100573684Y-102410875D01*
X100623019Y-102506572D01*
X100669991Y-102597686D01*
X100775103Y-102731345D01*
X100801071Y-102796210D01*
X100787849Y-102864817D01*
X100739633Y-102915384D01*
X100721671Y-102923046D01*
X100721773Y-102923282D01*
X100714610Y-102926381D01*
X100697366Y-102936579D01*
X100679905Y-102945133D01*
X100661274Y-102952510D01*
X100661262Y-102952517D01*
X100623570Y-102979902D01*
X100618687Y-102983109D01*
X100578580Y-103006829D01*
X100564414Y-103020995D01*
X100549624Y-103033627D01*
X100533414Y-103045404D01*
X100533411Y-103045407D01*
X100503710Y-103081309D01*
X100499777Y-103085631D01*
X98676208Y-104909199D01*
X98663951Y-104919020D01*
X98664134Y-104919241D01*
X98658123Y-104924213D01*
X98610772Y-104974636D01*
X98589889Y-104995519D01*
X98589877Y-104995532D01*
X98585621Y-105001017D01*
X98581837Y-105005447D01*
X98549937Y-105039418D01*
X98549936Y-105039420D01*
X98540284Y-105056976D01*
X98529610Y-105073226D01*
X98517329Y-105089061D01*
X98517324Y-105089068D01*
X98498815Y-105131838D01*
X98496245Y-105137084D01*
X98473803Y-105177906D01*
X98468822Y-105197307D01*
X98462521Y-105215710D01*
X98454562Y-105234102D01*
X98454561Y-105234105D01*
X98447271Y-105280127D01*
X98446087Y-105285846D01*
X98434501Y-105330972D01*
X98434500Y-105330982D01*
X98434500Y-105351016D01*
X98432973Y-105370415D01*
X98429951Y-105389498D01*
X98429840Y-105390196D01*
X98431082Y-105403334D01*
X98434225Y-105436583D01*
X98434500Y-105442421D01*
X98434500Y-105465811D01*
X98414815Y-105532850D01*
X98381623Y-105567386D01*
X98220859Y-105679953D01*
X98059954Y-105840858D01*
X97929432Y-106027265D01*
X97929431Y-106027267D01*
X97918054Y-106051666D01*
X97908657Y-106071819D01*
X97902382Y-106085275D01*
X97856209Y-106137714D01*
X97789016Y-106156866D01*
X97722135Y-106136650D01*
X97677618Y-106085275D01*
X97677384Y-106084773D01*
X97650568Y-106027266D01*
X97520047Y-105840861D01*
X97520045Y-105840858D01*
X97359141Y-105679954D01*
X97172734Y-105549432D01*
X97172732Y-105549431D01*
X96966497Y-105453261D01*
X96966488Y-105453258D01*
X96746697Y-105394366D01*
X96746693Y-105394365D01*
X96746692Y-105394365D01*
X96746691Y-105394364D01*
X96746686Y-105394364D01*
X96520002Y-105374532D01*
X96519996Y-105374532D01*
X96475894Y-105378390D01*
X96407394Y-105364623D01*
X96357212Y-105316007D01*
X96341279Y-105247978D01*
X96364655Y-105182135D01*
X96377401Y-105167187D01*
X98173786Y-103370802D01*
X98186048Y-103360980D01*
X98185865Y-103360759D01*
X98191867Y-103355792D01*
X98191877Y-103355786D01*
X98239241Y-103305348D01*
X98260120Y-103284470D01*
X98264373Y-103278986D01*
X98268150Y-103274563D01*
X98300062Y-103240582D01*
X98309714Y-103223023D01*
X98320389Y-103206772D01*
X98332674Y-103190936D01*
X98351186Y-103148152D01*
X98353742Y-103142935D01*
X98373773Y-103106501D01*
X98376194Y-103102098D01*
X98376195Y-103102095D01*
X98376197Y-103102092D01*
X98381180Y-103082680D01*
X98387480Y-103064283D01*
X98395159Y-103046538D01*
X98439850Y-102992832D01*
X98506483Y-102971813D01*
X98570960Y-102988402D01*
X98600749Y-103005601D01*
X98600748Y-103005601D01*
X98600755Y-103005603D01*
X98600756Y-103005604D01*
X98799367Y-103074344D01*
X99007398Y-103104254D01*
X99217330Y-103094254D01*
X99421576Y-103044704D01*
X99532278Y-102994148D01*
X99612743Y-102957401D01*
X99612746Y-102957399D01*
X99612753Y-102957396D01*
X99783952Y-102835486D01*
X99784317Y-102835104D01*
X99928985Y-102683379D01*
X99984057Y-102597686D01*
X100042613Y-102506572D01*
X100120725Y-102311457D01*
X100160500Y-102105085D01*
X100160500Y-101147575D01*
X100145528Y-100990782D01*
X100086316Y-100789125D01*
X99990011Y-100602318D01*
X99990009Y-100602316D01*
X99990008Y-100602313D01*
X99860094Y-100437116D01*
X99860090Y-100437112D01*
X99701253Y-100299478D01*
X99519249Y-100194398D01*
X99519245Y-100194396D01*
X99519244Y-100194396D01*
X99320633Y-100125656D01*
X99112602Y-100095746D01*
X99112598Y-100095746D01*
X98902672Y-100105745D01*
X98698421Y-100155296D01*
X98698417Y-100155298D01*
X98591011Y-100204349D01*
X98521853Y-100214293D01*
X98458297Y-100185268D01*
X98420523Y-100126490D01*
X98415500Y-100091555D01*
X98415500Y-99425552D01*
X98435185Y-99358513D01*
X98451819Y-99337871D01*
X109080445Y-88709245D01*
X119763788Y-78025901D01*
X119776042Y-78016086D01*
X119775859Y-78015864D01*
X119781867Y-78010892D01*
X119781877Y-78010886D01*
X119810108Y-77980821D01*
X119870348Y-77945428D01*
X119940162Y-77948220D01*
G37*
G04 #@! TD.AperFunction*
G04 #@! TA.AperFunction,Conductor*
G36*
X165101619Y-66040584D02*
G01*
X165233628Y-66047503D01*
X165417027Y-66057803D01*
X165423212Y-66058465D01*
X165575647Y-66082608D01*
X165738194Y-66110226D01*
X165743811Y-66111453D01*
X165896693Y-66152418D01*
X165989122Y-66179046D01*
X166051724Y-66197082D01*
X166056759Y-66198769D01*
X166206183Y-66256127D01*
X166354007Y-66317358D01*
X166358412Y-66319388D01*
X166424180Y-66352899D01*
X166501921Y-66392511D01*
X166577428Y-66434241D01*
X166641480Y-66469641D01*
X166645215Y-66471882D01*
X166719487Y-66520115D01*
X166780872Y-66559980D01*
X166868357Y-66622053D01*
X166910764Y-66652142D01*
X166913886Y-66654510D01*
X167038748Y-66755621D01*
X167041034Y-66757567D01*
X167158721Y-66862738D01*
X167161248Y-66865128D01*
X167274870Y-66978750D01*
X167277260Y-66981277D01*
X167382431Y-67098964D01*
X167384385Y-67101260D01*
X167485480Y-67226102D01*
X167487862Y-67229243D01*
X167580019Y-67359127D01*
X167633758Y-67441875D01*
X167668106Y-67494767D01*
X167670364Y-67498531D01*
X167747488Y-67638078D01*
X167820604Y-67781575D01*
X167822643Y-67785997D01*
X167883877Y-67933829D01*
X167941221Y-68083217D01*
X167942916Y-68088273D01*
X167987579Y-68243297D01*
X168028541Y-68396171D01*
X168029778Y-68401835D01*
X168057394Y-68564369D01*
X168081530Y-68716758D01*
X168082196Y-68722985D01*
X168092509Y-68906617D01*
X168099415Y-69038377D01*
X168099500Y-69041623D01*
X168099500Y-119038376D01*
X168099415Y-119041622D01*
X168092509Y-119173382D01*
X168082196Y-119357013D01*
X168081530Y-119363240D01*
X168057394Y-119515630D01*
X168029778Y-119678163D01*
X168028541Y-119683827D01*
X167987579Y-119836702D01*
X167942916Y-119991725D01*
X167941221Y-119996781D01*
X167883877Y-120146170D01*
X167822643Y-120294001D01*
X167820604Y-120298423D01*
X167747488Y-120441921D01*
X167670364Y-120581467D01*
X167668097Y-120585246D01*
X167580019Y-120720872D01*
X167487862Y-120850755D01*
X167485480Y-120853896D01*
X167384385Y-120978738D01*
X167382431Y-120981034D01*
X167277260Y-121098721D01*
X167274870Y-121101248D01*
X167161248Y-121214870D01*
X167158721Y-121217260D01*
X167041034Y-121322431D01*
X167038738Y-121324385D01*
X166913896Y-121425480D01*
X166910755Y-121427862D01*
X166780872Y-121520019D01*
X166645246Y-121608097D01*
X166641467Y-121610364D01*
X166501921Y-121687488D01*
X166358423Y-121760604D01*
X166354001Y-121762643D01*
X166206170Y-121823877D01*
X166056781Y-121881221D01*
X166051725Y-121882916D01*
X165939832Y-121915153D01*
X165905503Y-121920000D01*
X85294496Y-121920000D01*
X85260167Y-121915153D01*
X85148273Y-121882916D01*
X85143216Y-121881221D01*
X84993829Y-121823877D01*
X84845997Y-121762643D01*
X84841575Y-121760604D01*
X84698078Y-121687488D01*
X84558531Y-121610364D01*
X84554767Y-121608106D01*
X84501875Y-121573758D01*
X84419127Y-121520019D01*
X84289243Y-121427862D01*
X84286102Y-121425480D01*
X84161260Y-121324385D01*
X84158964Y-121322431D01*
X84041277Y-121217260D01*
X84038750Y-121214870D01*
X83925128Y-121101248D01*
X83922738Y-121098721D01*
X83817567Y-120981034D01*
X83815613Y-120978738D01*
X83776848Y-120930867D01*
X83714510Y-120853886D01*
X83712136Y-120850755D01*
X83619980Y-120720872D01*
X83587406Y-120670715D01*
X83531882Y-120585215D01*
X83529641Y-120581480D01*
X83494241Y-120517428D01*
X83452511Y-120441921D01*
X83406214Y-120351060D01*
X83379388Y-120298412D01*
X83377358Y-120294007D01*
X83316122Y-120146170D01*
X83258769Y-119996759D01*
X83257082Y-119991724D01*
X83212420Y-119836702D01*
X83171453Y-119683811D01*
X83170226Y-119678194D01*
X83142601Y-119515606D01*
X83118465Y-119363212D01*
X83117803Y-119357027D01*
X83107490Y-119173382D01*
X83100584Y-119041620D01*
X83100500Y-119038377D01*
X83100500Y-118607763D01*
X84745787Y-118607763D01*
X84775413Y-118877013D01*
X84775415Y-118877024D01*
X84843926Y-119139082D01*
X84843928Y-119139088D01*
X84949870Y-119388390D01*
X84966396Y-119415468D01*
X85090979Y-119619605D01*
X85090986Y-119619615D01*
X85264253Y-119827819D01*
X85264259Y-119827824D01*
X85425649Y-119972429D01*
X85465998Y-120008582D01*
X85691910Y-120158044D01*
X85937176Y-120273020D01*
X85937183Y-120273022D01*
X85937185Y-120273023D01*
X86196557Y-120351057D01*
X86196564Y-120351058D01*
X86196569Y-120351060D01*
X86464561Y-120390500D01*
X86464566Y-120390500D01*
X86667636Y-120390500D01*
X86719133Y-120386730D01*
X86870156Y-120375677D01*
X86982758Y-120350593D01*
X87134546Y-120316782D01*
X87134548Y-120316781D01*
X87134553Y-120316780D01*
X87387558Y-120220014D01*
X87623777Y-120087441D01*
X87838177Y-119921888D01*
X88026186Y-119726881D01*
X88183799Y-119506579D01*
X88271364Y-119336264D01*
X88307649Y-119265690D01*
X88307651Y-119265684D01*
X88307656Y-119265675D01*
X88395118Y-119009305D01*
X88444319Y-118742933D01*
X88449259Y-118607763D01*
X142745787Y-118607763D01*
X142775413Y-118877013D01*
X142775415Y-118877024D01*
X142843926Y-119139082D01*
X142843928Y-119139088D01*
X142949870Y-119388390D01*
X142966396Y-119415468D01*
X143090979Y-119619605D01*
X143090986Y-119619615D01*
X143264253Y-119827819D01*
X143264259Y-119827824D01*
X143425649Y-119972429D01*
X143465998Y-120008582D01*
X143691910Y-120158044D01*
X143937176Y-120273020D01*
X143937183Y-120273022D01*
X143937185Y-120273023D01*
X144196557Y-120351057D01*
X144196564Y-120351058D01*
X144196569Y-120351060D01*
X144464561Y-120390500D01*
X144464566Y-120390500D01*
X144667636Y-120390500D01*
X144719133Y-120386730D01*
X144870156Y-120375677D01*
X144982758Y-120350593D01*
X145134546Y-120316782D01*
X145134548Y-120316781D01*
X145134553Y-120316780D01*
X145387558Y-120220014D01*
X145623777Y-120087441D01*
X145838177Y-119921888D01*
X146026186Y-119726881D01*
X146183799Y-119506579D01*
X146271364Y-119336264D01*
X146307649Y-119265690D01*
X146307651Y-119265684D01*
X146307656Y-119265675D01*
X146395118Y-119009305D01*
X146444319Y-118742933D01*
X146454212Y-118472235D01*
X146424586Y-118202982D01*
X146400278Y-118110001D01*
X152404532Y-118110001D01*
X152424364Y-118336686D01*
X152424366Y-118336697D01*
X152483258Y-118556488D01*
X152483261Y-118556497D01*
X152579431Y-118762732D01*
X152579432Y-118762734D01*
X152709954Y-118949141D01*
X152870858Y-119110045D01*
X152870861Y-119110047D01*
X153057266Y-119240568D01*
X153263504Y-119336739D01*
X153483308Y-119395635D01*
X153645230Y-119409801D01*
X153709998Y-119415468D01*
X153710000Y-119415468D01*
X153710002Y-119415468D01*
X153766673Y-119410509D01*
X153936692Y-119395635D01*
X154156496Y-119336739D01*
X154362734Y-119240568D01*
X154549139Y-119110047D01*
X154710047Y-118949139D01*
X154840568Y-118762734D01*
X154936739Y-118556496D01*
X154995635Y-118336692D01*
X155015468Y-118110002D01*
X157405034Y-118110002D01*
X157424858Y-118336599D01*
X157424860Y-118336610D01*
X157483730Y-118556317D01*
X157483734Y-118556326D01*
X157579865Y-118762481D01*
X157579866Y-118762483D01*
X157630973Y-118835471D01*
X157630974Y-118835472D01*
X158312046Y-118154399D01*
X158324835Y-118235148D01*
X158382359Y-118348045D01*
X158471955Y-118437641D01*
X158584852Y-118495165D01*
X158665599Y-118507953D01*
X157984526Y-119189025D01*
X157984526Y-119189026D01*
X158057512Y-119240131D01*
X158057516Y-119240133D01*
X158263673Y-119336265D01*
X158263682Y-119336269D01*
X158483389Y-119395139D01*
X158483400Y-119395141D01*
X158709998Y-119414966D01*
X158710002Y-119414966D01*
X158936599Y-119395141D01*
X158936610Y-119395139D01*
X159156317Y-119336269D01*
X159156331Y-119336264D01*
X159362478Y-119240136D01*
X159435472Y-119189025D01*
X158754401Y-118507953D01*
X158835148Y-118495165D01*
X158948045Y-118437641D01*
X159037641Y-118348045D01*
X159095165Y-118235148D01*
X159107953Y-118154400D01*
X159789025Y-118835472D01*
X159840136Y-118762478D01*
X159936264Y-118556331D01*
X159936269Y-118556317D01*
X159995139Y-118336610D01*
X159995141Y-118336599D01*
X160014966Y-118110002D01*
X160014966Y-118109997D01*
X159995141Y-117883400D01*
X159995139Y-117883389D01*
X159936269Y-117663682D01*
X159936265Y-117663673D01*
X159840133Y-117457516D01*
X159840131Y-117457512D01*
X159789026Y-117384526D01*
X159789025Y-117384526D01*
X159107953Y-118065598D01*
X159095165Y-117984852D01*
X159037641Y-117871955D01*
X158948045Y-117782359D01*
X158835148Y-117724835D01*
X158754400Y-117712046D01*
X159435472Y-117030974D01*
X159435471Y-117030973D01*
X159362483Y-116979866D01*
X159362481Y-116979865D01*
X159156326Y-116883734D01*
X159156317Y-116883730D01*
X158936610Y-116824860D01*
X158936599Y-116824858D01*
X158710002Y-116805034D01*
X158709998Y-116805034D01*
X158483400Y-116824858D01*
X158483389Y-116824860D01*
X158263682Y-116883730D01*
X158263673Y-116883734D01*
X158057513Y-116979868D01*
X157984527Y-117030972D01*
X157984526Y-117030973D01*
X158665600Y-117712046D01*
X158584852Y-117724835D01*
X158471955Y-117782359D01*
X158382359Y-117871955D01*
X158324835Y-117984852D01*
X158312046Y-118065599D01*
X157630973Y-117384526D01*
X157630972Y-117384527D01*
X157579868Y-117457513D01*
X157483734Y-117663673D01*
X157483730Y-117663682D01*
X157424860Y-117883389D01*
X157424858Y-117883400D01*
X157405034Y-118109997D01*
X157405034Y-118110002D01*
X155015468Y-118110002D01*
X155015468Y-118110000D01*
X154995635Y-117883308D01*
X154936739Y-117663504D01*
X154840568Y-117457266D01*
X154710047Y-117270861D01*
X154710045Y-117270858D01*
X154549141Y-117109954D01*
X154362734Y-116979432D01*
X154362732Y-116979431D01*
X154156497Y-116883261D01*
X154156488Y-116883258D01*
X153936697Y-116824366D01*
X153936693Y-116824365D01*
X153936692Y-116824365D01*
X153936691Y-116824364D01*
X153936686Y-116824364D01*
X153710002Y-116804532D01*
X153709998Y-116804532D01*
X153483313Y-116824364D01*
X153483302Y-116824366D01*
X153263511Y-116883258D01*
X153263502Y-116883261D01*
X153057267Y-116979431D01*
X153057265Y-116979432D01*
X152870858Y-117109954D01*
X152709954Y-117270858D01*
X152579432Y-117457265D01*
X152579431Y-117457267D01*
X152483261Y-117663502D01*
X152483258Y-117663511D01*
X152424366Y-117883302D01*
X152424364Y-117883313D01*
X152404532Y-118109998D01*
X152404532Y-118110001D01*
X146400278Y-118110001D01*
X146356072Y-117940912D01*
X146250130Y-117691610D01*
X146109018Y-117460390D01*
X146019747Y-117353119D01*
X145935746Y-117252180D01*
X145935740Y-117252175D01*
X145734002Y-117071418D01*
X145508092Y-116921957D01*
X145426555Y-116883734D01*
X145262824Y-116806980D01*
X145262819Y-116806978D01*
X145262814Y-116806976D01*
X145003442Y-116728942D01*
X145003428Y-116728939D01*
X144887791Y-116711921D01*
X144735439Y-116689500D01*
X144532369Y-116689500D01*
X144532364Y-116689500D01*
X144329844Y-116704323D01*
X144329831Y-116704325D01*
X144065453Y-116763217D01*
X144065446Y-116763220D01*
X143812439Y-116859987D01*
X143576226Y-116992557D01*
X143576224Y-116992558D01*
X143576223Y-116992559D01*
X143526476Y-117030972D01*
X143361822Y-117158112D01*
X143173822Y-117353109D01*
X143173816Y-117353116D01*
X143016202Y-117573419D01*
X143016199Y-117573424D01*
X142892350Y-117814309D01*
X142892343Y-117814327D01*
X142804884Y-118070685D01*
X142804881Y-118070699D01*
X142794494Y-118126935D01*
X142755750Y-118336697D01*
X142755681Y-118337068D01*
X142755680Y-118337075D01*
X142745787Y-118607763D01*
X88449259Y-118607763D01*
X88454212Y-118472235D01*
X88424586Y-118202982D01*
X88356072Y-117940912D01*
X88250130Y-117691610D01*
X88109018Y-117460390D01*
X88019747Y-117353119D01*
X87935746Y-117252180D01*
X87935740Y-117252175D01*
X87734002Y-117071418D01*
X87508092Y-116921957D01*
X87426555Y-116883734D01*
X87262824Y-116806980D01*
X87262819Y-116806978D01*
X87262814Y-116806976D01*
X87003442Y-116728942D01*
X87003428Y-116728939D01*
X86887791Y-116711921D01*
X86735439Y-116689500D01*
X86532369Y-116689500D01*
X86532364Y-116689500D01*
X86329844Y-116704323D01*
X86329831Y-116704325D01*
X86065453Y-116763217D01*
X86065446Y-116763220D01*
X85812439Y-116859987D01*
X85576226Y-116992557D01*
X85576224Y-116992558D01*
X85576223Y-116992559D01*
X85526476Y-117030972D01*
X85361822Y-117158112D01*
X85173822Y-117353109D01*
X85173816Y-117353116D01*
X85016202Y-117573419D01*
X85016199Y-117573424D01*
X84892350Y-117814309D01*
X84892343Y-117814327D01*
X84804884Y-118070685D01*
X84804881Y-118070699D01*
X84794494Y-118126935D01*
X84755750Y-118336697D01*
X84755681Y-118337068D01*
X84755680Y-118337075D01*
X84745787Y-118607763D01*
X83100500Y-118607763D01*
X83100500Y-105389498D01*
X88904840Y-105389498D01*
X88906148Y-105403334D01*
X88909225Y-105435885D01*
X88909500Y-105441723D01*
X88909500Y-109137255D01*
X88907775Y-109152872D01*
X88908061Y-109152899D01*
X88907326Y-109160665D01*
X88909500Y-109229814D01*
X88909500Y-109259343D01*
X88909501Y-109259360D01*
X88910368Y-109266231D01*
X88910826Y-109272050D01*
X88912290Y-109318624D01*
X88912291Y-109318627D01*
X88917880Y-109337867D01*
X88921824Y-109356911D01*
X88924336Y-109376792D01*
X88935810Y-109405773D01*
X88941490Y-109420119D01*
X88943382Y-109425647D01*
X88956381Y-109470388D01*
X88966580Y-109487634D01*
X88975138Y-109505103D01*
X88982514Y-109523732D01*
X89009898Y-109561423D01*
X89013106Y-109566307D01*
X89036827Y-109606416D01*
X89036833Y-109606424D01*
X89050990Y-109620580D01*
X89063628Y-109635376D01*
X89075405Y-109651586D01*
X89075406Y-109651587D01*
X89111309Y-109681288D01*
X89115620Y-109685210D01*
X90669536Y-111239126D01*
X92218229Y-112787819D01*
X92251714Y-112849142D01*
X92246730Y-112918834D01*
X92204858Y-112974767D01*
X92139394Y-112999184D01*
X92130548Y-112999500D01*
X90592129Y-112999500D01*
X90592123Y-112999501D01*
X90532516Y-113005908D01*
X90397671Y-113056202D01*
X90397664Y-113056206D01*
X90282455Y-113142452D01*
X90282452Y-113142455D01*
X90196206Y-113257664D01*
X90196202Y-113257671D01*
X90145908Y-113392517D01*
X90139501Y-113452116D01*
X90139500Y-113452135D01*
X90139500Y-115147870D01*
X90139501Y-115147876D01*
X90145908Y-115207483D01*
X90196202Y-115342328D01*
X90196206Y-115342335D01*
X90282452Y-115457544D01*
X90282455Y-115457547D01*
X90397664Y-115543793D01*
X90397671Y-115543797D01*
X90532517Y-115594091D01*
X90532516Y-115594091D01*
X90539444Y-115594835D01*
X90592127Y-115600500D01*
X92287872Y-115600499D01*
X92347483Y-115594091D01*
X92482331Y-115543796D01*
X92597546Y-115457546D01*
X92683796Y-115342331D01*
X92734091Y-115207483D01*
X92737862Y-115172401D01*
X92764599Y-115107855D01*
X92821990Y-115068006D01*
X92891816Y-115065511D01*
X92951905Y-115101163D01*
X92962726Y-115114536D01*
X92979956Y-115139143D01*
X93140858Y-115300045D01*
X93140861Y-115300047D01*
X93327266Y-115430568D01*
X93533504Y-115526739D01*
X93753308Y-115585635D01*
X93915230Y-115599801D01*
X93979998Y-115605468D01*
X93980000Y-115605468D01*
X93980002Y-115605468D01*
X94036807Y-115600498D01*
X94206692Y-115585635D01*
X94426496Y-115526739D01*
X94632734Y-115430568D01*
X94819139Y-115300047D01*
X94980047Y-115139139D01*
X95110568Y-114952734D01*
X95137618Y-114894724D01*
X95183790Y-114842285D01*
X95250983Y-114823133D01*
X95317865Y-114843348D01*
X95362382Y-114894725D01*
X95389429Y-114952728D01*
X95389432Y-114952734D01*
X95519954Y-115139141D01*
X95680858Y-115300045D01*
X95680861Y-115300047D01*
X95867266Y-115430568D01*
X96073504Y-115526739D01*
X96293308Y-115585635D01*
X96455230Y-115599801D01*
X96519998Y-115605468D01*
X96520000Y-115605468D01*
X96520002Y-115605468D01*
X96576807Y-115600498D01*
X96746692Y-115585635D01*
X96966496Y-115526739D01*
X97172734Y-115430568D01*
X97359139Y-115300047D01*
X97520047Y-115139139D01*
X97650568Y-114952734D01*
X97677618Y-114894724D01*
X97723790Y-114842285D01*
X97790983Y-114823133D01*
X97857865Y-114843348D01*
X97902382Y-114894725D01*
X97929429Y-114952728D01*
X97929432Y-114952734D01*
X98059954Y-115139141D01*
X98220858Y-115300045D01*
X98220861Y-115300047D01*
X98407266Y-115430568D01*
X98613504Y-115526739D01*
X98833308Y-115585635D01*
X98995230Y-115599801D01*
X99059998Y-115605468D01*
X99060000Y-115605468D01*
X99060002Y-115605468D01*
X99116807Y-115600498D01*
X99286692Y-115585635D01*
X99506496Y-115526739D01*
X99712734Y-115430568D01*
X99899139Y-115300047D01*
X100060047Y-115139139D01*
X100190568Y-114952734D01*
X100217618Y-114894724D01*
X100263790Y-114842285D01*
X100330983Y-114823133D01*
X100397865Y-114843348D01*
X100442382Y-114894725D01*
X100469429Y-114952728D01*
X100469432Y-114952734D01*
X100599954Y-115139141D01*
X100760858Y-115300045D01*
X100760861Y-115300047D01*
X100947266Y-115430568D01*
X101153504Y-115526739D01*
X101373308Y-115585635D01*
X101535230Y-115599801D01*
X101599998Y-115605468D01*
X101600000Y-115605468D01*
X101600002Y-115605468D01*
X101656807Y-115600498D01*
X101826692Y-115585635D01*
X102046496Y-115526739D01*
X102252734Y-115430568D01*
X102439139Y-115300047D01*
X102600047Y-115139139D01*
X102730568Y-114952734D01*
X102757618Y-114894724D01*
X102803790Y-114842285D01*
X102870983Y-114823133D01*
X102937865Y-114843348D01*
X102982382Y-114894725D01*
X103009429Y-114952728D01*
X103009432Y-114952734D01*
X103139954Y-115139141D01*
X103300858Y-115300045D01*
X103300861Y-115300047D01*
X103487266Y-115430568D01*
X103693504Y-115526739D01*
X103913308Y-115585635D01*
X104075230Y-115599801D01*
X104139998Y-115605468D01*
X104140000Y-115605468D01*
X104140002Y-115605468D01*
X104196807Y-115600498D01*
X104366692Y-115585635D01*
X104586496Y-115526739D01*
X104792734Y-115430568D01*
X104979139Y-115300047D01*
X105140047Y-115139139D01*
X105270568Y-114952734D01*
X105297618Y-114894724D01*
X105343790Y-114842285D01*
X105410983Y-114823133D01*
X105477865Y-114843348D01*
X105522382Y-114894725D01*
X105549429Y-114952728D01*
X105549432Y-114952734D01*
X105679954Y-115139141D01*
X105840858Y-115300045D01*
X105840861Y-115300047D01*
X106027266Y-115430568D01*
X106233504Y-115526739D01*
X106453308Y-115585635D01*
X106615230Y-115599801D01*
X106679998Y-115605468D01*
X106680000Y-115605468D01*
X106680002Y-115605468D01*
X106736807Y-115600498D01*
X106906692Y-115585635D01*
X107126496Y-115526739D01*
X107332734Y-115430568D01*
X107519139Y-115300047D01*
X107680047Y-115139139D01*
X107810568Y-114952734D01*
X107837895Y-114894129D01*
X107884064Y-114841695D01*
X107951257Y-114822542D01*
X108018139Y-114842757D01*
X108062657Y-114894133D01*
X108089865Y-114952482D01*
X108220342Y-115138820D01*
X108381179Y-115299657D01*
X108567517Y-115430134D01*
X108773673Y-115526265D01*
X108773682Y-115526269D01*
X108969999Y-115578872D01*
X108970000Y-115578871D01*
X108970000Y-114615686D01*
X108981955Y-114627641D01*
X109094852Y-114685165D01*
X109188519Y-114700000D01*
X109251481Y-114700000D01*
X109345148Y-114685165D01*
X109458045Y-114627641D01*
X109470000Y-114615686D01*
X109470000Y-115578872D01*
X109666317Y-115526269D01*
X109666326Y-115526265D01*
X109872482Y-115430134D01*
X110058820Y-115299657D01*
X110219657Y-115138820D01*
X110350134Y-114952482D01*
X110446265Y-114746326D01*
X110446269Y-114746317D01*
X110498872Y-114550000D01*
X109535686Y-114550000D01*
X109547641Y-114538045D01*
X109605165Y-114425148D01*
X109624986Y-114300000D01*
X109605165Y-114174852D01*
X109547641Y-114061955D01*
X109535686Y-114050000D01*
X110498872Y-114050000D01*
X110498872Y-114049999D01*
X110446269Y-113853682D01*
X110446265Y-113853673D01*
X110350134Y-113647517D01*
X110219657Y-113461179D01*
X110058820Y-113300342D01*
X109981319Y-113246075D01*
X109937694Y-113191498D01*
X109930502Y-113121999D01*
X109962024Y-113059645D01*
X110022254Y-113024231D01*
X110052443Y-113020500D01*
X120974548Y-113020500D01*
X121041587Y-113040185D01*
X121062229Y-113056819D01*
X124511107Y-116505697D01*
X124544592Y-116567020D01*
X124545266Y-116612742D01*
X124545414Y-116612756D01*
X124545287Y-116614125D01*
X124545317Y-116616153D01*
X124544884Y-116618465D01*
X124524357Y-116839999D01*
X124524357Y-116840000D01*
X124544884Y-117061535D01*
X124544885Y-117061537D01*
X124605769Y-117275523D01*
X124605775Y-117275538D01*
X124704938Y-117474683D01*
X124704943Y-117474691D01*
X124839020Y-117652238D01*
X125003437Y-117802123D01*
X125003439Y-117802125D01*
X125192595Y-117919245D01*
X125192596Y-117919245D01*
X125192599Y-117919247D01*
X125400060Y-117999618D01*
X125618757Y-118040500D01*
X125618759Y-118040500D01*
X125841241Y-118040500D01*
X125841243Y-118040500D01*
X126059940Y-117999618D01*
X126267401Y-117919247D01*
X126456562Y-117802124D01*
X126620981Y-117652236D01*
X126755058Y-117474689D01*
X126854229Y-117275528D01*
X126915115Y-117061536D01*
X126935643Y-116840000D01*
X132144357Y-116840000D01*
X132164884Y-117061535D01*
X132164885Y-117061537D01*
X132225769Y-117275523D01*
X132225775Y-117275538D01*
X132324938Y-117474683D01*
X132324943Y-117474691D01*
X132459020Y-117652238D01*
X132623437Y-117802123D01*
X132623439Y-117802125D01*
X132812595Y-117919245D01*
X132812596Y-117919245D01*
X132812599Y-117919247D01*
X133020060Y-117999618D01*
X133238757Y-118040500D01*
X133238759Y-118040500D01*
X133461241Y-118040500D01*
X133461243Y-118040500D01*
X133679940Y-117999618D01*
X133887401Y-117919247D01*
X134076562Y-117802124D01*
X134240981Y-117652236D01*
X134344788Y-117514772D01*
X134400897Y-117473137D01*
X134443742Y-117465500D01*
X134558649Y-117465500D01*
X134625688Y-117485185D01*
X134662458Y-117521679D01*
X134781016Y-117703147D01*
X134781019Y-117703151D01*
X134781021Y-117703153D01*
X134938216Y-117873913D01*
X134938219Y-117873915D01*
X134938222Y-117873918D01*
X135121365Y-118016464D01*
X135121371Y-118016468D01*
X135121374Y-118016470D01*
X135270526Y-118097187D01*
X135294196Y-118109997D01*
X135325497Y-118126936D01*
X135439487Y-118166068D01*
X135545015Y-118202297D01*
X135545017Y-118202297D01*
X135545019Y-118202298D01*
X135773951Y-118240500D01*
X135773952Y-118240500D01*
X136006048Y-118240500D01*
X136006049Y-118240500D01*
X136234981Y-118202298D01*
X136454503Y-118126936D01*
X136658626Y-118016470D01*
X136841784Y-117873913D01*
X136850511Y-117864432D01*
X136910394Y-117828441D01*
X136980232Y-117830538D01*
X137037850Y-117870060D01*
X137057924Y-117905080D01*
X137086645Y-117982086D01*
X137086649Y-117982093D01*
X137172809Y-118097187D01*
X137172812Y-118097190D01*
X137287906Y-118183350D01*
X137287913Y-118183354D01*
X137422620Y-118233596D01*
X137422627Y-118233598D01*
X137482155Y-118239999D01*
X137482172Y-118240000D01*
X138180000Y-118240000D01*
X138180000Y-117214189D01*
X138232547Y-117250016D01*
X138362173Y-117290000D01*
X138463724Y-117290000D01*
X138564138Y-117274865D01*
X138680000Y-117219068D01*
X138680000Y-118240000D01*
X139377828Y-118240000D01*
X139377844Y-118239999D01*
X139437372Y-118233598D01*
X139437379Y-118233596D01*
X139572086Y-118183354D01*
X139572093Y-118183350D01*
X139687187Y-118097190D01*
X139687190Y-118097187D01*
X139773350Y-117982093D01*
X139773354Y-117982086D01*
X139823596Y-117847379D01*
X139823598Y-117847372D01*
X139829999Y-117787844D01*
X139830000Y-117787827D01*
X139830000Y-117090000D01*
X138805278Y-117090000D01*
X138853625Y-117006260D01*
X138883810Y-116874008D01*
X138873673Y-116738735D01*
X138824113Y-116612459D01*
X138806203Y-116590000D01*
X139830000Y-116590000D01*
X139830000Y-115892172D01*
X139829999Y-115892155D01*
X139823598Y-115832627D01*
X139823596Y-115832620D01*
X139773354Y-115697913D01*
X139773350Y-115697906D01*
X139687190Y-115582812D01*
X139687187Y-115582809D01*
X139572093Y-115496649D01*
X139572086Y-115496645D01*
X139437379Y-115446403D01*
X139437372Y-115446401D01*
X139377844Y-115440000D01*
X138680000Y-115440000D01*
X138680000Y-116465810D01*
X138627453Y-116429984D01*
X138497827Y-116390000D01*
X138396276Y-116390000D01*
X138295862Y-116405135D01*
X138180000Y-116460931D01*
X138180000Y-115440000D01*
X137482155Y-115440000D01*
X137422627Y-115446401D01*
X137422620Y-115446403D01*
X137287913Y-115496645D01*
X137287906Y-115496649D01*
X137172812Y-115582809D01*
X137172809Y-115582812D01*
X137086649Y-115697906D01*
X137086646Y-115697911D01*
X137057924Y-115774920D01*
X137016052Y-115830853D01*
X136950588Y-115855270D01*
X136882315Y-115840418D01*
X136850514Y-115815571D01*
X136841784Y-115806087D01*
X136841779Y-115806083D01*
X136841777Y-115806081D01*
X136658634Y-115663535D01*
X136658628Y-115663531D01*
X136454504Y-115553064D01*
X136454495Y-115553061D01*
X136234984Y-115477702D01*
X136047404Y-115446401D01*
X136006049Y-115439500D01*
X135773951Y-115439500D01*
X135732596Y-115446401D01*
X135545015Y-115477702D01*
X135325504Y-115553061D01*
X135325495Y-115553064D01*
X135121371Y-115663531D01*
X135121365Y-115663535D01*
X134938222Y-115806081D01*
X134938219Y-115806084D01*
X134938216Y-115806086D01*
X134938216Y-115806087D01*
X134913791Y-115832620D01*
X134781016Y-115976852D01*
X134662458Y-116158321D01*
X134609311Y-116203678D01*
X134558649Y-116214500D01*
X134443742Y-116214500D01*
X134376703Y-116194815D01*
X134344788Y-116165227D01*
X134240979Y-116027761D01*
X134076562Y-115877876D01*
X134076560Y-115877874D01*
X133887404Y-115760754D01*
X133887398Y-115760752D01*
X133679940Y-115680382D01*
X133461243Y-115639500D01*
X133238757Y-115639500D01*
X133020060Y-115680382D01*
X132888864Y-115731207D01*
X132812601Y-115760752D01*
X132812595Y-115760754D01*
X132623439Y-115877874D01*
X132623437Y-115877876D01*
X132459020Y-116027761D01*
X132324943Y-116205308D01*
X132324938Y-116205316D01*
X132225775Y-116404461D01*
X132225769Y-116404476D01*
X132164885Y-116618462D01*
X132164884Y-116618464D01*
X132144357Y-116839999D01*
X132144357Y-116840000D01*
X126935643Y-116840000D01*
X126932356Y-116804532D01*
X126915115Y-116618464D01*
X126915114Y-116618462D01*
X126897618Y-116556971D01*
X126854229Y-116404472D01*
X126759634Y-116214500D01*
X126755061Y-116205316D01*
X126755056Y-116205308D01*
X126620979Y-116027761D01*
X126456562Y-115877876D01*
X126456560Y-115877874D01*
X126267404Y-115760754D01*
X126267398Y-115760752D01*
X126059940Y-115680382D01*
X125841243Y-115639500D01*
X125618757Y-115639500D01*
X125574623Y-115647749D01*
X125510571Y-115659723D01*
X125441056Y-115652691D01*
X125400106Y-115625515D01*
X122111772Y-112337181D01*
X122078287Y-112275858D01*
X122083271Y-112206166D01*
X122125143Y-112150233D01*
X122190607Y-112125816D01*
X122199453Y-112125500D01*
X140986480Y-112125500D01*
X141053519Y-112145185D01*
X141099274Y-112197989D01*
X141109218Y-112267147D01*
X141088055Y-112320621D01*
X141076595Y-112336989D01*
X141065963Y-112352173D01*
X140966098Y-112566335D01*
X140966094Y-112566344D01*
X140904938Y-112794586D01*
X140904936Y-112794596D01*
X140884341Y-113029999D01*
X140884341Y-113030000D01*
X140904936Y-113265403D01*
X140904938Y-113265413D01*
X140966094Y-113493655D01*
X140966096Y-113493659D01*
X140966097Y-113493663D01*
X141048517Y-113670412D01*
X141065965Y-113707830D01*
X141065967Y-113707834D01*
X141159567Y-113841507D01*
X141201505Y-113901401D01*
X141368599Y-114068495D01*
X141452851Y-114127489D01*
X141562165Y-114204032D01*
X141562167Y-114204033D01*
X141562170Y-114204035D01*
X141776337Y-114303903D01*
X142004592Y-114365063D01*
X142181034Y-114380500D01*
X142239999Y-114385659D01*
X142240000Y-114385659D01*
X142240001Y-114385659D01*
X142298966Y-114380500D01*
X142475408Y-114365063D01*
X142703663Y-114303903D01*
X142917830Y-114204035D01*
X143111401Y-114068495D01*
X143278495Y-113901401D01*
X143408730Y-113715405D01*
X143463307Y-113671781D01*
X143532805Y-113664587D01*
X143595160Y-113696110D01*
X143611879Y-113715405D01*
X143741890Y-113901078D01*
X143908917Y-114068105D01*
X144102421Y-114203600D01*
X144316507Y-114303429D01*
X144316516Y-114303433D01*
X144530000Y-114360634D01*
X144530000Y-113465501D01*
X144637685Y-113514680D01*
X144744237Y-113530000D01*
X144815763Y-113530000D01*
X144922315Y-113514680D01*
X145030000Y-113465501D01*
X145030000Y-114360633D01*
X145243483Y-114303433D01*
X145243492Y-114303429D01*
X145457578Y-114203600D01*
X145651082Y-114068105D01*
X145818105Y-113901082D01*
X145948425Y-113714968D01*
X146003002Y-113671344D01*
X146072501Y-113664151D01*
X146134855Y-113695673D01*
X146151575Y-113714968D01*
X146281894Y-113901082D01*
X146448917Y-114068105D01*
X146642421Y-114203600D01*
X146856507Y-114303429D01*
X146856516Y-114303433D01*
X147070000Y-114360634D01*
X147070000Y-113465501D01*
X147177685Y-113514680D01*
X147284237Y-113530000D01*
X147355763Y-113530000D01*
X147462315Y-113514680D01*
X147570000Y-113465501D01*
X147570000Y-114360633D01*
X147783483Y-114303433D01*
X147783492Y-114303429D01*
X147997578Y-114203600D01*
X148191078Y-114068108D01*
X148313133Y-113946053D01*
X148374456Y-113912568D01*
X148444148Y-113917552D01*
X148500082Y-113959423D01*
X148516997Y-113990401D01*
X148566202Y-114122328D01*
X148566206Y-114122335D01*
X148652452Y-114237544D01*
X148652455Y-114237547D01*
X148767664Y-114323793D01*
X148767671Y-114323797D01*
X148902517Y-114374091D01*
X148902516Y-114374091D01*
X148909444Y-114374835D01*
X148962127Y-114380500D01*
X150757872Y-114380499D01*
X150817483Y-114374091D01*
X150952331Y-114323796D01*
X151067546Y-114237546D01*
X151153796Y-114122331D01*
X151204091Y-113987483D01*
X151210500Y-113927873D01*
X151210499Y-112132128D01*
X151204091Y-112072517D01*
X151177194Y-112000403D01*
X151153797Y-111937671D01*
X151153793Y-111937664D01*
X151067547Y-111822455D01*
X151067544Y-111822452D01*
X150952334Y-111736205D01*
X150932681Y-111728875D01*
X150876749Y-111687003D01*
X150853961Y-111634565D01*
X150851934Y-111623251D01*
X150851279Y-111618585D01*
X150845074Y-111557566D01*
X150845074Y-111557564D01*
X150845074Y-111557562D01*
X150834788Y-111524780D01*
X150832918Y-111517166D01*
X150826858Y-111483348D01*
X150804092Y-111426352D01*
X150802527Y-111421955D01*
X150784159Y-111363412D01*
X150767491Y-111333382D01*
X150764120Y-111326284D01*
X150754158Y-111301344D01*
X150751378Y-111294383D01*
X150717605Y-111243139D01*
X150715183Y-111239142D01*
X150685409Y-111185498D01*
X150663034Y-111159434D01*
X150658306Y-111153163D01*
X150639404Y-111124484D01*
X150639399Y-111124478D01*
X150610357Y-111095437D01*
X150596019Y-111081099D01*
X150592828Y-111077655D01*
X150552865Y-111031104D01*
X150525694Y-111010072D01*
X150519807Y-111004887D01*
X150207101Y-110692181D01*
X150173616Y-110630858D01*
X150178600Y-110561166D01*
X150220472Y-110505233D01*
X150285936Y-110480816D01*
X150294782Y-110480500D01*
X154629548Y-110480500D01*
X154696587Y-110500185D01*
X154717229Y-110516819D01*
X155074194Y-110873784D01*
X155084019Y-110886048D01*
X155084240Y-110885866D01*
X155089210Y-110891873D01*
X155089213Y-110891876D01*
X155089214Y-110891877D01*
X155139651Y-110939241D01*
X155160530Y-110960120D01*
X155166004Y-110964366D01*
X155170442Y-110968156D01*
X155204418Y-111000062D01*
X155204422Y-111000064D01*
X155221973Y-111009713D01*
X155238231Y-111020392D01*
X155254064Y-111032674D01*
X155276015Y-111042172D01*
X155296837Y-111051183D01*
X155302081Y-111053752D01*
X155342908Y-111076197D01*
X155362312Y-111081179D01*
X155380710Y-111087478D01*
X155399105Y-111095438D01*
X155445129Y-111102726D01*
X155450832Y-111103907D01*
X155495981Y-111115500D01*
X155516016Y-111115500D01*
X155535413Y-111117026D01*
X155555196Y-111120160D01*
X155601584Y-111115775D01*
X155607422Y-111115500D01*
X156098113Y-111115500D01*
X156165152Y-111135185D01*
X156210907Y-111187989D01*
X156220851Y-111257147D01*
X156210496Y-111291902D01*
X156206099Y-111301329D01*
X156206094Y-111301344D01*
X156144938Y-111529586D01*
X156144936Y-111529596D01*
X156124341Y-111764999D01*
X156124341Y-111765000D01*
X156144936Y-112000403D01*
X156144938Y-112000413D01*
X156206094Y-112228655D01*
X156206096Y-112228659D01*
X156206097Y-112228663D01*
X156256700Y-112337181D01*
X156305965Y-112442830D01*
X156305967Y-112442834D01*
X156414281Y-112597521D01*
X156441501Y-112636396D01*
X156441506Y-112636402D01*
X156608597Y-112803493D01*
X156608603Y-112803498D01*
X156794594Y-112933730D01*
X156838219Y-112988307D01*
X156845413Y-113057805D01*
X156813890Y-113120160D01*
X156794595Y-113136880D01*
X156608922Y-113266890D01*
X156608920Y-113266891D01*
X156441891Y-113433920D01*
X156441886Y-113433926D01*
X156306400Y-113627420D01*
X156306399Y-113627422D01*
X156206570Y-113841507D01*
X156206567Y-113841513D01*
X156149364Y-114054999D01*
X156149364Y-114055000D01*
X157046314Y-114055000D01*
X157020507Y-114095156D01*
X156980000Y-114233111D01*
X156980000Y-114376889D01*
X157020507Y-114514844D01*
X157046314Y-114555000D01*
X156149364Y-114555000D01*
X156206567Y-114768486D01*
X156206570Y-114768492D01*
X156306399Y-114982578D01*
X156441894Y-115176082D01*
X156608917Y-115343105D01*
X156802421Y-115478600D01*
X157016507Y-115578429D01*
X157016516Y-115578433D01*
X157230000Y-115635634D01*
X157230000Y-114740501D01*
X157337685Y-114789680D01*
X157444237Y-114805000D01*
X157515763Y-114805000D01*
X157622315Y-114789680D01*
X157730000Y-114740501D01*
X157730000Y-115635633D01*
X157943483Y-115578433D01*
X157943492Y-115578429D01*
X158157578Y-115478600D01*
X158351082Y-115343105D01*
X158518105Y-115176082D01*
X158648119Y-114990405D01*
X158702696Y-114946781D01*
X158772195Y-114939588D01*
X158834549Y-114971110D01*
X158851269Y-114990405D01*
X158981505Y-115176401D01*
X159148599Y-115343495D01*
X159245384Y-115411265D01*
X159342165Y-115479032D01*
X159342167Y-115479033D01*
X159342170Y-115479035D01*
X159556337Y-115578903D01*
X159556343Y-115578904D01*
X159556344Y-115578905D01*
X159581454Y-115585633D01*
X159784592Y-115640063D01*
X159972918Y-115656539D01*
X160019999Y-115660659D01*
X160020000Y-115660659D01*
X160020001Y-115660659D01*
X160059234Y-115657226D01*
X160255408Y-115640063D01*
X160483663Y-115578903D01*
X160697830Y-115479035D01*
X160891401Y-115343495D01*
X161058495Y-115176401D01*
X161194035Y-114982830D01*
X161293903Y-114768663D01*
X161355063Y-114540408D01*
X161375659Y-114305000D01*
X161355063Y-114069592D01*
X161293903Y-113841337D01*
X161194035Y-113627171D01*
X161188731Y-113619595D01*
X161058494Y-113433597D01*
X160891402Y-113266506D01*
X160891396Y-113266501D01*
X160705842Y-113136575D01*
X160662217Y-113081998D01*
X160655023Y-113012500D01*
X160686546Y-112950145D01*
X160705842Y-112933425D01*
X160826210Y-112849142D01*
X160891401Y-112803495D01*
X161058495Y-112636401D01*
X161194035Y-112442830D01*
X161293903Y-112228663D01*
X161355063Y-112000408D01*
X161375659Y-111765000D01*
X161355063Y-111529592D01*
X161301567Y-111329941D01*
X161293905Y-111301344D01*
X161293904Y-111301343D01*
X161293903Y-111301337D01*
X161194035Y-111087171D01*
X161189838Y-111081176D01*
X161058494Y-110893597D01*
X160891402Y-110726506D01*
X160891396Y-110726501D01*
X160705842Y-110596575D01*
X160662217Y-110541998D01*
X160655023Y-110472500D01*
X160686546Y-110410145D01*
X160705842Y-110393425D01*
X160728026Y-110377891D01*
X160891401Y-110263495D01*
X161058495Y-110096401D01*
X161194035Y-109902830D01*
X161293903Y-109688663D01*
X161355063Y-109460408D01*
X161375659Y-109225000D01*
X161374330Y-109209815D01*
X161355063Y-108989596D01*
X161355063Y-108989592D01*
X161308626Y-108816285D01*
X161293905Y-108761344D01*
X161293904Y-108761343D01*
X161293903Y-108761337D01*
X161194035Y-108547171D01*
X161190718Y-108542433D01*
X161058494Y-108353597D01*
X160891402Y-108186506D01*
X160891396Y-108186501D01*
X160705842Y-108056575D01*
X160662217Y-108001998D01*
X160655023Y-107932500D01*
X160686546Y-107870145D01*
X160705842Y-107853425D01*
X160767049Y-107810567D01*
X160891401Y-107723495D01*
X161058495Y-107556401D01*
X161194035Y-107362830D01*
X161293903Y-107148663D01*
X161355063Y-106920408D01*
X161375659Y-106685000D01*
X161355063Y-106449592D01*
X161297163Y-106233504D01*
X161293905Y-106221344D01*
X161293904Y-106221343D01*
X161293903Y-106221337D01*
X161194035Y-106007171D01*
X161190151Y-106001623D01*
X161058494Y-105813597D01*
X160891402Y-105646506D01*
X160891396Y-105646501D01*
X160705842Y-105516575D01*
X160662217Y-105461998D01*
X160655023Y-105392500D01*
X160686546Y-105330145D01*
X160705842Y-105313425D01*
X160746226Y-105285148D01*
X160891401Y-105183495D01*
X161058495Y-105016401D01*
X161194035Y-104822830D01*
X161293903Y-104608663D01*
X161355063Y-104380408D01*
X161375659Y-104145000D01*
X161374330Y-104129815D01*
X161365564Y-104029618D01*
X161355063Y-103909592D01*
X161303274Y-103716309D01*
X161293905Y-103681344D01*
X161293904Y-103681343D01*
X161293903Y-103681337D01*
X161194035Y-103467171D01*
X161158107Y-103415859D01*
X161058494Y-103273597D01*
X160891402Y-103106506D01*
X160891395Y-103106501D01*
X160885098Y-103102092D01*
X160814518Y-103052671D01*
X160697834Y-102970967D01*
X160697830Y-102970965D01*
X160697828Y-102970964D01*
X160483663Y-102871097D01*
X160483659Y-102871096D01*
X160483655Y-102871094D01*
X160255413Y-102809938D01*
X160255403Y-102809936D01*
X160020001Y-102789341D01*
X160019999Y-102789341D01*
X159784596Y-102809936D01*
X159784586Y-102809938D01*
X159556344Y-102871094D01*
X159556335Y-102871098D01*
X159342171Y-102970964D01*
X159342169Y-102970965D01*
X159148600Y-103106503D01*
X159026673Y-103228430D01*
X158965350Y-103261914D01*
X158895658Y-103256930D01*
X158839725Y-103215058D01*
X158822810Y-103184081D01*
X158773797Y-103052671D01*
X158773793Y-103052664D01*
X158687547Y-102937455D01*
X158687544Y-102937452D01*
X158572335Y-102851206D01*
X158572332Y-102851205D01*
X158572331Y-102851204D01*
X158561161Y-102847038D01*
X158505231Y-102805166D01*
X158480816Y-102739701D01*
X158480500Y-102730858D01*
X158480500Y-101115416D01*
X158500185Y-101048377D01*
X158502910Y-101044313D01*
X158567102Y-100952639D01*
X158659575Y-100754330D01*
X158716207Y-100542977D01*
X158734217Y-100337113D01*
X158735277Y-100325002D01*
X158735277Y-100324997D01*
X158728496Y-100247488D01*
X158716207Y-100107023D01*
X158659575Y-99895670D01*
X158567102Y-99697362D01*
X158567100Y-99697359D01*
X158567099Y-99697357D01*
X158441599Y-99518124D01*
X158441236Y-99517761D01*
X158286877Y-99363402D01*
X158125998Y-99250753D01*
X158107638Y-99237897D01*
X157974098Y-99175627D01*
X157909330Y-99145425D01*
X157909326Y-99145424D01*
X157909322Y-99145422D01*
X157697977Y-99088793D01*
X157480002Y-99069723D01*
X157479998Y-99069723D01*
X157355649Y-99080602D01*
X157262023Y-99088793D01*
X157262020Y-99088793D01*
X157050677Y-99145422D01*
X157050668Y-99145426D01*
X156852361Y-99237898D01*
X156852357Y-99237900D01*
X156673121Y-99363402D01*
X156518402Y-99518121D01*
X156392900Y-99697357D01*
X156392898Y-99697361D01*
X156300426Y-99895668D01*
X156300422Y-99895677D01*
X156243793Y-100107020D01*
X156243793Y-100107023D01*
X156242163Y-100125656D01*
X156224723Y-100324997D01*
X156224723Y-100325002D01*
X156228179Y-100364508D01*
X156241514Y-100516932D01*
X156243793Y-100542975D01*
X156243793Y-100542979D01*
X156300422Y-100754322D01*
X156300424Y-100754326D01*
X156300425Y-100754330D01*
X156316651Y-100789127D01*
X156392897Y-100952638D01*
X156413529Y-100982103D01*
X156457075Y-101044293D01*
X156479402Y-101110498D01*
X156479500Y-101115416D01*
X156479500Y-102730858D01*
X156459815Y-102797897D01*
X156407011Y-102843652D01*
X156398847Y-102847034D01*
X156387669Y-102851204D01*
X156387664Y-102851206D01*
X156272455Y-102937452D01*
X156272452Y-102937455D01*
X156186206Y-103052664D01*
X156186202Y-103052671D01*
X156135908Y-103187517D01*
X156129501Y-103247116D01*
X156129500Y-103247135D01*
X156129500Y-105042870D01*
X156129501Y-105042876D01*
X156135908Y-105102483D01*
X156186202Y-105237328D01*
X156186206Y-105237335D01*
X156272452Y-105352544D01*
X156272455Y-105352547D01*
X156387664Y-105438793D01*
X156387671Y-105438797D01*
X156519081Y-105487810D01*
X156575015Y-105529681D01*
X156599432Y-105595145D01*
X156584580Y-105663418D01*
X156563430Y-105691673D01*
X156441503Y-105813600D01*
X156305965Y-106007169D01*
X156305964Y-106007171D01*
X156206098Y-106221335D01*
X156206094Y-106221344D01*
X156144938Y-106449586D01*
X156144936Y-106449596D01*
X156124341Y-106684999D01*
X156124341Y-106685000D01*
X156144936Y-106920403D01*
X156144938Y-106920413D01*
X156206094Y-107148655D01*
X156206096Y-107148659D01*
X156206097Y-107148663D01*
X156283809Y-107315316D01*
X156305965Y-107362830D01*
X156305967Y-107362834D01*
X156412138Y-107514461D01*
X156441501Y-107556396D01*
X156441506Y-107556402D01*
X156608597Y-107723493D01*
X156608603Y-107723498D01*
X156794158Y-107853425D01*
X156837783Y-107908002D01*
X156844977Y-107977500D01*
X156813454Y-108039855D01*
X156794158Y-108056575D01*
X156608597Y-108186505D01*
X156441505Y-108353597D01*
X156305965Y-108547169D01*
X156305964Y-108547171D01*
X156206098Y-108761335D01*
X156206094Y-108761344D01*
X156144938Y-108989586D01*
X156144936Y-108989596D01*
X156124341Y-109224999D01*
X156124341Y-109225000D01*
X156144936Y-109460403D01*
X156144938Y-109460413D01*
X156206094Y-109688655D01*
X156207947Y-109693744D01*
X156206757Y-109694177D01*
X156216323Y-109757180D01*
X156187799Y-109820962D01*
X156129321Y-109859198D01*
X156093450Y-109864500D01*
X155885452Y-109864500D01*
X155818413Y-109844815D01*
X155797771Y-109828181D01*
X155621177Y-109651587D01*
X155440803Y-109471212D01*
X155430980Y-109458950D01*
X155430759Y-109459134D01*
X155425786Y-109453123D01*
X155396527Y-109425647D01*
X155375364Y-109405773D01*
X155364919Y-109395328D01*
X155354475Y-109384883D01*
X155348986Y-109380625D01*
X155344561Y-109376847D01*
X155310582Y-109344938D01*
X155310580Y-109344936D01*
X155310577Y-109344935D01*
X155293029Y-109335288D01*
X155276763Y-109324604D01*
X155260936Y-109312327D01*
X155260935Y-109312326D01*
X155260933Y-109312325D01*
X155218168Y-109293818D01*
X155212922Y-109291248D01*
X155172093Y-109268803D01*
X155172092Y-109268802D01*
X155152693Y-109263822D01*
X155134281Y-109257518D01*
X155115898Y-109249562D01*
X155115892Y-109249560D01*
X155069874Y-109242272D01*
X155064152Y-109241087D01*
X155019021Y-109229500D01*
X155019019Y-109229500D01*
X154998984Y-109229500D01*
X154979586Y-109227973D01*
X154972162Y-109226797D01*
X154959805Y-109224840D01*
X154959804Y-109224840D01*
X154913416Y-109229225D01*
X154907578Y-109229500D01*
X150509796Y-109229500D01*
X150442757Y-109209815D01*
X150397002Y-109157011D01*
X150387058Y-109087853D01*
X150416083Y-109024297D01*
X150444519Y-109000073D01*
X150586560Y-108912125D01*
X150586559Y-108912125D01*
X150586562Y-108912124D01*
X150750981Y-108762236D01*
X150885058Y-108584689D01*
X150984229Y-108385528D01*
X151045115Y-108171536D01*
X151065643Y-107950000D01*
X151058243Y-107870145D01*
X151045115Y-107728464D01*
X151045114Y-107728462D01*
X151043700Y-107723493D01*
X150984229Y-107514472D01*
X150984224Y-107514461D01*
X150885061Y-107315316D01*
X150885056Y-107315308D01*
X150750979Y-107137761D01*
X150586562Y-106987876D01*
X150586560Y-106987874D01*
X150397404Y-106870754D01*
X150397395Y-106870750D01*
X150303956Y-106834552D01*
X150203475Y-106795625D01*
X150148075Y-106753054D01*
X150124484Y-106687288D01*
X150140195Y-106619207D01*
X150190219Y-106570428D01*
X150203466Y-106564377D01*
X150397401Y-106489247D01*
X150586562Y-106372124D01*
X150750981Y-106222236D01*
X150885058Y-106044689D01*
X150898258Y-106018181D01*
X150984224Y-105845538D01*
X150984223Y-105845538D01*
X150984229Y-105845528D01*
X151045115Y-105631536D01*
X151065643Y-105410000D01*
X151065108Y-105404231D01*
X151045115Y-105188464D01*
X151045114Y-105188462D01*
X151043700Y-105183493D01*
X150984229Y-104974472D01*
X150984224Y-104974461D01*
X150885061Y-104775316D01*
X150885056Y-104775308D01*
X150750979Y-104597761D01*
X150586562Y-104447876D01*
X150586560Y-104447874D01*
X150397404Y-104330754D01*
X150397395Y-104330750D01*
X150303956Y-104294552D01*
X150203475Y-104255625D01*
X150148075Y-104213054D01*
X150124484Y-104147288D01*
X150140195Y-104079207D01*
X150190219Y-104030428D01*
X150203466Y-104024377D01*
X150397401Y-103949247D01*
X150586562Y-103832124D01*
X150750981Y-103682236D01*
X150885058Y-103504689D01*
X150898258Y-103478181D01*
X150984224Y-103305538D01*
X150984223Y-103305538D01*
X150984229Y-103305528D01*
X151045115Y-103091536D01*
X151065643Y-102870000D01*
X151065333Y-102866659D01*
X151045115Y-102648464D01*
X151045114Y-102648462D01*
X150988826Y-102450631D01*
X150984229Y-102434472D01*
X150972246Y-102410407D01*
X150885061Y-102235316D01*
X150885056Y-102235308D01*
X150750979Y-102057761D01*
X150586562Y-101907876D01*
X150586560Y-101907874D01*
X150397404Y-101790754D01*
X150397395Y-101790750D01*
X150303956Y-101754552D01*
X150203475Y-101715625D01*
X150148075Y-101673054D01*
X150124484Y-101607288D01*
X150140195Y-101539207D01*
X150190219Y-101490428D01*
X150203466Y-101484377D01*
X150397401Y-101409247D01*
X150586562Y-101292124D01*
X150745119Y-101147580D01*
X150750979Y-101142238D01*
X150786681Y-101094962D01*
X150885058Y-100964689D01*
X150984229Y-100765528D01*
X151045115Y-100551536D01*
X151065643Y-100330000D01*
X151065179Y-100324997D01*
X151045115Y-100108464D01*
X151045114Y-100108462D01*
X151044341Y-100105746D01*
X150984229Y-99894472D01*
X150972246Y-99870407D01*
X150885061Y-99695316D01*
X150885056Y-99695308D01*
X150750979Y-99517761D01*
X150586562Y-99367876D01*
X150586560Y-99367874D01*
X150397404Y-99250754D01*
X150397395Y-99250750D01*
X150294774Y-99210995D01*
X150203475Y-99175625D01*
X150148075Y-99133054D01*
X150124484Y-99067288D01*
X150140195Y-98999207D01*
X150190219Y-98950428D01*
X150203466Y-98944377D01*
X150397401Y-98869247D01*
X150586562Y-98752124D01*
X150750981Y-98602236D01*
X150885058Y-98424689D01*
X150984229Y-98225528D01*
X151045115Y-98011536D01*
X151065643Y-97790000D01*
X151045115Y-97568464D01*
X150984229Y-97354472D01*
X150972246Y-97330407D01*
X150902332Y-97190000D01*
X160994551Y-97190000D01*
X161014317Y-97441151D01*
X161073126Y-97686110D01*
X161169533Y-97918859D01*
X161301160Y-98133653D01*
X161301161Y-98133656D01*
X161301164Y-98133659D01*
X161464776Y-98325224D01*
X161581228Y-98424683D01*
X161656343Y-98488838D01*
X161656346Y-98488839D01*
X161871140Y-98620466D01*
X162077922Y-98706117D01*
X162103889Y-98716873D01*
X162348852Y-98775683D01*
X162600000Y-98795449D01*
X162851148Y-98775683D01*
X163096111Y-98716873D01*
X163328859Y-98620466D01*
X163543659Y-98488836D01*
X163735224Y-98325224D01*
X163898836Y-98133659D01*
X164030466Y-97918859D01*
X164126873Y-97686111D01*
X164185683Y-97441148D01*
X164205449Y-97190000D01*
X164205448Y-97189993D01*
X164205457Y-97189885D01*
X164230341Y-97124597D01*
X164286572Y-97083126D01*
X164356298Y-97078639D01*
X164400200Y-97098040D01*
X164422420Y-97113599D01*
X164636507Y-97213429D01*
X164636516Y-97213433D01*
X164864673Y-97274567D01*
X164864684Y-97274569D01*
X165099998Y-97295157D01*
X165100002Y-97295157D01*
X165335315Y-97274569D01*
X165335326Y-97274567D01*
X165563483Y-97213433D01*
X165563492Y-97213429D01*
X165777578Y-97113600D01*
X165777582Y-97113598D01*
X165861373Y-97054926D01*
X165861373Y-97054925D01*
X165232533Y-96426086D01*
X165242315Y-96424680D01*
X165373100Y-96364952D01*
X165481761Y-96270798D01*
X165559493Y-96149844D01*
X165583076Y-96069524D01*
X166214925Y-96701373D01*
X166214926Y-96701373D01*
X166273598Y-96617582D01*
X166273600Y-96617578D01*
X166373429Y-96403492D01*
X166373433Y-96403483D01*
X166434567Y-96175326D01*
X166434569Y-96175315D01*
X166455157Y-95940001D01*
X166455157Y-95939998D01*
X166434569Y-95704684D01*
X166434567Y-95704673D01*
X166373433Y-95476516D01*
X166373429Y-95476507D01*
X166273600Y-95262423D01*
X166273599Y-95262421D01*
X166214925Y-95178626D01*
X166214925Y-95178625D01*
X165583076Y-95810475D01*
X165559493Y-95730156D01*
X165481761Y-95609202D01*
X165373100Y-95515048D01*
X165242315Y-95455320D01*
X165232533Y-95453913D01*
X165861373Y-94825073D01*
X165861373Y-94825072D01*
X165777583Y-94766402D01*
X165777579Y-94766400D01*
X165563492Y-94666570D01*
X165563483Y-94666566D01*
X165335326Y-94605432D01*
X165335315Y-94605430D01*
X165100002Y-94584843D01*
X165099998Y-94584843D01*
X164864684Y-94605430D01*
X164864673Y-94605432D01*
X164636516Y-94666566D01*
X164636507Y-94666570D01*
X164422419Y-94766401D01*
X164338625Y-94825072D01*
X164967466Y-95453913D01*
X164957685Y-95455320D01*
X164826900Y-95515048D01*
X164718239Y-95609202D01*
X164640507Y-95730156D01*
X164616923Y-95810476D01*
X163985072Y-95178625D01*
X163926401Y-95262419D01*
X163826570Y-95476507D01*
X163826566Y-95476516D01*
X163765432Y-95704673D01*
X163765430Y-95704683D01*
X163755814Y-95814596D01*
X163730361Y-95879665D01*
X163673770Y-95920643D01*
X163604008Y-95924521D01*
X163551755Y-95898079D01*
X163543655Y-95891161D01*
X163543653Y-95891160D01*
X163328859Y-95759533D01*
X163096110Y-95663126D01*
X162851151Y-95604317D01*
X162600000Y-95584551D01*
X162348848Y-95604317D01*
X162103889Y-95663126D01*
X161871140Y-95759533D01*
X161656346Y-95891160D01*
X161656343Y-95891161D01*
X161464776Y-96054776D01*
X161301161Y-96246343D01*
X161301160Y-96246346D01*
X161169533Y-96461140D01*
X161073126Y-96693889D01*
X161014317Y-96938848D01*
X160994551Y-97190000D01*
X150902332Y-97190000D01*
X150885061Y-97155316D01*
X150885056Y-97155308D01*
X150750979Y-96977761D01*
X150586562Y-96827876D01*
X150586560Y-96827874D01*
X150397404Y-96710754D01*
X150397395Y-96710750D01*
X150303956Y-96674552D01*
X150203475Y-96635625D01*
X150148075Y-96593054D01*
X150124484Y-96527288D01*
X150140195Y-96459207D01*
X150190219Y-96410428D01*
X150203466Y-96404377D01*
X150397401Y-96329247D01*
X150586562Y-96212124D01*
X150750981Y-96062236D01*
X150885058Y-95884689D01*
X150984229Y-95685528D01*
X151045115Y-95471536D01*
X151065643Y-95250000D01*
X151045115Y-95028464D01*
X150984229Y-94814472D01*
X150960293Y-94766402D01*
X150885061Y-94615316D01*
X150885056Y-94615308D01*
X150750979Y-94437761D01*
X150586562Y-94287876D01*
X150586560Y-94287874D01*
X150397404Y-94170754D01*
X150397395Y-94170750D01*
X150303956Y-94134552D01*
X150203475Y-94095625D01*
X150148075Y-94053054D01*
X150124484Y-93987288D01*
X150140195Y-93919207D01*
X150190219Y-93870428D01*
X150203466Y-93864377D01*
X150397401Y-93789247D01*
X150586562Y-93672124D01*
X150750981Y-93522236D01*
X150765605Y-93502870D01*
X156229500Y-93502870D01*
X156229501Y-93502876D01*
X156235908Y-93562483D01*
X156286202Y-93697328D01*
X156286206Y-93697335D01*
X156372452Y-93812544D01*
X156372455Y-93812547D01*
X156487664Y-93898793D01*
X156487671Y-93898797D01*
X156622517Y-93949091D01*
X156622516Y-93949091D01*
X156629444Y-93949835D01*
X156682127Y-93955500D01*
X158277872Y-93955499D01*
X158337483Y-93949091D01*
X158472331Y-93898796D01*
X158587546Y-93812546D01*
X158673796Y-93697331D01*
X158724091Y-93562483D01*
X158730500Y-93502873D01*
X158730499Y-91907128D01*
X158724091Y-91847517D01*
X158697298Y-91775682D01*
X158673797Y-91712671D01*
X158673793Y-91712664D01*
X158587547Y-91597455D01*
X158587544Y-91597452D01*
X158472335Y-91511206D01*
X158472328Y-91511202D01*
X158337482Y-91460908D01*
X158337483Y-91460908D01*
X158277883Y-91454501D01*
X158277881Y-91454500D01*
X158277873Y-91454500D01*
X158277864Y-91454500D01*
X156682129Y-91454500D01*
X156682123Y-91454501D01*
X156622516Y-91460908D01*
X156487671Y-91511202D01*
X156487664Y-91511206D01*
X156372455Y-91597452D01*
X156372452Y-91597455D01*
X156286206Y-91712664D01*
X156286202Y-91712671D01*
X156235908Y-91847517D01*
X156229873Y-91903655D01*
X156229501Y-91907123D01*
X156229500Y-91907135D01*
X156229500Y-93502870D01*
X150765605Y-93502870D01*
X150885058Y-93344689D01*
X150984229Y-93145528D01*
X151045115Y-92931536D01*
X151065643Y-92710000D01*
X151045115Y-92488464D01*
X150984229Y-92274472D01*
X150984224Y-92274461D01*
X150885061Y-92075316D01*
X150885056Y-92075308D01*
X150750979Y-91897761D01*
X150586562Y-91747876D01*
X150586560Y-91747874D01*
X150397404Y-91630754D01*
X150397395Y-91630750D01*
X150303956Y-91594552D01*
X150203475Y-91555625D01*
X150148075Y-91513054D01*
X150124484Y-91447288D01*
X150140195Y-91379207D01*
X150190219Y-91330428D01*
X150203466Y-91324377D01*
X150397401Y-91249247D01*
X150586562Y-91132124D01*
X150750981Y-90982236D01*
X150885058Y-90804689D01*
X150984229Y-90605528D01*
X151045115Y-90391536D01*
X151063790Y-90190000D01*
X160994551Y-90190000D01*
X161014317Y-90441151D01*
X161073126Y-90686110D01*
X161169533Y-90918859D01*
X161301160Y-91133653D01*
X161301161Y-91133656D01*
X161301164Y-91133659D01*
X161464776Y-91325224D01*
X161607695Y-91447288D01*
X161656343Y-91488838D01*
X161656346Y-91488839D01*
X161871140Y-91620466D01*
X162093740Y-91712669D01*
X162103889Y-91716873D01*
X162348852Y-91775683D01*
X162600000Y-91795449D01*
X162851148Y-91775683D01*
X163096111Y-91716873D01*
X163328859Y-91620466D01*
X163543659Y-91488836D01*
X163551285Y-91482322D01*
X163615044Y-91453750D01*
X163684130Y-91464184D01*
X163736608Y-91510313D01*
X163755347Y-91565802D01*
X163764936Y-91675403D01*
X163764938Y-91675413D01*
X163826094Y-91903655D01*
X163826096Y-91903659D01*
X163826097Y-91903663D01*
X163906137Y-92075308D01*
X163925965Y-92117830D01*
X163925967Y-92117834D01*
X164034281Y-92272521D01*
X164061505Y-92311401D01*
X164228599Y-92478495D01*
X164325384Y-92546265D01*
X164422165Y-92614032D01*
X164422167Y-92614033D01*
X164422170Y-92614035D01*
X164636337Y-92713903D01*
X164864592Y-92775063D01*
X165052918Y-92791539D01*
X165099999Y-92795659D01*
X165100000Y-92795659D01*
X165100001Y-92795659D01*
X165139234Y-92792226D01*
X165335408Y-92775063D01*
X165563663Y-92713903D01*
X165777830Y-92614035D01*
X165971401Y-92478495D01*
X166138495Y-92311401D01*
X166274035Y-92117830D01*
X166373903Y-91903663D01*
X166435063Y-91675408D01*
X166455659Y-91440000D01*
X166455021Y-91432713D01*
X166446072Y-91330428D01*
X166435063Y-91204592D01*
X166373903Y-90976337D01*
X166274035Y-90762171D01*
X166220778Y-90686111D01*
X166138494Y-90568597D01*
X165971402Y-90401506D01*
X165971395Y-90401501D01*
X165777834Y-90265967D01*
X165777830Y-90265965D01*
X165713027Y-90235747D01*
X165563663Y-90166097D01*
X165563659Y-90166096D01*
X165563655Y-90166094D01*
X165335413Y-90104938D01*
X165335403Y-90104936D01*
X165100001Y-90084341D01*
X165099999Y-90084341D01*
X164864596Y-90104936D01*
X164864586Y-90104938D01*
X164636344Y-90166094D01*
X164636335Y-90166098D01*
X164422171Y-90265964D01*
X164422165Y-90265968D01*
X164400151Y-90281382D01*
X164333945Y-90303709D01*
X164266178Y-90286696D01*
X164218366Y-90235747D01*
X164205412Y-90189535D01*
X164203875Y-90170000D01*
X164185683Y-89938852D01*
X164126873Y-89693889D01*
X164079029Y-89578382D01*
X164030466Y-89461140D01*
X163898839Y-89246346D01*
X163898838Y-89246343D01*
X163861875Y-89203066D01*
X163735224Y-89054776D01*
X163545473Y-88892713D01*
X163543656Y-88891161D01*
X163543653Y-88891160D01*
X163328859Y-88759533D01*
X163096110Y-88663126D01*
X162851151Y-88604317D01*
X162600000Y-88584551D01*
X162348848Y-88604317D01*
X162103889Y-88663126D01*
X161871140Y-88759533D01*
X161656346Y-88891160D01*
X161656343Y-88891161D01*
X161464776Y-89054776D01*
X161301161Y-89246343D01*
X161301160Y-89246346D01*
X161169533Y-89461140D01*
X161073126Y-89693889D01*
X161014317Y-89938848D01*
X160994551Y-90190000D01*
X151063790Y-90190000D01*
X151065643Y-90170000D01*
X151065281Y-90166098D01*
X151045115Y-89948464D01*
X151045114Y-89948462D01*
X150988826Y-89750631D01*
X150984229Y-89734472D01*
X150972246Y-89710407D01*
X150885061Y-89535316D01*
X150885056Y-89535308D01*
X150750979Y-89357761D01*
X150586562Y-89207876D01*
X150586560Y-89207874D01*
X150397404Y-89090754D01*
X150397395Y-89090750D01*
X150303956Y-89054552D01*
X150203475Y-89015625D01*
X150148075Y-88973054D01*
X150124484Y-88907288D01*
X150140195Y-88839207D01*
X150190219Y-88790428D01*
X150203466Y-88784377D01*
X150397401Y-88709247D01*
X150586562Y-88592124D01*
X150750981Y-88442236D01*
X150885058Y-88264689D01*
X150984229Y-88065528D01*
X151045115Y-87851536D01*
X151065643Y-87630000D01*
X151045115Y-87408464D01*
X150984229Y-87194472D01*
X150889975Y-87005185D01*
X150885061Y-86995316D01*
X150885056Y-86995308D01*
X150750979Y-86817761D01*
X150586562Y-86667876D01*
X150586560Y-86667874D01*
X150397404Y-86550754D01*
X150397398Y-86550752D01*
X150189940Y-86470382D01*
X149971243Y-86429500D01*
X149748757Y-86429500D01*
X149530060Y-86470382D01*
X149398864Y-86521207D01*
X149322601Y-86550752D01*
X149322595Y-86550754D01*
X149133439Y-86667874D01*
X149133437Y-86667876D01*
X148969020Y-86817762D01*
X148922949Y-86878770D01*
X148866840Y-86920406D01*
X148797128Y-86925097D01*
X148736314Y-86891724D01*
X147771772Y-85927181D01*
X147738287Y-85865858D01*
X147743271Y-85796166D01*
X147785143Y-85740233D01*
X147850607Y-85715816D01*
X147859453Y-85715500D01*
X156259559Y-85715500D01*
X156326598Y-85735185D01*
X156372353Y-85787989D01*
X156382297Y-85857147D01*
X156370560Y-85894771D01*
X156355774Y-85924465D01*
X156355769Y-85924476D01*
X156294885Y-86138462D01*
X156294884Y-86138464D01*
X156274357Y-86359999D01*
X156274357Y-86360000D01*
X156294884Y-86581535D01*
X156294885Y-86581537D01*
X156355769Y-86795523D01*
X156355775Y-86795538D01*
X156454938Y-86994683D01*
X156454943Y-86994691D01*
X156589020Y-87172238D01*
X156753437Y-87322123D01*
X156753439Y-87322125D01*
X156942595Y-87439245D01*
X156942596Y-87439245D01*
X156942599Y-87439247D01*
X157150060Y-87519618D01*
X157368757Y-87560500D01*
X157368759Y-87560500D01*
X157591241Y-87560500D01*
X157591243Y-87560500D01*
X157809940Y-87519618D01*
X158017401Y-87439247D01*
X158206562Y-87322124D01*
X158370981Y-87172236D01*
X158505058Y-86994689D01*
X158523586Y-86957481D01*
X158604224Y-86795538D01*
X158604223Y-86795538D01*
X158604229Y-86795528D01*
X158665115Y-86581536D01*
X158685643Y-86360000D01*
X158685194Y-86355159D01*
X158665115Y-86138464D01*
X158665114Y-86138462D01*
X158660159Y-86121048D01*
X158604229Y-85924472D01*
X158589440Y-85894771D01*
X158577180Y-85825985D01*
X158604054Y-85761491D01*
X158661530Y-85721763D01*
X158700441Y-85715500D01*
X162249548Y-85715500D01*
X162316587Y-85735185D01*
X162337228Y-85751818D01*
X162834822Y-86249413D01*
X163329197Y-86743788D01*
X163339022Y-86756051D01*
X163339243Y-86755869D01*
X163344214Y-86761878D01*
X163370217Y-86786295D01*
X163394635Y-86809226D01*
X163415529Y-86830120D01*
X163421011Y-86834373D01*
X163425443Y-86838157D01*
X163459418Y-86870062D01*
X163476976Y-86879714D01*
X163493235Y-86890395D01*
X163509064Y-86902673D01*
X163551838Y-86921182D01*
X163557056Y-86923738D01*
X163597908Y-86946197D01*
X163617316Y-86951180D01*
X163635717Y-86957480D01*
X163654104Y-86965437D01*
X163697488Y-86972308D01*
X163700119Y-86972725D01*
X163705839Y-86973909D01*
X163750981Y-86985500D01*
X163771016Y-86985500D01*
X163790414Y-86987026D01*
X163810194Y-86990159D01*
X163810195Y-86990160D01*
X163810195Y-86990159D01*
X163810196Y-86990160D01*
X163856584Y-86985775D01*
X163862422Y-86985500D01*
X164006258Y-86985500D01*
X164073297Y-87005185D01*
X164105212Y-87034773D01*
X164209020Y-87172238D01*
X164373437Y-87322123D01*
X164373439Y-87322125D01*
X164562595Y-87439245D01*
X164562596Y-87439245D01*
X164562599Y-87439247D01*
X164770060Y-87519618D01*
X164988757Y-87560500D01*
X164988759Y-87560500D01*
X165211241Y-87560500D01*
X165211243Y-87560500D01*
X165429940Y-87519618D01*
X165637401Y-87439247D01*
X165826562Y-87322124D01*
X165990981Y-87172236D01*
X166125058Y-86994689D01*
X166143586Y-86957481D01*
X166224224Y-86795538D01*
X166224223Y-86795538D01*
X166224229Y-86795528D01*
X166285115Y-86581536D01*
X166305643Y-86360000D01*
X166305194Y-86355159D01*
X166285115Y-86138464D01*
X166285114Y-86138462D01*
X166280159Y-86121048D01*
X166224229Y-85924472D01*
X166160340Y-85796166D01*
X166125061Y-85725316D01*
X166125056Y-85725308D01*
X165990979Y-85547761D01*
X165826562Y-85397876D01*
X165826560Y-85397874D01*
X165637404Y-85280754D01*
X165637398Y-85280752D01*
X165429940Y-85200382D01*
X165211243Y-85159500D01*
X164988757Y-85159500D01*
X164770060Y-85200382D01*
X164638864Y-85251207D01*
X164562601Y-85280752D01*
X164562595Y-85280754D01*
X164373439Y-85397874D01*
X164373437Y-85397876D01*
X164209019Y-85547762D01*
X164209019Y-85547763D01*
X164162948Y-85608770D01*
X164106839Y-85650405D01*
X164037127Y-85655096D01*
X163976314Y-85621723D01*
X163060803Y-84706212D01*
X163050980Y-84693950D01*
X163050759Y-84694134D01*
X163045786Y-84688123D01*
X162995364Y-84640773D01*
X162984919Y-84630328D01*
X162974475Y-84619883D01*
X162968986Y-84615625D01*
X162964561Y-84611847D01*
X162930582Y-84579938D01*
X162930580Y-84579936D01*
X162930577Y-84579935D01*
X162913029Y-84570288D01*
X162896763Y-84559604D01*
X162880933Y-84547325D01*
X162838168Y-84528818D01*
X162832922Y-84526248D01*
X162792093Y-84503803D01*
X162792092Y-84503802D01*
X162772693Y-84498822D01*
X162754281Y-84492518D01*
X162735898Y-84484562D01*
X162735892Y-84484560D01*
X162689874Y-84477272D01*
X162684152Y-84476087D01*
X162639021Y-84464500D01*
X162639019Y-84464500D01*
X162618984Y-84464500D01*
X162599586Y-84462973D01*
X162592162Y-84461797D01*
X162579805Y-84459840D01*
X162579804Y-84459840D01*
X162533416Y-84464225D01*
X162527578Y-84464500D01*
X129850453Y-84464500D01*
X129783414Y-84444815D01*
X129762772Y-84428181D01*
X127884591Y-82550000D01*
X141034357Y-82550000D01*
X141054884Y-82771535D01*
X141054885Y-82771537D01*
X141115769Y-82985523D01*
X141115775Y-82985538D01*
X141214938Y-83184683D01*
X141214943Y-83184691D01*
X141349020Y-83362238D01*
X141495739Y-83495989D01*
X141510603Y-83509540D01*
X141513437Y-83512123D01*
X141513439Y-83512125D01*
X141702595Y-83629245D01*
X141702596Y-83629245D01*
X141702599Y-83629247D01*
X141910060Y-83709618D01*
X142128757Y-83750500D01*
X142128759Y-83750500D01*
X142351241Y-83750500D01*
X142351243Y-83750500D01*
X142569940Y-83709618D01*
X142777401Y-83629247D01*
X142966562Y-83512124D01*
X143130981Y-83362236D01*
X143265058Y-83184689D01*
X143364229Y-82985528D01*
X143425115Y-82771536D01*
X143445643Y-82550000D01*
X148654357Y-82550000D01*
X148674884Y-82771535D01*
X148674885Y-82771537D01*
X148735769Y-82985523D01*
X148735775Y-82985538D01*
X148834938Y-83184683D01*
X148834943Y-83184691D01*
X148969020Y-83362238D01*
X149115739Y-83495989D01*
X149130603Y-83509540D01*
X149133437Y-83512123D01*
X149133439Y-83512125D01*
X149322595Y-83629245D01*
X149322596Y-83629245D01*
X149322599Y-83629247D01*
X149530060Y-83709618D01*
X149748757Y-83750500D01*
X149748759Y-83750500D01*
X149971241Y-83750500D01*
X149971243Y-83750500D01*
X150189940Y-83709618D01*
X150397401Y-83629247D01*
X150586562Y-83512124D01*
X150750981Y-83362236D01*
X150885058Y-83184689D01*
X150984229Y-82985528D01*
X151045115Y-82771536D01*
X151065643Y-82550000D01*
X151045115Y-82328464D01*
X150984229Y-82114472D01*
X150984224Y-82114461D01*
X150885061Y-81915316D01*
X150885056Y-81915308D01*
X150750979Y-81737761D01*
X150586562Y-81587876D01*
X150586560Y-81587874D01*
X150397404Y-81470754D01*
X150397395Y-81470750D01*
X150303956Y-81434552D01*
X150203475Y-81395625D01*
X150148075Y-81353054D01*
X150124484Y-81287288D01*
X150140195Y-81219207D01*
X150190219Y-81170428D01*
X150203466Y-81164377D01*
X150397401Y-81089247D01*
X150586562Y-80972124D01*
X150750981Y-80822236D01*
X150885058Y-80644689D01*
X150984229Y-80445528D01*
X151045115Y-80231536D01*
X151065643Y-80010000D01*
X151045115Y-79788464D01*
X150984229Y-79574472D01*
X150975376Y-79556692D01*
X150885061Y-79375316D01*
X150885056Y-79375308D01*
X150750979Y-79197761D01*
X150586562Y-79047876D01*
X150586560Y-79047874D01*
X150397404Y-78930754D01*
X150397398Y-78930752D01*
X150189940Y-78850382D01*
X149971243Y-78809500D01*
X149748757Y-78809500D01*
X149530060Y-78850382D01*
X149486563Y-78867233D01*
X149322601Y-78930752D01*
X149322595Y-78930754D01*
X149133439Y-79047874D01*
X149133437Y-79047876D01*
X148969020Y-79197761D01*
X148834943Y-79375308D01*
X148834938Y-79375316D01*
X148735775Y-79574461D01*
X148735769Y-79574476D01*
X148674885Y-79788462D01*
X148674884Y-79788464D01*
X148654357Y-80009999D01*
X148654357Y-80010000D01*
X148674884Y-80231535D01*
X148674885Y-80231537D01*
X148735769Y-80445523D01*
X148735775Y-80445538D01*
X148834938Y-80644683D01*
X148834943Y-80644691D01*
X148969020Y-80822238D01*
X149133437Y-80972123D01*
X149133439Y-80972125D01*
X149322595Y-81089245D01*
X149322596Y-81089245D01*
X149322599Y-81089247D01*
X149516524Y-81164374D01*
X149571924Y-81206946D01*
X149595515Y-81272713D01*
X149579804Y-81340793D01*
X149529780Y-81389572D01*
X149516533Y-81395622D01*
X149369403Y-81452621D01*
X149322601Y-81470752D01*
X149322595Y-81470754D01*
X149133439Y-81587874D01*
X149133437Y-81587876D01*
X148969020Y-81737761D01*
X148834943Y-81915308D01*
X148834938Y-81915316D01*
X148735775Y-82114461D01*
X148735769Y-82114476D01*
X148674885Y-82328462D01*
X148674884Y-82328464D01*
X148654357Y-82549999D01*
X148654357Y-82550000D01*
X143445643Y-82550000D01*
X143425115Y-82328464D01*
X143364229Y-82114472D01*
X143364224Y-82114461D01*
X143265061Y-81915316D01*
X143265056Y-81915308D01*
X143130979Y-81737761D01*
X142966562Y-81587876D01*
X142966560Y-81587874D01*
X142777404Y-81470754D01*
X142777395Y-81470750D01*
X142683956Y-81434552D01*
X142583475Y-81395625D01*
X142528075Y-81353054D01*
X142504484Y-81287288D01*
X142520195Y-81219207D01*
X142570219Y-81170428D01*
X142583466Y-81164377D01*
X142777401Y-81089247D01*
X142966562Y-80972124D01*
X143130981Y-80822236D01*
X143265058Y-80644689D01*
X143364229Y-80445528D01*
X143425115Y-80231536D01*
X143445643Y-80010000D01*
X143425115Y-79788464D01*
X143364229Y-79574472D01*
X143355376Y-79556692D01*
X143265061Y-79375316D01*
X143265056Y-79375308D01*
X143130979Y-79197761D01*
X142966562Y-79047876D01*
X142966560Y-79047874D01*
X142777404Y-78930754D01*
X142777398Y-78930752D01*
X142569940Y-78850382D01*
X142351243Y-78809500D01*
X142128757Y-78809500D01*
X141910060Y-78850382D01*
X141866563Y-78867233D01*
X141702601Y-78930752D01*
X141702595Y-78930754D01*
X141513439Y-79047874D01*
X141513437Y-79047876D01*
X141349020Y-79197761D01*
X141214943Y-79375308D01*
X141214938Y-79375316D01*
X141115775Y-79574461D01*
X141115769Y-79574476D01*
X141054885Y-79788462D01*
X141054884Y-79788464D01*
X141034357Y-80009999D01*
X141034357Y-80010000D01*
X141054884Y-80231535D01*
X141054885Y-80231537D01*
X141115769Y-80445523D01*
X141115775Y-80445538D01*
X141214938Y-80644683D01*
X141214943Y-80644691D01*
X141349020Y-80822238D01*
X141513437Y-80972123D01*
X141513439Y-80972125D01*
X141702595Y-81089245D01*
X141702596Y-81089245D01*
X141702599Y-81089247D01*
X141896524Y-81164374D01*
X141951924Y-81206946D01*
X141975515Y-81272713D01*
X141959804Y-81340793D01*
X141909780Y-81389572D01*
X141896533Y-81395622D01*
X141749403Y-81452621D01*
X141702601Y-81470752D01*
X141702595Y-81470754D01*
X141513439Y-81587874D01*
X141513437Y-81587876D01*
X141349020Y-81737761D01*
X141214943Y-81915308D01*
X141214938Y-81915316D01*
X141115775Y-82114461D01*
X141115769Y-82114476D01*
X141054885Y-82328462D01*
X141054884Y-82328464D01*
X141034357Y-82549999D01*
X141034357Y-82550000D01*
X127884591Y-82550000D01*
X122791131Y-77456540D01*
X122757646Y-77395217D01*
X122762630Y-77325525D01*
X122785857Y-77288428D01*
X122785337Y-77288019D01*
X122788983Y-77283381D01*
X122788982Y-77283381D01*
X122788986Y-77283378D01*
X122902613Y-77106572D01*
X122980725Y-76911457D01*
X123020500Y-76705085D01*
X123020500Y-76652425D01*
X123359500Y-76652425D01*
X123374463Y-76809122D01*
X123374472Y-76809217D01*
X123374473Y-76809221D01*
X123433628Y-77010686D01*
X123433684Y-77010875D01*
X123511391Y-77161606D01*
X123529991Y-77197686D01*
X123659905Y-77362883D01*
X123659909Y-77362887D01*
X123818746Y-77500521D01*
X124000750Y-77605601D01*
X124000752Y-77605601D01*
X124000756Y-77605604D01*
X124199367Y-77674344D01*
X124407398Y-77704254D01*
X124617330Y-77694254D01*
X124821576Y-77644704D01*
X124988161Y-77568627D01*
X125012743Y-77557401D01*
X125012746Y-77557399D01*
X125012753Y-77557396D01*
X125183952Y-77435486D01*
X125184317Y-77435104D01*
X125328985Y-77283379D01*
X125351797Y-77247883D01*
X125442613Y-77106572D01*
X125520725Y-76911457D01*
X125560500Y-76705085D01*
X125560500Y-76652425D01*
X125899500Y-76652425D01*
X125914463Y-76809122D01*
X125914472Y-76809217D01*
X125914473Y-76809221D01*
X125973628Y-77010686D01*
X125973684Y-77010875D01*
X126051391Y-77161606D01*
X126069991Y-77197686D01*
X126199905Y-77362883D01*
X126199909Y-77362887D01*
X126358746Y-77500521D01*
X126540750Y-77605601D01*
X126540752Y-77605601D01*
X126540756Y-77605604D01*
X126739367Y-77674344D01*
X126947398Y-77704254D01*
X127157330Y-77694254D01*
X127361576Y-77644704D01*
X127528161Y-77568627D01*
X127552743Y-77557401D01*
X127552746Y-77557399D01*
X127552753Y-77557396D01*
X127723952Y-77435486D01*
X127724317Y-77435104D01*
X127868985Y-77283379D01*
X127891797Y-77247883D01*
X127982613Y-77106572D01*
X128060725Y-76911457D01*
X128100500Y-76705085D01*
X128100500Y-76652425D01*
X128439500Y-76652425D01*
X128454463Y-76809122D01*
X128454472Y-76809217D01*
X128454473Y-76809221D01*
X128513628Y-77010686D01*
X128513684Y-77010875D01*
X128591391Y-77161606D01*
X128609991Y-77197686D01*
X128739905Y-77362883D01*
X128739909Y-77362887D01*
X128898746Y-77500521D01*
X129080750Y-77605601D01*
X129080752Y-77605601D01*
X129080756Y-77605604D01*
X129279367Y-77674344D01*
X129487398Y-77704254D01*
X129697330Y-77694254D01*
X129901576Y-77644704D01*
X130068161Y-77568627D01*
X130092743Y-77557401D01*
X130092746Y-77557399D01*
X130092753Y-77557396D01*
X130263952Y-77435486D01*
X130264317Y-77435104D01*
X130408985Y-77283379D01*
X130431797Y-77247883D01*
X130431805Y-77247870D01*
X130979500Y-77247870D01*
X130979501Y-77247876D01*
X130985908Y-77307483D01*
X131036202Y-77442328D01*
X131036206Y-77442335D01*
X131122452Y-77557544D01*
X131122455Y-77557547D01*
X131237664Y-77643793D01*
X131237671Y-77643797D01*
X131372517Y-77694091D01*
X131372516Y-77694091D01*
X131379444Y-77694835D01*
X131432127Y-77700500D01*
X132727872Y-77700499D01*
X132787483Y-77694091D01*
X132922331Y-77643796D01*
X133037546Y-77557546D01*
X133103083Y-77470000D01*
X134684357Y-77470000D01*
X134704884Y-77691535D01*
X134704885Y-77691537D01*
X134765769Y-77905523D01*
X134765775Y-77905538D01*
X134864938Y-78104683D01*
X134864943Y-78104691D01*
X134999020Y-78282238D01*
X135163437Y-78432123D01*
X135163439Y-78432125D01*
X135352595Y-78549245D01*
X135352596Y-78549245D01*
X135352599Y-78549247D01*
X135560060Y-78629618D01*
X135778757Y-78670500D01*
X135778759Y-78670500D01*
X136001241Y-78670500D01*
X136001243Y-78670500D01*
X136219940Y-78629618D01*
X136427401Y-78549247D01*
X136616562Y-78432124D01*
X136780981Y-78282236D01*
X136915058Y-78104689D01*
X137014229Y-77905528D01*
X137040734Y-77812371D01*
X137078013Y-77753278D01*
X137141323Y-77723721D01*
X137210562Y-77733083D01*
X137263749Y-77778393D01*
X137279266Y-77812372D01*
X137305769Y-77905523D01*
X137305775Y-77905538D01*
X137404938Y-78104683D01*
X137404943Y-78104691D01*
X137539020Y-78282238D01*
X137703437Y-78432123D01*
X137703439Y-78432125D01*
X137892595Y-78549245D01*
X137892596Y-78549245D01*
X137892599Y-78549247D01*
X138100060Y-78629618D01*
X138318757Y-78670500D01*
X138318759Y-78670500D01*
X138541241Y-78670500D01*
X138541243Y-78670500D01*
X138759940Y-78629618D01*
X138967401Y-78549247D01*
X139156562Y-78432124D01*
X139320981Y-78282236D01*
X139455058Y-78104689D01*
X139554229Y-77905528D01*
X139615115Y-77691536D01*
X139635643Y-77470000D01*
X139632409Y-77435104D01*
X139615115Y-77248464D01*
X139615114Y-77248462D01*
X139614949Y-77247883D01*
X139554229Y-77034472D01*
X139542385Y-77010686D01*
X139455061Y-76835316D01*
X139455056Y-76835308D01*
X139320979Y-76657761D01*
X139156562Y-76507876D01*
X139156560Y-76507874D01*
X138967404Y-76390754D01*
X138967398Y-76390752D01*
X138759940Y-76310382D01*
X138541243Y-76269500D01*
X138318757Y-76269500D01*
X138100060Y-76310382D01*
X138061945Y-76325148D01*
X137892601Y-76390752D01*
X137892595Y-76390754D01*
X137703439Y-76507874D01*
X137703437Y-76507876D01*
X137539020Y-76657761D01*
X137404943Y-76835308D01*
X137404938Y-76835316D01*
X137305775Y-77034461D01*
X137305769Y-77034476D01*
X137279266Y-77127627D01*
X137241987Y-77186721D01*
X137178677Y-77216278D01*
X137109438Y-77206916D01*
X137056251Y-77161606D01*
X137040734Y-77127627D01*
X137014230Y-77034476D01*
X137014229Y-77034472D01*
X137002385Y-77010686D01*
X136915061Y-76835316D01*
X136915056Y-76835308D01*
X136780979Y-76657761D01*
X136616562Y-76507876D01*
X136616560Y-76507874D01*
X136427404Y-76390754D01*
X136427398Y-76390752D01*
X136219940Y-76310382D01*
X136001243Y-76269500D01*
X135778757Y-76269500D01*
X135560060Y-76310382D01*
X135521945Y-76325148D01*
X135352601Y-76390752D01*
X135352595Y-76390754D01*
X135163439Y-76507874D01*
X135163437Y-76507876D01*
X134999020Y-76657761D01*
X134864943Y-76835308D01*
X134864938Y-76835316D01*
X134765775Y-77034461D01*
X134765769Y-77034476D01*
X134704885Y-77248462D01*
X134704884Y-77248464D01*
X134684357Y-77469999D01*
X134684357Y-77470000D01*
X133103083Y-77470000D01*
X133123796Y-77442331D01*
X133174091Y-77307483D01*
X133180500Y-77247873D01*
X133180499Y-75827844D01*
X140890000Y-75827844D01*
X140896401Y-75887372D01*
X140896403Y-75887379D01*
X140946645Y-76022086D01*
X140946649Y-76022093D01*
X141032809Y-76137187D01*
X141032812Y-76137190D01*
X141147906Y-76223350D01*
X141147913Y-76223354D01*
X141282620Y-76273596D01*
X141282627Y-76273598D01*
X141342155Y-76279999D01*
X141342172Y-76280000D01*
X141990000Y-76280000D01*
X141990000Y-75365501D01*
X142097685Y-75414680D01*
X142204237Y-75430000D01*
X142275763Y-75430000D01*
X142382315Y-75414680D01*
X142490000Y-75365501D01*
X142490000Y-76280000D01*
X143137828Y-76280000D01*
X143137844Y-76279999D01*
X143197372Y-76273598D01*
X143197379Y-76273596D01*
X143332086Y-76223354D01*
X143332093Y-76223350D01*
X143447187Y-76137190D01*
X143447190Y-76137187D01*
X143533350Y-76022093D01*
X143533354Y-76022086D01*
X143582422Y-75890529D01*
X143624293Y-75834595D01*
X143689757Y-75810178D01*
X143758030Y-75825030D01*
X143786285Y-75846181D01*
X143908599Y-75968495D01*
X143954307Y-76000500D01*
X144102165Y-76104032D01*
X144102167Y-76104033D01*
X144102170Y-76104035D01*
X144316337Y-76203903D01*
X144316343Y-76203904D01*
X144316344Y-76203905D01*
X144371285Y-76218626D01*
X144544592Y-76265063D01*
X144715319Y-76280000D01*
X144779999Y-76285659D01*
X144780000Y-76285659D01*
X144780001Y-76285659D01*
X144844681Y-76280000D01*
X145015408Y-76265063D01*
X145243663Y-76203903D01*
X145457830Y-76104035D01*
X145651401Y-75968495D01*
X145818495Y-75801401D01*
X145948425Y-75615842D01*
X146003002Y-75572217D01*
X146072500Y-75565023D01*
X146134855Y-75596546D01*
X146151575Y-75615842D01*
X146243833Y-75747601D01*
X146281505Y-75801401D01*
X146448599Y-75968495D01*
X146494307Y-76000500D01*
X146642165Y-76104032D01*
X146642167Y-76104033D01*
X146642170Y-76104035D01*
X146856337Y-76203903D01*
X146856343Y-76203904D01*
X146856344Y-76203905D01*
X146911285Y-76218626D01*
X147084592Y-76265063D01*
X147255319Y-76280000D01*
X147319999Y-76285659D01*
X147320000Y-76285659D01*
X147320001Y-76285659D01*
X147384681Y-76280000D01*
X147555408Y-76265063D01*
X147783663Y-76203903D01*
X147997830Y-76104035D01*
X148191401Y-75968495D01*
X148358495Y-75801401D01*
X148488425Y-75615842D01*
X148543002Y-75572217D01*
X148612500Y-75565023D01*
X148674855Y-75596546D01*
X148691575Y-75615842D01*
X148783833Y-75747601D01*
X148821505Y-75801401D01*
X148988599Y-75968495D01*
X149034307Y-76000500D01*
X149182165Y-76104032D01*
X149182167Y-76104033D01*
X149182170Y-76104035D01*
X149396337Y-76203903D01*
X149396343Y-76203904D01*
X149396344Y-76203905D01*
X149451285Y-76218626D01*
X149624592Y-76265063D01*
X149750096Y-76276043D01*
X149815164Y-76301495D01*
X149826969Y-76311890D01*
X156763566Y-83248487D01*
X156824941Y-83313053D01*
X156824944Y-83313055D01*
X156824947Y-83313058D01*
X156848429Y-83329401D01*
X156875295Y-83348100D01*
X156879050Y-83350932D01*
X156926593Y-83389698D01*
X156957045Y-83405604D01*
X156963756Y-83409671D01*
X156991951Y-83429295D01*
X157048332Y-83453490D01*
X157052567Y-83455501D01*
X157106951Y-83483909D01*
X157139973Y-83493356D01*
X157147365Y-83495989D01*
X157178940Y-83509539D01*
X157178941Y-83509540D01*
X157191512Y-83512123D01*
X157239055Y-83521892D01*
X157243595Y-83523006D01*
X157302582Y-83539886D01*
X157336841Y-83542494D01*
X157344609Y-83543585D01*
X157378255Y-83550500D01*
X157378259Y-83550500D01*
X157439601Y-83550500D01*
X157444308Y-83550678D01*
X157471597Y-83552757D01*
X157505475Y-83555337D01*
X157505475Y-83555336D01*
X157505476Y-83555337D01*
X157539559Y-83550996D01*
X157547389Y-83550500D01*
X160007284Y-83550500D01*
X160096358Y-83552757D01*
X160096358Y-83552756D01*
X160096363Y-83552757D01*
X160156753Y-83541932D01*
X160161412Y-83541280D01*
X160203607Y-83536988D01*
X160222438Y-83535074D01*
X160255227Y-83524786D01*
X160262840Y-83522918D01*
X160296653Y-83516858D01*
X160353621Y-83494101D01*
X160358053Y-83492524D01*
X160416588Y-83474159D01*
X160446627Y-83457484D01*
X160453708Y-83454122D01*
X160485617Y-83441377D01*
X160536854Y-83407608D01*
X160540851Y-83405187D01*
X160594502Y-83375409D01*
X160620568Y-83353030D01*
X160626843Y-83348300D01*
X160627156Y-83348094D01*
X160655519Y-83329402D01*
X160698917Y-83286002D01*
X160702336Y-83282834D01*
X160748895Y-83242866D01*
X160769931Y-83215688D01*
X160775101Y-83209818D01*
X162078240Y-81906679D01*
X162139561Y-81873196D01*
X162209253Y-81878180D01*
X162265186Y-81920052D01*
X162289603Y-81985516D01*
X162274974Y-82053379D01*
X162171175Y-82245183D01*
X162171169Y-82245197D01*
X162090429Y-82480383D01*
X162049500Y-82725665D01*
X162049500Y-82974335D01*
X162063143Y-83056094D01*
X162090429Y-83219616D01*
X162171169Y-83454802D01*
X162171172Y-83454811D01*
X162289524Y-83673506D01*
X162289526Y-83673509D01*
X162442262Y-83869744D01*
X162601744Y-84016557D01*
X162625217Y-84038166D01*
X162833393Y-84174173D01*
X163061118Y-84274063D01*
X163302175Y-84335107D01*
X163302179Y-84335108D01*
X163302181Y-84335108D01*
X163302186Y-84335109D01*
X163435376Y-84346145D01*
X163487933Y-84350500D01*
X163487935Y-84350500D01*
X165112065Y-84350500D01*
X165112067Y-84350500D01*
X165173284Y-84345427D01*
X165297813Y-84335109D01*
X165297816Y-84335108D01*
X165297821Y-84335108D01*
X165538881Y-84274063D01*
X165766607Y-84174173D01*
X165974785Y-84038164D01*
X166157738Y-83869744D01*
X166310474Y-83673509D01*
X166428828Y-83454810D01*
X166509571Y-83219614D01*
X166550500Y-82974335D01*
X166550500Y-82725665D01*
X166509571Y-82480386D01*
X166428828Y-82245190D01*
X166310474Y-82026491D01*
X166157738Y-81830256D01*
X165974785Y-81661836D01*
X165974782Y-81661833D01*
X165766606Y-81525826D01*
X165538881Y-81425936D01*
X165297824Y-81364892D01*
X165297813Y-81364890D01*
X165132548Y-81351197D01*
X165112067Y-81349500D01*
X163487933Y-81349500D01*
X163468521Y-81351108D01*
X163302186Y-81364890D01*
X163302175Y-81364892D01*
X163061118Y-81425936D01*
X162833393Y-81525826D01*
X162625217Y-81661833D01*
X162559012Y-81722780D01*
X162542739Y-81737761D01*
X162524336Y-81754702D01*
X162461681Y-81785624D01*
X162392255Y-81777764D01*
X162338100Y-81733617D01*
X162316409Y-81667199D01*
X162329133Y-81614826D01*
X162326814Y-81613831D01*
X162331258Y-81603473D01*
X162353491Y-81551662D01*
X162355497Y-81547437D01*
X162383909Y-81493049D01*
X162393357Y-81460022D01*
X162395988Y-81452633D01*
X162409540Y-81421058D01*
X162421895Y-81360930D01*
X162422999Y-81356429D01*
X162439886Y-81297418D01*
X162442494Y-81263157D01*
X162443585Y-81255389D01*
X162450500Y-81221743D01*
X162450500Y-81160398D01*
X162450679Y-81155688D01*
X162455337Y-81094524D01*
X162450997Y-81060442D01*
X162450500Y-81052603D01*
X162450500Y-80277588D01*
X162470185Y-80210549D01*
X162472925Y-80206465D01*
X162580568Y-80052734D01*
X162676739Y-79846496D01*
X162735635Y-79626692D01*
X162755468Y-79400000D01*
X162753308Y-79375316D01*
X162738083Y-79201288D01*
X162735635Y-79173308D01*
X162676739Y-78953504D01*
X162580568Y-78747266D01*
X162450047Y-78560861D01*
X162450045Y-78560858D01*
X162326868Y-78437681D01*
X162293383Y-78376358D01*
X162298367Y-78306666D01*
X162326868Y-78262319D01*
X162450045Y-78139141D01*
X162450047Y-78139139D01*
X162580568Y-77952734D01*
X162676739Y-77746496D01*
X162735635Y-77526692D01*
X162755468Y-77300000D01*
X162750907Y-77247873D01*
X162735635Y-77073313D01*
X162735635Y-77073308D01*
X162732623Y-77062067D01*
X163599500Y-77062067D01*
X163600432Y-77073313D01*
X163614890Y-77247813D01*
X163614892Y-77247824D01*
X163675936Y-77488881D01*
X163775826Y-77716606D01*
X163911833Y-77924782D01*
X163911836Y-77924785D01*
X164080256Y-78107738D01*
X164276491Y-78260474D01*
X164361846Y-78306666D01*
X164441920Y-78350000D01*
X164495190Y-78378828D01*
X164730386Y-78459571D01*
X164975665Y-78500500D01*
X165224335Y-78500500D01*
X165469614Y-78459571D01*
X165704810Y-78378828D01*
X165923509Y-78260474D01*
X166119744Y-78107738D01*
X166288164Y-77924785D01*
X166424173Y-77716607D01*
X166524063Y-77488881D01*
X166585108Y-77247821D01*
X166588498Y-77206916D01*
X166599568Y-77073313D01*
X166600500Y-77062067D01*
X166600500Y-74937933D01*
X166592600Y-74842598D01*
X166585109Y-74752186D01*
X166585107Y-74752175D01*
X166524063Y-74511118D01*
X166424173Y-74283393D01*
X166288166Y-74075217D01*
X166257881Y-74042319D01*
X166119744Y-73892262D01*
X165923509Y-73739526D01*
X165923507Y-73739525D01*
X165923506Y-73739524D01*
X165704811Y-73621172D01*
X165704802Y-73621169D01*
X165469616Y-73540429D01*
X165224335Y-73499500D01*
X164975665Y-73499500D01*
X164730383Y-73540429D01*
X164495197Y-73621169D01*
X164495188Y-73621172D01*
X164276493Y-73739524D01*
X164080257Y-73892261D01*
X163911833Y-74075217D01*
X163775826Y-74283393D01*
X163675936Y-74511118D01*
X163614892Y-74752175D01*
X163614890Y-74752186D01*
X163604236Y-74880773D01*
X163599500Y-74937933D01*
X163599500Y-77062067D01*
X162732623Y-77062067D01*
X162676739Y-76853504D01*
X162580568Y-76647266D01*
X162450047Y-76460861D01*
X162450045Y-76460858D01*
X162289141Y-76299954D01*
X162183628Y-76226074D01*
X162140003Y-76171498D01*
X162132809Y-76101999D01*
X162164331Y-76039644D01*
X162224561Y-76004230D01*
X162254751Y-76000499D01*
X162297871Y-76000499D01*
X162297872Y-76000499D01*
X162357483Y-75994091D01*
X162492331Y-75943796D01*
X162607546Y-75857546D01*
X162693796Y-75742331D01*
X162744091Y-75607483D01*
X162750500Y-75547873D01*
X162750499Y-73852128D01*
X162744091Y-73792517D01*
X162741264Y-73784938D01*
X162693797Y-73657671D01*
X162693793Y-73657664D01*
X162607547Y-73542455D01*
X162552512Y-73501255D01*
X162510642Y-73445321D01*
X162505658Y-73375629D01*
X162525250Y-73330865D01*
X162580129Y-73252489D01*
X162580133Y-73252483D01*
X162676265Y-73046326D01*
X162676269Y-73046317D01*
X162735139Y-72826610D01*
X162735141Y-72826599D01*
X162754966Y-72600002D01*
X162754966Y-72599997D01*
X162735141Y-72373400D01*
X162735139Y-72373389D01*
X162676269Y-72153682D01*
X162676265Y-72153673D01*
X162580133Y-71947516D01*
X162580131Y-71947512D01*
X162529025Y-71874526D01*
X161847953Y-72555598D01*
X161835165Y-72474852D01*
X161777641Y-72361955D01*
X161688045Y-72272359D01*
X161575148Y-72214835D01*
X161494400Y-72202046D01*
X162175472Y-71520974D01*
X162175471Y-71520973D01*
X162102483Y-71469866D01*
X162102481Y-71469865D01*
X161896326Y-71373734D01*
X161896317Y-71373730D01*
X161676610Y-71314860D01*
X161676599Y-71314858D01*
X161450002Y-71295034D01*
X161449998Y-71295034D01*
X161223400Y-71314858D01*
X161223389Y-71314860D01*
X161003682Y-71373730D01*
X161003673Y-71373734D01*
X160797513Y-71469868D01*
X160724527Y-71520972D01*
X160724526Y-71520973D01*
X161405600Y-72202046D01*
X161324852Y-72214835D01*
X161211955Y-72272359D01*
X161122359Y-72361955D01*
X161064835Y-72474852D01*
X161052046Y-72555600D01*
X160370973Y-71874527D01*
X160319868Y-71947513D01*
X160223734Y-72153673D01*
X160223731Y-72153680D01*
X160170033Y-72354084D01*
X160133668Y-72413744D01*
X160070821Y-72444273D01*
X160001445Y-72435978D01*
X159947567Y-72391493D01*
X159930484Y-72354086D01*
X159876739Y-72153504D01*
X159780568Y-71947266D01*
X159650047Y-71760861D01*
X159650045Y-71760858D01*
X159489141Y-71599954D01*
X159302734Y-71469432D01*
X159302732Y-71469431D01*
X159096497Y-71373261D01*
X159096488Y-71373258D01*
X158876697Y-71314366D01*
X158876693Y-71314365D01*
X158876692Y-71314365D01*
X158876691Y-71314364D01*
X158876686Y-71314364D01*
X158650002Y-71294532D01*
X158649998Y-71294532D01*
X158423313Y-71314364D01*
X158423302Y-71314366D01*
X158203511Y-71373258D01*
X158203502Y-71373261D01*
X157997267Y-71469431D01*
X157997265Y-71469432D01*
X157810858Y-71599954D01*
X157649954Y-71760858D01*
X157519432Y-71947265D01*
X157519431Y-71947267D01*
X157423261Y-72153502D01*
X157423258Y-72153511D01*
X157364366Y-72373302D01*
X157364364Y-72373313D01*
X157344532Y-72599998D01*
X157344532Y-72600001D01*
X157364364Y-72826686D01*
X157364366Y-72826697D01*
X157378222Y-72878407D01*
X157376559Y-72948257D01*
X157337396Y-73006119D01*
X157273168Y-73033623D01*
X157258447Y-73034500D01*
X145497743Y-73034500D01*
X145482122Y-73032775D01*
X145482095Y-73033061D01*
X145474333Y-73032326D01*
X145405172Y-73034500D01*
X145375649Y-73034500D01*
X145368778Y-73035367D01*
X145362959Y-73035825D01*
X145316374Y-73037289D01*
X145316368Y-73037290D01*
X145297126Y-73042880D01*
X145278087Y-73046823D01*
X145258217Y-73049334D01*
X145258203Y-73049337D01*
X145214883Y-73066488D01*
X145209358Y-73068380D01*
X145164613Y-73081380D01*
X145164610Y-73081381D01*
X145147366Y-73091579D01*
X145129905Y-73100133D01*
X145111274Y-73107510D01*
X145111262Y-73107517D01*
X145073570Y-73134902D01*
X145068687Y-73138109D01*
X145028580Y-73161829D01*
X145014414Y-73175995D01*
X144999624Y-73188627D01*
X144983414Y-73200404D01*
X144983411Y-73200407D01*
X144953710Y-73236309D01*
X144949777Y-73240631D01*
X144632262Y-73558145D01*
X144570939Y-73591630D01*
X144555392Y-73593992D01*
X144544591Y-73594937D01*
X144316344Y-73656094D01*
X144316335Y-73656098D01*
X144102171Y-73755964D01*
X144102169Y-73755965D01*
X143908600Y-73891503D01*
X143786284Y-74013819D01*
X143724961Y-74047303D01*
X143655269Y-74042319D01*
X143599336Y-74000447D01*
X143582421Y-73969470D01*
X143533354Y-73837913D01*
X143533350Y-73837906D01*
X143447190Y-73722812D01*
X143447187Y-73722809D01*
X143332093Y-73636649D01*
X143332086Y-73636645D01*
X143197379Y-73586403D01*
X143197372Y-73586401D01*
X143137844Y-73580000D01*
X142490000Y-73580000D01*
X142490000Y-74494498D01*
X142382315Y-74445320D01*
X142275763Y-74430000D01*
X142204237Y-74430000D01*
X142097685Y-74445320D01*
X141990000Y-74494498D01*
X141990000Y-73580000D01*
X141342155Y-73580000D01*
X141282627Y-73586401D01*
X141282620Y-73586403D01*
X141147913Y-73636645D01*
X141147906Y-73636649D01*
X141032812Y-73722809D01*
X141032809Y-73722812D01*
X140946649Y-73837906D01*
X140946645Y-73837913D01*
X140896403Y-73972620D01*
X140896401Y-73972627D01*
X140890000Y-74032155D01*
X140890000Y-74680000D01*
X141806314Y-74680000D01*
X141780507Y-74720156D01*
X141740000Y-74858111D01*
X141740000Y-75001889D01*
X141780507Y-75139844D01*
X141806314Y-75180000D01*
X140890000Y-75180000D01*
X140890000Y-75827844D01*
X133180499Y-75827844D01*
X133180499Y-75152128D01*
X133174091Y-75092517D01*
X133170835Y-75083788D01*
X133123797Y-74957671D01*
X133123793Y-74957664D01*
X133037547Y-74842455D01*
X133037544Y-74842452D01*
X132922335Y-74756206D01*
X132922328Y-74756202D01*
X132787482Y-74705908D01*
X132787483Y-74705908D01*
X132727883Y-74699501D01*
X132727881Y-74699500D01*
X132727873Y-74699500D01*
X132727864Y-74699500D01*
X131432129Y-74699500D01*
X131432123Y-74699501D01*
X131372516Y-74705908D01*
X131237671Y-74756202D01*
X131237664Y-74756206D01*
X131122455Y-74842452D01*
X131122452Y-74842455D01*
X131036206Y-74957664D01*
X131036202Y-74957671D01*
X130985908Y-75092517D01*
X130979812Y-75149226D01*
X130979501Y-75152123D01*
X130979500Y-75152135D01*
X130979500Y-77247870D01*
X130431805Y-77247870D01*
X130522613Y-77106572D01*
X130600725Y-76911457D01*
X130640500Y-76705085D01*
X130640500Y-75747575D01*
X130625528Y-75590782D01*
X130566316Y-75389125D01*
X130470011Y-75202318D01*
X130470009Y-75202316D01*
X130470008Y-75202313D01*
X130340094Y-75037116D01*
X130340090Y-75037112D01*
X130181253Y-74899478D01*
X129999249Y-74794398D01*
X129999245Y-74794396D01*
X129999244Y-74794396D01*
X129800633Y-74725656D01*
X129592602Y-74695746D01*
X129592598Y-74695746D01*
X129382672Y-74705745D01*
X129178421Y-74755296D01*
X129178417Y-74755298D01*
X128987256Y-74842598D01*
X128987251Y-74842601D01*
X128816046Y-74964515D01*
X128816040Y-74964520D01*
X128671014Y-75116620D01*
X128557388Y-75293425D01*
X128479274Y-75488544D01*
X128458459Y-75596546D01*
X128439500Y-75694915D01*
X128439500Y-76652425D01*
X128100500Y-76652425D01*
X128100500Y-75747575D01*
X128085528Y-75590782D01*
X128026316Y-75389125D01*
X127930011Y-75202318D01*
X127930009Y-75202316D01*
X127930008Y-75202313D01*
X127800094Y-75037116D01*
X127800090Y-75037112D01*
X127641253Y-74899478D01*
X127459249Y-74794398D01*
X127459245Y-74794396D01*
X127459244Y-74794396D01*
X127260633Y-74725656D01*
X127052602Y-74695746D01*
X127052598Y-74695746D01*
X126842672Y-74705745D01*
X126638421Y-74755296D01*
X126638417Y-74755298D01*
X126447256Y-74842598D01*
X126447251Y-74842601D01*
X126276046Y-74964515D01*
X126276040Y-74964520D01*
X126131014Y-75116620D01*
X126017388Y-75293425D01*
X125939274Y-75488544D01*
X125918459Y-75596546D01*
X125899500Y-75694915D01*
X125899500Y-76652425D01*
X125560500Y-76652425D01*
X125560500Y-75747575D01*
X125545528Y-75590782D01*
X125486316Y-75389125D01*
X125390011Y-75202318D01*
X125390009Y-75202316D01*
X125390008Y-75202313D01*
X125260094Y-75037116D01*
X125260090Y-75037112D01*
X125101253Y-74899478D01*
X124919249Y-74794398D01*
X124919245Y-74794396D01*
X124919244Y-74794396D01*
X124720633Y-74725656D01*
X124512602Y-74695746D01*
X124512598Y-74695746D01*
X124302672Y-74705745D01*
X124098421Y-74755296D01*
X124098417Y-74755298D01*
X123907256Y-74842598D01*
X123907251Y-74842601D01*
X123736046Y-74964515D01*
X123736040Y-74964520D01*
X123591014Y-75116620D01*
X123477388Y-75293425D01*
X123399274Y-75488544D01*
X123378459Y-75596546D01*
X123359500Y-75694915D01*
X123359500Y-76652425D01*
X123020500Y-76652425D01*
X123020500Y-75747575D01*
X123005528Y-75590782D01*
X122946316Y-75389125D01*
X122850011Y-75202318D01*
X122850009Y-75202316D01*
X122850008Y-75202313D01*
X122720094Y-75037116D01*
X122720090Y-75037112D01*
X122561253Y-74899478D01*
X122379249Y-74794398D01*
X122379245Y-74794396D01*
X122379244Y-74794396D01*
X122180633Y-74725656D01*
X121972602Y-74695746D01*
X121972598Y-74695746D01*
X121762672Y-74705745D01*
X121558424Y-74755296D01*
X121418999Y-74818969D01*
X121349841Y-74828912D01*
X121286285Y-74799887D01*
X121252197Y-74751823D01*
X121243506Y-74729874D01*
X121241624Y-74724379D01*
X121228618Y-74679610D01*
X121228616Y-74679608D01*
X121228616Y-74679605D01*
X121218423Y-74662371D01*
X121209861Y-74644894D01*
X121202487Y-74626270D01*
X121202486Y-74626268D01*
X121175079Y-74588545D01*
X121171888Y-74583686D01*
X121157536Y-74559418D01*
X121148170Y-74543580D01*
X121148168Y-74543578D01*
X121148165Y-74543574D01*
X121134006Y-74529415D01*
X121121368Y-74514619D01*
X121118825Y-74511119D01*
X121109594Y-74498413D01*
X121105028Y-74494636D01*
X121073688Y-74468709D01*
X121069376Y-74464786D01*
X120515803Y-73911212D01*
X120505980Y-73898950D01*
X120505759Y-73899134D01*
X120500786Y-73893123D01*
X120482159Y-73875631D01*
X120450364Y-73845773D01*
X120435316Y-73830725D01*
X120429475Y-73824883D01*
X120423986Y-73820625D01*
X120419561Y-73816847D01*
X120385582Y-73784938D01*
X120385580Y-73784936D01*
X120385577Y-73784935D01*
X120368029Y-73775288D01*
X120351763Y-73764604D01*
X120340626Y-73755965D01*
X120335936Y-73752327D01*
X120335935Y-73752326D01*
X120335933Y-73752325D01*
X120293168Y-73733818D01*
X120287922Y-73731248D01*
X120247093Y-73708803D01*
X120247092Y-73708802D01*
X120227693Y-73703822D01*
X120209281Y-73697518D01*
X120190898Y-73689562D01*
X120190892Y-73689560D01*
X120144874Y-73682272D01*
X120139152Y-73681087D01*
X120094021Y-73669500D01*
X120094019Y-73669500D01*
X120073984Y-73669500D01*
X120054586Y-73667973D01*
X120047162Y-73666797D01*
X120034805Y-73664840D01*
X120034804Y-73664840D01*
X119988416Y-73669225D01*
X119982578Y-73669500D01*
X102317743Y-73669500D01*
X102302122Y-73667775D01*
X102302095Y-73668061D01*
X102294333Y-73667326D01*
X102225172Y-73669500D01*
X102195649Y-73669500D01*
X102188778Y-73670367D01*
X102182959Y-73670825D01*
X102136374Y-73672289D01*
X102136368Y-73672290D01*
X102117126Y-73677880D01*
X102098087Y-73681823D01*
X102078217Y-73684334D01*
X102078203Y-73684337D01*
X102034883Y-73701488D01*
X102029358Y-73703380D01*
X101984613Y-73716380D01*
X101984610Y-73716381D01*
X101967366Y-73726579D01*
X101949905Y-73735133D01*
X101931274Y-73742510D01*
X101931262Y-73742517D01*
X101893570Y-73769902D01*
X101888687Y-73773109D01*
X101848580Y-73796829D01*
X101834414Y-73810995D01*
X101819624Y-73823627D01*
X101803414Y-73835404D01*
X101803411Y-73835407D01*
X101773710Y-73871309D01*
X101769777Y-73875631D01*
X101216208Y-74429199D01*
X101203951Y-74439020D01*
X101204134Y-74439241D01*
X101198123Y-74444213D01*
X101150772Y-74494636D01*
X101129889Y-74515519D01*
X101129877Y-74515532D01*
X101125621Y-74521017D01*
X101121837Y-74525447D01*
X101089937Y-74559418D01*
X101089936Y-74559420D01*
X101080284Y-74576976D01*
X101069610Y-74593226D01*
X101057329Y-74609061D01*
X101057324Y-74609068D01*
X101038815Y-74651838D01*
X101036245Y-74657084D01*
X101013803Y-74697906D01*
X101008822Y-74717307D01*
X101002521Y-74735710D01*
X100994562Y-74754102D01*
X100994561Y-74754105D01*
X100987271Y-74800127D01*
X100986087Y-74805846D01*
X100972560Y-74858534D01*
X100969617Y-74857778D01*
X100947322Y-74908846D01*
X100924191Y-74930230D01*
X100876055Y-74964508D01*
X100876047Y-74964515D01*
X100731012Y-75116623D01*
X100617388Y-75293425D01*
X100539274Y-75488544D01*
X100518459Y-75596546D01*
X100499500Y-75694915D01*
X100499500Y-76652425D01*
X100514463Y-76809122D01*
X100514472Y-76809217D01*
X100514473Y-76809221D01*
X100573628Y-77010686D01*
X100573684Y-77010875D01*
X100651391Y-77161606D01*
X100669991Y-77197686D01*
X100799905Y-77362883D01*
X100799909Y-77362887D01*
X100958746Y-77500521D01*
X101140750Y-77605601D01*
X101140752Y-77605601D01*
X101140756Y-77605604D01*
X101339367Y-77674344D01*
X101547398Y-77704254D01*
X101757330Y-77694254D01*
X101961576Y-77644704D01*
X102128161Y-77568627D01*
X102152743Y-77557401D01*
X102152746Y-77557399D01*
X102152753Y-77557396D01*
X102323952Y-77435486D01*
X102324317Y-77435104D01*
X102468985Y-77283379D01*
X102491797Y-77247883D01*
X102582613Y-77106572D01*
X102660725Y-76911457D01*
X102700500Y-76705085D01*
X102700500Y-75747575D01*
X102685528Y-75590782D01*
X102626316Y-75389125D01*
X102530011Y-75202318D01*
X102530009Y-75202316D01*
X102530008Y-75202313D01*
X102466181Y-75121152D01*
X102440213Y-75056288D01*
X102453435Y-74987681D01*
X102501650Y-74937113D01*
X102563651Y-74920500D01*
X103169981Y-74920500D01*
X103237020Y-74940185D01*
X103282775Y-74992989D01*
X103292719Y-75062147D01*
X103272082Y-75110287D01*
X103274207Y-75111653D01*
X103157388Y-75293425D01*
X103079274Y-75488544D01*
X103058459Y-75596546D01*
X103039500Y-75694915D01*
X103039500Y-76652425D01*
X103054463Y-76809122D01*
X103054472Y-76809217D01*
X103054473Y-76809221D01*
X103113628Y-77010686D01*
X103113684Y-77010875D01*
X103191391Y-77161606D01*
X103209991Y-77197686D01*
X103339905Y-77362883D01*
X103339909Y-77362887D01*
X103498746Y-77500521D01*
X103680750Y-77605601D01*
X103680752Y-77605601D01*
X103680756Y-77605604D01*
X103879367Y-77674344D01*
X104087398Y-77704254D01*
X104297330Y-77694254D01*
X104501576Y-77644704D01*
X104668161Y-77568627D01*
X104692743Y-77557401D01*
X104692746Y-77557399D01*
X104692753Y-77557396D01*
X104863952Y-77435486D01*
X104864317Y-77435104D01*
X105008985Y-77283379D01*
X105031797Y-77247883D01*
X105122613Y-77106572D01*
X105200725Y-76911457D01*
X105240500Y-76705085D01*
X105240500Y-75747575D01*
X105225528Y-75590782D01*
X105166316Y-75389125D01*
X105070011Y-75202318D01*
X105070009Y-75202316D01*
X105070008Y-75202313D01*
X105006181Y-75121152D01*
X104980213Y-75056288D01*
X104993435Y-74987681D01*
X105041650Y-74937113D01*
X105103651Y-74920500D01*
X105709981Y-74920500D01*
X105777020Y-74940185D01*
X105822775Y-74992989D01*
X105832719Y-75062147D01*
X105812082Y-75110287D01*
X105814207Y-75111653D01*
X105697388Y-75293425D01*
X105619274Y-75488544D01*
X105598459Y-75596546D01*
X105579500Y-75694915D01*
X105579500Y-76652425D01*
X105594463Y-76809122D01*
X105594472Y-76809217D01*
X105594473Y-76809221D01*
X105653628Y-77010686D01*
X105653684Y-77010875D01*
X105731391Y-77161606D01*
X105749991Y-77197686D01*
X105879905Y-77362883D01*
X105879909Y-77362887D01*
X106038746Y-77500521D01*
X106220750Y-77605601D01*
X106220752Y-77605601D01*
X106220756Y-77605604D01*
X106419367Y-77674344D01*
X106627398Y-77704254D01*
X106837330Y-77694254D01*
X107041576Y-77644704D01*
X107208161Y-77568627D01*
X107232743Y-77557401D01*
X107232746Y-77557399D01*
X107232753Y-77557396D01*
X107403952Y-77435486D01*
X107404317Y-77435104D01*
X107548985Y-77283379D01*
X107571797Y-77247883D01*
X107662613Y-77106572D01*
X107740725Y-76911457D01*
X107780500Y-76705085D01*
X107780500Y-75747575D01*
X107765528Y-75590782D01*
X107706316Y-75389125D01*
X107610011Y-75202318D01*
X107610009Y-75202316D01*
X107610008Y-75202313D01*
X107546181Y-75121152D01*
X107520213Y-75056288D01*
X107533435Y-74987681D01*
X107581650Y-74937113D01*
X107643651Y-74920500D01*
X108249981Y-74920500D01*
X108317020Y-74940185D01*
X108362775Y-74992989D01*
X108372719Y-75062147D01*
X108352082Y-75110287D01*
X108354207Y-75111653D01*
X108237388Y-75293425D01*
X108159274Y-75488544D01*
X108138459Y-75596546D01*
X108119500Y-75694915D01*
X108119500Y-76652425D01*
X108134463Y-76809122D01*
X108134472Y-76809217D01*
X108134473Y-76809221D01*
X108193628Y-77010686D01*
X108193684Y-77010875D01*
X108271391Y-77161606D01*
X108289991Y-77197686D01*
X108419905Y-77362883D01*
X108419909Y-77362887D01*
X108578746Y-77500521D01*
X108760750Y-77605601D01*
X108760752Y-77605601D01*
X108760756Y-77605604D01*
X108959367Y-77674344D01*
X109167398Y-77704254D01*
X109377330Y-77694254D01*
X109581576Y-77644704D01*
X109748161Y-77568627D01*
X109772743Y-77557401D01*
X109772746Y-77557399D01*
X109772753Y-77557396D01*
X109943952Y-77435486D01*
X109944317Y-77435104D01*
X110088985Y-77283379D01*
X110111797Y-77247883D01*
X110202613Y-77106572D01*
X110280725Y-76911457D01*
X110320500Y-76705085D01*
X110320500Y-75747575D01*
X110305528Y-75590782D01*
X110246316Y-75389125D01*
X110150011Y-75202318D01*
X110150009Y-75202316D01*
X110150008Y-75202313D01*
X110086181Y-75121152D01*
X110060213Y-75056288D01*
X110073435Y-74987681D01*
X110121650Y-74937113D01*
X110183651Y-74920500D01*
X110789981Y-74920500D01*
X110857020Y-74940185D01*
X110902775Y-74992989D01*
X110912719Y-75062147D01*
X110892082Y-75110287D01*
X110894207Y-75111653D01*
X110777388Y-75293425D01*
X110699274Y-75488544D01*
X110678459Y-75596546D01*
X110659500Y-75694915D01*
X110659500Y-76652425D01*
X110674463Y-76809122D01*
X110674472Y-76809217D01*
X110674473Y-76809221D01*
X110733628Y-77010686D01*
X110733684Y-77010875D01*
X110811391Y-77161606D01*
X110829991Y-77197686D01*
X110959905Y-77362883D01*
X110959909Y-77362887D01*
X111118746Y-77500521D01*
X111300750Y-77605601D01*
X111300752Y-77605601D01*
X111300756Y-77605604D01*
X111499367Y-77674344D01*
X111707398Y-77704254D01*
X111917330Y-77694254D01*
X112121576Y-77644704D01*
X112288161Y-77568627D01*
X112312743Y-77557401D01*
X112312746Y-77557399D01*
X112312753Y-77557396D01*
X112483952Y-77435486D01*
X112484317Y-77435104D01*
X112628985Y-77283379D01*
X112651797Y-77247883D01*
X112742613Y-77106572D01*
X112820725Y-76911457D01*
X112860500Y-76705085D01*
X112860500Y-75747575D01*
X112845528Y-75590782D01*
X112786316Y-75389125D01*
X112690011Y-75202318D01*
X112690009Y-75202316D01*
X112690008Y-75202313D01*
X112626181Y-75121152D01*
X112600213Y-75056288D01*
X112613435Y-74987681D01*
X112661650Y-74937113D01*
X112723651Y-74920500D01*
X113329981Y-74920500D01*
X113397020Y-74940185D01*
X113442775Y-74992989D01*
X113452719Y-75062147D01*
X113432082Y-75110287D01*
X113434207Y-75111653D01*
X113317388Y-75293425D01*
X113239274Y-75488544D01*
X113218459Y-75596546D01*
X113199500Y-75694915D01*
X113199500Y-76652425D01*
X113214463Y-76809122D01*
X113214472Y-76809217D01*
X113214473Y-76809221D01*
X113273628Y-77010686D01*
X113273684Y-77010875D01*
X113351391Y-77161606D01*
X113369991Y-77197686D01*
X113499905Y-77362883D01*
X113499909Y-77362887D01*
X113658746Y-77500521D01*
X113840750Y-77605601D01*
X113840752Y-77605601D01*
X113840756Y-77605604D01*
X114039367Y-77674344D01*
X114247398Y-77704254D01*
X114457330Y-77694254D01*
X114661576Y-77644704D01*
X114828161Y-77568627D01*
X114852743Y-77557401D01*
X114852746Y-77557399D01*
X114852753Y-77557396D01*
X115023952Y-77435486D01*
X115024317Y-77435104D01*
X115168985Y-77283379D01*
X115191797Y-77247883D01*
X115282613Y-77106572D01*
X115360725Y-76911457D01*
X115400500Y-76705085D01*
X115400500Y-75747575D01*
X115385528Y-75590782D01*
X115326316Y-75389125D01*
X115230011Y-75202318D01*
X115230009Y-75202316D01*
X115230008Y-75202313D01*
X115166181Y-75121152D01*
X115140213Y-75056288D01*
X115153435Y-74987681D01*
X115201650Y-74937113D01*
X115263651Y-74920500D01*
X115869981Y-74920500D01*
X115937020Y-74940185D01*
X115982775Y-74992989D01*
X115992719Y-75062147D01*
X115972082Y-75110287D01*
X115974207Y-75111653D01*
X115857388Y-75293425D01*
X115779274Y-75488544D01*
X115758459Y-75596546D01*
X115739500Y-75694915D01*
X115739500Y-76652425D01*
X115754463Y-76809122D01*
X115754472Y-76809217D01*
X115754473Y-76809221D01*
X115813628Y-77010686D01*
X115813684Y-77010875D01*
X115891391Y-77161606D01*
X115909991Y-77197686D01*
X116039905Y-77362883D01*
X116039909Y-77362887D01*
X116198746Y-77500521D01*
X116380750Y-77605601D01*
X116380752Y-77605601D01*
X116380756Y-77605604D01*
X116579367Y-77674344D01*
X116787398Y-77704254D01*
X116997330Y-77694254D01*
X117201576Y-77644704D01*
X117368161Y-77568627D01*
X117392743Y-77557401D01*
X117392746Y-77557399D01*
X117392753Y-77557396D01*
X117563952Y-77435486D01*
X117564317Y-77435104D01*
X117708985Y-77283379D01*
X117731797Y-77247883D01*
X117822613Y-77106572D01*
X117900725Y-76911457D01*
X117940500Y-76705085D01*
X117940500Y-75747575D01*
X117925528Y-75590782D01*
X117866316Y-75389125D01*
X117770011Y-75202318D01*
X117770009Y-75202316D01*
X117770008Y-75202313D01*
X117706181Y-75121152D01*
X117680213Y-75056288D01*
X117693435Y-74987681D01*
X117741650Y-74937113D01*
X117803651Y-74920500D01*
X118409981Y-74920500D01*
X118477020Y-74940185D01*
X118522775Y-74992989D01*
X118532719Y-75062147D01*
X118512082Y-75110287D01*
X118514207Y-75111653D01*
X118397388Y-75293425D01*
X118319274Y-75488544D01*
X118298459Y-75596546D01*
X118279500Y-75694915D01*
X118279500Y-76652425D01*
X118294463Y-76809122D01*
X118294472Y-76809217D01*
X118294473Y-76809221D01*
X118353628Y-77010686D01*
X118353684Y-77010875D01*
X118449989Y-77197682D01*
X118546086Y-77319879D01*
X118572054Y-77384742D01*
X118558832Y-77453349D01*
X118536297Y-77484211D01*
X97406208Y-98614299D01*
X97393951Y-98624120D01*
X97394134Y-98624341D01*
X97388123Y-98629313D01*
X97340772Y-98679736D01*
X97319889Y-98700619D01*
X97319877Y-98700632D01*
X97315621Y-98706117D01*
X97311837Y-98710547D01*
X97279937Y-98744518D01*
X97279936Y-98744520D01*
X97270284Y-98762076D01*
X97259610Y-98778326D01*
X97247329Y-98794161D01*
X97247324Y-98794168D01*
X97228815Y-98836938D01*
X97226245Y-98842184D01*
X97203803Y-98883006D01*
X97198822Y-98902407D01*
X97192521Y-98920810D01*
X97184562Y-98939202D01*
X97184561Y-98939205D01*
X97177271Y-98985227D01*
X97176087Y-98990946D01*
X97164501Y-99036072D01*
X97164500Y-99036082D01*
X97164500Y-99056116D01*
X97162973Y-99075515D01*
X97159840Y-99095294D01*
X97159840Y-99095295D01*
X97164225Y-99141683D01*
X97164500Y-99147521D01*
X97164500Y-100086578D01*
X97144815Y-100153617D01*
X97092011Y-100199372D01*
X97022853Y-100209316D01*
X96984927Y-100196192D01*
X96984626Y-100196853D01*
X96979251Y-100194398D01*
X96780633Y-100125656D01*
X96773511Y-100124632D01*
X96572602Y-100095746D01*
X96572598Y-100095746D01*
X96362672Y-100105745D01*
X96158421Y-100155296D01*
X96158417Y-100155298D01*
X95967256Y-100242598D01*
X95967251Y-100242601D01*
X95796046Y-100364515D01*
X95796040Y-100364520D01*
X95651014Y-100516620D01*
X95537388Y-100693425D01*
X95459274Y-100888544D01*
X95420209Y-101091234D01*
X95419500Y-101094915D01*
X95419500Y-102052425D01*
X95433136Y-102195227D01*
X95434472Y-102209217D01*
X95434473Y-102209221D01*
X95493628Y-102410686D01*
X95493684Y-102410875D01*
X95543019Y-102506572D01*
X95589991Y-102597686D01*
X95686085Y-102719878D01*
X95712053Y-102784743D01*
X95698831Y-102853350D01*
X95676296Y-102884211D01*
X94447328Y-104113181D01*
X94386005Y-104146666D01*
X94359647Y-104149500D01*
X93884452Y-104149500D01*
X93817413Y-104129815D01*
X93771658Y-104077011D01*
X93761714Y-104007853D01*
X93790739Y-103944297D01*
X93796771Y-103937819D01*
X94078595Y-103655995D01*
X94363788Y-103370801D01*
X94376042Y-103360986D01*
X94375859Y-103360764D01*
X94381866Y-103355792D01*
X94381877Y-103355786D01*
X94412775Y-103322882D01*
X94429227Y-103305364D01*
X94439671Y-103294918D01*
X94450120Y-103284471D01*
X94454379Y-103278978D01*
X94458152Y-103274561D01*
X94490062Y-103240582D01*
X94499713Y-103223024D01*
X94510396Y-103206761D01*
X94522673Y-103190936D01*
X94541185Y-103148153D01*
X94543738Y-103142941D01*
X94566197Y-103102092D01*
X94571180Y-103082680D01*
X94577483Y-103064276D01*
X94585437Y-103045896D01*
X94592729Y-102999852D01*
X94593906Y-102994171D01*
X94605500Y-102949019D01*
X94605500Y-102949017D01*
X94607440Y-102941462D01*
X94610401Y-102942222D01*
X94632599Y-102891244D01*
X94655803Y-102869772D01*
X94703952Y-102835486D01*
X94704317Y-102835104D01*
X94848985Y-102683379D01*
X94904057Y-102597686D01*
X94962613Y-102506572D01*
X95040725Y-102311457D01*
X95080500Y-102105085D01*
X95080500Y-101147575D01*
X95065528Y-100990782D01*
X95006316Y-100789125D01*
X94910011Y-100602318D01*
X94910009Y-100602316D01*
X94910008Y-100602313D01*
X94780094Y-100437116D01*
X94780090Y-100437112D01*
X94621253Y-100299478D01*
X94439249Y-100194398D01*
X94439245Y-100194396D01*
X94439244Y-100194396D01*
X94240633Y-100125656D01*
X94032602Y-100095746D01*
X94032598Y-100095746D01*
X93822672Y-100105745D01*
X93618421Y-100155296D01*
X93618417Y-100155298D01*
X93427256Y-100242598D01*
X93427251Y-100242601D01*
X93256046Y-100364515D01*
X93256040Y-100364520D01*
X93111014Y-100516620D01*
X92997388Y-100693425D01*
X92919274Y-100888544D01*
X92880209Y-101091234D01*
X92879500Y-101094915D01*
X92879500Y-102052425D01*
X92893136Y-102195227D01*
X92894472Y-102209217D01*
X92894473Y-102209221D01*
X92953628Y-102410686D01*
X92953684Y-102410875D01*
X93003019Y-102506572D01*
X93049991Y-102597686D01*
X93121829Y-102689034D01*
X93147797Y-102753898D01*
X93134575Y-102822506D01*
X93112040Y-102853367D01*
X92487228Y-103478181D01*
X92425905Y-103511666D01*
X92399547Y-103514500D01*
X90887040Y-103514500D01*
X90871423Y-103512776D01*
X90871396Y-103513062D01*
X90863634Y-103512327D01*
X90794506Y-103514500D01*
X90764952Y-103514500D01*
X90764231Y-103514590D01*
X90758059Y-103515369D01*
X90752247Y-103515826D01*
X90705675Y-103517290D01*
X90705674Y-103517290D01*
X90686431Y-103522881D01*
X90667381Y-103526825D01*
X90647513Y-103529334D01*
X90604186Y-103546488D01*
X90598660Y-103548379D01*
X90553916Y-103561379D01*
X90553912Y-103561381D01*
X90536668Y-103571579D01*
X90519207Y-103580133D01*
X90500576Y-103587510D01*
X90500564Y-103587517D01*
X90462872Y-103614902D01*
X90457989Y-103618109D01*
X90417882Y-103641829D01*
X90403716Y-103655995D01*
X90388926Y-103668627D01*
X90372716Y-103680404D01*
X90372713Y-103680407D01*
X90343012Y-103716309D01*
X90339079Y-103720631D01*
X89151208Y-104908501D01*
X89138951Y-104918322D01*
X89139134Y-104918543D01*
X89133123Y-104923515D01*
X89085772Y-104973938D01*
X89064889Y-104994821D01*
X89064877Y-104994834D01*
X89060621Y-105000319D01*
X89056837Y-105004749D01*
X89024937Y-105038720D01*
X89024936Y-105038722D01*
X89015284Y-105056278D01*
X89004610Y-105072528D01*
X88992329Y-105088363D01*
X88992324Y-105088370D01*
X88973815Y-105131140D01*
X88971245Y-105136386D01*
X88948803Y-105177208D01*
X88943822Y-105196609D01*
X88937521Y-105215012D01*
X88929562Y-105233404D01*
X88929561Y-105233407D01*
X88922271Y-105279429D01*
X88921087Y-105285148D01*
X88909501Y-105330274D01*
X88909500Y-105330284D01*
X88909500Y-105350318D01*
X88907973Y-105369717D01*
X88905448Y-105385662D01*
X88904840Y-105389498D01*
X83100500Y-105389498D01*
X83100500Y-102048745D01*
X85262220Y-102048745D01*
X85277192Y-102205538D01*
X85288995Y-102245735D01*
X85326019Y-102371829D01*
X85336404Y-102407195D01*
X85387636Y-102506572D01*
X85432711Y-102594006D01*
X85562625Y-102759203D01*
X85562629Y-102759207D01*
X85721466Y-102896841D01*
X85903470Y-103001921D01*
X85903472Y-103001921D01*
X85903476Y-103001924D01*
X86102087Y-103070664D01*
X86310118Y-103100574D01*
X86520050Y-103090574D01*
X86724296Y-103041024D01*
X86826940Y-102994148D01*
X86915463Y-102953721D01*
X86915466Y-102953719D01*
X86915473Y-102953716D01*
X87086672Y-102831806D01*
X87095540Y-102822506D01*
X87231705Y-102679699D01*
X87284412Y-102597686D01*
X87345333Y-102502892D01*
X87423445Y-102307777D01*
X87463220Y-102101405D01*
X87463220Y-102048745D01*
X87802220Y-102048745D01*
X87817192Y-102205538D01*
X87828995Y-102245735D01*
X87866019Y-102371829D01*
X87876404Y-102407195D01*
X87927636Y-102506572D01*
X87972711Y-102594006D01*
X88102625Y-102759203D01*
X88102629Y-102759207D01*
X88261466Y-102896841D01*
X88443470Y-103001921D01*
X88443472Y-103001921D01*
X88443476Y-103001924D01*
X88642087Y-103070664D01*
X88850118Y-103100574D01*
X89060050Y-103090574D01*
X89264296Y-103041024D01*
X89366940Y-102994148D01*
X89455463Y-102953721D01*
X89455466Y-102953719D01*
X89455473Y-102953716D01*
X89626672Y-102831806D01*
X89635540Y-102822506D01*
X89771705Y-102679699D01*
X89824412Y-102597686D01*
X89885333Y-102502892D01*
X89963445Y-102307777D01*
X90003220Y-102101405D01*
X90003220Y-102052425D01*
X90339500Y-102052425D01*
X90353136Y-102195227D01*
X90354472Y-102209217D01*
X90354473Y-102209221D01*
X90413628Y-102410686D01*
X90413684Y-102410875D01*
X90463019Y-102506572D01*
X90509991Y-102597686D01*
X90639905Y-102762883D01*
X90639909Y-102762887D01*
X90798746Y-102900521D01*
X90980750Y-103005601D01*
X90980752Y-103005601D01*
X90980756Y-103005604D01*
X91179367Y-103074344D01*
X91387398Y-103104254D01*
X91597330Y-103094254D01*
X91801576Y-103044704D01*
X91912278Y-102994148D01*
X91992743Y-102957401D01*
X91992746Y-102957399D01*
X91992753Y-102957396D01*
X92163952Y-102835486D01*
X92164317Y-102835104D01*
X92308985Y-102683379D01*
X92364057Y-102597686D01*
X92422613Y-102506572D01*
X92500725Y-102311457D01*
X92540500Y-102105085D01*
X92540500Y-101147575D01*
X92525528Y-100990782D01*
X92466316Y-100789125D01*
X92370011Y-100602318D01*
X92370009Y-100602316D01*
X92370008Y-100602313D01*
X92240094Y-100437116D01*
X92240090Y-100437112D01*
X92081253Y-100299478D01*
X91899249Y-100194398D01*
X91899245Y-100194396D01*
X91899244Y-100194396D01*
X91700633Y-100125656D01*
X91492602Y-100095746D01*
X91492598Y-100095746D01*
X91282672Y-100105745D01*
X91078421Y-100155296D01*
X91078417Y-100155298D01*
X90887256Y-100242598D01*
X90887251Y-100242601D01*
X90716046Y-100364515D01*
X90716040Y-100364520D01*
X90571014Y-100516620D01*
X90457388Y-100693425D01*
X90379274Y-100888544D01*
X90340209Y-101091234D01*
X90339500Y-101094915D01*
X90339500Y-102052425D01*
X90003220Y-102052425D01*
X90003220Y-101143895D01*
X89988248Y-100987102D01*
X89929036Y-100785445D01*
X89832731Y-100598638D01*
X89832729Y-100598636D01*
X89832728Y-100598633D01*
X89702814Y-100433436D01*
X89702810Y-100433432D01*
X89543973Y-100295798D01*
X89361969Y-100190718D01*
X89361965Y-100190716D01*
X89361964Y-100190716D01*
X89163353Y-100121976D01*
X88955322Y-100092066D01*
X88955318Y-100092066D01*
X88745392Y-100102065D01*
X88541141Y-100151616D01*
X88541137Y-100151618D01*
X88349976Y-100238918D01*
X88349971Y-100238921D01*
X88178766Y-100360835D01*
X88178760Y-100360840D01*
X88033734Y-100512940D01*
X87920108Y-100689745D01*
X87841994Y-100884864D01*
X87810480Y-101048377D01*
X87802220Y-101091235D01*
X87802220Y-102048745D01*
X87463220Y-102048745D01*
X87463220Y-101143895D01*
X87448248Y-100987102D01*
X87389036Y-100785445D01*
X87292731Y-100598638D01*
X87292729Y-100598636D01*
X87292728Y-100598633D01*
X87162814Y-100433436D01*
X87162810Y-100433432D01*
X87003973Y-100295798D01*
X86821969Y-100190718D01*
X86821965Y-100190716D01*
X86821964Y-100190716D01*
X86623353Y-100121976D01*
X86415322Y-100092066D01*
X86415318Y-100092066D01*
X86205392Y-100102065D01*
X86001141Y-100151616D01*
X86001137Y-100151618D01*
X85809976Y-100238918D01*
X85809971Y-100238921D01*
X85638766Y-100360835D01*
X85638760Y-100360840D01*
X85493734Y-100512940D01*
X85380108Y-100689745D01*
X85301994Y-100884864D01*
X85270480Y-101048377D01*
X85262220Y-101091235D01*
X85262220Y-102048745D01*
X83100500Y-102048745D01*
X83100500Y-76652425D01*
X85259500Y-76652425D01*
X85274463Y-76809122D01*
X85274472Y-76809217D01*
X85274473Y-76809221D01*
X85333628Y-77010686D01*
X85333684Y-77010875D01*
X85411391Y-77161606D01*
X85429991Y-77197686D01*
X85559905Y-77362883D01*
X85559909Y-77362887D01*
X85718746Y-77500521D01*
X85900750Y-77605601D01*
X85900752Y-77605601D01*
X85900756Y-77605604D01*
X86099367Y-77674344D01*
X86307398Y-77704254D01*
X86517330Y-77694254D01*
X86721576Y-77644704D01*
X86888161Y-77568627D01*
X86912743Y-77557401D01*
X86912746Y-77557399D01*
X86912753Y-77557396D01*
X87083952Y-77435486D01*
X87084317Y-77435104D01*
X87228985Y-77283379D01*
X87251797Y-77247883D01*
X87342613Y-77106572D01*
X87420725Y-76911457D01*
X87460500Y-76705085D01*
X87460500Y-76652425D01*
X87799500Y-76652425D01*
X87814463Y-76809122D01*
X87814472Y-76809217D01*
X87814473Y-76809221D01*
X87873628Y-77010686D01*
X87873684Y-77010875D01*
X87951391Y-77161606D01*
X87969991Y-77197686D01*
X88099905Y-77362883D01*
X88099909Y-77362887D01*
X88258746Y-77500521D01*
X88440750Y-77605601D01*
X88440752Y-77605601D01*
X88440756Y-77605604D01*
X88639367Y-77674344D01*
X88847398Y-77704254D01*
X89057330Y-77694254D01*
X89261576Y-77644704D01*
X89428161Y-77568627D01*
X89452743Y-77557401D01*
X89452746Y-77557399D01*
X89452753Y-77557396D01*
X89623952Y-77435486D01*
X89624317Y-77435104D01*
X89768985Y-77283379D01*
X89791797Y-77247883D01*
X89882613Y-77106572D01*
X89960725Y-76911457D01*
X90000500Y-76705085D01*
X90000500Y-76652425D01*
X90339500Y-76652425D01*
X90354463Y-76809122D01*
X90354472Y-76809217D01*
X90354473Y-76809221D01*
X90413628Y-77010686D01*
X90413684Y-77010875D01*
X90491391Y-77161606D01*
X90509991Y-77197686D01*
X90639905Y-77362883D01*
X90639909Y-77362887D01*
X90798746Y-77500521D01*
X90980750Y-77605601D01*
X90980752Y-77605601D01*
X90980756Y-77605604D01*
X91179367Y-77674344D01*
X91387398Y-77704254D01*
X91597330Y-77694254D01*
X91801576Y-77644704D01*
X91968161Y-77568627D01*
X91992743Y-77557401D01*
X91992746Y-77557399D01*
X91992753Y-77557396D01*
X92163952Y-77435486D01*
X92164317Y-77435104D01*
X92308985Y-77283379D01*
X92331797Y-77247883D01*
X92422613Y-77106572D01*
X92500725Y-76911457D01*
X92540500Y-76705085D01*
X92540500Y-76652425D01*
X92879500Y-76652425D01*
X92894463Y-76809122D01*
X92894472Y-76809217D01*
X92894473Y-76809221D01*
X92953628Y-77010686D01*
X92953684Y-77010875D01*
X93031391Y-77161606D01*
X93049991Y-77197686D01*
X93179905Y-77362883D01*
X93179909Y-77362887D01*
X93338746Y-77500521D01*
X93520750Y-77605601D01*
X93520752Y-77605601D01*
X93520756Y-77605604D01*
X93719367Y-77674344D01*
X93927398Y-77704254D01*
X94137330Y-77694254D01*
X94341576Y-77644704D01*
X94508161Y-77568627D01*
X94532743Y-77557401D01*
X94532746Y-77557399D01*
X94532753Y-77557396D01*
X94703952Y-77435486D01*
X94704317Y-77435104D01*
X94848985Y-77283379D01*
X94871797Y-77247883D01*
X94962613Y-77106572D01*
X95040725Y-76911457D01*
X95080500Y-76705085D01*
X95080500Y-76652425D01*
X95419500Y-76652425D01*
X95434463Y-76809122D01*
X95434472Y-76809217D01*
X95434473Y-76809221D01*
X95493628Y-77010686D01*
X95493684Y-77010875D01*
X95571391Y-77161606D01*
X95589991Y-77197686D01*
X95719905Y-77362883D01*
X95719909Y-77362887D01*
X95878746Y-77500521D01*
X96060750Y-77605601D01*
X96060752Y-77605601D01*
X96060756Y-77605604D01*
X96259367Y-77674344D01*
X96467398Y-77704254D01*
X96677330Y-77694254D01*
X96881576Y-77644704D01*
X97048161Y-77568627D01*
X97072743Y-77557401D01*
X97072746Y-77557399D01*
X97072753Y-77557396D01*
X97243952Y-77435486D01*
X97244317Y-77435104D01*
X97388985Y-77283379D01*
X97411797Y-77247883D01*
X97502613Y-77106572D01*
X97580725Y-76911457D01*
X97620500Y-76705085D01*
X97620500Y-76652398D01*
X97960000Y-76652398D01*
X97974965Y-76809122D01*
X97974966Y-76809126D01*
X98034149Y-77010686D01*
X98130413Y-77197414D01*
X98260268Y-77362537D01*
X98260271Y-77362540D01*
X98419030Y-77500105D01*
X98419041Y-77500114D01*
X98600960Y-77605144D01*
X98600967Y-77605147D01*
X98799487Y-77673856D01*
X98810000Y-77675367D01*
X98810000Y-76515686D01*
X98821955Y-76527641D01*
X98934852Y-76585165D01*
X99028519Y-76600000D01*
X99091481Y-76600000D01*
X99185148Y-76585165D01*
X99298045Y-76527641D01*
X99310000Y-76515686D01*
X99310000Y-77671257D01*
X99421409Y-77644229D01*
X99612507Y-77556959D01*
X99783619Y-77435110D01*
X99783625Y-77435104D01*
X99928592Y-77283067D01*
X100042166Y-77106342D01*
X100120244Y-76911314D01*
X100160000Y-76705037D01*
X100160000Y-76450000D01*
X99375686Y-76450000D01*
X99387641Y-76438045D01*
X99445165Y-76325148D01*
X99464986Y-76200000D01*
X99445165Y-76074852D01*
X99387641Y-75961955D01*
X99375686Y-75950000D01*
X100160000Y-75950000D01*
X100160000Y-75747601D01*
X100145034Y-75590877D01*
X100145033Y-75590873D01*
X100085850Y-75389313D01*
X99989586Y-75202585D01*
X99859731Y-75037462D01*
X99859728Y-75037459D01*
X99700969Y-74899894D01*
X99700958Y-74899885D01*
X99519039Y-74794855D01*
X99519032Y-74794852D01*
X99320516Y-74726144D01*
X99310000Y-74724632D01*
X99310000Y-75884314D01*
X99298045Y-75872359D01*
X99185148Y-75814835D01*
X99091481Y-75800000D01*
X99028519Y-75800000D01*
X98934852Y-75814835D01*
X98821955Y-75872359D01*
X98810000Y-75884314D01*
X98810000Y-74728740D01*
X98809999Y-74728740D01*
X98698594Y-74755768D01*
X98698582Y-74755772D01*
X98507497Y-74843037D01*
X98507496Y-74843038D01*
X98336380Y-74964889D01*
X98336374Y-74964895D01*
X98191407Y-75116932D01*
X98077833Y-75293657D01*
X97999755Y-75488685D01*
X97960000Y-75694962D01*
X97960000Y-75950000D01*
X98744314Y-75950000D01*
X98732359Y-75961955D01*
X98674835Y-76074852D01*
X98655014Y-76200000D01*
X98674835Y-76325148D01*
X98732359Y-76438045D01*
X98744314Y-76450000D01*
X97960000Y-76450000D01*
X97960000Y-76652398D01*
X97620500Y-76652398D01*
X97620500Y-75747575D01*
X97605528Y-75590782D01*
X97546316Y-75389125D01*
X97450011Y-75202318D01*
X97450009Y-75202316D01*
X97450008Y-75202313D01*
X97320094Y-75037116D01*
X97320090Y-75037112D01*
X97161253Y-74899478D01*
X96979249Y-74794398D01*
X96979245Y-74794396D01*
X96979244Y-74794396D01*
X96780633Y-74725656D01*
X96572602Y-74695746D01*
X96572598Y-74695746D01*
X96362672Y-74705745D01*
X96158421Y-74755296D01*
X96158417Y-74755298D01*
X95967256Y-74842598D01*
X95967251Y-74842601D01*
X95796046Y-74964515D01*
X95796040Y-74964520D01*
X95651014Y-75116620D01*
X95537388Y-75293425D01*
X95459274Y-75488544D01*
X95438459Y-75596546D01*
X95419500Y-75694915D01*
X95419500Y-76652425D01*
X95080500Y-76652425D01*
X95080500Y-75747575D01*
X95065528Y-75590782D01*
X95006316Y-75389125D01*
X94910011Y-75202318D01*
X94910009Y-75202316D01*
X94910008Y-75202313D01*
X94780094Y-75037116D01*
X94780090Y-75037112D01*
X94621253Y-74899478D01*
X94439249Y-74794398D01*
X94439245Y-74794396D01*
X94439244Y-74794396D01*
X94240633Y-74725656D01*
X94032602Y-74695746D01*
X94032598Y-74695746D01*
X93822672Y-74705745D01*
X93618421Y-74755296D01*
X93618417Y-74755298D01*
X93427256Y-74842598D01*
X93427251Y-74842601D01*
X93256046Y-74964515D01*
X93256040Y-74964520D01*
X93111014Y-75116620D01*
X92997388Y-75293425D01*
X92919274Y-75488544D01*
X92898459Y-75596546D01*
X92879500Y-75694915D01*
X92879500Y-76652425D01*
X92540500Y-76652425D01*
X92540500Y-75747575D01*
X92525528Y-75590782D01*
X92466316Y-75389125D01*
X92370011Y-75202318D01*
X92370009Y-75202316D01*
X92370008Y-75202313D01*
X92240094Y-75037116D01*
X92240090Y-75037112D01*
X92081253Y-74899478D01*
X91899249Y-74794398D01*
X91899245Y-74794396D01*
X91899244Y-74794396D01*
X91700633Y-74725656D01*
X91492602Y-74695746D01*
X91492598Y-74695746D01*
X91282672Y-74705745D01*
X91078421Y-74755296D01*
X91078417Y-74755298D01*
X90887256Y-74842598D01*
X90887251Y-74842601D01*
X90716046Y-74964515D01*
X90716040Y-74964520D01*
X90571014Y-75116620D01*
X90457388Y-75293425D01*
X90379274Y-75488544D01*
X90358459Y-75596546D01*
X90339500Y-75694915D01*
X90339500Y-76652425D01*
X90000500Y-76652425D01*
X90000500Y-75747575D01*
X89985528Y-75590782D01*
X89926316Y-75389125D01*
X89830011Y-75202318D01*
X89830009Y-75202316D01*
X89830008Y-75202313D01*
X89700094Y-75037116D01*
X89700090Y-75037112D01*
X89541253Y-74899478D01*
X89359249Y-74794398D01*
X89359245Y-74794396D01*
X89359244Y-74794396D01*
X89160633Y-74725656D01*
X88952602Y-74695746D01*
X88952598Y-74695746D01*
X88742672Y-74705745D01*
X88538421Y-74755296D01*
X88538417Y-74755298D01*
X88347256Y-74842598D01*
X88347251Y-74842601D01*
X88176046Y-74964515D01*
X88176040Y-74964520D01*
X88031014Y-75116620D01*
X87917388Y-75293425D01*
X87839274Y-75488544D01*
X87818459Y-75596546D01*
X87799500Y-75694915D01*
X87799500Y-76652425D01*
X87460500Y-76652425D01*
X87460500Y-75747575D01*
X87445528Y-75590782D01*
X87386316Y-75389125D01*
X87290011Y-75202318D01*
X87290009Y-75202316D01*
X87290008Y-75202313D01*
X87160094Y-75037116D01*
X87160090Y-75037112D01*
X87001253Y-74899478D01*
X86819249Y-74794398D01*
X86819245Y-74794396D01*
X86819244Y-74794396D01*
X86620633Y-74725656D01*
X86412602Y-74695746D01*
X86412598Y-74695746D01*
X86202672Y-74705745D01*
X85998421Y-74755296D01*
X85998417Y-74755298D01*
X85807256Y-74842598D01*
X85807251Y-74842601D01*
X85636046Y-74964515D01*
X85636040Y-74964520D01*
X85491014Y-75116620D01*
X85377388Y-75293425D01*
X85299274Y-75488544D01*
X85278459Y-75596546D01*
X85259500Y-75694915D01*
X85259500Y-76652425D01*
X83100500Y-76652425D01*
X83100500Y-69607763D01*
X84745787Y-69607763D01*
X84775413Y-69877013D01*
X84775415Y-69877024D01*
X84837129Y-70113083D01*
X84843928Y-70139088D01*
X84949870Y-70388390D01*
X85002223Y-70474173D01*
X85090979Y-70619605D01*
X85090986Y-70619615D01*
X85264253Y-70827819D01*
X85264259Y-70827824D01*
X85425649Y-70972429D01*
X85465998Y-71008582D01*
X85691910Y-71158044D01*
X85937176Y-71273020D01*
X85937183Y-71273022D01*
X85937185Y-71273023D01*
X86196557Y-71351057D01*
X86196564Y-71351058D01*
X86196569Y-71351060D01*
X86464561Y-71390500D01*
X86464566Y-71390500D01*
X86667636Y-71390500D01*
X86719133Y-71386730D01*
X86870156Y-71375677D01*
X86982758Y-71350593D01*
X87134546Y-71316782D01*
X87134548Y-71316781D01*
X87134553Y-71316780D01*
X87387558Y-71220014D01*
X87623777Y-71087441D01*
X87838177Y-70921888D01*
X88026186Y-70726881D01*
X88183799Y-70506579D01*
X88297449Y-70285528D01*
X88307649Y-70265690D01*
X88307651Y-70265684D01*
X88307656Y-70265675D01*
X88395118Y-70009305D01*
X88424543Y-69850000D01*
X134684357Y-69850000D01*
X134704884Y-70071535D01*
X134704885Y-70071537D01*
X134765769Y-70285523D01*
X134765775Y-70285538D01*
X134864938Y-70484683D01*
X134864943Y-70484691D01*
X134999020Y-70662238D01*
X135163437Y-70812123D01*
X135163439Y-70812125D01*
X135352595Y-70929245D01*
X135352596Y-70929245D01*
X135352599Y-70929247D01*
X135560060Y-71009618D01*
X135778757Y-71050500D01*
X135778759Y-71050500D01*
X136001241Y-71050500D01*
X136001243Y-71050500D01*
X136219940Y-71009618D01*
X136427401Y-70929247D01*
X136616562Y-70812124D01*
X136780981Y-70662236D01*
X136915058Y-70484689D01*
X137014229Y-70285528D01*
X137040734Y-70192371D01*
X137078013Y-70133278D01*
X137141323Y-70103721D01*
X137210562Y-70113083D01*
X137263749Y-70158393D01*
X137279266Y-70192372D01*
X137305769Y-70285523D01*
X137305775Y-70285538D01*
X137404938Y-70484683D01*
X137404943Y-70484691D01*
X137539020Y-70662238D01*
X137703437Y-70812123D01*
X137703439Y-70812125D01*
X137892595Y-70929245D01*
X137892596Y-70929245D01*
X137892599Y-70929247D01*
X138100060Y-71009618D01*
X138318757Y-71050500D01*
X138318759Y-71050500D01*
X138541241Y-71050500D01*
X138541243Y-71050500D01*
X138759940Y-71009618D01*
X138967401Y-70929247D01*
X139156562Y-70812124D01*
X139320981Y-70662236D01*
X139455058Y-70484689D01*
X139554229Y-70285528D01*
X139615115Y-70071536D01*
X139635643Y-69850000D01*
X139626822Y-69754810D01*
X139615115Y-69628464D01*
X139615114Y-69628462D01*
X139609225Y-69607765D01*
X139609224Y-69607763D01*
X142745787Y-69607763D01*
X142775413Y-69877013D01*
X142775415Y-69877024D01*
X142837129Y-70113083D01*
X142843928Y-70139088D01*
X142949870Y-70388390D01*
X143002223Y-70474173D01*
X143090979Y-70619605D01*
X143090986Y-70619615D01*
X143264253Y-70827819D01*
X143264259Y-70827824D01*
X143425649Y-70972429D01*
X143465998Y-71008582D01*
X143691910Y-71158044D01*
X143937176Y-71273020D01*
X143937183Y-71273022D01*
X143937185Y-71273023D01*
X144196557Y-71351057D01*
X144196564Y-71351058D01*
X144196569Y-71351060D01*
X144464561Y-71390500D01*
X144464566Y-71390500D01*
X144667636Y-71390500D01*
X144719133Y-71386730D01*
X144870156Y-71375677D01*
X144982758Y-71350593D01*
X145134546Y-71316782D01*
X145134548Y-71316781D01*
X145134553Y-71316780D01*
X145387558Y-71220014D01*
X145623777Y-71087441D01*
X145838177Y-70921888D01*
X146026186Y-70726881D01*
X146183799Y-70506579D01*
X146297449Y-70285528D01*
X146307649Y-70265690D01*
X146307651Y-70265684D01*
X146307656Y-70265675D01*
X146395118Y-70009305D01*
X146444319Y-69742933D01*
X146454212Y-69472235D01*
X146432437Y-69274334D01*
X162049500Y-69274334D01*
X162090429Y-69519616D01*
X162171169Y-69754802D01*
X162171172Y-69754811D01*
X162289524Y-69973506D01*
X162289526Y-69973509D01*
X162442262Y-70169744D01*
X162568032Y-70285523D01*
X162625217Y-70338166D01*
X162833393Y-70474173D01*
X163061118Y-70574063D01*
X163240959Y-70619605D01*
X163302179Y-70635108D01*
X163302181Y-70635108D01*
X163302186Y-70635109D01*
X163435376Y-70646145D01*
X163487933Y-70650500D01*
X163487935Y-70650500D01*
X165112065Y-70650500D01*
X165112067Y-70650500D01*
X165173284Y-70645427D01*
X165297813Y-70635109D01*
X165297816Y-70635108D01*
X165297821Y-70635108D01*
X165538881Y-70574063D01*
X165766607Y-70474173D01*
X165974785Y-70338164D01*
X166157738Y-70169744D01*
X166310474Y-69973509D01*
X166428828Y-69754810D01*
X166509571Y-69519614D01*
X166550500Y-69274335D01*
X166550500Y-69025665D01*
X166509571Y-68780386D01*
X166428828Y-68545190D01*
X166310474Y-68326491D01*
X166157738Y-68130256D01*
X165974785Y-67961836D01*
X165974782Y-67961833D01*
X165766606Y-67825826D01*
X165538881Y-67725936D01*
X165297824Y-67664892D01*
X165297813Y-67664890D01*
X165132548Y-67651197D01*
X165112067Y-67649500D01*
X163487933Y-67649500D01*
X163468521Y-67651108D01*
X163302186Y-67664890D01*
X163302175Y-67664892D01*
X163061118Y-67725936D01*
X162833393Y-67825826D01*
X162625217Y-67961833D01*
X162442261Y-68130257D01*
X162289524Y-68326493D01*
X162171172Y-68545188D01*
X162171169Y-68545197D01*
X162090429Y-68780383D01*
X162049500Y-69025665D01*
X162049500Y-69274334D01*
X146432437Y-69274334D01*
X146424586Y-69202982D01*
X146356072Y-68940912D01*
X146250130Y-68691610D01*
X146109018Y-68460390D01*
X146072384Y-68416369D01*
X145935746Y-68252180D01*
X145935740Y-68252175D01*
X145734002Y-68071418D01*
X145508092Y-67921957D01*
X145508090Y-67921956D01*
X145262824Y-67806980D01*
X145262819Y-67806978D01*
X145262814Y-67806976D01*
X145003442Y-67728942D01*
X145003428Y-67728939D01*
X144887791Y-67711921D01*
X144735439Y-67689500D01*
X144532369Y-67689500D01*
X144532364Y-67689500D01*
X144329844Y-67704323D01*
X144329831Y-67704325D01*
X144065453Y-67763217D01*
X144065446Y-67763220D01*
X143812439Y-67859987D01*
X143576226Y-67992557D01*
X143361822Y-68158112D01*
X143173822Y-68353109D01*
X143173816Y-68353116D01*
X143016202Y-68573419D01*
X143016199Y-68573424D01*
X142892350Y-68814309D01*
X142892343Y-68814327D01*
X142804884Y-69070685D01*
X142804881Y-69070699D01*
X142755681Y-69337068D01*
X142755680Y-69337075D01*
X142745787Y-69607763D01*
X139609224Y-69607763D01*
X139554229Y-69414472D01*
X139515690Y-69337075D01*
X139455061Y-69215316D01*
X139455056Y-69215308D01*
X139320979Y-69037761D01*
X139156562Y-68887876D01*
X139156560Y-68887874D01*
X138967404Y-68770754D01*
X138967398Y-68770752D01*
X138759940Y-68690382D01*
X138541243Y-68649500D01*
X138318757Y-68649500D01*
X138100060Y-68690382D01*
X138006914Y-68726467D01*
X137892601Y-68770752D01*
X137892595Y-68770754D01*
X137703439Y-68887874D01*
X137703437Y-68887876D01*
X137539020Y-69037761D01*
X137404943Y-69215308D01*
X137404938Y-69215316D01*
X137305775Y-69414461D01*
X137305769Y-69414476D01*
X137279266Y-69507627D01*
X137241987Y-69566721D01*
X137178677Y-69596278D01*
X137109438Y-69586916D01*
X137056251Y-69541606D01*
X137040734Y-69507627D01*
X137014230Y-69414476D01*
X137014229Y-69414472D01*
X136975690Y-69337075D01*
X136915061Y-69215316D01*
X136915056Y-69215308D01*
X136780979Y-69037761D01*
X136616562Y-68887876D01*
X136616560Y-68887874D01*
X136427404Y-68770754D01*
X136427398Y-68770752D01*
X136219940Y-68690382D01*
X136001243Y-68649500D01*
X135778757Y-68649500D01*
X135560060Y-68690382D01*
X135466914Y-68726467D01*
X135352601Y-68770752D01*
X135352595Y-68770754D01*
X135163439Y-68887874D01*
X135163437Y-68887876D01*
X134999020Y-69037761D01*
X134864943Y-69215308D01*
X134864938Y-69215316D01*
X134765775Y-69414461D01*
X134765769Y-69414476D01*
X134704885Y-69628462D01*
X134704884Y-69628464D01*
X134684357Y-69849999D01*
X134684357Y-69850000D01*
X88424543Y-69850000D01*
X88444319Y-69742933D01*
X88454212Y-69472235D01*
X88424586Y-69202982D01*
X88356072Y-68940912D01*
X88250130Y-68691610D01*
X88109018Y-68460390D01*
X88072384Y-68416369D01*
X87935746Y-68252180D01*
X87935740Y-68252175D01*
X87734002Y-68071418D01*
X87508092Y-67921957D01*
X87508090Y-67921956D01*
X87262824Y-67806980D01*
X87262819Y-67806978D01*
X87262814Y-67806976D01*
X87003442Y-67728942D01*
X87003428Y-67728939D01*
X86887791Y-67711921D01*
X86735439Y-67689500D01*
X86532369Y-67689500D01*
X86532364Y-67689500D01*
X86329844Y-67704323D01*
X86329831Y-67704325D01*
X86065453Y-67763217D01*
X86065446Y-67763220D01*
X85812439Y-67859987D01*
X85576226Y-67992557D01*
X85361822Y-68158112D01*
X85173822Y-68353109D01*
X85173816Y-68353116D01*
X85016202Y-68573419D01*
X85016199Y-68573424D01*
X84892350Y-68814309D01*
X84892343Y-68814327D01*
X84804884Y-69070685D01*
X84804881Y-69070699D01*
X84755681Y-69337068D01*
X84755680Y-69337075D01*
X84745787Y-69607763D01*
X83100500Y-69607763D01*
X83100500Y-69041622D01*
X83100585Y-69038376D01*
X83101251Y-69025665D01*
X83107497Y-68906486D01*
X83117803Y-68722968D01*
X83118464Y-68716791D01*
X83142611Y-68564331D01*
X83170227Y-68401796D01*
X83171451Y-68396196D01*
X83212425Y-68243279D01*
X83257083Y-68088268D01*
X83258764Y-68083254D01*
X83316127Y-67933815D01*
X83377366Y-67785972D01*
X83379379Y-67781606D01*
X83452511Y-67638078D01*
X83459688Y-67625090D01*
X83529655Y-67498494D01*
X83531867Y-67494808D01*
X83619980Y-67359127D01*
X83634130Y-67339182D01*
X83712154Y-67229220D01*
X83714486Y-67226143D01*
X83815655Y-67101209D01*
X83817537Y-67098998D01*
X83922773Y-66981239D01*
X83925092Y-66978787D01*
X84038787Y-66865092D01*
X84041239Y-66862773D01*
X84158998Y-66757537D01*
X84161209Y-66755655D01*
X84286143Y-66654486D01*
X84289220Y-66652154D01*
X84419127Y-66559980D01*
X84429046Y-66553537D01*
X84554808Y-66471867D01*
X84558494Y-66469655D01*
X84698078Y-66392511D01*
X84710063Y-66386403D01*
X84841606Y-66319379D01*
X84845972Y-66317366D01*
X84993815Y-66256127D01*
X85143254Y-66198764D01*
X85148268Y-66197083D01*
X85303279Y-66152425D01*
X85456196Y-66111451D01*
X85461796Y-66110227D01*
X85624284Y-66082618D01*
X85776791Y-66058464D01*
X85782968Y-66057803D01*
X85966566Y-66047493D01*
X86098380Y-66040584D01*
X86101622Y-66040500D01*
X165098378Y-66040500D01*
X165101619Y-66040584D01*
G37*
G04 #@! TD.AperFunction*
G04 #@! TD*
M02*
