G04 #@! TF.GenerationSoftware,KiCad,Pcbnew,7.0.9*
G04 #@! TF.CreationDate,2023-11-12T17:18:31+09:00*
G04 #@! TF.ProjectId,SharpKeyQ,53686172-704b-4657-9951-2e6b69636164,rev?*
G04 #@! TF.SameCoordinates,Original*
G04 #@! TF.FileFunction,Copper,L2,Bot*
G04 #@! TF.FilePolarity,Positive*
%FSLAX46Y46*%
G04 Gerber Fmt 4.6, Leading zero omitted, Abs format (unit mm)*
G04 Created by KiCad (PCBNEW 7.0.9) date 2023-11-12 17:18:31*
%MOMM*%
%LPD*%
G01*
G04 APERTURE LIST*
G04 Aperture macros list*
%AMFreePoly0*
4,1,19,0.500000,-0.750000,0.000000,-0.750000,0.000000,-0.744911,-0.071157,-0.744911,-0.207708,-0.704816,-0.327430,-0.627875,-0.420627,-0.520320,-0.479746,-0.390866,-0.500000,-0.250000,-0.500000,0.250000,-0.479746,0.390866,-0.420627,0.520320,-0.327430,0.627875,-0.207708,0.704816,-0.071157,0.744911,0.000000,0.744911,0.000000,0.750000,0.500000,0.750000,0.500000,-0.750000,0.500000,-0.750000,
$1*%
%AMFreePoly1*
4,1,19,0.000000,0.744911,0.071157,0.744911,0.207708,0.704816,0.327430,0.627875,0.420627,0.520320,0.479746,0.390866,0.500000,0.250000,0.500000,-0.250000,0.479746,-0.390866,0.420627,-0.520320,0.327430,-0.627875,0.207708,-0.704816,0.071157,-0.744911,0.000000,-0.744911,0.000000,-0.750000,-0.500000,-0.750000,-0.500000,0.750000,0.000000,0.750000,0.000000,0.744911,0.000000,0.744911,
$1*%
G04 Aperture macros list end*
G04 #@! TA.AperFunction,ComponentPad*
%ADD10C,1.400000*%
G04 #@! TD*
G04 #@! TA.AperFunction,ComponentPad*
%ADD11O,1.400000X1.400000*%
G04 #@! TD*
G04 #@! TA.AperFunction,ComponentPad*
%ADD12R,1.600000X1.600000*%
G04 #@! TD*
G04 #@! TA.AperFunction,ComponentPad*
%ADD13O,1.600000X1.600000*%
G04 #@! TD*
G04 #@! TA.AperFunction,ComponentPad*
%ADD14R,1.700000X1.700000*%
G04 #@! TD*
G04 #@! TA.AperFunction,ComponentPad*
%ADD15O,1.700000X1.700000*%
G04 #@! TD*
G04 #@! TA.AperFunction,ComponentPad*
%ADD16R,1.200000X2.000000*%
G04 #@! TD*
G04 #@! TA.AperFunction,ComponentPad*
%ADD17O,1.200000X2.000000*%
G04 #@! TD*
G04 #@! TA.AperFunction,ComponentPad*
%ADD18R,1.500000X1.500000*%
G04 #@! TD*
G04 #@! TA.AperFunction,ComponentPad*
%ADD19O,1.500000X1.500000*%
G04 #@! TD*
G04 #@! TA.AperFunction,ComponentPad*
%ADD20C,1.600000*%
G04 #@! TD*
G04 #@! TA.AperFunction,ComponentPad*
%ADD21R,1.800000X1.800000*%
G04 #@! TD*
G04 #@! TA.AperFunction,ComponentPad*
%ADD22C,1.800000*%
G04 #@! TD*
G04 #@! TA.AperFunction,ComponentPad*
%ADD23C,2.200000*%
G04 #@! TD*
G04 #@! TA.AperFunction,ComponentPad*
%ADD24C,1.700000*%
G04 #@! TD*
G04 #@! TA.AperFunction,ComponentPad*
%ADD25O,3.500000X2.000000*%
G04 #@! TD*
G04 #@! TA.AperFunction,ComponentPad*
%ADD26O,2.000000X4.000000*%
G04 #@! TD*
G04 #@! TA.AperFunction,SMDPad,CuDef*
%ADD27FreePoly0,90.000000*%
G04 #@! TD*
G04 #@! TA.AperFunction,SMDPad,CuDef*
%ADD28FreePoly1,90.000000*%
G04 #@! TD*
G04 #@! TA.AperFunction,ViaPad*
%ADD29C,0.800000*%
G04 #@! TD*
G04 #@! TA.AperFunction,Conductor*
%ADD30C,1.000000*%
G04 #@! TD*
G04 #@! TA.AperFunction,Conductor*
%ADD31C,0.250000*%
G04 #@! TD*
G04 APERTURE END LIST*
D10*
G04 #@! TO.P,R9,1*
G04 #@! TO.N,Net-(U1-ADC2_CH7{slash}GPIO27)*
X142240000Y-100330000D03*
D11*
G04 #@! TO.P,R9,2*
G04 #@! TO.N,Net-(J4-Pin_6)*
X149860000Y-100330000D03*
G04 #@! TD*
D10*
G04 #@! TO.P,R4,1*
G04 #@! TO.N,Net-(J2-Pin_2)*
X138430000Y-77470000D03*
D11*
G04 #@! TO.P,R4,2*
G04 #@! TO.N,Net-(U1-32K_XP{slash}GPIO32{slash}ADC1_CH4)*
X138430000Y-69850000D03*
G04 #@! TD*
D10*
G04 #@! TO.P,R2,1*
G04 #@! TO.N,+3V3*
X149860000Y-82550000D03*
D11*
G04 #@! TO.P,R2,2*
G04 #@! TO.N,Net-(J2-Pin_3)*
X142240000Y-82550000D03*
G04 #@! TD*
D10*
G04 #@! TO.P,R5,1*
G04 #@! TO.N,+3V3*
X157480000Y-86360000D03*
D11*
G04 #@! TO.P,R5,2*
G04 #@! TO.N,Net-(U1-VDET_1{slash}GPIO34{slash}ADC1_CH6)*
X165100000Y-86360000D03*
G04 #@! TD*
D10*
G04 #@! TO.P,R15,1*
G04 #@! TO.N,Net-(U1-ADC2_CH2{slash}GPIO2)*
X125730000Y-116840000D03*
D11*
G04 #@! TO.P,R15,2*
G04 #@! TO.N,Net-(D2-A)*
X133350000Y-116840000D03*
G04 #@! TD*
D10*
G04 #@! TO.P,R14,1*
G04 #@! TO.N,Net-(J4-Pin_3)*
X149860000Y-97790000D03*
D11*
G04 #@! TO.P,R14,2*
G04 #@! TO.N,Net-(U1-GPIO23)*
X142240000Y-97790000D03*
G04 #@! TD*
D12*
G04 #@! TO.P,U2,1,S*
G04 #@! TO.N,Net-(U1-MTDI{slash}GPIO12{slash}ADC2_CH5)*
X91440000Y-114300000D03*
D13*
G04 #@! TO.P,U2,2,I0a*
G04 #@! TO.N,Net-(U1-MTMS{slash}GPIO14{slash}ADC2_CH6)*
X93980000Y-114300000D03*
G04 #@! TO.P,U2,3,I1a*
G04 #@! TO.N,Net-(U1-GPIO18)*
X96520000Y-114300000D03*
G04 #@! TO.P,U2,4,Za*
G04 #@! TO.N,Net-(U1-GPIO23)*
X99060000Y-114300000D03*
G04 #@! TO.P,U2,5,I0b*
G04 #@! TO.N,Net-(U1-MTDO{slash}GPIO15{slash}ADC2_CH3)*
X101600000Y-114300000D03*
G04 #@! TO.P,U2,6,I1b*
G04 #@! TO.N,Net-(U1-GPIO19)*
X104140000Y-114300000D03*
G04 #@! TO.P,U2,7,Zb*
G04 #@! TO.N,Net-(U1-DAC_1{slash}ADC2_CH8{slash}GPIO25)*
X106680000Y-114300000D03*
G04 #@! TO.P,U2,8,GND*
G04 #@! TO.N,GND*
X109220000Y-114300000D03*
G04 #@! TO.P,U2,9,Zd*
G04 #@! TO.N,Net-(U1-ADC2_CH7{slash}GPIO27)*
X109220000Y-106680000D03*
G04 #@! TO.P,U2,10,I1d*
G04 #@! TO.N,Net-(U1-GPIO22)*
X106680000Y-106680000D03*
G04 #@! TO.P,U2,11,I0d*
G04 #@! TO.N,Net-(U1-GPIO17)*
X104140000Y-106680000D03*
G04 #@! TO.P,U2,12,Zc*
G04 #@! TO.N,Net-(U1-DAC_2{slash}ADC2_CH9{slash}GPIO26)*
X101600000Y-106680000D03*
G04 #@! TO.P,U2,13,I1c*
G04 #@! TO.N,Net-(U1-GPIO21)*
X99060000Y-106680000D03*
G04 #@! TO.P,U2,14,I0c*
G04 #@! TO.N,Net-(U1-GPIO16)*
X96520000Y-106680000D03*
G04 #@! TO.P,U2,15,OE*
G04 #@! TO.N,Net-(U1-VDET_2{slash}GPIO35{slash}ADC1_CH7)*
X93980000Y-106680000D03*
G04 #@! TO.P,U2,16,VCC*
G04 #@! TO.N,+5V*
X91440000Y-106680000D03*
G04 #@! TD*
D14*
G04 #@! TO.P,J3,1,Pin_1*
G04 #@! TO.N,+5V*
X149860000Y-113030000D03*
D15*
G04 #@! TO.P,J3,2,Pin_2*
G04 #@! TO.N,GND*
X147320000Y-113030000D03*
G04 #@! TO.P,J3,3,Pin_3*
X144780000Y-113030000D03*
G04 #@! TO.P,J3,4,Pin_4*
G04 #@! TO.N,+3V3*
X142240000Y-113030000D03*
G04 #@! TD*
D16*
G04 #@! TO.P,U1,1,3V3*
G04 #@! TO.N,+3V3*
X132080000Y-76200000D03*
D17*
G04 #@! TO.P,U1,2,CHIP_PU*
G04 #@! TO.N,unconnected-(U1-CHIP_PU-Pad2)*
X129540000Y-76200000D03*
G04 #@! TO.P,U1,3,SENSOR_VP/GPIO36/ADC1_CH0*
G04 #@! TO.N,unconnected-(U1-SENSOR_VP{slash}GPIO36{slash}ADC1_CH0-Pad3)*
X127000000Y-76200000D03*
G04 #@! TO.P,U1,4,SENSOR_VN/GPIO39/ADC1_CH3*
G04 #@! TO.N,unconnected-(U1-SENSOR_VN{slash}GPIO39{slash}ADC1_CH3-Pad4)*
X124460000Y-76200000D03*
G04 #@! TO.P,U1,5,VDET_1/GPIO34/ADC1_CH6*
G04 #@! TO.N,Net-(U1-VDET_1{slash}GPIO34{slash}ADC1_CH6)*
X121920000Y-76200000D03*
G04 #@! TO.P,U1,6,VDET_2/GPIO35/ADC1_CH7*
G04 #@! TO.N,Net-(U1-VDET_2{slash}GPIO35{slash}ADC1_CH7)*
X119380000Y-76200000D03*
G04 #@! TO.P,U1,7,32K_XP/GPIO32/ADC1_CH4*
G04 #@! TO.N,Net-(U1-32K_XP{slash}GPIO32{slash}ADC1_CH4)*
X116840000Y-76200000D03*
G04 #@! TO.P,U1,8,32K_XN/GPIO33/ADC1_CH5*
G04 #@! TO.N,Net-(U1-32K_XN{slash}GPIO33{slash}ADC1_CH5)*
X114300000Y-76200000D03*
G04 #@! TO.P,U1,9,DAC_1/ADC2_CH8/GPIO25*
G04 #@! TO.N,Net-(U1-DAC_1{slash}ADC2_CH8{slash}GPIO25)*
X111760000Y-76200000D03*
G04 #@! TO.P,U1,10,DAC_2/ADC2_CH9/GPIO26*
G04 #@! TO.N,Net-(U1-DAC_2{slash}ADC2_CH9{slash}GPIO26)*
X109220000Y-76200000D03*
G04 #@! TO.P,U1,11,ADC2_CH7/GPIO27*
G04 #@! TO.N,Net-(U1-ADC2_CH7{slash}GPIO27)*
X106680000Y-76200000D03*
G04 #@! TO.P,U1,12,MTMS/GPIO14/ADC2_CH6*
G04 #@! TO.N,Net-(U1-MTMS{slash}GPIO14{slash}ADC2_CH6)*
X104140000Y-76200000D03*
G04 #@! TO.P,U1,13,MTDI/GPIO12/ADC2_CH5*
G04 #@! TO.N,Net-(U1-MTDI{slash}GPIO12{slash}ADC2_CH5)*
X101600000Y-76200000D03*
G04 #@! TO.P,U1,14,GND*
G04 #@! TO.N,GND*
X99060000Y-76200000D03*
G04 #@! TO.P,U1,15,MTCK/GPIO13/ADC2_CH4*
G04 #@! TO.N,Net-(U1-MTCK{slash}GPIO13{slash}ADC2_CH4)*
X96520000Y-76200000D03*
G04 #@! TO.P,U1,16,SD_DATA2/GPIO9*
G04 #@! TO.N,unconnected-(U1-SD_DATA2{slash}GPIO9-Pad16)*
X93980000Y-76200000D03*
G04 #@! TO.P,U1,17,SD_DATA3/GPIO10*
G04 #@! TO.N,unconnected-(U1-SD_DATA3{slash}GPIO10-Pad17)*
X91440000Y-76200000D03*
G04 #@! TO.P,U1,18,CMD*
G04 #@! TO.N,unconnected-(U1-CMD-Pad18)*
X88900000Y-76200000D03*
G04 #@! TO.P,U1,19,5V*
G04 #@! TO.N,+5V*
X86360000Y-76200000D03*
G04 #@! TO.P,U1,20,SD_CLK/GPIO6*
G04 #@! TO.N,unconnected-(U1-SD_CLK{slash}GPIO6-Pad20)*
X86362720Y-101596320D03*
G04 #@! TO.P,U1,21,SD_DATA0/GPIO7*
G04 #@! TO.N,unconnected-(U1-SD_DATA0{slash}GPIO7-Pad21)*
X88902720Y-101596320D03*
G04 #@! TO.P,U1,22,SD_DATA1/GPIO8*
G04 #@! TO.N,unconnected-(U1-SD_DATA1{slash}GPIO8-Pad22)*
X91440000Y-101600000D03*
G04 #@! TO.P,U1,23,MTDO/GPIO15/ADC2_CH3*
G04 #@! TO.N,Net-(U1-MTDO{slash}GPIO15{slash}ADC2_CH3)*
X93980000Y-101600000D03*
G04 #@! TO.P,U1,24,ADC2_CH2/GPIO2*
G04 #@! TO.N,Net-(U1-ADC2_CH2{slash}GPIO2)*
X96520000Y-101600000D03*
G04 #@! TO.P,U1,25,GPIO0/BOOT/ADC2_CH1*
G04 #@! TO.N,unconnected-(U1-GPIO0{slash}BOOT{slash}ADC2_CH1-Pad25)*
X99060000Y-101600000D03*
G04 #@! TO.P,U1,26,ADC2_CH0/GPIO4*
G04 #@! TO.N,unconnected-(U1-ADC2_CH0{slash}GPIO4-Pad26)*
X101600000Y-101600000D03*
G04 #@! TO.P,U1,27,GPIO16*
G04 #@! TO.N,Net-(U1-GPIO16)*
X104140000Y-101600000D03*
G04 #@! TO.P,U1,28,GPIO17*
G04 #@! TO.N,Net-(U1-GPIO17)*
X106680000Y-101600000D03*
G04 #@! TO.P,U1,29,GPIO5*
G04 #@! TO.N,unconnected-(U1-GPIO5-Pad29)*
X109220000Y-101600000D03*
G04 #@! TO.P,U1,30,GPIO18*
G04 #@! TO.N,Net-(U1-GPIO18)*
X111760000Y-101600000D03*
G04 #@! TO.P,U1,31,GPIO19*
G04 #@! TO.N,Net-(U1-GPIO19)*
X114300000Y-101600000D03*
G04 #@! TO.P,U1,32,GND*
G04 #@! TO.N,GND*
X116840000Y-101600000D03*
G04 #@! TO.P,U1,33,GPIO21*
G04 #@! TO.N,Net-(U1-GPIO21)*
X119380000Y-101600000D03*
G04 #@! TO.P,U1,34,U0RXD/GPIO3*
G04 #@! TO.N,unconnected-(U1-U0RXD{slash}GPIO3-Pad34)*
X121920000Y-101600000D03*
G04 #@! TO.P,U1,35,U0TXD/GPIO1*
G04 #@! TO.N,unconnected-(U1-U0TXD{slash}GPIO1-Pad35)*
X124460000Y-101600000D03*
G04 #@! TO.P,U1,36,GPIO22*
G04 #@! TO.N,Net-(U1-GPIO22)*
X127000000Y-101600000D03*
G04 #@! TO.P,U1,37,GPIO23*
G04 #@! TO.N,Net-(U1-GPIO23)*
X129540000Y-101600000D03*
G04 #@! TO.P,U1,38,GND*
G04 #@! TO.N,GND*
X132080000Y-101600000D03*
G04 #@! TD*
D10*
G04 #@! TO.P,R12,1*
G04 #@! TO.N,Net-(J4-Pin_7)*
X149860000Y-107950000D03*
D11*
G04 #@! TO.P,R12,2*
G04 #@! TO.N,Net-(U1-MTCK{slash}GPIO13{slash}ADC2_CH4)*
X142240000Y-107950000D03*
G04 #@! TD*
D18*
G04 #@! TO.P,D1,1,K*
G04 #@! TO.N,+5V*
X157480000Y-92705000D03*
D19*
G04 #@! TO.P,D1,2,A*
G04 #@! TO.N,Net-(D1-A)*
X157480000Y-100325000D03*
G04 #@! TD*
D20*
G04 #@! TO.P,C1,1*
G04 #@! TO.N,+5V*
X153710000Y-118110000D03*
G04 #@! TO.P,C1,2*
G04 #@! TO.N,GND*
X158710000Y-118110000D03*
G04 #@! TD*
D10*
G04 #@! TO.P,R8,1*
G04 #@! TO.N,Net-(U1-MTDI{slash}GPIO12{slash}ADC2_CH5)*
X149860000Y-105410000D03*
D11*
G04 #@! TO.P,R8,2*
G04 #@! TO.N,Net-(J4-Pin_8)*
X142240000Y-105410000D03*
G04 #@! TD*
D10*
G04 #@! TO.P,R10,1*
G04 #@! TO.N,Net-(U1-DAC_1{slash}ADC2_CH8{slash}GPIO25)*
X142240000Y-95250000D03*
D11*
G04 #@! TO.P,R10,2*
G04 #@! TO.N,Net-(J4-Pin_4)*
X149860000Y-95250000D03*
G04 #@! TD*
D10*
G04 #@! TO.P,R6,1*
G04 #@! TO.N,+3V3*
X142240000Y-90170000D03*
D11*
G04 #@! TO.P,R6,2*
G04 #@! TO.N,Net-(U1-VDET_2{slash}GPIO35{slash}ADC1_CH7)*
X149860000Y-90170000D03*
G04 #@! TD*
D14*
G04 #@! TO.P,J2,1,Pin_1*
G04 #@! TO.N,GND*
X142240000Y-74930000D03*
D15*
G04 #@! TO.P,J2,2,Pin_2*
G04 #@! TO.N,Net-(J2-Pin_2)*
X144780000Y-74930000D03*
G04 #@! TO.P,J2,3,Pin_3*
G04 #@! TO.N,Net-(J2-Pin_3)*
X147320000Y-74930000D03*
G04 #@! TO.P,J2,4,Pin_4*
G04 #@! TO.N,+5V*
X149860000Y-74930000D03*
G04 #@! TD*
D10*
G04 #@! TO.P,R11,1*
G04 #@! TO.N,Net-(U1-VDET_2{slash}GPIO35{slash}ADC1_CH7)*
X142240000Y-92710000D03*
D11*
G04 #@! TO.P,R11,2*
G04 #@! TO.N,Net-(J4-Pin_2)*
X149860000Y-92710000D03*
G04 #@! TD*
D10*
G04 #@! TO.P,R1,1*
G04 #@! TO.N,+3V3*
X149860000Y-80010000D03*
D11*
G04 #@! TO.P,R1,2*
G04 #@! TO.N,Net-(J2-Pin_2)*
X142240000Y-80010000D03*
G04 #@! TD*
D10*
G04 #@! TO.P,R7,1*
G04 #@! TO.N,+3V3*
X142240000Y-87630000D03*
D11*
G04 #@! TO.P,R7,2*
G04 #@! TO.N,Net-(U1-MTDI{slash}GPIO12{slash}ADC2_CH5)*
X149860000Y-87630000D03*
G04 #@! TD*
D21*
G04 #@! TO.P,D2,1,K*
G04 #@! TO.N,GND*
X138430000Y-116840000D03*
D22*
G04 #@! TO.P,D2,2,A*
G04 #@! TO.N,Net-(D2-A)*
X135890000Y-116840000D03*
G04 #@! TD*
D23*
G04 #@! TO.P,SW1,*
G04 #@! TO.N,*
X162600000Y-90190000D03*
X162600000Y-97190000D03*
D24*
G04 #@! TO.P,SW1,1,1*
G04 #@! TO.N,Net-(U1-VDET_1{slash}GPIO34{slash}ADC1_CH6)*
X165100000Y-91440000D03*
G04 #@! TO.P,SW1,2,2*
G04 #@! TO.N,GND*
X165100000Y-95940000D03*
G04 #@! TD*
D14*
G04 #@! TO.P,J4,1,Pin_1*
G04 #@! TO.N,Net-(D1-A)*
X157480000Y-104145000D03*
D15*
G04 #@! TO.P,J4,2,Pin_2*
G04 #@! TO.N,Net-(J4-Pin_2)*
X160020000Y-104145000D03*
G04 #@! TO.P,J4,3,Pin_3*
G04 #@! TO.N,Net-(J4-Pin_3)*
X157480000Y-106685000D03*
G04 #@! TO.P,J4,4,Pin_4*
G04 #@! TO.N,Net-(J4-Pin_4)*
X160020000Y-106685000D03*
G04 #@! TO.P,J4,5,Pin_5*
G04 #@! TO.N,Net-(J4-Pin_5)*
X157480000Y-109225000D03*
G04 #@! TO.P,J4,6,Pin_6*
G04 #@! TO.N,Net-(J4-Pin_6)*
X160020000Y-109225000D03*
G04 #@! TO.P,J4,7,Pin_7*
G04 #@! TO.N,Net-(J4-Pin_7)*
X157480000Y-111765000D03*
G04 #@! TO.P,J4,8,Pin_8*
G04 #@! TO.N,Net-(J4-Pin_8)*
X160020000Y-111765000D03*
G04 #@! TO.P,J4,9,Pin_9*
G04 #@! TO.N,GND*
X157480000Y-114305000D03*
G04 #@! TO.P,J4,10,Pin_10*
G04 #@! TO.N,unconnected-(J4-Pin_10-Pad10)*
X160020000Y-114305000D03*
G04 #@! TD*
D10*
G04 #@! TO.P,R3,1*
G04 #@! TO.N,Net-(J2-Pin_3)*
X135890000Y-77470000D03*
D11*
G04 #@! TO.P,R3,2*
G04 #@! TO.N,Net-(U1-32K_XN{slash}GPIO33{slash}ADC1_CH5)*
X135890000Y-69850000D03*
G04 #@! TD*
D12*
G04 #@! TO.P,J1,1*
G04 #@! TO.N,Net-(J2-Pin_2)*
X161450000Y-74700000D03*
D20*
G04 #@! TO.P,J1,2*
G04 #@! TO.N,unconnected-(J1-Pad2)*
X161450000Y-77300000D03*
G04 #@! TO.P,J1,3*
G04 #@! TO.N,GND*
X161450000Y-72600000D03*
G04 #@! TO.P,J1,4*
G04 #@! TO.N,+5V*
X161450000Y-79400000D03*
G04 #@! TO.P,J1,5*
G04 #@! TO.N,Net-(J2-Pin_3)*
X158650000Y-72600000D03*
G04 #@! TO.P,J1,6*
G04 #@! TO.N,Net-(JP1-A)*
X158650000Y-79400000D03*
D25*
G04 #@! TO.P,J1,7*
G04 #@! TO.N,N/C*
X164300000Y-82850000D03*
D26*
X165100000Y-76000000D03*
D25*
X164300000Y-69150000D03*
G04 #@! TD*
D10*
G04 #@! TO.P,R13,1*
G04 #@! TO.N,Net-(J4-Pin_5)*
X149860000Y-102870000D03*
D11*
G04 #@! TO.P,R13,2*
G04 #@! TO.N,Net-(U1-DAC_2{slash}ADC2_CH9{slash}GPIO26)*
X142240000Y-102870000D03*
G04 #@! TD*
D27*
G04 #@! TO.P,JP1,1,A*
G04 #@! TO.N,Net-(JP1-A)*
X154940000Y-73660000D03*
D28*
G04 #@! TO.P,JP1,2,B*
G04 #@! TO.N,Net-(J2-Pin_3)*
X154940000Y-72360000D03*
G04 #@! TD*
D29*
G04 #@! TO.N,Net-(U1-DAC_1{slash}ADC2_CH8{slash}GPIO25)*
X116840000Y-95250000D03*
G04 #@! TD*
D30*
G04 #@! TO.N,+5V*
X153710000Y-118110000D02*
X153670000Y-118070000D01*
X88265000Y-106680000D02*
X91440000Y-106680000D01*
X157480000Y-96520000D02*
X161925000Y-100965000D01*
X157480000Y-90805000D02*
X157480000Y-92705000D01*
X155615000Y-120015000D02*
X153710000Y-118110000D01*
X84455000Y-102870000D02*
X88265000Y-106680000D01*
X160655001Y-120015000D02*
X155615000Y-120015000D01*
X153670000Y-118070000D02*
X153670000Y-115289900D01*
X153670000Y-115289900D02*
X151410100Y-113030000D01*
X86360000Y-78105000D02*
X84455000Y-80010000D01*
X161925000Y-118745000D02*
X160655001Y-120015000D01*
X84455000Y-80010000D02*
X84455000Y-102870000D01*
X161450000Y-79400000D02*
X161450000Y-86835000D01*
X151410100Y-113030000D02*
X149860000Y-113030000D01*
X161925000Y-100965000D02*
X161925000Y-118745000D01*
X157480000Y-92705000D02*
X157480000Y-96520000D01*
X86360000Y-76200000D02*
X86360000Y-78105000D01*
X161450000Y-86835000D02*
X157480000Y-90805000D01*
D31*
G04 #@! TO.N,Net-(J2-Pin_2)*
X142240000Y-78740000D02*
X142240000Y-80010000D01*
X138430000Y-77470000D02*
X140970000Y-77470000D01*
X140970000Y-77470000D02*
X142240000Y-78740000D01*
X144780000Y-77470000D02*
X142240000Y-80010000D01*
X144780000Y-74930000D02*
X144780000Y-77470000D01*
D30*
G04 #@! TO.N,+3V3*
X157480000Y-86360000D02*
X153670000Y-86360000D01*
X132510100Y-77900100D02*
X142240000Y-87630000D01*
X144780000Y-87630000D02*
X149860000Y-82550000D01*
X142240000Y-113030000D02*
X142240000Y-111479900D01*
X142240000Y-87630000D02*
X142240000Y-90170000D01*
X132080000Y-77900100D02*
X132510100Y-77900100D01*
X153670000Y-86360000D02*
X149860000Y-82550000D01*
X142875000Y-90170000D02*
X142240000Y-90170000D01*
X144145000Y-91440000D02*
X142875000Y-90170000D01*
X132080000Y-76200000D02*
X132080000Y-77900100D01*
X142240000Y-87630000D02*
X144780000Y-87630000D01*
X144145000Y-109574900D02*
X144145000Y-91440000D01*
X149860000Y-80010000D02*
X149860000Y-82550000D01*
X142240000Y-111479900D02*
X144145000Y-109574900D01*
D31*
G04 #@! TO.N,Net-(U1-32K_XN{slash}GPIO33{slash}ADC1_CH5)*
X119380000Y-69850000D02*
X135890000Y-69850000D01*
X114300000Y-76200000D02*
X114300000Y-74930000D01*
X114300000Y-74930000D02*
X119380000Y-69850000D01*
G04 #@! TO.N,Net-(U1-32K_XP{slash}GPIO32{slash}ADC1_CH4)*
X116840000Y-76200000D02*
X116840000Y-74930000D01*
X117475000Y-74295000D02*
X133985000Y-74295000D01*
X116840000Y-74930000D02*
X117475000Y-74295000D01*
X133985000Y-74295000D02*
X138430000Y-69850000D01*
G04 #@! TO.N,Net-(U1-VDET_1{slash}GPIO34{slash}ADC1_CH6)*
X165100000Y-91440000D02*
X165100000Y-86360000D01*
G04 #@! TO.N,Net-(U1-VDET_2{slash}GPIO35{slash}ADC1_CH7)*
X119380000Y-76200000D02*
X119380000Y-77470000D01*
X120015000Y-78105000D02*
X127000000Y-78105000D01*
X127000000Y-78105000D02*
X141605000Y-92710000D01*
X141605000Y-92710000D02*
X142240000Y-92710000D01*
X119380000Y-77470000D02*
X120015000Y-78105000D01*
G04 #@! TO.N,Net-(U1-MTDI{slash}GPIO12{slash}ADC2_CH5)*
X91440000Y-113030000D02*
X92710000Y-111760000D01*
X92710000Y-111760000D02*
X92710000Y-86995000D01*
X149860000Y-87630000D02*
X149737550Y-87630000D01*
X148590000Y-88777550D02*
X148590000Y-104140000D01*
X101600000Y-78105000D02*
X101600000Y-76200000D01*
X91440000Y-114300000D02*
X91440000Y-113030000D01*
X92710000Y-86995000D02*
X101600000Y-78105000D01*
X148590000Y-104140000D02*
X149860000Y-105410000D01*
X149737550Y-87630000D02*
X148590000Y-88777550D01*
G04 #@! TO.N,Net-(U1-ADC2_CH7{slash}GPIO27)*
X106680000Y-78105000D02*
X113030000Y-84455000D01*
X110490000Y-106680000D02*
X109220000Y-106680000D01*
X113030000Y-84455000D02*
X113030000Y-104140000D01*
X113030000Y-104140000D02*
X110490000Y-106680000D01*
X106680000Y-76200000D02*
X106680000Y-78105000D01*
G04 #@! TO.N,Net-(U1-DAC_1{slash}ADC2_CH8{slash}GPIO25)*
X111760000Y-80010000D02*
X115570000Y-83820000D01*
X115570000Y-83820000D02*
X115570000Y-106680000D01*
X115570000Y-95250000D02*
X116840000Y-95250000D01*
X111760000Y-76200000D02*
X111760000Y-80010000D01*
X111760000Y-110490000D02*
X109220000Y-110490000D01*
X115570000Y-106680000D02*
X111760000Y-110490000D01*
X106680000Y-113030000D02*
X106680000Y-114300000D01*
X109220000Y-110490000D02*
X106680000Y-113030000D01*
G04 #@! TO.N,Net-(U1-MTCK{slash}GPIO13{slash}ADC2_CH4)*
X115715600Y-80844304D02*
X113030000Y-78158704D01*
X97734900Y-73660000D02*
X96520000Y-74874900D01*
X96520000Y-74874900D02*
X96520000Y-76200000D01*
X113030000Y-74930000D02*
X111760000Y-73660000D01*
X111760000Y-73660000D02*
X97734900Y-73660000D01*
X115715600Y-82060600D02*
X115715600Y-80844304D01*
X141605000Y-107950000D02*
X115715600Y-82060600D01*
X142240000Y-107950000D02*
X141605000Y-107950000D01*
X113030000Y-78158704D02*
X113030000Y-74930000D01*
G04 #@! TO.N,Net-(U1-DAC_2{slash}ADC2_CH9{slash}GPIO26)*
X108585000Y-74295000D02*
X106045000Y-74295000D01*
X106045000Y-74295000D02*
X105410000Y-74930000D01*
X101600000Y-105410000D02*
X101600000Y-106680000D01*
X105410000Y-74930000D02*
X105410000Y-102870000D01*
X109220000Y-76200000D02*
X109220000Y-74930000D01*
X109220000Y-74930000D02*
X108585000Y-74295000D01*
X105410000Y-102870000D02*
X103505000Y-104775000D01*
X102235000Y-104775000D02*
X101600000Y-105410000D01*
X103505000Y-104775000D02*
X102235000Y-104775000D01*
G04 #@! TO.N,Net-(U1-GPIO23)*
X117000100Y-115465000D02*
X101116900Y-115465000D01*
X129540000Y-102925100D02*
X117000100Y-115465000D01*
X129540000Y-101600000D02*
X129540000Y-102925100D01*
X100185100Y-114533200D02*
X100185100Y-114300000D01*
X101116900Y-115465000D02*
X100185100Y-114533200D01*
X99060000Y-114300000D02*
X100185100Y-114300000D01*
G04 #@! TO.N,Net-(U1-MTMS{slash}GPIO14{slash}ADC2_CH6)*
X104140000Y-76200000D02*
X104140000Y-78132550D01*
X93980000Y-113030000D02*
X93980000Y-114300000D01*
X95250000Y-111760000D02*
X93980000Y-113030000D01*
X95250000Y-87022550D02*
X95250000Y-111760000D01*
X104140000Y-78132550D02*
X95250000Y-87022550D01*
G04 #@! TO.N,Net-(U1-GPIO16)*
X104140000Y-101600000D02*
X104140000Y-102870000D01*
X103505000Y-103505000D02*
X100586900Y-103505000D01*
X100586900Y-103505000D02*
X99316900Y-104775000D01*
X104140000Y-102870000D02*
X103505000Y-103505000D01*
X97155000Y-104775000D02*
X96520000Y-105410000D01*
X96520000Y-105410000D02*
X96520000Y-106680000D01*
X99316900Y-104775000D02*
X97155000Y-104775000D01*
G04 #@! TO.N,Net-(U1-GPIO17)*
X106680000Y-102870000D02*
X104140000Y-105410000D01*
X106680000Y-101600000D02*
X106680000Y-102870000D01*
X104140000Y-105410000D02*
X104140000Y-106680000D01*
G04 #@! TO.N,Net-(U1-GPIO18)*
X107315000Y-103505000D02*
X105410000Y-105410000D01*
X100965000Y-112395000D02*
X97155000Y-112395000D01*
X111760000Y-102870000D02*
X111125000Y-103505000D01*
X111760000Y-101600000D02*
X111760000Y-102870000D01*
X96520000Y-113030000D02*
X96520000Y-114300000D01*
X105410000Y-107950000D02*
X100965000Y-112395000D01*
X97155000Y-112395000D02*
X96520000Y-113030000D01*
X111125000Y-103505000D02*
X107315000Y-103505000D01*
X105410000Y-105410000D02*
X105410000Y-107950000D01*
G04 #@! TO.N,Net-(U1-GPIO19)*
X114300000Y-101600000D02*
X114300000Y-105410000D01*
X107950000Y-109220000D02*
X104140000Y-113030000D01*
X114300000Y-105410000D02*
X110490000Y-109220000D01*
X104140000Y-113030000D02*
X104140000Y-114300000D01*
X110490000Y-109220000D02*
X107950000Y-109220000D01*
G04 #@! TO.N,Net-(JP1-A)*
X158650000Y-79275000D02*
X158650000Y-79400000D01*
X154940000Y-73660000D02*
X154940000Y-75565000D01*
X154940000Y-75565000D02*
X158650000Y-79275000D01*
G04 #@! TO.N,Net-(J2-Pin_3)*
X154940000Y-72360000D02*
X149890000Y-72360000D01*
X139944900Y-81524900D02*
X142240000Y-81524900D01*
X135890000Y-77470000D02*
X139944900Y-81524900D01*
X149890000Y-72360000D02*
X147320000Y-74930000D01*
X142240000Y-82550000D02*
X142240000Y-81524900D01*
X158410000Y-72360000D02*
X154940000Y-72360000D01*
X147320000Y-76835000D02*
X142630100Y-81524900D01*
X158650000Y-72600000D02*
X158410000Y-72360000D01*
X147320000Y-74930000D02*
X147320000Y-76835000D01*
X142630100Y-81524900D02*
X142240000Y-81524900D01*
G04 #@! TO.N,Net-(J4-Pin_2)*
X158110000Y-102235000D02*
X156210000Y-102235000D01*
X155575000Y-101600000D02*
X155575000Y-98425000D01*
X156210000Y-102235000D02*
X155575000Y-101600000D01*
X160020000Y-104145000D02*
X158110000Y-102235000D01*
X155575000Y-98425000D02*
X149860000Y-92710000D01*
G04 #@! TO.N,Net-(J4-Pin_3)*
X153035000Y-100965000D02*
X149860000Y-97790000D01*
X157480000Y-106685000D02*
X156215000Y-106685000D01*
X156215000Y-106685000D02*
X153035000Y-103505000D01*
X153035000Y-103505000D02*
X153035000Y-100965000D01*
G04 #@! TO.N,Net-(J4-Pin_4)*
X154305000Y-103505000D02*
X154305000Y-99695000D01*
X158750000Y-105410000D02*
X156210000Y-105410000D01*
X160020000Y-106685000D02*
X160020000Y-106680000D01*
X154305000Y-99695000D02*
X149860000Y-95250000D01*
X160020000Y-106680000D02*
X158750000Y-105410000D01*
X156210000Y-105410000D02*
X154305000Y-103505000D01*
G04 #@! TO.N,Net-(J4-Pin_5)*
X156215000Y-109225000D02*
X149860000Y-102870000D01*
X157480000Y-109225000D02*
X156215000Y-109225000D01*
G04 #@! TO.N,Net-(J4-Pin_6)*
X160020000Y-109125100D02*
X158844900Y-107950000D01*
X158844900Y-107950000D02*
X156210000Y-107950000D01*
X151765000Y-102235000D02*
X149860000Y-100330000D01*
X156210000Y-107950000D02*
X151765000Y-103505000D01*
X151765000Y-103505000D02*
X151765000Y-102235000D01*
X160020000Y-109225000D02*
X160020000Y-109125100D01*
G04 #@! TO.N,Net-(J4-Pin_7)*
X157480000Y-111765000D02*
X153675000Y-111765000D01*
X153675000Y-111765000D02*
X149860000Y-107950000D01*
G04 #@! TD*
G04 #@! TA.AperFunction,Conductor*
G04 #@! TO.N,GND*
G36*
X146860507Y-112820156D02*
G01*
X146820000Y-112958111D01*
X146820000Y-113101889D01*
X146860507Y-113239844D01*
X146886314Y-113280000D01*
X145213686Y-113280000D01*
X145239493Y-113239844D01*
X145280000Y-113101889D01*
X145280000Y-112958111D01*
X145239493Y-112820156D01*
X145213686Y-112780000D01*
X146886314Y-112780000D01*
X146860507Y-112820156D01*
G37*
G04 #@! TD.AperFunction*
G04 #@! TA.AperFunction,Conductor*
G36*
X165101619Y-66040584D02*
G01*
X165233628Y-66047503D01*
X165417027Y-66057803D01*
X165423212Y-66058465D01*
X165575647Y-66082608D01*
X165738194Y-66110226D01*
X165743811Y-66111453D01*
X165896693Y-66152418D01*
X165989122Y-66179046D01*
X166051724Y-66197082D01*
X166056759Y-66198769D01*
X166206183Y-66256127D01*
X166354007Y-66317358D01*
X166358412Y-66319388D01*
X166424180Y-66352899D01*
X166501921Y-66392511D01*
X166577428Y-66434241D01*
X166641480Y-66469641D01*
X166645215Y-66471882D01*
X166719487Y-66520115D01*
X166780872Y-66559980D01*
X166868357Y-66622053D01*
X166910764Y-66652142D01*
X166913886Y-66654510D01*
X167038748Y-66755621D01*
X167041034Y-66757567D01*
X167158721Y-66862738D01*
X167161248Y-66865128D01*
X167274870Y-66978750D01*
X167277260Y-66981277D01*
X167382431Y-67098964D01*
X167384385Y-67101260D01*
X167485480Y-67226102D01*
X167487862Y-67229243D01*
X167580019Y-67359127D01*
X167633758Y-67441875D01*
X167668106Y-67494767D01*
X167670364Y-67498531D01*
X167747488Y-67638078D01*
X167820604Y-67781575D01*
X167822643Y-67785997D01*
X167883877Y-67933829D01*
X167941221Y-68083217D01*
X167942916Y-68088273D01*
X167987579Y-68243297D01*
X168028541Y-68396171D01*
X168029778Y-68401835D01*
X168057394Y-68564369D01*
X168081530Y-68716758D01*
X168082196Y-68722985D01*
X168092509Y-68906617D01*
X168099415Y-69038377D01*
X168099500Y-69041623D01*
X168099500Y-119038376D01*
X168099415Y-119041622D01*
X168092509Y-119173382D01*
X168082196Y-119357013D01*
X168081530Y-119363240D01*
X168057394Y-119515630D01*
X168029778Y-119678163D01*
X168028541Y-119683827D01*
X167987579Y-119836702D01*
X167942916Y-119991725D01*
X167941221Y-119996781D01*
X167883877Y-120146170D01*
X167822643Y-120294001D01*
X167820604Y-120298423D01*
X167747488Y-120441921D01*
X167670364Y-120581467D01*
X167668097Y-120585246D01*
X167580019Y-120720872D01*
X167487862Y-120850755D01*
X167485480Y-120853896D01*
X167384385Y-120978738D01*
X167382431Y-120981034D01*
X167277260Y-121098721D01*
X167274870Y-121101248D01*
X167161248Y-121214870D01*
X167158721Y-121217260D01*
X167041034Y-121322431D01*
X167038738Y-121324385D01*
X166913896Y-121425480D01*
X166910755Y-121427862D01*
X166780872Y-121520019D01*
X166645246Y-121608097D01*
X166641467Y-121610364D01*
X166501921Y-121687488D01*
X166358423Y-121760604D01*
X166354001Y-121762643D01*
X166206170Y-121823877D01*
X166056781Y-121881221D01*
X166051725Y-121882916D01*
X165939832Y-121915153D01*
X165905503Y-121920000D01*
X85294496Y-121920000D01*
X85260167Y-121915153D01*
X85148273Y-121882916D01*
X85143216Y-121881221D01*
X84993829Y-121823877D01*
X84845997Y-121762643D01*
X84841575Y-121760604D01*
X84698078Y-121687488D01*
X84558531Y-121610364D01*
X84554767Y-121608106D01*
X84501875Y-121573758D01*
X84419127Y-121520019D01*
X84289243Y-121427862D01*
X84286102Y-121425480D01*
X84161260Y-121324385D01*
X84158964Y-121322431D01*
X84041277Y-121217260D01*
X84038750Y-121214870D01*
X83925128Y-121101248D01*
X83922738Y-121098721D01*
X83817567Y-120981034D01*
X83815613Y-120978738D01*
X83714510Y-120853886D01*
X83712136Y-120850755D01*
X83619980Y-120720872D01*
X83587406Y-120670715D01*
X83531882Y-120585215D01*
X83529641Y-120581480D01*
X83494241Y-120517428D01*
X83452511Y-120441921D01*
X83406214Y-120351060D01*
X83379388Y-120298412D01*
X83377358Y-120294007D01*
X83316122Y-120146170D01*
X83258769Y-119996759D01*
X83257082Y-119991724D01*
X83212420Y-119836702D01*
X83171453Y-119683811D01*
X83170226Y-119678194D01*
X83142601Y-119515606D01*
X83118465Y-119363212D01*
X83117803Y-119357027D01*
X83107490Y-119173382D01*
X83100584Y-119041620D01*
X83100500Y-119038377D01*
X83100500Y-118607763D01*
X84745787Y-118607763D01*
X84775413Y-118877013D01*
X84775415Y-118877024D01*
X84838427Y-119118048D01*
X84843928Y-119139088D01*
X84949870Y-119388390D01*
X84994447Y-119461432D01*
X85090979Y-119619605D01*
X85090986Y-119619615D01*
X85264253Y-119827819D01*
X85264259Y-119827824D01*
X85425649Y-119972429D01*
X85465998Y-120008582D01*
X85691910Y-120158044D01*
X85937176Y-120273020D01*
X85937183Y-120273022D01*
X85937185Y-120273023D01*
X86196557Y-120351057D01*
X86196564Y-120351058D01*
X86196569Y-120351060D01*
X86464561Y-120390500D01*
X86464566Y-120390500D01*
X86667636Y-120390500D01*
X86719133Y-120386730D01*
X86870156Y-120375677D01*
X86982758Y-120350593D01*
X87134546Y-120316782D01*
X87134548Y-120316781D01*
X87134553Y-120316780D01*
X87387558Y-120220014D01*
X87623777Y-120087441D01*
X87838177Y-119921888D01*
X88026186Y-119726881D01*
X88183799Y-119506579D01*
X88290825Y-119298412D01*
X88307649Y-119265690D01*
X88307651Y-119265684D01*
X88307656Y-119265675D01*
X88395118Y-119009305D01*
X88444319Y-118742933D01*
X88449259Y-118607763D01*
X142745787Y-118607763D01*
X142775413Y-118877013D01*
X142775415Y-118877024D01*
X142838427Y-119118048D01*
X142843928Y-119139088D01*
X142949870Y-119388390D01*
X142994447Y-119461432D01*
X143090979Y-119619605D01*
X143090986Y-119619615D01*
X143264253Y-119827819D01*
X143264259Y-119827824D01*
X143425649Y-119972429D01*
X143465998Y-120008582D01*
X143691910Y-120158044D01*
X143937176Y-120273020D01*
X143937183Y-120273022D01*
X143937185Y-120273023D01*
X144196557Y-120351057D01*
X144196564Y-120351058D01*
X144196569Y-120351060D01*
X144464561Y-120390500D01*
X144464566Y-120390500D01*
X144667636Y-120390500D01*
X144719133Y-120386730D01*
X144870156Y-120375677D01*
X144982758Y-120350593D01*
X145134546Y-120316782D01*
X145134548Y-120316781D01*
X145134553Y-120316780D01*
X145387558Y-120220014D01*
X145623777Y-120087441D01*
X145838177Y-119921888D01*
X146026186Y-119726881D01*
X146183799Y-119506579D01*
X146290825Y-119298412D01*
X146307649Y-119265690D01*
X146307651Y-119265684D01*
X146307656Y-119265675D01*
X146395118Y-119009305D01*
X146444319Y-118742933D01*
X146454212Y-118472235D01*
X146424586Y-118202982D01*
X146356072Y-117940912D01*
X146250130Y-117691610D01*
X146109018Y-117460390D01*
X146088255Y-117435441D01*
X145935746Y-117252180D01*
X145935740Y-117252175D01*
X145734002Y-117071418D01*
X145508092Y-116921957D01*
X145426555Y-116883734D01*
X145262824Y-116806980D01*
X145262819Y-116806978D01*
X145262814Y-116806976D01*
X145003442Y-116728942D01*
X145003428Y-116728939D01*
X144887791Y-116711921D01*
X144735439Y-116689500D01*
X144532369Y-116689500D01*
X144532364Y-116689500D01*
X144329844Y-116704323D01*
X144329831Y-116704325D01*
X144065453Y-116763217D01*
X144065446Y-116763220D01*
X143812439Y-116859987D01*
X143576226Y-116992557D01*
X143576224Y-116992558D01*
X143576223Y-116992559D01*
X143526476Y-117030972D01*
X143361822Y-117158112D01*
X143173822Y-117353109D01*
X143173816Y-117353116D01*
X143016202Y-117573419D01*
X143016199Y-117573424D01*
X142892350Y-117814309D01*
X142892343Y-117814327D01*
X142804884Y-118070685D01*
X142804881Y-118070699D01*
X142794494Y-118126935D01*
X142755750Y-118336697D01*
X142755681Y-118337068D01*
X142755680Y-118337075D01*
X142745787Y-118607763D01*
X88449259Y-118607763D01*
X88454212Y-118472235D01*
X88424586Y-118202982D01*
X88356072Y-117940912D01*
X88250130Y-117691610D01*
X88109018Y-117460390D01*
X88088255Y-117435441D01*
X87935746Y-117252180D01*
X87935740Y-117252175D01*
X87734002Y-117071418D01*
X87508092Y-116921957D01*
X87426555Y-116883734D01*
X87333262Y-116840000D01*
X124524357Y-116840000D01*
X124544884Y-117061535D01*
X124544885Y-117061537D01*
X124605769Y-117275523D01*
X124605775Y-117275538D01*
X124704938Y-117474683D01*
X124704943Y-117474691D01*
X124839020Y-117652238D01*
X125003437Y-117802123D01*
X125003439Y-117802125D01*
X125192595Y-117919245D01*
X125192596Y-117919245D01*
X125192599Y-117919247D01*
X125400060Y-117999618D01*
X125618757Y-118040500D01*
X125618759Y-118040500D01*
X125841241Y-118040500D01*
X125841243Y-118040500D01*
X126059940Y-117999618D01*
X126267401Y-117919247D01*
X126456562Y-117802124D01*
X126620981Y-117652236D01*
X126755058Y-117474689D01*
X126854229Y-117275528D01*
X126915115Y-117061536D01*
X126935643Y-116840000D01*
X132144357Y-116840000D01*
X132164884Y-117061535D01*
X132164885Y-117061537D01*
X132225769Y-117275523D01*
X132225775Y-117275538D01*
X132324938Y-117474683D01*
X132324943Y-117474691D01*
X132459020Y-117652238D01*
X132623437Y-117802123D01*
X132623439Y-117802125D01*
X132812595Y-117919245D01*
X132812596Y-117919245D01*
X132812599Y-117919247D01*
X133020060Y-117999618D01*
X133238757Y-118040500D01*
X133238759Y-118040500D01*
X133461241Y-118040500D01*
X133461243Y-118040500D01*
X133679940Y-117999618D01*
X133887401Y-117919247D01*
X134076562Y-117802124D01*
X134240981Y-117652236D01*
X134375058Y-117474689D01*
X134397320Y-117429980D01*
X134444821Y-117378744D01*
X134512484Y-117361322D01*
X134578825Y-117383247D01*
X134621876Y-117435441D01*
X134654076Y-117508850D01*
X134781016Y-117703147D01*
X134781019Y-117703151D01*
X134781021Y-117703153D01*
X134938216Y-117873913D01*
X134938219Y-117873915D01*
X134938222Y-117873918D01*
X135121365Y-118016464D01*
X135121371Y-118016468D01*
X135121374Y-118016470D01*
X135270526Y-118097187D01*
X135294196Y-118109997D01*
X135325497Y-118126936D01*
X135439487Y-118166068D01*
X135545015Y-118202297D01*
X135545017Y-118202297D01*
X135545019Y-118202298D01*
X135773951Y-118240500D01*
X135773952Y-118240500D01*
X136006048Y-118240500D01*
X136006049Y-118240500D01*
X136234981Y-118202298D01*
X136454503Y-118126936D01*
X136658626Y-118016470D01*
X136692566Y-117990054D01*
X136720129Y-117968600D01*
X136841784Y-117873913D01*
X136850511Y-117864432D01*
X136910394Y-117828441D01*
X136980232Y-117830538D01*
X137037850Y-117870060D01*
X137057924Y-117905080D01*
X137086645Y-117982086D01*
X137086649Y-117982093D01*
X137172809Y-118097187D01*
X137172812Y-118097190D01*
X137287906Y-118183350D01*
X137287913Y-118183354D01*
X137422620Y-118233596D01*
X137422627Y-118233598D01*
X137482155Y-118239999D01*
X137482172Y-118240000D01*
X138180000Y-118240000D01*
X138180000Y-117214189D01*
X138232547Y-117250016D01*
X138362173Y-117290000D01*
X138463724Y-117290000D01*
X138564138Y-117274865D01*
X138680000Y-117219068D01*
X138680000Y-118240000D01*
X139377828Y-118240000D01*
X139377844Y-118239999D01*
X139437372Y-118233598D01*
X139437379Y-118233596D01*
X139572086Y-118183354D01*
X139572093Y-118183350D01*
X139687187Y-118097190D01*
X139687190Y-118097187D01*
X139773350Y-117982093D01*
X139773354Y-117982086D01*
X139823596Y-117847379D01*
X139823598Y-117847372D01*
X139829999Y-117787844D01*
X139830000Y-117787827D01*
X139830000Y-117090000D01*
X138805278Y-117090000D01*
X138853625Y-117006260D01*
X138883810Y-116874008D01*
X138873673Y-116738735D01*
X138824113Y-116612459D01*
X138806203Y-116590000D01*
X139830000Y-116590000D01*
X139830000Y-115892172D01*
X139829999Y-115892155D01*
X139823598Y-115832627D01*
X139823596Y-115832620D01*
X139773354Y-115697913D01*
X139773350Y-115697906D01*
X139687190Y-115582812D01*
X139687187Y-115582809D01*
X139572093Y-115496649D01*
X139572086Y-115496645D01*
X139437379Y-115446403D01*
X139437372Y-115446401D01*
X139377844Y-115440000D01*
X138680000Y-115440000D01*
X138680000Y-116465810D01*
X138627453Y-116429984D01*
X138497827Y-116390000D01*
X138396276Y-116390000D01*
X138295862Y-116405135D01*
X138180000Y-116460931D01*
X138180000Y-115440000D01*
X137482155Y-115440000D01*
X137422627Y-115446401D01*
X137422620Y-115446403D01*
X137287913Y-115496645D01*
X137287906Y-115496649D01*
X137172812Y-115582809D01*
X137172809Y-115582812D01*
X137086649Y-115697906D01*
X137086646Y-115697911D01*
X137057924Y-115774920D01*
X137016052Y-115830853D01*
X136950588Y-115855270D01*
X136882315Y-115840418D01*
X136850514Y-115815571D01*
X136841784Y-115806087D01*
X136841779Y-115806083D01*
X136841777Y-115806081D01*
X136658634Y-115663535D01*
X136658628Y-115663531D01*
X136454504Y-115553064D01*
X136454495Y-115553061D01*
X136234984Y-115477702D01*
X136047404Y-115446401D01*
X136006049Y-115439500D01*
X135773951Y-115439500D01*
X135732596Y-115446401D01*
X135545015Y-115477702D01*
X135325504Y-115553061D01*
X135325495Y-115553064D01*
X135121371Y-115663531D01*
X135121365Y-115663535D01*
X134938222Y-115806081D01*
X134938219Y-115806084D01*
X134938216Y-115806086D01*
X134938216Y-115806087D01*
X134913791Y-115832620D01*
X134781016Y-115976852D01*
X134654073Y-116171154D01*
X134621875Y-116244558D01*
X134576919Y-116298044D01*
X134510183Y-116318733D01*
X134442855Y-116300058D01*
X134397320Y-116250019D01*
X134375058Y-116205311D01*
X134291876Y-116095159D01*
X134240979Y-116027761D01*
X134076562Y-115877876D01*
X134076560Y-115877874D01*
X133887404Y-115760754D01*
X133887398Y-115760752D01*
X133874311Y-115755682D01*
X133679940Y-115680382D01*
X133461243Y-115639500D01*
X133238757Y-115639500D01*
X133020060Y-115680382D01*
X132893726Y-115729324D01*
X132812601Y-115760752D01*
X132812595Y-115760754D01*
X132623439Y-115877874D01*
X132623437Y-115877876D01*
X132459020Y-116027761D01*
X132324943Y-116205308D01*
X132324938Y-116205316D01*
X132225775Y-116404461D01*
X132225769Y-116404476D01*
X132164885Y-116618462D01*
X132164884Y-116618464D01*
X132144357Y-116839999D01*
X132144357Y-116840000D01*
X126935643Y-116840000D01*
X126915115Y-116618464D01*
X126854229Y-116404472D01*
X126774601Y-116244558D01*
X126755061Y-116205316D01*
X126755056Y-116205308D01*
X126620979Y-116027761D01*
X126456562Y-115877876D01*
X126456560Y-115877874D01*
X126267404Y-115760754D01*
X126267398Y-115760752D01*
X126254311Y-115755682D01*
X126059940Y-115680382D01*
X125841243Y-115639500D01*
X125618757Y-115639500D01*
X125400060Y-115680382D01*
X125273726Y-115729324D01*
X125192601Y-115760752D01*
X125192595Y-115760754D01*
X125003439Y-115877874D01*
X125003437Y-115877876D01*
X124839020Y-116027761D01*
X124704943Y-116205308D01*
X124704938Y-116205316D01*
X124605775Y-116404461D01*
X124605769Y-116404476D01*
X124544885Y-116618462D01*
X124544884Y-116618464D01*
X124524357Y-116839999D01*
X124524357Y-116840000D01*
X87333262Y-116840000D01*
X87262824Y-116806980D01*
X87262819Y-116806978D01*
X87262814Y-116806976D01*
X87003442Y-116728942D01*
X87003428Y-116728939D01*
X86887791Y-116711921D01*
X86735439Y-116689500D01*
X86532369Y-116689500D01*
X86532364Y-116689500D01*
X86329844Y-116704323D01*
X86329831Y-116704325D01*
X86065453Y-116763217D01*
X86065446Y-116763220D01*
X85812439Y-116859987D01*
X85576226Y-116992557D01*
X85576224Y-116992558D01*
X85576223Y-116992559D01*
X85526476Y-117030972D01*
X85361822Y-117158112D01*
X85173822Y-117353109D01*
X85173816Y-117353116D01*
X85016202Y-117573419D01*
X85016199Y-117573424D01*
X84892350Y-117814309D01*
X84892343Y-117814327D01*
X84804884Y-118070685D01*
X84804881Y-118070699D01*
X84794494Y-118126935D01*
X84755750Y-118336697D01*
X84755681Y-118337068D01*
X84755680Y-118337075D01*
X84745787Y-118607763D01*
X83100500Y-118607763D01*
X83100500Y-80035474D01*
X83449662Y-80035474D01*
X83451429Y-80049343D01*
X83454003Y-80069560D01*
X83454500Y-80077388D01*
X83454500Y-102857283D01*
X83452243Y-102946362D01*
X83452243Y-102946370D01*
X83460186Y-102990683D01*
X83462860Y-103005604D01*
X83463064Y-103006739D01*
X83463718Y-103011404D01*
X83469925Y-103072430D01*
X83469927Y-103072444D01*
X83480208Y-103105213D01*
X83482079Y-103112837D01*
X83488142Y-103146652D01*
X83488142Y-103146655D01*
X83510894Y-103203612D01*
X83512474Y-103208051D01*
X83530841Y-103266588D01*
X83530844Y-103266595D01*
X83547509Y-103296619D01*
X83550879Y-103303714D01*
X83563622Y-103335614D01*
X83563627Y-103335624D01*
X83597377Y-103386833D01*
X83599818Y-103390863D01*
X83629588Y-103444498D01*
X83629589Y-103444499D01*
X83629591Y-103444502D01*
X83651968Y-103470567D01*
X83656693Y-103476835D01*
X83669263Y-103495906D01*
X83675598Y-103505519D01*
X83718978Y-103548899D01*
X83722169Y-103552343D01*
X83762131Y-103598892D01*
X83762134Y-103598895D01*
X83789294Y-103619918D01*
X83795190Y-103625111D01*
X87548566Y-107378487D01*
X87609938Y-107443050D01*
X87609941Y-107443053D01*
X87660281Y-107478092D01*
X87664043Y-107480928D01*
X87711587Y-107519694D01*
X87711590Y-107519695D01*
X87711593Y-107519698D01*
X87742045Y-107535604D01*
X87748758Y-107539672D01*
X87776951Y-107559295D01*
X87833329Y-107583489D01*
X87837578Y-107585507D01*
X87891951Y-107613909D01*
X87919489Y-107621788D01*
X87924974Y-107623358D01*
X87932368Y-107625990D01*
X87963942Y-107639540D01*
X87963945Y-107639540D01*
X87963946Y-107639541D01*
X88024022Y-107651887D01*
X88028600Y-107653010D01*
X88042501Y-107656987D01*
X88087582Y-107669887D01*
X88121839Y-107672495D01*
X88129614Y-107673586D01*
X88163255Y-107680500D01*
X88163259Y-107680500D01*
X88224599Y-107680500D01*
X88229305Y-107680678D01*
X88264063Y-107683325D01*
X88290476Y-107685337D01*
X88290476Y-107685336D01*
X88290477Y-107685337D01*
X88324560Y-107680996D01*
X88332390Y-107680500D01*
X90562412Y-107680500D01*
X90629451Y-107700185D01*
X90633523Y-107702917D01*
X90787266Y-107810568D01*
X90993504Y-107906739D01*
X91213308Y-107965635D01*
X91375230Y-107979801D01*
X91439998Y-107985468D01*
X91440000Y-107985468D01*
X91440002Y-107985468D01*
X91496673Y-107980509D01*
X91666692Y-107965635D01*
X91886496Y-107906739D01*
X91908093Y-107896667D01*
X91977169Y-107886173D01*
X92040954Y-107914691D01*
X92079195Y-107973167D01*
X92084500Y-108009048D01*
X92084500Y-111449546D01*
X92064815Y-111516585D01*
X92048181Y-111537227D01*
X91056208Y-112529199D01*
X91043951Y-112539020D01*
X91044134Y-112539241D01*
X91038123Y-112544213D01*
X90990772Y-112594636D01*
X90969889Y-112615519D01*
X90969877Y-112615532D01*
X90965621Y-112621017D01*
X90961837Y-112625447D01*
X90929937Y-112659418D01*
X90929936Y-112659420D01*
X90920284Y-112676976D01*
X90909610Y-112693226D01*
X90897329Y-112709061D01*
X90897324Y-112709068D01*
X90878815Y-112751838D01*
X90876245Y-112757084D01*
X90853803Y-112797906D01*
X90848822Y-112817307D01*
X90842521Y-112835710D01*
X90834562Y-112854102D01*
X90834561Y-112854106D01*
X90828099Y-112894901D01*
X90798168Y-112958035D01*
X90738855Y-112994965D01*
X90705627Y-112999500D01*
X90592130Y-112999500D01*
X90592123Y-112999501D01*
X90532516Y-113005908D01*
X90397671Y-113056202D01*
X90397664Y-113056206D01*
X90282455Y-113142452D01*
X90282452Y-113142455D01*
X90196206Y-113257664D01*
X90196202Y-113257671D01*
X90145908Y-113392517D01*
X90139501Y-113452116D01*
X90139500Y-113452135D01*
X90139500Y-115147870D01*
X90139501Y-115147876D01*
X90145908Y-115207483D01*
X90196202Y-115342328D01*
X90196206Y-115342335D01*
X90282452Y-115457544D01*
X90282455Y-115457547D01*
X90397664Y-115543793D01*
X90397671Y-115543797D01*
X90532517Y-115594091D01*
X90532516Y-115594091D01*
X90539444Y-115594835D01*
X90592127Y-115600500D01*
X92287872Y-115600499D01*
X92347483Y-115594091D01*
X92482331Y-115543796D01*
X92597546Y-115457546D01*
X92683796Y-115342331D01*
X92734091Y-115207483D01*
X92737862Y-115172401D01*
X92764599Y-115107855D01*
X92821990Y-115068006D01*
X92891816Y-115065511D01*
X92951905Y-115101163D01*
X92962726Y-115114536D01*
X92979956Y-115139143D01*
X93140858Y-115300045D01*
X93140861Y-115300047D01*
X93327266Y-115430568D01*
X93533504Y-115526739D01*
X93753308Y-115585635D01*
X93915230Y-115599801D01*
X93979998Y-115605468D01*
X93980000Y-115605468D01*
X93980002Y-115605468D01*
X94036807Y-115600498D01*
X94206692Y-115585635D01*
X94426496Y-115526739D01*
X94632734Y-115430568D01*
X94819139Y-115300047D01*
X94980047Y-115139139D01*
X95110568Y-114952734D01*
X95137618Y-114894724D01*
X95183790Y-114842285D01*
X95250983Y-114823133D01*
X95317865Y-114843348D01*
X95362382Y-114894725D01*
X95389429Y-114952728D01*
X95389432Y-114952734D01*
X95519954Y-115139141D01*
X95680858Y-115300045D01*
X95680861Y-115300047D01*
X95867266Y-115430568D01*
X96073504Y-115526739D01*
X96293308Y-115585635D01*
X96455230Y-115599801D01*
X96519998Y-115605468D01*
X96520000Y-115605468D01*
X96520002Y-115605468D01*
X96576807Y-115600498D01*
X96746692Y-115585635D01*
X96966496Y-115526739D01*
X97172734Y-115430568D01*
X97359139Y-115300047D01*
X97520047Y-115139139D01*
X97650568Y-114952734D01*
X97677618Y-114894724D01*
X97723790Y-114842285D01*
X97790983Y-114823133D01*
X97857865Y-114843348D01*
X97902382Y-114894725D01*
X97929429Y-114952728D01*
X97929432Y-114952734D01*
X98059954Y-115139141D01*
X98220858Y-115300045D01*
X98220861Y-115300047D01*
X98407266Y-115430568D01*
X98613504Y-115526739D01*
X98833308Y-115585635D01*
X98995230Y-115599801D01*
X99059998Y-115605468D01*
X99060000Y-115605468D01*
X99060002Y-115605468D01*
X99116807Y-115600498D01*
X99286692Y-115585635D01*
X99506496Y-115526739D01*
X99712734Y-115430568D01*
X99899139Y-115300047D01*
X99899146Y-115300039D01*
X99903282Y-115296570D01*
X99904944Y-115298551D01*
X99956652Y-115270186D01*
X100026353Y-115275034D01*
X100070928Y-115303619D01*
X100616097Y-115848788D01*
X100625922Y-115861051D01*
X100626143Y-115860869D01*
X100631114Y-115866878D01*
X100651943Y-115886437D01*
X100681535Y-115914226D01*
X100702429Y-115935120D01*
X100707911Y-115939373D01*
X100712343Y-115943157D01*
X100746318Y-115975062D01*
X100763876Y-115984714D01*
X100780135Y-115995395D01*
X100795964Y-116007673D01*
X100838738Y-116026182D01*
X100843956Y-116028738D01*
X100884808Y-116051197D01*
X100904216Y-116056180D01*
X100922617Y-116062480D01*
X100941004Y-116070437D01*
X100984388Y-116077308D01*
X100987019Y-116077725D01*
X100992739Y-116078909D01*
X101037881Y-116090500D01*
X101057916Y-116090500D01*
X101077314Y-116092026D01*
X101097094Y-116095159D01*
X101097095Y-116095160D01*
X101097095Y-116095159D01*
X101097096Y-116095160D01*
X101143484Y-116090775D01*
X101149322Y-116090500D01*
X116917357Y-116090500D01*
X116932977Y-116092224D01*
X116933004Y-116091939D01*
X116940760Y-116092671D01*
X116940767Y-116092673D01*
X117009914Y-116090500D01*
X117039450Y-116090500D01*
X117046328Y-116089630D01*
X117052141Y-116089172D01*
X117098727Y-116087709D01*
X117117969Y-116082117D01*
X117137012Y-116078174D01*
X117156892Y-116075664D01*
X117200222Y-116058507D01*
X117205746Y-116056617D01*
X117209496Y-116055527D01*
X117250490Y-116043618D01*
X117267729Y-116033422D01*
X117285203Y-116024862D01*
X117303827Y-116017488D01*
X117303827Y-116017487D01*
X117303832Y-116017486D01*
X117341549Y-115990082D01*
X117346405Y-115986892D01*
X117386520Y-115963170D01*
X117400689Y-115948999D01*
X117415479Y-115936368D01*
X117431687Y-115924594D01*
X117461399Y-115888676D01*
X117465312Y-115884376D01*
X129923786Y-103425902D01*
X129936048Y-103416080D01*
X129935865Y-103415859D01*
X129941867Y-103410892D01*
X129941877Y-103410886D01*
X129989241Y-103360448D01*
X130010120Y-103339570D01*
X130014373Y-103334086D01*
X130018150Y-103329663D01*
X130050062Y-103295682D01*
X130059714Y-103278123D01*
X130070389Y-103261872D01*
X130082674Y-103246036D01*
X130101186Y-103203252D01*
X130103742Y-103198035D01*
X130126197Y-103157192D01*
X130131180Y-103137780D01*
X130137477Y-103119391D01*
X130145438Y-103100995D01*
X130152729Y-103054953D01*
X130153908Y-103049262D01*
X130165500Y-103004119D01*
X130165500Y-102984083D01*
X130167027Y-102964685D01*
X130169627Y-102948269D01*
X130199556Y-102885135D01*
X130220169Y-102866662D01*
X130263952Y-102835486D01*
X130264232Y-102835193D01*
X130408985Y-102683379D01*
X130431425Y-102648462D01*
X130522613Y-102506572D01*
X130600725Y-102311457D01*
X130640500Y-102105085D01*
X130640500Y-101147575D01*
X130625528Y-100990782D01*
X130566316Y-100789125D01*
X130470011Y-100602318D01*
X130470009Y-100602316D01*
X130470008Y-100602313D01*
X130340094Y-100437116D01*
X130340090Y-100437112D01*
X130181253Y-100299478D01*
X129999249Y-100194398D01*
X129999245Y-100194396D01*
X129999244Y-100194396D01*
X129800633Y-100125656D01*
X129592602Y-100095746D01*
X129592598Y-100095746D01*
X129382672Y-100105745D01*
X129178421Y-100155296D01*
X129178417Y-100155298D01*
X128987256Y-100242598D01*
X128987251Y-100242601D01*
X128816046Y-100364515D01*
X128816040Y-100364520D01*
X128671014Y-100516620D01*
X128557388Y-100693425D01*
X128479274Y-100888544D01*
X128440209Y-101091234D01*
X128439500Y-101094915D01*
X128439500Y-102052425D01*
X128454121Y-102205537D01*
X128454472Y-102209217D01*
X128454473Y-102209221D01*
X128513628Y-102410686D01*
X128513684Y-102410875D01*
X128609989Y-102597682D01*
X128706086Y-102719879D01*
X128732054Y-102784742D01*
X128718832Y-102853349D01*
X128696297Y-102884211D01*
X116777328Y-114803181D01*
X116716005Y-114836666D01*
X116689647Y-114839500D01*
X110582901Y-114839500D01*
X110515862Y-114819815D01*
X110470107Y-114767011D01*
X110460163Y-114697853D01*
X110463126Y-114683406D01*
X110498872Y-114550000D01*
X109535686Y-114550000D01*
X109547641Y-114538045D01*
X109605165Y-114425148D01*
X109624986Y-114300000D01*
X109605165Y-114174852D01*
X109547641Y-114061955D01*
X109535686Y-114050000D01*
X110498872Y-114050000D01*
X110498872Y-114049999D01*
X110446269Y-113853682D01*
X110446265Y-113853673D01*
X110350134Y-113647517D01*
X110219657Y-113461179D01*
X110058820Y-113300342D01*
X109872482Y-113169865D01*
X109666328Y-113073734D01*
X109470000Y-113021127D01*
X109470000Y-113984314D01*
X109458045Y-113972359D01*
X109345148Y-113914835D01*
X109251481Y-113900000D01*
X109188519Y-113900000D01*
X109094852Y-113914835D01*
X108981955Y-113972359D01*
X108970000Y-113984314D01*
X108970000Y-113021127D01*
X108773671Y-113073734D01*
X108567517Y-113169865D01*
X108381179Y-113300342D01*
X108220342Y-113461179D01*
X108089867Y-113647515D01*
X108062657Y-113705867D01*
X108016484Y-113758306D01*
X107949290Y-113777457D01*
X107882409Y-113757241D01*
X107837893Y-113705865D01*
X107833140Y-113695673D01*
X107810568Y-113647266D01*
X107680047Y-113460861D01*
X107680045Y-113460858D01*
X107519141Y-113299954D01*
X107508147Y-113292256D01*
X107464522Y-113237679D01*
X107457328Y-113168181D01*
X107488851Y-113105826D01*
X107491589Y-113103000D01*
X107917614Y-112676976D01*
X109442772Y-111151819D01*
X109504095Y-111118334D01*
X109530453Y-111115500D01*
X111677257Y-111115500D01*
X111692877Y-111117224D01*
X111692904Y-111116939D01*
X111700660Y-111117671D01*
X111700667Y-111117673D01*
X111769814Y-111115500D01*
X111799350Y-111115500D01*
X111806228Y-111114630D01*
X111812041Y-111114172D01*
X111858627Y-111112709D01*
X111877869Y-111107117D01*
X111896912Y-111103174D01*
X111916792Y-111100664D01*
X111960122Y-111083507D01*
X111965646Y-111081617D01*
X111974110Y-111079158D01*
X112010390Y-111068618D01*
X112027629Y-111058422D01*
X112045103Y-111049862D01*
X112063727Y-111042488D01*
X112063727Y-111042487D01*
X112063732Y-111042486D01*
X112101449Y-111015082D01*
X112106305Y-111011892D01*
X112146420Y-110988170D01*
X112160589Y-110973999D01*
X112175379Y-110961368D01*
X112191587Y-110949594D01*
X112221299Y-110913676D01*
X112225212Y-110909376D01*
X115953786Y-107180802D01*
X115966048Y-107170980D01*
X115965865Y-107170759D01*
X115971867Y-107165792D01*
X115971877Y-107165786D01*
X116019241Y-107115348D01*
X116040120Y-107094470D01*
X116044373Y-107088986D01*
X116048150Y-107084563D01*
X116080062Y-107050582D01*
X116089714Y-107033023D01*
X116100389Y-107016772D01*
X116112674Y-107000936D01*
X116131186Y-106958152D01*
X116133742Y-106952935D01*
X116156197Y-106912092D01*
X116161180Y-106892680D01*
X116167477Y-106874291D01*
X116175438Y-106855895D01*
X116182729Y-106809853D01*
X116183908Y-106804162D01*
X116195500Y-106759019D01*
X116195500Y-106738983D01*
X116197027Y-106719582D01*
X116200160Y-106699804D01*
X116195775Y-106653415D01*
X116195500Y-106647577D01*
X116195500Y-103112843D01*
X116215185Y-103045804D01*
X116267989Y-103000049D01*
X116337147Y-102990105D01*
X116375308Y-103003313D01*
X116375592Y-103002693D01*
X116380967Y-103005147D01*
X116579487Y-103073856D01*
X116590000Y-103075367D01*
X116590000Y-101915686D01*
X116601955Y-101927641D01*
X116714852Y-101985165D01*
X116808519Y-102000000D01*
X116871481Y-102000000D01*
X116965148Y-101985165D01*
X117078045Y-101927641D01*
X117090000Y-101915686D01*
X117090000Y-103071257D01*
X117201409Y-103044229D01*
X117392507Y-102956959D01*
X117563619Y-102835110D01*
X117563625Y-102835104D01*
X117708592Y-102683067D01*
X117822166Y-102506342D01*
X117900244Y-102311314D01*
X117940000Y-102105037D01*
X117940000Y-102052425D01*
X118279500Y-102052425D01*
X118294121Y-102205537D01*
X118294472Y-102209217D01*
X118294473Y-102209221D01*
X118353628Y-102410686D01*
X118353684Y-102410875D01*
X118403019Y-102506572D01*
X118449991Y-102597686D01*
X118579905Y-102762883D01*
X118579909Y-102762887D01*
X118738746Y-102900521D01*
X118920750Y-103005601D01*
X118920752Y-103005601D01*
X118920756Y-103005604D01*
X119119367Y-103074344D01*
X119327398Y-103104254D01*
X119537330Y-103094254D01*
X119741576Y-103044704D01*
X119838091Y-103000627D01*
X119932743Y-102957401D01*
X119932746Y-102957399D01*
X119932753Y-102957396D01*
X120103952Y-102835486D01*
X120104232Y-102835193D01*
X120248985Y-102683379D01*
X120271425Y-102648462D01*
X120362613Y-102506572D01*
X120440725Y-102311457D01*
X120480500Y-102105085D01*
X120480500Y-102052425D01*
X120819500Y-102052425D01*
X120834121Y-102205537D01*
X120834472Y-102209217D01*
X120834473Y-102209221D01*
X120893628Y-102410686D01*
X120893684Y-102410875D01*
X120943019Y-102506572D01*
X120989991Y-102597686D01*
X121119905Y-102762883D01*
X121119909Y-102762887D01*
X121278746Y-102900521D01*
X121460750Y-103005601D01*
X121460752Y-103005601D01*
X121460756Y-103005604D01*
X121659367Y-103074344D01*
X121867398Y-103104254D01*
X122077330Y-103094254D01*
X122281576Y-103044704D01*
X122378091Y-103000627D01*
X122472743Y-102957401D01*
X122472746Y-102957399D01*
X122472753Y-102957396D01*
X122643952Y-102835486D01*
X122644232Y-102835193D01*
X122788985Y-102683379D01*
X122811425Y-102648462D01*
X122902613Y-102506572D01*
X122980725Y-102311457D01*
X123020500Y-102105085D01*
X123020500Y-102052425D01*
X123359500Y-102052425D01*
X123374121Y-102205537D01*
X123374472Y-102209217D01*
X123374473Y-102209221D01*
X123433628Y-102410686D01*
X123433684Y-102410875D01*
X123483019Y-102506572D01*
X123529991Y-102597686D01*
X123659905Y-102762883D01*
X123659909Y-102762887D01*
X123818746Y-102900521D01*
X124000750Y-103005601D01*
X124000752Y-103005601D01*
X124000756Y-103005604D01*
X124199367Y-103074344D01*
X124407398Y-103104254D01*
X124617330Y-103094254D01*
X124821576Y-103044704D01*
X124918091Y-103000627D01*
X125012743Y-102957401D01*
X125012746Y-102957399D01*
X125012753Y-102957396D01*
X125183952Y-102835486D01*
X125184232Y-102835193D01*
X125328985Y-102683379D01*
X125351425Y-102648462D01*
X125442613Y-102506572D01*
X125520725Y-102311457D01*
X125560500Y-102105085D01*
X125560500Y-102052425D01*
X125899500Y-102052425D01*
X125914121Y-102205537D01*
X125914472Y-102209217D01*
X125914473Y-102209221D01*
X125973628Y-102410686D01*
X125973684Y-102410875D01*
X126023019Y-102506572D01*
X126069991Y-102597686D01*
X126199905Y-102762883D01*
X126199909Y-102762887D01*
X126358746Y-102900521D01*
X126540750Y-103005601D01*
X126540752Y-103005601D01*
X126540756Y-103005604D01*
X126739367Y-103074344D01*
X126947398Y-103104254D01*
X127157330Y-103094254D01*
X127361576Y-103044704D01*
X127458091Y-103000627D01*
X127552743Y-102957401D01*
X127552746Y-102957399D01*
X127552753Y-102957396D01*
X127723952Y-102835486D01*
X127724232Y-102835193D01*
X127868985Y-102683379D01*
X127891425Y-102648462D01*
X127982613Y-102506572D01*
X128060725Y-102311457D01*
X128100500Y-102105085D01*
X128100500Y-101147575D01*
X128085528Y-100990782D01*
X128026316Y-100789125D01*
X127930011Y-100602318D01*
X127930009Y-100602316D01*
X127930008Y-100602313D01*
X127800094Y-100437116D01*
X127800090Y-100437112D01*
X127641253Y-100299478D01*
X127459249Y-100194398D01*
X127459245Y-100194396D01*
X127459244Y-100194396D01*
X127260633Y-100125656D01*
X127052602Y-100095746D01*
X127052598Y-100095746D01*
X126842672Y-100105745D01*
X126638421Y-100155296D01*
X126638417Y-100155298D01*
X126447256Y-100242598D01*
X126447251Y-100242601D01*
X126276046Y-100364515D01*
X126276040Y-100364520D01*
X126131014Y-100516620D01*
X126017388Y-100693425D01*
X125939274Y-100888544D01*
X125900209Y-101091234D01*
X125899500Y-101094915D01*
X125899500Y-102052425D01*
X125560500Y-102052425D01*
X125560500Y-101147575D01*
X125545528Y-100990782D01*
X125486316Y-100789125D01*
X125390011Y-100602318D01*
X125390009Y-100602316D01*
X125390008Y-100602313D01*
X125260094Y-100437116D01*
X125260090Y-100437112D01*
X125101253Y-100299478D01*
X124919249Y-100194398D01*
X124919245Y-100194396D01*
X124919244Y-100194396D01*
X124720633Y-100125656D01*
X124512602Y-100095746D01*
X124512598Y-100095746D01*
X124302672Y-100105745D01*
X124098421Y-100155296D01*
X124098417Y-100155298D01*
X123907256Y-100242598D01*
X123907251Y-100242601D01*
X123736046Y-100364515D01*
X123736040Y-100364520D01*
X123591014Y-100516620D01*
X123477388Y-100693425D01*
X123399274Y-100888544D01*
X123360209Y-101091234D01*
X123359500Y-101094915D01*
X123359500Y-102052425D01*
X123020500Y-102052425D01*
X123020500Y-101147575D01*
X123005528Y-100990782D01*
X122946316Y-100789125D01*
X122850011Y-100602318D01*
X122850009Y-100602316D01*
X122850008Y-100602313D01*
X122720094Y-100437116D01*
X122720090Y-100437112D01*
X122561253Y-100299478D01*
X122379249Y-100194398D01*
X122379245Y-100194396D01*
X122379244Y-100194396D01*
X122180633Y-100125656D01*
X121972602Y-100095746D01*
X121972598Y-100095746D01*
X121762672Y-100105745D01*
X121558421Y-100155296D01*
X121558417Y-100155298D01*
X121367256Y-100242598D01*
X121367251Y-100242601D01*
X121196046Y-100364515D01*
X121196040Y-100364520D01*
X121051014Y-100516620D01*
X120937388Y-100693425D01*
X120859274Y-100888544D01*
X120820209Y-101091234D01*
X120819500Y-101094915D01*
X120819500Y-102052425D01*
X120480500Y-102052425D01*
X120480500Y-101147575D01*
X120465528Y-100990782D01*
X120406316Y-100789125D01*
X120310011Y-100602318D01*
X120310009Y-100602316D01*
X120310008Y-100602313D01*
X120180094Y-100437116D01*
X120180090Y-100437112D01*
X120021253Y-100299478D01*
X119839249Y-100194398D01*
X119839245Y-100194396D01*
X119839244Y-100194396D01*
X119640633Y-100125656D01*
X119432602Y-100095746D01*
X119432598Y-100095746D01*
X119222672Y-100105745D01*
X119018421Y-100155296D01*
X119018417Y-100155298D01*
X118827256Y-100242598D01*
X118827251Y-100242601D01*
X118656046Y-100364515D01*
X118656040Y-100364520D01*
X118511014Y-100516620D01*
X118397388Y-100693425D01*
X118319274Y-100888544D01*
X118280209Y-101091234D01*
X118279500Y-101094915D01*
X118279500Y-102052425D01*
X117940000Y-102052425D01*
X117940000Y-101850000D01*
X117155686Y-101850000D01*
X117167641Y-101838045D01*
X117225165Y-101725148D01*
X117244986Y-101600000D01*
X117225165Y-101474852D01*
X117167641Y-101361955D01*
X117155686Y-101350000D01*
X117940000Y-101350000D01*
X117940000Y-101147601D01*
X117925034Y-100990877D01*
X117925033Y-100990873D01*
X117865850Y-100789313D01*
X117769586Y-100602585D01*
X117639731Y-100437462D01*
X117639728Y-100437459D01*
X117480969Y-100299894D01*
X117480958Y-100299885D01*
X117299039Y-100194855D01*
X117299032Y-100194852D01*
X117100516Y-100126144D01*
X117090000Y-100124632D01*
X117090000Y-101284314D01*
X117078045Y-101272359D01*
X116965148Y-101214835D01*
X116871481Y-101200000D01*
X116808519Y-101200000D01*
X116714852Y-101214835D01*
X116601955Y-101272359D01*
X116590000Y-101284314D01*
X116590000Y-100128740D01*
X116589999Y-100128740D01*
X116478594Y-100155768D01*
X116478591Y-100155769D01*
X116371011Y-100204899D01*
X116301852Y-100214842D01*
X116238297Y-100185817D01*
X116200523Y-100127038D01*
X116195500Y-100092104D01*
X116195500Y-96138185D01*
X116215185Y-96071146D01*
X116267989Y-96025391D01*
X116337147Y-96015447D01*
X116380373Y-96033087D01*
X116381637Y-96030899D01*
X116387270Y-96034151D01*
X116560192Y-96111142D01*
X116560197Y-96111144D01*
X116745354Y-96150500D01*
X116745355Y-96150500D01*
X116934644Y-96150500D01*
X116934646Y-96150500D01*
X117119803Y-96111144D01*
X117292730Y-96034151D01*
X117445871Y-95922888D01*
X117572533Y-95782216D01*
X117667179Y-95618284D01*
X117725674Y-95438256D01*
X117745460Y-95250000D01*
X117725674Y-95061744D01*
X117667179Y-94881716D01*
X117572533Y-94717784D01*
X117445871Y-94577112D01*
X117445870Y-94577111D01*
X117292734Y-94465851D01*
X117292729Y-94465848D01*
X117119807Y-94388857D01*
X117119802Y-94388855D01*
X116974001Y-94357865D01*
X116934646Y-94349500D01*
X116745354Y-94349500D01*
X116712897Y-94356398D01*
X116560197Y-94388855D01*
X116560192Y-94388857D01*
X116387270Y-94465848D01*
X116381637Y-94469101D01*
X116380145Y-94466517D01*
X116326483Y-94485617D01*
X116258441Y-94469739D01*
X116209785Y-94419595D01*
X116195500Y-94361814D01*
X116195500Y-83902742D01*
X116197224Y-83887122D01*
X116196939Y-83887095D01*
X116197673Y-83879333D01*
X116195500Y-83810172D01*
X116195500Y-83780656D01*
X116195500Y-83780650D01*
X116194631Y-83773779D01*
X116194173Y-83767953D01*
X116193625Y-83750500D01*
X116192843Y-83725625D01*
X116210413Y-83658003D01*
X116261754Y-83610613D01*
X116330566Y-83598502D01*
X116395002Y-83625517D01*
X116404463Y-83634053D01*
X132884179Y-100113769D01*
X132917664Y-100175092D01*
X132912680Y-100244784D01*
X132870808Y-100300717D01*
X132805344Y-100325134D01*
X132737071Y-100310282D01*
X132724574Y-100302460D01*
X132720962Y-100299888D01*
X132539039Y-100194855D01*
X132539032Y-100194852D01*
X132340516Y-100126144D01*
X132330000Y-100124632D01*
X132330000Y-101284314D01*
X132318045Y-101272359D01*
X132205148Y-101214835D01*
X132111481Y-101200000D01*
X132048519Y-101200000D01*
X131954852Y-101214835D01*
X131841955Y-101272359D01*
X131830000Y-101284314D01*
X131830000Y-100128740D01*
X131829999Y-100128740D01*
X131718594Y-100155768D01*
X131718582Y-100155772D01*
X131527497Y-100243037D01*
X131527496Y-100243038D01*
X131356380Y-100364889D01*
X131356374Y-100364895D01*
X131211407Y-100516932D01*
X131097833Y-100693657D01*
X131019755Y-100888685D01*
X130980000Y-101094962D01*
X130980000Y-101350000D01*
X131764314Y-101350000D01*
X131752359Y-101361955D01*
X131694835Y-101474852D01*
X131675014Y-101600000D01*
X131694835Y-101725148D01*
X131752359Y-101838045D01*
X131764314Y-101850000D01*
X130980000Y-101850000D01*
X130980000Y-102052398D01*
X130994965Y-102209122D01*
X130994966Y-102209126D01*
X131054149Y-102410686D01*
X131150413Y-102597414D01*
X131280268Y-102762537D01*
X131280271Y-102762540D01*
X131439030Y-102900105D01*
X131439041Y-102900114D01*
X131620960Y-103005144D01*
X131620967Y-103005147D01*
X131819487Y-103073856D01*
X131830000Y-103075367D01*
X131830000Y-101915686D01*
X131841955Y-101927641D01*
X131954852Y-101985165D01*
X132048519Y-102000000D01*
X132111481Y-102000000D01*
X132205148Y-101985165D01*
X132318045Y-101927641D01*
X132330000Y-101915686D01*
X132330000Y-103071257D01*
X132441409Y-103044229D01*
X132632507Y-102956959D01*
X132803619Y-102835110D01*
X132803625Y-102835104D01*
X132948592Y-102683067D01*
X133062166Y-102506342D01*
X133140244Y-102311314D01*
X133180000Y-102105037D01*
X133180000Y-101850000D01*
X132395686Y-101850000D01*
X132407641Y-101838045D01*
X132465165Y-101725148D01*
X132484986Y-101600000D01*
X132465165Y-101474852D01*
X132407641Y-101361955D01*
X132395686Y-101350000D01*
X133180000Y-101350000D01*
X133180000Y-101147601D01*
X133165034Y-100990877D01*
X133165033Y-100990873D01*
X133105850Y-100789313D01*
X133009586Y-100602585D01*
X132958313Y-100537387D01*
X132932345Y-100472522D01*
X132945567Y-100403915D01*
X132993783Y-100353348D01*
X133061683Y-100336875D01*
X133127710Y-100359727D01*
X133143464Y-100373054D01*
X141077025Y-108306615D01*
X141108609Y-108360359D01*
X141115771Y-108385528D01*
X141115773Y-108385533D01*
X141115775Y-108385537D01*
X141214936Y-108584679D01*
X141214943Y-108584691D01*
X141349020Y-108762238D01*
X141513437Y-108912123D01*
X141513439Y-108912125D01*
X141702595Y-109029245D01*
X141702596Y-109029245D01*
X141702599Y-109029247D01*
X141910060Y-109109618D01*
X142128757Y-109150500D01*
X142128759Y-109150500D01*
X142351241Y-109150500D01*
X142351243Y-109150500D01*
X142569940Y-109109618D01*
X142777401Y-109029247D01*
X142955223Y-108919145D01*
X143022583Y-108900590D01*
X143089283Y-108921398D01*
X143134144Y-108974963D01*
X143144500Y-109024572D01*
X143144500Y-109109117D01*
X143124815Y-109176156D01*
X143108181Y-109196798D01*
X141541532Y-110763446D01*
X141476946Y-110824842D01*
X141441899Y-110875194D01*
X141439062Y-110878956D01*
X141400302Y-110926492D01*
X141400299Y-110926497D01*
X141384392Y-110956947D01*
X141380324Y-110963661D01*
X141360702Y-110991854D01*
X141336509Y-111048230D01*
X141334488Y-111052484D01*
X141306091Y-111106851D01*
X141306090Y-111106852D01*
X141296640Y-111139875D01*
X141294007Y-111147271D01*
X141280459Y-111178843D01*
X141268113Y-111238919D01*
X141266990Y-111243495D01*
X141250113Y-111302477D01*
X141250113Y-111302479D01*
X141247503Y-111336741D01*
X141246414Y-111344508D01*
X141240980Y-111370952D01*
X141239500Y-111378158D01*
X141239500Y-111439497D01*
X141239321Y-111444206D01*
X141234662Y-111505374D01*
X141236707Y-111521427D01*
X141239003Y-111539460D01*
X141239500Y-111547288D01*
X141239500Y-112069241D01*
X141219815Y-112136280D01*
X141203181Y-112156922D01*
X141201505Y-112158597D01*
X141065965Y-112352169D01*
X141065964Y-112352171D01*
X140966098Y-112566335D01*
X140966094Y-112566344D01*
X140904938Y-112794586D01*
X140904936Y-112794596D01*
X140884341Y-113029999D01*
X140884341Y-113030000D01*
X140904936Y-113265403D01*
X140904938Y-113265413D01*
X140966094Y-113493655D01*
X140966096Y-113493659D01*
X140966097Y-113493663D01*
X141048517Y-113670412D01*
X141065965Y-113707830D01*
X141065967Y-113707834D01*
X141114718Y-113777457D01*
X141201505Y-113901401D01*
X141368599Y-114068495D01*
X141452851Y-114127489D01*
X141562165Y-114204032D01*
X141562167Y-114204033D01*
X141562170Y-114204035D01*
X141776337Y-114303903D01*
X142004592Y-114365063D01*
X142181034Y-114380500D01*
X142239999Y-114385659D01*
X142240000Y-114385659D01*
X142240001Y-114385659D01*
X142298966Y-114380500D01*
X142475408Y-114365063D01*
X142703663Y-114303903D01*
X142917830Y-114204035D01*
X143111401Y-114068495D01*
X143278495Y-113901401D01*
X143408730Y-113715405D01*
X143463307Y-113671781D01*
X143532805Y-113664587D01*
X143595160Y-113696110D01*
X143611879Y-113715405D01*
X143741890Y-113901078D01*
X143908917Y-114068105D01*
X144102421Y-114203600D01*
X144316507Y-114303429D01*
X144316516Y-114303433D01*
X144530000Y-114360634D01*
X144530000Y-113465501D01*
X144637685Y-113514680D01*
X144744237Y-113530000D01*
X144815763Y-113530000D01*
X144922315Y-113514680D01*
X145030000Y-113465501D01*
X145030000Y-114360633D01*
X145243483Y-114303433D01*
X145243492Y-114303429D01*
X145457578Y-114203600D01*
X145651082Y-114068105D01*
X145818105Y-113901082D01*
X145948425Y-113714968D01*
X146003002Y-113671344D01*
X146072501Y-113664151D01*
X146134855Y-113695673D01*
X146151575Y-113714968D01*
X146281894Y-113901082D01*
X146448917Y-114068105D01*
X146642421Y-114203600D01*
X146856507Y-114303429D01*
X146856516Y-114303433D01*
X147070000Y-114360634D01*
X147070000Y-113465501D01*
X147177685Y-113514680D01*
X147284237Y-113530000D01*
X147355763Y-113530000D01*
X147462315Y-113514680D01*
X147570000Y-113465501D01*
X147570000Y-114360633D01*
X147783483Y-114303433D01*
X147783492Y-114303429D01*
X147997578Y-114203600D01*
X148191078Y-114068108D01*
X148313133Y-113946053D01*
X148374456Y-113912568D01*
X148444148Y-113917552D01*
X148500082Y-113959423D01*
X148516997Y-113990401D01*
X148566202Y-114122328D01*
X148566206Y-114122335D01*
X148652452Y-114237544D01*
X148652455Y-114237547D01*
X148767664Y-114323793D01*
X148767671Y-114323797D01*
X148902517Y-114374091D01*
X148902516Y-114374091D01*
X148909444Y-114374835D01*
X148962127Y-114380500D01*
X150757872Y-114380499D01*
X150817483Y-114374091D01*
X150952331Y-114323796D01*
X151058838Y-114244065D01*
X151124302Y-114219647D01*
X151192575Y-114234498D01*
X151220830Y-114255650D01*
X152633181Y-115668001D01*
X152666666Y-115729324D01*
X152669500Y-115755682D01*
X152669500Y-117289537D01*
X152649815Y-117356576D01*
X152647076Y-117360659D01*
X152579431Y-117457267D01*
X152483261Y-117663502D01*
X152483258Y-117663511D01*
X152424366Y-117883302D01*
X152424364Y-117883313D01*
X152404532Y-118109998D01*
X152404532Y-118110001D01*
X152424364Y-118336686D01*
X152424366Y-118336697D01*
X152483258Y-118556488D01*
X152483261Y-118556497D01*
X152579431Y-118762732D01*
X152579432Y-118762734D01*
X152709954Y-118949141D01*
X152870858Y-119110045D01*
X152870861Y-119110047D01*
X153057266Y-119240568D01*
X153263504Y-119336739D01*
X153263509Y-119336740D01*
X153263511Y-119336741D01*
X153311924Y-119349713D01*
X153483308Y-119395635D01*
X153545093Y-119401040D01*
X153610161Y-119426492D01*
X153621966Y-119436887D01*
X154898548Y-120713468D01*
X154959941Y-120778053D01*
X154959944Y-120778055D01*
X154959947Y-120778058D01*
X154994053Y-120801795D01*
X155010303Y-120813106D01*
X155014044Y-120815926D01*
X155061593Y-120854698D01*
X155092045Y-120870604D01*
X155098758Y-120874672D01*
X155126951Y-120894295D01*
X155183329Y-120918489D01*
X155187578Y-120920507D01*
X155241951Y-120948909D01*
X155269489Y-120956788D01*
X155274974Y-120958358D01*
X155282368Y-120960990D01*
X155313942Y-120974540D01*
X155313945Y-120974540D01*
X155313946Y-120974541D01*
X155374022Y-120986887D01*
X155378600Y-120988010D01*
X155392501Y-120991987D01*
X155437582Y-121004887D01*
X155471839Y-121007495D01*
X155479614Y-121008586D01*
X155513255Y-121015500D01*
X155513259Y-121015500D01*
X155574598Y-121015500D01*
X155579304Y-121015678D01*
X155606595Y-121017757D01*
X155640475Y-121020337D01*
X155640475Y-121020336D01*
X155640476Y-121020337D01*
X155674559Y-121015996D01*
X155682389Y-121015500D01*
X160642286Y-121015500D01*
X160731359Y-121017757D01*
X160731359Y-121017756D01*
X160731365Y-121017757D01*
X160791759Y-121006932D01*
X160796413Y-121006280D01*
X160835322Y-121002322D01*
X160857439Y-121000074D01*
X160890228Y-120989785D01*
X160897828Y-120987920D01*
X160931654Y-120981858D01*
X160988622Y-120959101D01*
X160993054Y-120957524D01*
X161051589Y-120939159D01*
X161081628Y-120922484D01*
X161088709Y-120919122D01*
X161120618Y-120906377D01*
X161171855Y-120872608D01*
X161175852Y-120870187D01*
X161229503Y-120840409D01*
X161255569Y-120818030D01*
X161261844Y-120813300D01*
X161277379Y-120803062D01*
X161290520Y-120794402D01*
X161333893Y-120751027D01*
X161337351Y-120747823D01*
X161340614Y-120745020D01*
X161383896Y-120707866D01*
X161404929Y-120680691D01*
X161410099Y-120674821D01*
X162623488Y-119461432D01*
X162688053Y-119400059D01*
X162723100Y-119349704D01*
X162725932Y-119345950D01*
X162734835Y-119335030D01*
X162764698Y-119298407D01*
X162780610Y-119267942D01*
X162784662Y-119261254D01*
X162804295Y-119233049D01*
X162828495Y-119176654D01*
X162830492Y-119172450D01*
X162858910Y-119118048D01*
X162868363Y-119085009D01*
X162870995Y-119077620D01*
X162884540Y-119046058D01*
X162896888Y-118985965D01*
X162898010Y-118981398D01*
X162914887Y-118922417D01*
X162917495Y-118888158D01*
X162918586Y-118880385D01*
X162925500Y-118846743D01*
X162925500Y-118785400D01*
X162925679Y-118780691D01*
X162927047Y-118762734D01*
X162928554Y-118742933D01*
X162930337Y-118719525D01*
X162925997Y-118685441D01*
X162925500Y-118677602D01*
X162925500Y-100977676D01*
X162925829Y-100964683D01*
X162927756Y-100888637D01*
X162916932Y-100828247D01*
X162916282Y-100823617D01*
X162910074Y-100762562D01*
X162899790Y-100729786D01*
X162897917Y-100722154D01*
X162894579Y-100703531D01*
X162891858Y-100688347D01*
X162869102Y-100631378D01*
X162867521Y-100626937D01*
X162860004Y-100602979D01*
X162849159Y-100568412D01*
X162849158Y-100568410D01*
X162849157Y-100568407D01*
X162832488Y-100538378D01*
X162829117Y-100531278D01*
X162816378Y-100499386D01*
X162816377Y-100499383D01*
X162782620Y-100448163D01*
X162780180Y-100444134D01*
X162757856Y-100403915D01*
X162750409Y-100390498D01*
X162750407Y-100390495D01*
X162728033Y-100364434D01*
X162723302Y-100358159D01*
X162719124Y-100351820D01*
X162704402Y-100329481D01*
X162661012Y-100286091D01*
X162657822Y-100282648D01*
X162617867Y-100236106D01*
X162617863Y-100236102D01*
X162590698Y-100215074D01*
X162584803Y-100209882D01*
X159564921Y-97190000D01*
X160994551Y-97190000D01*
X161014317Y-97441151D01*
X161073126Y-97686110D01*
X161169533Y-97918859D01*
X161301160Y-98133653D01*
X161301161Y-98133656D01*
X161301164Y-98133659D01*
X161464776Y-98325224D01*
X161570092Y-98415172D01*
X161656343Y-98488838D01*
X161656346Y-98488839D01*
X161871140Y-98620466D01*
X162085109Y-98709094D01*
X162103889Y-98716873D01*
X162348852Y-98775683D01*
X162600000Y-98795449D01*
X162851148Y-98775683D01*
X163096111Y-98716873D01*
X163328859Y-98620466D01*
X163543659Y-98488836D01*
X163735224Y-98325224D01*
X163898836Y-98133659D01*
X164030466Y-97918859D01*
X164126873Y-97686111D01*
X164185683Y-97441148D01*
X164205449Y-97190000D01*
X164205448Y-97189993D01*
X164205457Y-97189885D01*
X164230341Y-97124597D01*
X164286572Y-97083126D01*
X164356298Y-97078639D01*
X164400200Y-97098040D01*
X164422420Y-97113599D01*
X164636507Y-97213429D01*
X164636516Y-97213433D01*
X164864673Y-97274567D01*
X164864684Y-97274569D01*
X165099998Y-97295157D01*
X165100002Y-97295157D01*
X165335315Y-97274569D01*
X165335326Y-97274567D01*
X165563483Y-97213433D01*
X165563492Y-97213429D01*
X165777578Y-97113600D01*
X165777582Y-97113598D01*
X165861373Y-97054926D01*
X165861373Y-97054925D01*
X165232533Y-96426086D01*
X165242315Y-96424680D01*
X165373100Y-96364952D01*
X165481761Y-96270798D01*
X165559493Y-96149844D01*
X165583076Y-96069524D01*
X166214925Y-96701373D01*
X166214926Y-96701373D01*
X166273598Y-96617582D01*
X166273600Y-96617578D01*
X166373429Y-96403492D01*
X166373433Y-96403483D01*
X166434567Y-96175326D01*
X166434569Y-96175315D01*
X166455157Y-95940001D01*
X166455157Y-95939998D01*
X166434569Y-95704684D01*
X166434567Y-95704673D01*
X166373433Y-95476516D01*
X166373429Y-95476507D01*
X166273600Y-95262423D01*
X166273599Y-95262421D01*
X166214925Y-95178626D01*
X166214925Y-95178625D01*
X165583076Y-95810475D01*
X165559493Y-95730156D01*
X165481761Y-95609202D01*
X165373100Y-95515048D01*
X165242315Y-95455320D01*
X165232533Y-95453913D01*
X165861373Y-94825073D01*
X165861373Y-94825072D01*
X165777583Y-94766402D01*
X165777579Y-94766400D01*
X165563492Y-94666570D01*
X165563483Y-94666566D01*
X165335326Y-94605432D01*
X165335315Y-94605430D01*
X165100002Y-94584843D01*
X165099998Y-94584843D01*
X164864684Y-94605430D01*
X164864673Y-94605432D01*
X164636516Y-94666566D01*
X164636507Y-94666570D01*
X164422419Y-94766401D01*
X164338625Y-94825072D01*
X164967466Y-95453913D01*
X164957685Y-95455320D01*
X164826900Y-95515048D01*
X164718239Y-95609202D01*
X164640507Y-95730156D01*
X164616923Y-95810476D01*
X163985072Y-95178625D01*
X163926401Y-95262419D01*
X163826570Y-95476507D01*
X163826566Y-95476516D01*
X163765432Y-95704673D01*
X163765430Y-95704683D01*
X163755814Y-95814596D01*
X163730361Y-95879665D01*
X163673770Y-95920643D01*
X163604008Y-95924521D01*
X163551755Y-95898079D01*
X163543655Y-95891161D01*
X163543653Y-95891160D01*
X163328859Y-95759533D01*
X163096110Y-95663126D01*
X162851151Y-95604317D01*
X162600000Y-95584551D01*
X162348848Y-95604317D01*
X162103889Y-95663126D01*
X161871140Y-95759533D01*
X161656346Y-95891160D01*
X161656343Y-95891161D01*
X161464776Y-96054776D01*
X161301161Y-96246343D01*
X161301160Y-96246346D01*
X161169533Y-96461140D01*
X161073126Y-96693889D01*
X161014317Y-96938848D01*
X160994551Y-97190000D01*
X159564921Y-97190000D01*
X158516819Y-96141898D01*
X158483334Y-96080575D01*
X158480500Y-96054217D01*
X158480500Y-93954749D01*
X158500185Y-93887710D01*
X158530190Y-93855482D01*
X158587546Y-93812546D01*
X158673796Y-93697331D01*
X158724091Y-93562483D01*
X158730500Y-93502873D01*
X158730499Y-91907128D01*
X158724091Y-91847517D01*
X158697298Y-91775682D01*
X158673797Y-91712671D01*
X158673793Y-91712664D01*
X158587548Y-91597457D01*
X158587546Y-91597454D01*
X158531673Y-91555627D01*
X158530188Y-91554515D01*
X158488318Y-91498581D01*
X158480500Y-91455249D01*
X158480500Y-91270781D01*
X158500185Y-91203742D01*
X158516814Y-91183105D01*
X159509919Y-90190000D01*
X160994551Y-90190000D01*
X161014317Y-90441151D01*
X161073126Y-90686110D01*
X161169533Y-90918859D01*
X161301160Y-91133653D01*
X161301161Y-91133656D01*
X161343249Y-91182934D01*
X161464776Y-91325224D01*
X161607695Y-91447288D01*
X161656343Y-91488838D01*
X161656345Y-91488838D01*
X161672243Y-91498581D01*
X161871140Y-91620466D01*
X162093740Y-91712669D01*
X162103889Y-91716873D01*
X162348852Y-91775683D01*
X162600000Y-91795449D01*
X162851148Y-91775683D01*
X163096111Y-91716873D01*
X163328859Y-91620466D01*
X163543659Y-91488836D01*
X163551285Y-91482322D01*
X163615044Y-91453750D01*
X163684130Y-91464184D01*
X163736608Y-91510313D01*
X163755347Y-91565802D01*
X163764936Y-91675403D01*
X163764938Y-91675413D01*
X163826094Y-91903655D01*
X163826096Y-91903659D01*
X163826097Y-91903663D01*
X163906137Y-92075308D01*
X163925965Y-92117830D01*
X163925967Y-92117834D01*
X164034281Y-92272521D01*
X164061505Y-92311401D01*
X164228599Y-92478495D01*
X164325384Y-92546265D01*
X164422165Y-92614032D01*
X164422167Y-92614033D01*
X164422170Y-92614035D01*
X164636337Y-92713903D01*
X164864592Y-92775063D01*
X165052918Y-92791539D01*
X165099999Y-92795659D01*
X165100000Y-92795659D01*
X165100001Y-92795659D01*
X165139234Y-92792226D01*
X165335408Y-92775063D01*
X165563663Y-92713903D01*
X165777830Y-92614035D01*
X165971401Y-92478495D01*
X166138495Y-92311401D01*
X166274035Y-92117830D01*
X166373903Y-91903663D01*
X166435063Y-91675408D01*
X166455659Y-91440000D01*
X166455021Y-91432713D01*
X166446072Y-91330428D01*
X166435063Y-91204592D01*
X166373903Y-90976337D01*
X166274035Y-90762171D01*
X166238279Y-90711105D01*
X166138494Y-90568597D01*
X165971402Y-90401506D01*
X165971401Y-90401505D01*
X165810386Y-90288761D01*
X165778376Y-90266347D01*
X165734751Y-90211770D01*
X165725500Y-90164772D01*
X165725500Y-87453765D01*
X165745185Y-87386726D01*
X165784220Y-87348340D01*
X165826562Y-87322124D01*
X165990981Y-87172236D01*
X166125058Y-86994689D01*
X166224229Y-86795528D01*
X166285115Y-86581536D01*
X166305643Y-86360000D01*
X166285115Y-86138464D01*
X166224229Y-85924472D01*
X166224224Y-85924461D01*
X166125061Y-85725316D01*
X166125056Y-85725308D01*
X165990979Y-85547761D01*
X165826562Y-85397876D01*
X165826560Y-85397874D01*
X165637404Y-85280754D01*
X165637398Y-85280752D01*
X165429940Y-85200382D01*
X165211243Y-85159500D01*
X164988757Y-85159500D01*
X164770060Y-85200382D01*
X164638864Y-85251207D01*
X164562601Y-85280752D01*
X164562595Y-85280754D01*
X164373439Y-85397874D01*
X164373437Y-85397876D01*
X164209020Y-85547761D01*
X164074943Y-85725308D01*
X164074938Y-85725316D01*
X163975775Y-85924461D01*
X163975769Y-85924476D01*
X163914885Y-86138462D01*
X163914884Y-86138464D01*
X163894357Y-86359999D01*
X163894357Y-86360000D01*
X163914884Y-86581535D01*
X163914885Y-86581537D01*
X163975769Y-86795523D01*
X163975775Y-86795538D01*
X164074938Y-86994683D01*
X164074943Y-86994691D01*
X164209020Y-87172238D01*
X164373433Y-87322120D01*
X164373435Y-87322122D01*
X164373437Y-87322123D01*
X164373438Y-87322124D01*
X164415778Y-87348339D01*
X164462412Y-87400364D01*
X164474500Y-87453765D01*
X164474500Y-90164773D01*
X164454815Y-90231812D01*
X164421622Y-90266349D01*
X164400152Y-90281382D01*
X164333946Y-90303709D01*
X164266179Y-90286697D01*
X164218366Y-90235748D01*
X164205412Y-90189535D01*
X164203875Y-90170000D01*
X164185683Y-89938852D01*
X164126873Y-89693889D01*
X164034770Y-89471531D01*
X164030466Y-89461140D01*
X163898839Y-89246346D01*
X163898838Y-89246343D01*
X163861875Y-89203066D01*
X163735224Y-89054776D01*
X163562538Y-88907288D01*
X163543656Y-88891161D01*
X163543653Y-88891160D01*
X163328859Y-88759533D01*
X163096110Y-88663126D01*
X162851151Y-88604317D01*
X162600000Y-88584551D01*
X162348848Y-88604317D01*
X162103889Y-88663126D01*
X161871140Y-88759533D01*
X161656346Y-88891160D01*
X161656343Y-88891161D01*
X161464776Y-89054776D01*
X161301161Y-89246343D01*
X161301160Y-89246346D01*
X161169533Y-89461140D01*
X161073126Y-89693889D01*
X161014317Y-89938848D01*
X160994551Y-90190000D01*
X159509919Y-90190000D01*
X162148467Y-87551452D01*
X162213053Y-87490059D01*
X162248099Y-87439706D01*
X162250938Y-87435941D01*
X162254612Y-87431435D01*
X162289698Y-87388407D01*
X162305601Y-87357960D01*
X162309674Y-87351239D01*
X162314489Y-87344320D01*
X162329295Y-87323049D01*
X162353492Y-87266660D01*
X162355498Y-87262435D01*
X162383909Y-87208049D01*
X162393360Y-87175015D01*
X162395991Y-87167628D01*
X162409540Y-87136058D01*
X162421893Y-87075940D01*
X162423006Y-87071412D01*
X162439887Y-87012418D01*
X162442495Y-86978155D01*
X162443587Y-86970376D01*
X162448644Y-86945773D01*
X162450500Y-86936741D01*
X162450500Y-86875401D01*
X162450679Y-86870692D01*
X162452510Y-86846655D01*
X162454592Y-86819309D01*
X162455337Y-86809526D01*
X162454214Y-86800710D01*
X162450997Y-86775442D01*
X162450500Y-86767603D01*
X162450500Y-84153149D01*
X162470185Y-84086110D01*
X162522989Y-84040355D01*
X162592147Y-84030411D01*
X162642321Y-84049340D01*
X162833393Y-84174173D01*
X163061118Y-84274063D01*
X163234953Y-84318084D01*
X163302179Y-84335108D01*
X163302181Y-84335108D01*
X163302186Y-84335109D01*
X163435376Y-84346145D01*
X163487933Y-84350500D01*
X163487935Y-84350500D01*
X165112065Y-84350500D01*
X165112067Y-84350500D01*
X165173284Y-84345427D01*
X165297813Y-84335109D01*
X165297816Y-84335108D01*
X165297821Y-84335108D01*
X165538881Y-84274063D01*
X165766607Y-84174173D01*
X165974785Y-84038164D01*
X166157738Y-83869744D01*
X166310474Y-83673509D01*
X166428828Y-83454810D01*
X166509571Y-83219614D01*
X166550500Y-82974335D01*
X166550500Y-82725665D01*
X166509571Y-82480386D01*
X166428828Y-82245190D01*
X166413784Y-82217392D01*
X166310475Y-82026493D01*
X166310474Y-82026491D01*
X166157738Y-81830256D01*
X165974785Y-81661836D01*
X165974782Y-81661833D01*
X165766606Y-81525826D01*
X165538881Y-81425936D01*
X165297824Y-81364892D01*
X165297813Y-81364890D01*
X165132548Y-81351197D01*
X165112067Y-81349500D01*
X163487933Y-81349500D01*
X163468521Y-81351108D01*
X163302186Y-81364890D01*
X163302175Y-81364892D01*
X163061118Y-81425936D01*
X162833393Y-81525826D01*
X162642321Y-81650659D01*
X162575431Y-81670847D01*
X162508246Y-81651666D01*
X162462096Y-81599207D01*
X162450500Y-81546850D01*
X162450500Y-80277588D01*
X162470185Y-80210549D01*
X162472925Y-80206465D01*
X162514620Y-80146918D01*
X162580568Y-80052734D01*
X162676739Y-79846496D01*
X162735635Y-79626692D01*
X162755468Y-79400000D01*
X162753308Y-79375316D01*
X162749801Y-79335230D01*
X162735635Y-79173308D01*
X162676739Y-78953504D01*
X162580568Y-78747266D01*
X162481158Y-78605293D01*
X162450045Y-78560858D01*
X162326868Y-78437681D01*
X162293383Y-78376358D01*
X162298367Y-78306666D01*
X162326868Y-78262319D01*
X162450045Y-78139141D01*
X162450047Y-78139139D01*
X162580568Y-77952734D01*
X162676739Y-77746496D01*
X162735635Y-77526692D01*
X162755468Y-77300000D01*
X162754448Y-77288347D01*
X162748143Y-77216278D01*
X162735635Y-77073308D01*
X162732623Y-77062067D01*
X163599500Y-77062067D01*
X163600432Y-77073313D01*
X163614890Y-77247813D01*
X163614892Y-77247824D01*
X163675936Y-77488881D01*
X163775826Y-77716606D01*
X163911833Y-77924782D01*
X163936001Y-77951035D01*
X164080256Y-78107738D01*
X164276491Y-78260474D01*
X164365134Y-78308445D01*
X164493506Y-78377917D01*
X164495190Y-78378828D01*
X164730386Y-78459571D01*
X164975665Y-78500500D01*
X165224335Y-78500500D01*
X165469614Y-78459571D01*
X165704810Y-78378828D01*
X165923509Y-78260474D01*
X166119744Y-78107738D01*
X166288164Y-77924785D01*
X166424173Y-77716607D01*
X166524063Y-77488881D01*
X166585108Y-77247821D01*
X166585158Y-77247227D01*
X166598534Y-77085791D01*
X166600500Y-77062067D01*
X166600500Y-74937933D01*
X166592307Y-74839061D01*
X166585109Y-74752186D01*
X166585107Y-74752175D01*
X166524063Y-74511118D01*
X166424173Y-74283393D01*
X166288166Y-74075217D01*
X166257881Y-74042319D01*
X166119744Y-73892262D01*
X165923509Y-73739526D01*
X165923507Y-73739525D01*
X165923506Y-73739524D01*
X165704811Y-73621172D01*
X165704802Y-73621169D01*
X165469616Y-73540429D01*
X165224335Y-73499500D01*
X164975665Y-73499500D01*
X164730383Y-73540429D01*
X164495197Y-73621169D01*
X164495188Y-73621172D01*
X164276493Y-73739524D01*
X164080257Y-73892261D01*
X163911833Y-74075217D01*
X163775826Y-74283393D01*
X163675936Y-74511118D01*
X163614892Y-74752175D01*
X163614890Y-74752186D01*
X163601639Y-74912122D01*
X163599500Y-74937933D01*
X163599500Y-77062067D01*
X162732623Y-77062067D01*
X162679702Y-76864562D01*
X162676741Y-76853511D01*
X162676738Y-76853502D01*
X162656043Y-76809122D01*
X162580568Y-76647266D01*
X162450047Y-76460861D01*
X162450045Y-76460858D01*
X162289141Y-76299954D01*
X162183628Y-76226074D01*
X162140003Y-76171498D01*
X162132809Y-76101999D01*
X162164331Y-76039644D01*
X162224561Y-76004230D01*
X162254751Y-76000499D01*
X162297871Y-76000499D01*
X162297872Y-76000499D01*
X162357483Y-75994091D01*
X162492331Y-75943796D01*
X162607546Y-75857546D01*
X162693796Y-75742331D01*
X162744091Y-75607483D01*
X162750500Y-75547873D01*
X162750499Y-73852128D01*
X162744091Y-73792517D01*
X162736852Y-73773109D01*
X162693797Y-73657671D01*
X162693793Y-73657664D01*
X162607547Y-73542455D01*
X162552512Y-73501255D01*
X162510642Y-73445321D01*
X162505658Y-73375629D01*
X162525250Y-73330865D01*
X162580129Y-73252489D01*
X162580133Y-73252483D01*
X162676265Y-73046326D01*
X162676269Y-73046317D01*
X162735139Y-72826610D01*
X162735141Y-72826599D01*
X162754966Y-72600002D01*
X162754966Y-72599997D01*
X162735141Y-72373400D01*
X162735139Y-72373389D01*
X162676269Y-72153682D01*
X162676265Y-72153673D01*
X162580133Y-71947516D01*
X162580131Y-71947512D01*
X162529025Y-71874526D01*
X161847953Y-72555598D01*
X161835165Y-72474852D01*
X161777641Y-72361955D01*
X161688045Y-72272359D01*
X161575148Y-72214835D01*
X161494400Y-72202046D01*
X162175472Y-71520974D01*
X162175471Y-71520973D01*
X162102483Y-71469866D01*
X162102481Y-71469865D01*
X161896326Y-71373734D01*
X161896317Y-71373730D01*
X161676610Y-71314860D01*
X161676599Y-71314858D01*
X161450002Y-71295034D01*
X161449998Y-71295034D01*
X161223400Y-71314858D01*
X161223389Y-71314860D01*
X161003682Y-71373730D01*
X161003673Y-71373734D01*
X160797513Y-71469868D01*
X160724527Y-71520972D01*
X160724526Y-71520973D01*
X161405600Y-72202046D01*
X161324852Y-72214835D01*
X161211955Y-72272359D01*
X161122359Y-72361955D01*
X161064835Y-72474852D01*
X161052046Y-72555600D01*
X160370973Y-71874527D01*
X160319868Y-71947513D01*
X160223734Y-72153673D01*
X160223731Y-72153680D01*
X160170033Y-72354084D01*
X160133668Y-72413744D01*
X160070821Y-72444273D01*
X160001445Y-72435978D01*
X159947567Y-72391493D01*
X159930484Y-72354086D01*
X159876739Y-72153504D01*
X159780568Y-71947266D01*
X159650047Y-71760861D01*
X159650045Y-71760858D01*
X159489141Y-71599954D01*
X159302734Y-71469432D01*
X159302732Y-71469431D01*
X159096497Y-71373261D01*
X159096488Y-71373258D01*
X158876697Y-71314366D01*
X158876693Y-71314365D01*
X158876692Y-71314365D01*
X158876691Y-71314364D01*
X158876686Y-71314364D01*
X158650002Y-71294532D01*
X158649998Y-71294532D01*
X158423313Y-71314364D01*
X158423302Y-71314366D01*
X158203511Y-71373258D01*
X158203502Y-71373261D01*
X157997267Y-71469431D01*
X157997265Y-71469432D01*
X157810862Y-71599951D01*
X157763759Y-71647055D01*
X157712631Y-71698182D01*
X157651311Y-71731666D01*
X157624952Y-71734500D01*
X156035286Y-71734500D01*
X155968247Y-71714815D01*
X155941573Y-71691703D01*
X155902887Y-71647057D01*
X155902885Y-71647055D01*
X155794237Y-71552911D01*
X155794216Y-71552896D01*
X155673166Y-71475102D01*
X155673143Y-71475089D01*
X155541965Y-71415183D01*
X155540242Y-71414743D01*
X155404282Y-71374821D01*
X155404272Y-71374818D01*
X155276321Y-71356422D01*
X155261962Y-71354358D01*
X155261961Y-71354358D01*
X155205603Y-71354358D01*
X155205586Y-71354353D01*
X155154236Y-71354353D01*
X154725764Y-71354353D01*
X154674444Y-71354353D01*
X154674397Y-71354358D01*
X154618038Y-71354358D01*
X154484499Y-71373558D01*
X154475722Y-71374819D01*
X154337631Y-71415367D01*
X154337618Y-71415372D01*
X154206856Y-71475089D01*
X154206833Y-71475102D01*
X154085783Y-71552896D01*
X154085762Y-71552911D01*
X153992660Y-71633585D01*
X153977116Y-71647055D01*
X153977110Y-71647060D01*
X153938427Y-71691703D01*
X153879649Y-71729477D01*
X153844714Y-71734500D01*
X149972743Y-71734500D01*
X149957122Y-71732775D01*
X149957096Y-71733061D01*
X149949334Y-71732327D01*
X149949333Y-71732327D01*
X149880186Y-71734500D01*
X149850649Y-71734500D01*
X149843766Y-71735369D01*
X149837949Y-71735826D01*
X149791373Y-71737290D01*
X149772129Y-71742881D01*
X149753079Y-71746825D01*
X149733211Y-71749334D01*
X149689884Y-71766488D01*
X149684358Y-71768379D01*
X149639614Y-71781379D01*
X149639610Y-71781381D01*
X149622366Y-71791579D01*
X149604905Y-71800133D01*
X149586274Y-71807510D01*
X149586262Y-71807517D01*
X149548570Y-71834902D01*
X149543687Y-71838109D01*
X149503580Y-71861829D01*
X149489414Y-71875995D01*
X149474624Y-71888627D01*
X149458414Y-71900404D01*
X149458411Y-71900407D01*
X149428710Y-71936309D01*
X149424777Y-71940631D01*
X147775646Y-73589762D01*
X147714323Y-73623247D01*
X147655872Y-73621856D01*
X147555413Y-73594938D01*
X147555403Y-73594936D01*
X147320001Y-73574341D01*
X147319999Y-73574341D01*
X147084596Y-73594936D01*
X147084586Y-73594938D01*
X146856344Y-73656094D01*
X146856335Y-73656098D01*
X146642171Y-73755964D01*
X146642169Y-73755965D01*
X146448597Y-73891505D01*
X146281505Y-74058597D01*
X146151575Y-74244158D01*
X146096998Y-74287783D01*
X146027500Y-74294977D01*
X145965145Y-74263454D01*
X145948425Y-74244158D01*
X145818494Y-74058597D01*
X145651402Y-73891506D01*
X145651395Y-73891501D01*
X145628730Y-73875631D01*
X145595165Y-73852128D01*
X145457834Y-73755967D01*
X145457830Y-73755965D01*
X145428976Y-73742510D01*
X145243663Y-73656097D01*
X145243659Y-73656096D01*
X145243655Y-73656094D01*
X145015413Y-73594938D01*
X145015403Y-73594936D01*
X144780001Y-73574341D01*
X144779999Y-73574341D01*
X144544596Y-73594936D01*
X144544586Y-73594938D01*
X144316344Y-73656094D01*
X144316335Y-73656098D01*
X144102171Y-73755964D01*
X144102169Y-73755965D01*
X143908600Y-73891503D01*
X143786284Y-74013819D01*
X143724961Y-74047303D01*
X143655269Y-74042319D01*
X143599336Y-74000447D01*
X143582421Y-73969470D01*
X143533354Y-73837913D01*
X143533350Y-73837906D01*
X143447190Y-73722812D01*
X143447187Y-73722809D01*
X143332093Y-73636649D01*
X143332086Y-73636645D01*
X143197379Y-73586403D01*
X143197372Y-73586401D01*
X143137844Y-73580000D01*
X142490000Y-73580000D01*
X142490000Y-74494498D01*
X142382315Y-74445320D01*
X142275763Y-74430000D01*
X142204237Y-74430000D01*
X142097685Y-74445320D01*
X141990000Y-74494498D01*
X141990000Y-73580000D01*
X141342155Y-73580000D01*
X141282627Y-73586401D01*
X141282620Y-73586403D01*
X141147913Y-73636645D01*
X141147906Y-73636649D01*
X141032812Y-73722809D01*
X141032809Y-73722812D01*
X140946649Y-73837906D01*
X140946645Y-73837913D01*
X140896403Y-73972620D01*
X140896401Y-73972627D01*
X140890000Y-74032155D01*
X140890000Y-74680000D01*
X141806314Y-74680000D01*
X141780507Y-74720156D01*
X141740000Y-74858111D01*
X141740000Y-75001889D01*
X141780507Y-75139844D01*
X141806314Y-75180000D01*
X140890000Y-75180000D01*
X140890000Y-75827844D01*
X140896401Y-75887372D01*
X140896403Y-75887379D01*
X140946645Y-76022086D01*
X140946649Y-76022093D01*
X141032809Y-76137187D01*
X141032812Y-76137190D01*
X141147906Y-76223350D01*
X141147913Y-76223354D01*
X141282620Y-76273596D01*
X141282627Y-76273598D01*
X141342155Y-76279999D01*
X141342172Y-76280000D01*
X141990000Y-76280000D01*
X141990000Y-75365501D01*
X142097685Y-75414680D01*
X142204237Y-75430000D01*
X142275763Y-75430000D01*
X142382315Y-75414680D01*
X142490000Y-75365501D01*
X142490000Y-76280000D01*
X143137828Y-76280000D01*
X143137844Y-76279999D01*
X143197372Y-76273598D01*
X143197379Y-76273596D01*
X143332086Y-76223354D01*
X143332093Y-76223350D01*
X143447187Y-76137190D01*
X143447190Y-76137187D01*
X143533350Y-76022093D01*
X143533354Y-76022086D01*
X143582422Y-75890529D01*
X143624293Y-75834595D01*
X143689757Y-75810178D01*
X143758030Y-75825030D01*
X143786285Y-75846181D01*
X143908599Y-75968495D01*
X144101624Y-76103653D01*
X144145248Y-76158228D01*
X144154500Y-76205226D01*
X144154500Y-77159546D01*
X144134815Y-77226585D01*
X144118181Y-77247227D01*
X142952905Y-78412502D01*
X142891582Y-78445987D01*
X142821890Y-78441003D01*
X142765957Y-78399131D01*
X142758492Y-78387942D01*
X142751641Y-78376358D01*
X142738170Y-78353579D01*
X142738166Y-78353575D01*
X142738163Y-78353571D01*
X142724005Y-78339413D01*
X142711370Y-78324620D01*
X142699593Y-78308412D01*
X142663693Y-78278713D01*
X142659381Y-78274790D01*
X141470803Y-77086212D01*
X141460980Y-77073950D01*
X141460759Y-77074134D01*
X141455786Y-77068123D01*
X141425524Y-77039705D01*
X141405364Y-77020773D01*
X141394919Y-77010328D01*
X141384475Y-76999883D01*
X141378986Y-76995625D01*
X141374561Y-76991847D01*
X141340582Y-76959938D01*
X141340580Y-76959936D01*
X141340577Y-76959935D01*
X141323029Y-76950288D01*
X141306763Y-76939604D01*
X141290933Y-76927325D01*
X141248168Y-76908818D01*
X141242922Y-76906248D01*
X141202093Y-76883803D01*
X141202092Y-76883802D01*
X141182693Y-76878822D01*
X141164281Y-76872518D01*
X141145898Y-76864562D01*
X141145892Y-76864560D01*
X141099874Y-76857272D01*
X141094152Y-76856087D01*
X141049021Y-76844500D01*
X141049019Y-76844500D01*
X141028984Y-76844500D01*
X141009586Y-76842973D01*
X141002162Y-76841797D01*
X140989805Y-76839840D01*
X140989804Y-76839840D01*
X140943416Y-76844225D01*
X140937578Y-76844500D01*
X139523742Y-76844500D01*
X139456703Y-76824815D01*
X139424788Y-76795227D01*
X139320979Y-76657761D01*
X139156562Y-76507876D01*
X139156560Y-76507874D01*
X138967404Y-76390754D01*
X138967398Y-76390752D01*
X138759940Y-76310382D01*
X138541243Y-76269500D01*
X138318757Y-76269500D01*
X138100060Y-76310382D01*
X138061945Y-76325148D01*
X137892601Y-76390752D01*
X137892595Y-76390754D01*
X137703439Y-76507874D01*
X137703437Y-76507876D01*
X137539020Y-76657761D01*
X137404943Y-76835308D01*
X137404938Y-76835316D01*
X137305775Y-77034461D01*
X137305769Y-77034476D01*
X137279266Y-77127627D01*
X137241987Y-77186721D01*
X137178677Y-77216278D01*
X137109438Y-77206916D01*
X137056251Y-77161606D01*
X137040734Y-77127627D01*
X137025277Y-77073302D01*
X137014229Y-77034472D01*
X137014224Y-77034461D01*
X136915061Y-76835316D01*
X136915056Y-76835308D01*
X136780979Y-76657761D01*
X136616562Y-76507876D01*
X136616560Y-76507874D01*
X136427404Y-76390754D01*
X136427398Y-76390752D01*
X136219940Y-76310382D01*
X136001243Y-76269500D01*
X135778757Y-76269500D01*
X135560060Y-76310382D01*
X135521945Y-76325148D01*
X135352601Y-76390752D01*
X135352595Y-76390754D01*
X135163439Y-76507874D01*
X135163437Y-76507876D01*
X134999020Y-76657761D01*
X134864943Y-76835308D01*
X134864938Y-76835316D01*
X134765775Y-77034461D01*
X134765769Y-77034476D01*
X134704885Y-77248462D01*
X134704884Y-77248464D01*
X134684357Y-77469999D01*
X134684357Y-77470000D01*
X134704884Y-77691535D01*
X134704885Y-77691537D01*
X134765769Y-77905523D01*
X134765775Y-77905538D01*
X134864938Y-78104683D01*
X134864943Y-78104691D01*
X134999020Y-78282238D01*
X135163437Y-78432123D01*
X135163439Y-78432125D01*
X135352595Y-78549245D01*
X135352596Y-78549245D01*
X135352599Y-78549247D01*
X135560060Y-78629618D01*
X135778757Y-78670500D01*
X135778759Y-78670500D01*
X136001241Y-78670500D01*
X136001243Y-78670500D01*
X136109429Y-78650276D01*
X136178943Y-78657307D01*
X136219894Y-78684484D01*
X139444094Y-81908684D01*
X139453919Y-81920948D01*
X139454140Y-81920766D01*
X139459110Y-81926773D01*
X139459113Y-81926776D01*
X139459114Y-81926777D01*
X139509551Y-81974141D01*
X139530430Y-81995020D01*
X139535904Y-81999266D01*
X139540342Y-82003056D01*
X139574318Y-82034962D01*
X139574322Y-82034964D01*
X139591873Y-82044613D01*
X139608131Y-82055292D01*
X139623964Y-82067574D01*
X139645915Y-82077072D01*
X139666737Y-82086083D01*
X139671981Y-82088652D01*
X139712808Y-82111097D01*
X139732212Y-82116079D01*
X139750610Y-82122378D01*
X139769005Y-82130338D01*
X139815029Y-82137626D01*
X139820732Y-82138807D01*
X139865881Y-82150400D01*
X139885916Y-82150400D01*
X139905313Y-82151926D01*
X139925096Y-82155060D01*
X139971484Y-82150675D01*
X139977322Y-82150400D01*
X140941346Y-82150400D01*
X141008385Y-82170085D01*
X141054140Y-82222889D01*
X141064084Y-82292047D01*
X141060613Y-82308333D01*
X141054884Y-82328466D01*
X141034357Y-82549999D01*
X141034357Y-82550000D01*
X141054884Y-82771535D01*
X141054885Y-82771537D01*
X141115769Y-82985523D01*
X141115775Y-82985538D01*
X141214938Y-83184683D01*
X141214943Y-83184691D01*
X141349020Y-83362238D01*
X141513437Y-83512123D01*
X141513439Y-83512125D01*
X141702595Y-83629245D01*
X141702596Y-83629245D01*
X141702599Y-83629247D01*
X141910060Y-83709618D01*
X142128757Y-83750500D01*
X142128759Y-83750500D01*
X142351241Y-83750500D01*
X142351243Y-83750500D01*
X142569940Y-83709618D01*
X142777401Y-83629247D01*
X142966562Y-83512124D01*
X143130981Y-83362236D01*
X143265058Y-83184689D01*
X143364229Y-82985528D01*
X143425115Y-82771536D01*
X143445643Y-82550000D01*
X143438052Y-82468084D01*
X143425115Y-82328464D01*
X143425114Y-82328462D01*
X143404236Y-82255084D01*
X143364229Y-82114472D01*
X143363322Y-82112650D01*
X143265058Y-81915310D01*
X143262928Y-81911870D01*
X143244374Y-81844509D01*
X143265183Y-81777810D01*
X143280670Y-81758918D01*
X147703788Y-77335801D01*
X147716042Y-77325986D01*
X147715859Y-77325764D01*
X147721866Y-77320792D01*
X147721877Y-77320786D01*
X147757297Y-77283067D01*
X147769227Y-77270364D01*
X147779671Y-77259918D01*
X147790120Y-77249471D01*
X147794379Y-77243978D01*
X147798152Y-77239561D01*
X147830062Y-77205582D01*
X147839713Y-77188024D01*
X147850396Y-77171761D01*
X147862673Y-77155936D01*
X147881185Y-77113153D01*
X147883738Y-77107941D01*
X147906197Y-77067092D01*
X147911180Y-77047680D01*
X147917481Y-77029280D01*
X147925437Y-77010896D01*
X147932729Y-76964852D01*
X147933906Y-76959171D01*
X147945500Y-76914019D01*
X147945500Y-76893983D01*
X147947027Y-76874582D01*
X147948614Y-76864562D01*
X147950160Y-76854804D01*
X147945775Y-76808415D01*
X147945500Y-76802577D01*
X147945500Y-76205226D01*
X147965185Y-76138187D01*
X147998374Y-76103654D01*
X148191401Y-75968495D01*
X148358495Y-75801401D01*
X148488425Y-75615842D01*
X148543002Y-75572217D01*
X148612500Y-75565023D01*
X148674855Y-75596546D01*
X148691575Y-75615842D01*
X148821500Y-75801395D01*
X148821505Y-75801401D01*
X148988599Y-75968495D01*
X149034307Y-76000500D01*
X149182165Y-76104032D01*
X149182167Y-76104033D01*
X149182170Y-76104035D01*
X149396337Y-76203903D01*
X149396343Y-76203904D01*
X149396344Y-76203905D01*
X149451285Y-76218626D01*
X149624592Y-76265063D01*
X149795319Y-76280000D01*
X149859999Y-76285659D01*
X149860000Y-76285659D01*
X149860001Y-76285659D01*
X149924681Y-76280000D01*
X150095408Y-76265063D01*
X150323663Y-76203903D01*
X150537830Y-76104035D01*
X150731401Y-75968495D01*
X150898495Y-75801401D01*
X151034035Y-75607830D01*
X151133903Y-75393663D01*
X151195063Y-75165408D01*
X151215659Y-74930000D01*
X151214415Y-74915787D01*
X151208051Y-74843038D01*
X151195063Y-74694592D01*
X151140432Y-74490703D01*
X151133905Y-74466344D01*
X151133904Y-74466343D01*
X151133903Y-74466337D01*
X151034035Y-74252171D01*
X151028425Y-74244158D01*
X150898494Y-74058597D01*
X150731402Y-73891506D01*
X150731395Y-73891501D01*
X150708730Y-73875631D01*
X150675165Y-73852128D01*
X150537834Y-73755967D01*
X150537830Y-73755965D01*
X150508976Y-73742510D01*
X150323663Y-73656097D01*
X150323659Y-73656096D01*
X150323655Y-73656094D01*
X150095413Y-73594938D01*
X150095403Y-73594936D01*
X149860001Y-73574341D01*
X149859611Y-73574341D01*
X149859445Y-73574292D01*
X149854606Y-73573869D01*
X149854691Y-73572896D01*
X149792572Y-73554656D01*
X149746817Y-73501852D01*
X149736873Y-73432694D01*
X149765898Y-73369138D01*
X149771930Y-73362660D01*
X149858379Y-73276212D01*
X150112772Y-73021819D01*
X150174095Y-72988334D01*
X150200453Y-72985500D01*
X153566339Y-72985500D01*
X153633378Y-73005185D01*
X153679133Y-73057989D01*
X153689076Y-73127145D01*
X153687187Y-73140288D01*
X153684353Y-73160000D01*
X153684353Y-73731889D01*
X153704834Y-73874341D01*
X153704834Y-73874343D01*
X153710096Y-73892262D01*
X153745342Y-74012300D01*
X153774076Y-74075217D01*
X153805129Y-74143215D01*
X153805129Y-74143217D01*
X153882860Y-74264169D01*
X153977108Y-74372939D01*
X153977110Y-74372941D01*
X154085762Y-74467088D01*
X154085768Y-74467092D01*
X154085774Y-74467097D01*
X154206845Y-74544904D01*
X154206850Y-74544906D01*
X154206855Y-74544909D01*
X154227601Y-74554383D01*
X154238626Y-74559418D01*
X154242010Y-74560963D01*
X154294814Y-74606717D01*
X154314500Y-74673756D01*
X154314500Y-75482255D01*
X154312775Y-75497872D01*
X154313061Y-75497899D01*
X154312326Y-75505665D01*
X154314500Y-75574814D01*
X154314500Y-75604343D01*
X154314501Y-75604360D01*
X154315368Y-75611231D01*
X154315826Y-75617050D01*
X154317290Y-75663624D01*
X154317291Y-75663627D01*
X154322880Y-75682867D01*
X154326824Y-75701911D01*
X154329336Y-75721792D01*
X154339544Y-75747575D01*
X154346490Y-75765119D01*
X154348382Y-75770647D01*
X154361381Y-75815388D01*
X154371580Y-75832634D01*
X154380138Y-75850103D01*
X154387514Y-75868732D01*
X154414898Y-75906423D01*
X154418106Y-75911307D01*
X154441827Y-75951416D01*
X154441833Y-75951424D01*
X154455990Y-75965580D01*
X154468628Y-75980376D01*
X154478592Y-75994091D01*
X154480406Y-75996587D01*
X154511229Y-76022086D01*
X154516309Y-76026288D01*
X154520620Y-76030210D01*
X156663667Y-78173258D01*
X157377002Y-78886593D01*
X157410487Y-78947916D01*
X157409096Y-79006367D01*
X157364366Y-79173302D01*
X157364364Y-79173313D01*
X157344532Y-79399998D01*
X157344532Y-79400001D01*
X157364364Y-79626686D01*
X157364366Y-79626697D01*
X157423258Y-79846488D01*
X157423261Y-79846497D01*
X157519431Y-80052732D01*
X157519432Y-80052734D01*
X157649954Y-80239141D01*
X157810858Y-80400045D01*
X157810861Y-80400047D01*
X157997266Y-80530568D01*
X158203504Y-80626739D01*
X158423308Y-80685635D01*
X158585230Y-80699801D01*
X158649998Y-80705468D01*
X158650000Y-80705468D01*
X158650002Y-80705468D01*
X158706673Y-80700509D01*
X158876692Y-80685635D01*
X159096496Y-80626739D01*
X159302734Y-80530568D01*
X159489139Y-80400047D01*
X159650047Y-80239139D01*
X159780568Y-80052734D01*
X159876739Y-79846496D01*
X159930225Y-79646881D01*
X159966590Y-79587221D01*
X160029437Y-79556692D01*
X160098812Y-79564987D01*
X160152690Y-79609472D01*
X160169775Y-79646882D01*
X160223258Y-79846488D01*
X160223261Y-79846497D01*
X160271836Y-79950665D01*
X160319432Y-80052734D01*
X160378598Y-80137233D01*
X160427075Y-80206465D01*
X160449402Y-80272671D01*
X160449500Y-80277588D01*
X160449500Y-86369217D01*
X160429815Y-86436256D01*
X160413181Y-86456898D01*
X156781532Y-90088546D01*
X156716946Y-90149942D01*
X156681899Y-90200294D01*
X156679062Y-90204056D01*
X156640302Y-90251592D01*
X156640299Y-90251597D01*
X156624392Y-90282047D01*
X156620324Y-90288761D01*
X156600702Y-90316954D01*
X156576509Y-90373330D01*
X156574488Y-90377584D01*
X156546091Y-90431951D01*
X156546090Y-90431952D01*
X156536640Y-90464975D01*
X156534007Y-90472371D01*
X156520459Y-90503943D01*
X156508113Y-90564019D01*
X156506990Y-90568595D01*
X156490113Y-90627577D01*
X156490113Y-90627579D01*
X156487503Y-90661841D01*
X156486414Y-90669608D01*
X156482209Y-90690074D01*
X156479500Y-90703258D01*
X156479500Y-90764597D01*
X156479321Y-90769306D01*
X156474662Y-90830474D01*
X156475423Y-90836447D01*
X156479003Y-90864560D01*
X156479500Y-90872388D01*
X156479500Y-91455249D01*
X156459815Y-91522288D01*
X156429812Y-91554515D01*
X156372457Y-91597451D01*
X156372451Y-91597457D01*
X156286206Y-91712664D01*
X156286202Y-91712671D01*
X156235908Y-91847517D01*
X156229873Y-91903655D01*
X156229501Y-91907123D01*
X156229500Y-91907135D01*
X156229500Y-93502870D01*
X156229501Y-93502876D01*
X156235908Y-93562483D01*
X156286202Y-93697328D01*
X156286203Y-93697329D01*
X156286204Y-93697331D01*
X156355014Y-93789249D01*
X156372452Y-93812543D01*
X156372455Y-93812547D01*
X156429810Y-93855482D01*
X156471682Y-93911415D01*
X156479500Y-93954749D01*
X156479500Y-96507283D01*
X156477243Y-96596362D01*
X156477243Y-96596370D01*
X156488064Y-96656739D01*
X156488718Y-96661404D01*
X156494925Y-96722430D01*
X156494927Y-96722444D01*
X156505208Y-96755213D01*
X156507079Y-96762837D01*
X156513142Y-96796652D01*
X156513142Y-96796655D01*
X156535894Y-96853612D01*
X156537474Y-96858051D01*
X156555841Y-96916588D01*
X156555844Y-96916595D01*
X156572509Y-96946619D01*
X156575879Y-96953714D01*
X156588622Y-96985614D01*
X156588627Y-96985624D01*
X156622377Y-97036833D01*
X156624818Y-97040863D01*
X156654588Y-97094498D01*
X156654589Y-97094499D01*
X156654591Y-97094502D01*
X156676968Y-97120567D01*
X156681693Y-97126835D01*
X156694263Y-97145906D01*
X156700598Y-97155519D01*
X156743978Y-97198899D01*
X156747169Y-97202343D01*
X156787131Y-97248892D01*
X156787134Y-97248895D01*
X156814294Y-97269918D01*
X156820190Y-97275111D01*
X160888181Y-101343102D01*
X160921666Y-101404425D01*
X160924500Y-101430783D01*
X160924500Y-102891479D01*
X160904815Y-102958518D01*
X160852011Y-103004273D01*
X160782853Y-103014217D01*
X160729377Y-102993054D01*
X160697834Y-102970967D01*
X160697830Y-102970965D01*
X160483663Y-102871097D01*
X160483659Y-102871096D01*
X160483655Y-102871094D01*
X160255413Y-102809938D01*
X160255403Y-102809936D01*
X160020001Y-102789341D01*
X160019999Y-102789341D01*
X159784596Y-102809936D01*
X159784586Y-102809938D01*
X159684126Y-102836856D01*
X159614276Y-102835193D01*
X159564352Y-102804762D01*
X158610803Y-101851212D01*
X158600980Y-101838950D01*
X158600759Y-101839134D01*
X158595786Y-101833123D01*
X158564148Y-101803413D01*
X158545364Y-101785773D01*
X158531438Y-101771847D01*
X158524475Y-101764883D01*
X158518986Y-101760625D01*
X158514561Y-101756847D01*
X158480582Y-101724938D01*
X158480580Y-101724936D01*
X158480577Y-101724935D01*
X158463029Y-101715288D01*
X158446763Y-101704604D01*
X158430936Y-101692327D01*
X158430935Y-101692326D01*
X158430933Y-101692325D01*
X158388168Y-101673818D01*
X158382922Y-101671248D01*
X158342093Y-101648803D01*
X158342092Y-101648802D01*
X158322693Y-101643822D01*
X158304281Y-101637518D01*
X158285898Y-101629562D01*
X158285892Y-101629560D01*
X158239873Y-101622272D01*
X158234150Y-101621087D01*
X158184323Y-101608293D01*
X158124285Y-101572555D01*
X158093100Y-101510031D01*
X158100668Y-101440572D01*
X158144035Y-101386616D01*
X158286877Y-101286598D01*
X158441598Y-101131877D01*
X158567102Y-100952639D01*
X158659575Y-100754330D01*
X158716207Y-100542977D01*
X158735277Y-100325000D01*
X158733989Y-100310282D01*
X158731569Y-100282618D01*
X158716207Y-100107023D01*
X158659575Y-99895670D01*
X158567102Y-99697362D01*
X158567100Y-99697359D01*
X158567099Y-99697357D01*
X158441599Y-99518124D01*
X158368085Y-99444610D01*
X158286877Y-99363402D01*
X158125998Y-99250753D01*
X158107638Y-99237897D01*
X157961113Y-99169572D01*
X157909330Y-99145425D01*
X157909326Y-99145424D01*
X157909322Y-99145422D01*
X157697977Y-99088793D01*
X157480002Y-99069723D01*
X157479998Y-99069723D01*
X157334682Y-99082436D01*
X157262023Y-99088793D01*
X157262020Y-99088793D01*
X157050677Y-99145422D01*
X157050668Y-99145426D01*
X156852361Y-99237898D01*
X156852357Y-99237900D01*
X156673121Y-99363402D01*
X156518402Y-99518121D01*
X156426075Y-99649979D01*
X156371498Y-99693604D01*
X156302000Y-99700797D01*
X156239645Y-99669275D01*
X156204231Y-99609045D01*
X156200500Y-99578856D01*
X156200500Y-98507742D01*
X156202224Y-98492122D01*
X156201939Y-98492095D01*
X156202673Y-98484333D01*
X156200500Y-98415172D01*
X156200500Y-98385656D01*
X156200500Y-98385650D01*
X156199631Y-98378779D01*
X156199173Y-98372952D01*
X156197710Y-98326373D01*
X156192119Y-98307130D01*
X156188173Y-98288078D01*
X156185664Y-98268208D01*
X156168504Y-98224867D01*
X156166624Y-98219379D01*
X156153618Y-98174610D01*
X156143419Y-98157364D01*
X156134858Y-98139888D01*
X156127487Y-98121270D01*
X156127486Y-98121268D01*
X156100090Y-98083560D01*
X156096892Y-98078691D01*
X156073173Y-98038583D01*
X156073166Y-98038574D01*
X156059005Y-98024413D01*
X156046370Y-98009620D01*
X156034593Y-97993412D01*
X155998693Y-97963713D01*
X155994381Y-97959790D01*
X151078892Y-93044301D01*
X151045407Y-92982978D01*
X151044737Y-92937259D01*
X151044586Y-92937245D01*
X151044716Y-92935836D01*
X151044687Y-92933822D01*
X151045112Y-92931545D01*
X151045115Y-92931536D01*
X151065643Y-92710000D01*
X151045115Y-92488464D01*
X150984229Y-92274472D01*
X150984224Y-92274461D01*
X150885061Y-92075316D01*
X150885056Y-92075308D01*
X150750979Y-91897761D01*
X150586562Y-91747876D01*
X150586560Y-91747874D01*
X150397404Y-91630754D01*
X150397395Y-91630750D01*
X150303956Y-91594552D01*
X150203475Y-91555625D01*
X150148075Y-91513054D01*
X150124484Y-91447288D01*
X150140195Y-91379207D01*
X150190219Y-91330428D01*
X150203466Y-91324377D01*
X150397401Y-91249247D01*
X150586562Y-91132124D01*
X150750981Y-90982236D01*
X150885058Y-90804689D01*
X150984229Y-90605528D01*
X151045115Y-90391536D01*
X151065643Y-90170000D01*
X151045115Y-89948464D01*
X150984229Y-89734472D01*
X150964021Y-89693889D01*
X150885061Y-89535316D01*
X150885056Y-89535308D01*
X150750979Y-89357761D01*
X150586562Y-89207876D01*
X150586560Y-89207874D01*
X150397404Y-89090754D01*
X150397395Y-89090750D01*
X150303956Y-89054552D01*
X150203475Y-89015625D01*
X150148075Y-88973054D01*
X150124484Y-88907288D01*
X150140195Y-88839207D01*
X150190219Y-88790428D01*
X150203466Y-88784377D01*
X150397401Y-88709247D01*
X150586562Y-88592124D01*
X150750981Y-88442236D01*
X150885058Y-88264689D01*
X150984229Y-88065528D01*
X151045115Y-87851536D01*
X151065643Y-87630000D01*
X151058364Y-87551451D01*
X151045115Y-87408464D01*
X151045114Y-87408462D01*
X151036752Y-87379073D01*
X150984229Y-87194472D01*
X150973157Y-87172236D01*
X150885061Y-86995316D01*
X150885056Y-86995308D01*
X150750979Y-86817761D01*
X150586562Y-86667876D01*
X150586560Y-86667874D01*
X150397404Y-86550754D01*
X150397398Y-86550752D01*
X150189940Y-86470382D01*
X149971243Y-86429500D01*
X149748757Y-86429500D01*
X149530060Y-86470382D01*
X149398864Y-86521207D01*
X149322601Y-86550752D01*
X149322595Y-86550754D01*
X149133439Y-86667874D01*
X149133437Y-86667876D01*
X148969020Y-86817761D01*
X148834943Y-86995308D01*
X148834938Y-86995316D01*
X148735775Y-87194461D01*
X148735769Y-87194476D01*
X148674885Y-87408462D01*
X148674884Y-87408464D01*
X148654357Y-87629999D01*
X148654357Y-87630001D01*
X148665828Y-87753798D01*
X148652413Y-87822368D01*
X148630038Y-87852920D01*
X148206208Y-88276749D01*
X148193951Y-88286570D01*
X148194134Y-88286791D01*
X148188123Y-88291763D01*
X148140772Y-88342186D01*
X148119889Y-88363069D01*
X148119877Y-88363082D01*
X148115621Y-88368567D01*
X148111837Y-88372997D01*
X148079937Y-88406968D01*
X148079936Y-88406970D01*
X148070284Y-88424526D01*
X148059610Y-88440776D01*
X148047329Y-88456611D01*
X148047324Y-88456618D01*
X148028815Y-88499388D01*
X148026245Y-88504634D01*
X148003803Y-88545456D01*
X147998822Y-88564857D01*
X147992521Y-88583260D01*
X147984562Y-88601652D01*
X147984561Y-88601655D01*
X147977271Y-88647677D01*
X147976087Y-88653396D01*
X147964501Y-88698522D01*
X147964500Y-88698532D01*
X147964500Y-88718566D01*
X147962973Y-88737965D01*
X147959840Y-88757744D01*
X147959840Y-88757745D01*
X147964225Y-88804133D01*
X147964500Y-88809971D01*
X147964500Y-104057255D01*
X147962775Y-104072872D01*
X147963061Y-104072899D01*
X147962326Y-104080665D01*
X147964500Y-104149814D01*
X147964500Y-104179343D01*
X147964501Y-104179360D01*
X147965368Y-104186231D01*
X147965826Y-104192050D01*
X147967290Y-104238624D01*
X147967291Y-104238627D01*
X147972880Y-104257867D01*
X147976824Y-104276911D01*
X147979336Y-104296792D01*
X147992782Y-104330753D01*
X147996490Y-104340119D01*
X147998382Y-104345647D01*
X148006065Y-104372092D01*
X148011382Y-104390390D01*
X148018523Y-104402466D01*
X148021580Y-104407634D01*
X148030138Y-104425103D01*
X148037514Y-104443732D01*
X148064898Y-104481423D01*
X148068106Y-104486307D01*
X148091827Y-104526416D01*
X148091833Y-104526424D01*
X148105990Y-104540580D01*
X148118627Y-104555375D01*
X148130406Y-104571587D01*
X148162045Y-104597761D01*
X148166309Y-104601288D01*
X148170620Y-104605210D01*
X148434802Y-104869392D01*
X148641107Y-105075697D01*
X148674592Y-105137020D01*
X148675266Y-105182742D01*
X148675414Y-105182756D01*
X148675287Y-105184125D01*
X148675317Y-105186153D01*
X148674884Y-105188465D01*
X148654357Y-105409999D01*
X148654357Y-105410000D01*
X148674884Y-105631535D01*
X148674885Y-105631537D01*
X148735769Y-105845523D01*
X148735775Y-105845538D01*
X148834938Y-106044683D01*
X148834943Y-106044691D01*
X148969020Y-106222238D01*
X149133437Y-106372123D01*
X149133439Y-106372125D01*
X149322595Y-106489245D01*
X149322596Y-106489245D01*
X149322599Y-106489247D01*
X149516524Y-106564374D01*
X149571924Y-106606946D01*
X149595515Y-106672713D01*
X149579804Y-106740793D01*
X149529780Y-106789572D01*
X149516533Y-106795622D01*
X149368488Y-106852975D01*
X149322601Y-106870752D01*
X149322595Y-106870754D01*
X149133439Y-106987874D01*
X149133437Y-106987876D01*
X148969020Y-107137761D01*
X148834943Y-107315308D01*
X148834938Y-107315316D01*
X148735775Y-107514461D01*
X148735769Y-107514476D01*
X148674885Y-107728462D01*
X148674884Y-107728464D01*
X148654357Y-107949999D01*
X148654357Y-107950000D01*
X148674884Y-108171535D01*
X148674885Y-108171537D01*
X148735769Y-108385523D01*
X148735775Y-108385538D01*
X148834938Y-108584683D01*
X148834943Y-108584691D01*
X148969020Y-108762238D01*
X149133437Y-108912123D01*
X149133439Y-108912125D01*
X149322595Y-109029245D01*
X149322596Y-109029245D01*
X149322599Y-109029247D01*
X149530060Y-109109618D01*
X149748757Y-109150500D01*
X149748759Y-109150500D01*
X149971241Y-109150500D01*
X149971243Y-109150500D01*
X150079429Y-109130276D01*
X150148943Y-109137307D01*
X150189894Y-109164484D01*
X153174194Y-112148784D01*
X153184019Y-112161048D01*
X153184240Y-112160866D01*
X153189210Y-112166873D01*
X153189213Y-112166876D01*
X153189214Y-112166877D01*
X153239651Y-112214241D01*
X153260530Y-112235120D01*
X153266004Y-112239366D01*
X153270442Y-112243156D01*
X153304418Y-112275062D01*
X153304422Y-112275064D01*
X153321973Y-112284713D01*
X153338231Y-112295392D01*
X153354064Y-112307674D01*
X153376015Y-112317172D01*
X153396837Y-112326183D01*
X153402081Y-112328752D01*
X153442908Y-112351197D01*
X153462312Y-112356179D01*
X153480710Y-112362478D01*
X153499105Y-112370438D01*
X153545129Y-112377726D01*
X153550832Y-112378907D01*
X153595981Y-112390500D01*
X153616016Y-112390500D01*
X153635413Y-112392026D01*
X153655196Y-112395160D01*
X153701584Y-112390775D01*
X153707422Y-112390500D01*
X156204773Y-112390500D01*
X156271812Y-112410185D01*
X156306348Y-112443377D01*
X156441501Y-112636396D01*
X156441506Y-112636402D01*
X156608597Y-112803493D01*
X156608603Y-112803498D01*
X156680879Y-112854106D01*
X156772667Y-112918377D01*
X156794594Y-112933730D01*
X156838219Y-112988307D01*
X156845413Y-113057805D01*
X156813890Y-113120160D01*
X156794595Y-113136880D01*
X156608922Y-113266890D01*
X156608920Y-113266891D01*
X156441891Y-113433920D01*
X156441886Y-113433926D01*
X156306400Y-113627420D01*
X156306399Y-113627422D01*
X156206570Y-113841507D01*
X156206567Y-113841513D01*
X156149364Y-114054999D01*
X156149364Y-114055000D01*
X157046314Y-114055000D01*
X157020507Y-114095156D01*
X156980000Y-114233111D01*
X156980000Y-114376889D01*
X157020507Y-114514844D01*
X157046314Y-114555000D01*
X156149364Y-114555000D01*
X156206567Y-114768486D01*
X156206570Y-114768492D01*
X156306399Y-114982578D01*
X156441894Y-115176082D01*
X156608917Y-115343105D01*
X156802421Y-115478600D01*
X157016507Y-115578429D01*
X157016516Y-115578433D01*
X157230000Y-115635634D01*
X157230000Y-114740501D01*
X157337685Y-114789680D01*
X157444237Y-114805000D01*
X157515763Y-114805000D01*
X157622315Y-114789680D01*
X157730000Y-114740501D01*
X157730000Y-115635633D01*
X157943483Y-115578433D01*
X157943492Y-115578429D01*
X158157578Y-115478600D01*
X158351082Y-115343105D01*
X158518105Y-115176082D01*
X158648119Y-114990405D01*
X158702696Y-114946781D01*
X158772195Y-114939588D01*
X158834549Y-114971110D01*
X158851269Y-114990405D01*
X158981505Y-115176401D01*
X159148599Y-115343495D01*
X159245384Y-115411265D01*
X159342165Y-115479032D01*
X159342167Y-115479033D01*
X159342170Y-115479035D01*
X159556337Y-115578903D01*
X159556343Y-115578904D01*
X159556344Y-115578905D01*
X159581454Y-115585633D01*
X159784592Y-115640063D01*
X159972918Y-115656539D01*
X160019999Y-115660659D01*
X160020000Y-115660659D01*
X160020001Y-115660659D01*
X160059234Y-115657226D01*
X160255408Y-115640063D01*
X160483663Y-115578903D01*
X160697830Y-115479035D01*
X160729377Y-115456945D01*
X160795581Y-115434618D01*
X160863348Y-115451627D01*
X160911162Y-115502574D01*
X160924500Y-115558520D01*
X160924500Y-118279217D01*
X160904815Y-118346256D01*
X160888181Y-118366898D01*
X160276899Y-118978181D01*
X160215576Y-119011666D01*
X160189218Y-119014500D01*
X159901871Y-119014500D01*
X159834832Y-118994815D01*
X159789077Y-118942011D01*
X159779133Y-118872853D01*
X159800297Y-118819376D01*
X159840129Y-118762489D01*
X159840133Y-118762483D01*
X159936265Y-118556326D01*
X159936269Y-118556317D01*
X159995139Y-118336610D01*
X159995141Y-118336599D01*
X160014966Y-118110002D01*
X160014966Y-118109997D01*
X159995141Y-117883400D01*
X159995139Y-117883389D01*
X159936269Y-117663682D01*
X159936265Y-117663673D01*
X159840133Y-117457516D01*
X159840131Y-117457512D01*
X159789025Y-117384526D01*
X159107953Y-118065598D01*
X159095165Y-117984852D01*
X159037641Y-117871955D01*
X158948045Y-117782359D01*
X158835148Y-117724835D01*
X158754400Y-117712046D01*
X159435472Y-117030974D01*
X159435471Y-117030973D01*
X159362483Y-116979866D01*
X159362481Y-116979865D01*
X159156326Y-116883734D01*
X159156317Y-116883730D01*
X158936610Y-116824860D01*
X158936599Y-116824858D01*
X158710002Y-116805034D01*
X158709998Y-116805034D01*
X158483400Y-116824858D01*
X158483389Y-116824860D01*
X158263682Y-116883730D01*
X158263673Y-116883734D01*
X158057513Y-116979868D01*
X157984527Y-117030972D01*
X157984526Y-117030973D01*
X158665600Y-117712046D01*
X158584852Y-117724835D01*
X158471955Y-117782359D01*
X158382359Y-117871955D01*
X158324835Y-117984852D01*
X158312046Y-118065600D01*
X157630973Y-117384527D01*
X157579868Y-117457513D01*
X157483734Y-117663673D01*
X157483730Y-117663682D01*
X157424860Y-117883389D01*
X157424858Y-117883400D01*
X157405034Y-118109997D01*
X157405034Y-118110002D01*
X157424858Y-118336599D01*
X157424860Y-118336610D01*
X157483730Y-118556317D01*
X157483734Y-118556326D01*
X157579866Y-118762483D01*
X157579870Y-118762489D01*
X157619703Y-118819376D01*
X157642031Y-118885582D01*
X157625021Y-118953349D01*
X157574074Y-119001162D01*
X157518129Y-119014500D01*
X156080782Y-119014500D01*
X156013743Y-118994815D01*
X155993101Y-118978181D01*
X155036887Y-118021967D01*
X155003402Y-117960644D01*
X155001040Y-117945093D01*
X155000674Y-117940912D01*
X154995635Y-117883308D01*
X154936739Y-117663504D01*
X154840568Y-117457266D01*
X154710047Y-117270861D01*
X154710045Y-117270858D01*
X154706819Y-117267632D01*
X154673334Y-117206309D01*
X154670500Y-117179951D01*
X154670500Y-115302576D01*
X154671198Y-115275034D01*
X154672756Y-115213537D01*
X154661932Y-115153147D01*
X154661282Y-115148517D01*
X154655074Y-115087462D01*
X154644790Y-115054686D01*
X154642917Y-115047054D01*
X154636858Y-115013249D01*
X154636858Y-115013247D01*
X154614102Y-114956278D01*
X154612521Y-114951837D01*
X154594157Y-114893307D01*
X154577488Y-114863278D01*
X154574117Y-114856178D01*
X154561378Y-114824286D01*
X154561377Y-114824283D01*
X154527620Y-114773063D01*
X154525180Y-114769034D01*
X154503487Y-114729952D01*
X154495409Y-114715398D01*
X154495407Y-114715395D01*
X154473033Y-114689334D01*
X154468302Y-114683059D01*
X154449402Y-114654381D01*
X154406012Y-114610991D01*
X154402822Y-114607548D01*
X154362867Y-114561006D01*
X154362863Y-114561002D01*
X154335698Y-114539974D01*
X154329803Y-114534782D01*
X152126551Y-112331531D01*
X152065161Y-112266949D01*
X152065160Y-112266948D01*
X152065159Y-112266947D01*
X152030982Y-112243159D01*
X152014809Y-112231902D01*
X152011046Y-112229064D01*
X151963513Y-112190305D01*
X151963506Y-112190300D01*
X151933059Y-112174397D01*
X151926351Y-112170334D01*
X151898149Y-112150705D01*
X151898146Y-112150703D01*
X151898145Y-112150703D01*
X151898141Y-112150701D01*
X151841780Y-112126514D01*
X151837524Y-112124493D01*
X151783157Y-112096094D01*
X151783150Y-112096091D01*
X151783149Y-112096091D01*
X151777108Y-112094362D01*
X151750130Y-112086642D01*
X151742730Y-112084008D01*
X151711157Y-112070459D01*
X151711158Y-112070459D01*
X151651066Y-112058109D01*
X151646491Y-112056986D01*
X151587520Y-112040113D01*
X151587525Y-112040113D01*
X151553258Y-112037503D01*
X151545480Y-112036412D01*
X151511842Y-112029500D01*
X151511841Y-112029500D01*
X151450502Y-112029500D01*
X151445795Y-112029321D01*
X151440221Y-112028896D01*
X151384624Y-112024662D01*
X151364689Y-112027201D01*
X151350540Y-112029003D01*
X151342711Y-112029500D01*
X151274141Y-112029500D01*
X151207102Y-112009815D01*
X151161347Y-111957011D01*
X151157969Y-111948859D01*
X151153796Y-111937669D01*
X151153793Y-111937665D01*
X151153793Y-111937664D01*
X151067547Y-111822455D01*
X151067544Y-111822452D01*
X150952335Y-111736206D01*
X150952328Y-111736202D01*
X150817482Y-111685908D01*
X150817483Y-111685908D01*
X150757883Y-111679501D01*
X150757881Y-111679500D01*
X150757873Y-111679500D01*
X150757864Y-111679500D01*
X148962129Y-111679500D01*
X148962123Y-111679501D01*
X148902516Y-111685908D01*
X148767671Y-111736202D01*
X148767664Y-111736206D01*
X148652455Y-111822452D01*
X148652452Y-111822455D01*
X148566206Y-111937664D01*
X148566202Y-111937671D01*
X148516997Y-112069598D01*
X148475126Y-112125532D01*
X148409661Y-112149949D01*
X148341388Y-112135097D01*
X148313134Y-112113946D01*
X148191082Y-111991894D01*
X147997578Y-111856399D01*
X147783492Y-111756570D01*
X147783486Y-111756567D01*
X147570000Y-111699364D01*
X147570000Y-112594498D01*
X147462315Y-112545320D01*
X147355763Y-112530000D01*
X147284237Y-112530000D01*
X147177685Y-112545320D01*
X147070000Y-112594498D01*
X147070000Y-111699364D01*
X147069999Y-111699364D01*
X146856513Y-111756567D01*
X146856507Y-111756570D01*
X146642422Y-111856399D01*
X146642420Y-111856400D01*
X146448926Y-111991886D01*
X146448920Y-111991891D01*
X146281891Y-112158920D01*
X146281890Y-112158922D01*
X146151575Y-112345031D01*
X146096998Y-112388655D01*
X146027499Y-112395848D01*
X145965145Y-112364326D01*
X145948425Y-112345031D01*
X145818109Y-112158922D01*
X145818108Y-112158920D01*
X145651082Y-111991894D01*
X145457578Y-111856399D01*
X145243492Y-111756570D01*
X145243486Y-111756567D01*
X145030000Y-111699364D01*
X145030000Y-112594498D01*
X144922315Y-112545320D01*
X144815763Y-112530000D01*
X144744237Y-112530000D01*
X144637685Y-112545320D01*
X144530000Y-112594498D01*
X144530000Y-111699364D01*
X144529999Y-111699364D01*
X144316513Y-111756567D01*
X144316507Y-111756570D01*
X144102422Y-111856399D01*
X144102420Y-111856400D01*
X143908926Y-111991886D01*
X143908920Y-111991891D01*
X143741891Y-112158920D01*
X143741890Y-112158922D01*
X143611880Y-112344595D01*
X143557303Y-112388219D01*
X143487804Y-112395412D01*
X143425450Y-112363890D01*
X143408730Y-112344594D01*
X143278494Y-112158597D01*
X143276819Y-112156922D01*
X143276315Y-112156000D01*
X143275014Y-112154449D01*
X143275325Y-112154187D01*
X143243334Y-112095599D01*
X143240500Y-112069241D01*
X143240500Y-111945681D01*
X143260185Y-111878642D01*
X143276814Y-111858005D01*
X144843468Y-110291351D01*
X144908053Y-110229959D01*
X144943099Y-110179606D01*
X144945938Y-110175841D01*
X144949612Y-110171335D01*
X144984698Y-110128307D01*
X145000601Y-110097860D01*
X145004674Y-110091139D01*
X145009489Y-110084220D01*
X145024295Y-110062949D01*
X145048492Y-110006560D01*
X145050498Y-110002335D01*
X145078909Y-109947949D01*
X145088360Y-109914915D01*
X145090991Y-109907528D01*
X145091039Y-109907416D01*
X145104540Y-109875958D01*
X145116893Y-109815840D01*
X145118006Y-109811312D01*
X145134887Y-109752318D01*
X145137495Y-109718055D01*
X145138587Y-109710276D01*
X145140050Y-109703161D01*
X145145500Y-109676641D01*
X145145500Y-109615301D01*
X145145679Y-109610592D01*
X145150337Y-109549426D01*
X145145997Y-109515342D01*
X145145500Y-109507503D01*
X145145500Y-91452676D01*
X145146006Y-91432713D01*
X145147756Y-91363637D01*
X145136932Y-91303247D01*
X145136282Y-91298617D01*
X145130074Y-91237562D01*
X145119790Y-91204786D01*
X145117917Y-91197154D01*
X145111858Y-91163349D01*
X145111858Y-91163347D01*
X145089102Y-91106378D01*
X145087521Y-91101937D01*
X145069157Y-91043407D01*
X145052488Y-91013378D01*
X145049117Y-91006278D01*
X145044273Y-90994152D01*
X145036377Y-90974383D01*
X145002620Y-90923163D01*
X145000180Y-90919134D01*
X144974233Y-90872388D01*
X144970409Y-90865498D01*
X144970407Y-90865495D01*
X144948033Y-90839434D01*
X144943302Y-90833159D01*
X144941534Y-90830476D01*
X144924402Y-90804481D01*
X144881012Y-90761091D01*
X144877822Y-90757648D01*
X144837867Y-90711106D01*
X144837863Y-90711102D01*
X144810698Y-90690074D01*
X144804803Y-90684882D01*
X143591451Y-89471531D01*
X143530061Y-89406949D01*
X143530060Y-89406948D01*
X143530059Y-89406947D01*
X143502204Y-89387559D01*
X143479709Y-89371902D01*
X143475946Y-89369064D01*
X143428413Y-89330305D01*
X143428406Y-89330300D01*
X143397959Y-89314397D01*
X143391251Y-89310334D01*
X143363049Y-89290705D01*
X143363046Y-89290703D01*
X143332127Y-89277435D01*
X143315599Y-89270342D01*
X143261756Y-89225816D01*
X143240533Y-89159248D01*
X143240500Y-89156392D01*
X143240500Y-88754500D01*
X143260185Y-88687461D01*
X143312989Y-88641706D01*
X143364500Y-88630500D01*
X144767284Y-88630500D01*
X144856358Y-88632757D01*
X144856358Y-88632756D01*
X144856363Y-88632757D01*
X144916753Y-88621932D01*
X144921412Y-88621280D01*
X144963607Y-88616988D01*
X144982438Y-88615074D01*
X145015227Y-88604786D01*
X145022840Y-88602918D01*
X145056653Y-88596858D01*
X145113621Y-88574101D01*
X145118053Y-88572524D01*
X145176588Y-88554159D01*
X145206627Y-88537484D01*
X145213708Y-88534122D01*
X145245617Y-88521377D01*
X145296854Y-88487608D01*
X145300851Y-88485187D01*
X145354502Y-88455409D01*
X145380568Y-88433030D01*
X145386843Y-88428300D01*
X145392570Y-88424526D01*
X145415519Y-88409402D01*
X145458892Y-88366027D01*
X145462350Y-88362823D01*
X145465613Y-88360020D01*
X145508895Y-88322866D01*
X145529928Y-88295691D01*
X145535098Y-88289821D01*
X149772319Y-84052599D01*
X149833640Y-84019116D01*
X149903332Y-84024100D01*
X149947679Y-84052601D01*
X152953566Y-87058487D01*
X153014938Y-87123050D01*
X153014941Y-87123053D01*
X153065281Y-87158092D01*
X153069043Y-87160928D01*
X153116587Y-87199694D01*
X153116590Y-87199695D01*
X153116593Y-87199698D01*
X153147045Y-87215604D01*
X153153758Y-87219672D01*
X153181951Y-87239295D01*
X153238329Y-87263489D01*
X153242578Y-87265507D01*
X153296951Y-87293909D01*
X153324489Y-87301788D01*
X153329974Y-87303358D01*
X153337368Y-87305990D01*
X153368942Y-87319540D01*
X153368945Y-87319540D01*
X153368946Y-87319541D01*
X153429022Y-87331887D01*
X153433600Y-87333010D01*
X153447501Y-87336987D01*
X153492582Y-87349887D01*
X153526839Y-87352495D01*
X153534614Y-87353586D01*
X153568255Y-87360500D01*
X153568259Y-87360500D01*
X153629599Y-87360500D01*
X153634305Y-87360678D01*
X153669063Y-87363325D01*
X153695476Y-87365337D01*
X153695476Y-87365336D01*
X153695477Y-87365337D01*
X153729560Y-87360996D01*
X153737390Y-87360500D01*
X156780137Y-87360500D01*
X156845414Y-87379073D01*
X156942595Y-87439245D01*
X156942596Y-87439245D01*
X156942599Y-87439247D01*
X157150060Y-87519618D01*
X157368757Y-87560500D01*
X157368759Y-87560500D01*
X157591241Y-87560500D01*
X157591243Y-87560500D01*
X157809940Y-87519618D01*
X158017401Y-87439247D01*
X158206562Y-87322124D01*
X158370981Y-87172236D01*
X158505058Y-86994689D01*
X158604229Y-86795528D01*
X158665115Y-86581536D01*
X158685643Y-86360000D01*
X158665115Y-86138464D01*
X158604229Y-85924472D01*
X158604224Y-85924461D01*
X158505061Y-85725316D01*
X158505056Y-85725308D01*
X158370979Y-85547761D01*
X158206562Y-85397876D01*
X158206560Y-85397874D01*
X158017404Y-85280754D01*
X158017398Y-85280752D01*
X157809940Y-85200382D01*
X157591243Y-85159500D01*
X157368757Y-85159500D01*
X157150060Y-85200382D01*
X157018864Y-85251207D01*
X156942601Y-85280752D01*
X156942595Y-85280754D01*
X156845414Y-85340927D01*
X156780137Y-85359500D01*
X154135782Y-85359500D01*
X154068743Y-85339815D01*
X154048101Y-85323181D01*
X151064598Y-82339678D01*
X151033013Y-82285931D01*
X150984229Y-82114472D01*
X150885058Y-81915311D01*
X150885057Y-81915310D01*
X150885055Y-81915305D01*
X150882038Y-81910432D01*
X150883187Y-81909720D01*
X150860853Y-81850583D01*
X150860500Y-81841229D01*
X150860500Y-80718769D01*
X150880185Y-80651730D01*
X150884761Y-80645167D01*
X150885056Y-80644691D01*
X150885058Y-80644689D01*
X150984229Y-80445528D01*
X151045115Y-80231536D01*
X151065643Y-80010000D01*
X151056215Y-79908259D01*
X151045115Y-79788464D01*
X151045114Y-79788462D01*
X151040241Y-79771336D01*
X150984229Y-79574472D01*
X150958078Y-79521954D01*
X150885061Y-79375316D01*
X150885056Y-79375308D01*
X150750979Y-79197761D01*
X150586562Y-79047876D01*
X150586560Y-79047874D01*
X150397404Y-78930754D01*
X150397398Y-78930752D01*
X150189940Y-78850382D01*
X149971243Y-78809500D01*
X149748757Y-78809500D01*
X149530060Y-78850382D01*
X149414945Y-78894978D01*
X149322601Y-78930752D01*
X149322595Y-78930754D01*
X149133439Y-79047874D01*
X149133437Y-79047876D01*
X148969020Y-79197761D01*
X148834943Y-79375308D01*
X148834938Y-79375316D01*
X148735775Y-79574461D01*
X148735769Y-79574476D01*
X148674885Y-79788462D01*
X148674884Y-79788464D01*
X148654357Y-80009999D01*
X148654357Y-80010000D01*
X148674884Y-80231535D01*
X148674885Y-80231537D01*
X148735769Y-80445523D01*
X148735775Y-80445538D01*
X148834938Y-80644683D01*
X148837959Y-80649561D01*
X148836805Y-80650275D01*
X148859145Y-80709389D01*
X148859500Y-80718769D01*
X148859500Y-81841229D01*
X148839815Y-81908268D01*
X148835234Y-81914837D01*
X148834944Y-81915305D01*
X148735773Y-82114467D01*
X148735768Y-82114480D01*
X148686986Y-82285931D01*
X148655400Y-82339677D01*
X145447316Y-85547764D01*
X144401899Y-86593181D01*
X144340576Y-86626666D01*
X144314218Y-86629500D01*
X142939863Y-86629500D01*
X142874586Y-86610927D01*
X142777404Y-86550754D01*
X142777398Y-86550751D01*
X142631419Y-86494199D01*
X142569940Y-86470382D01*
X142569936Y-86470381D01*
X142569931Y-86470380D01*
X142515883Y-86460276D01*
X142453603Y-86428608D01*
X142450989Y-86426069D01*
X133226552Y-77201631D01*
X133214624Y-77189084D01*
X133182704Y-77126932D01*
X133180499Y-77103652D01*
X133180499Y-75152129D01*
X133180498Y-75152123D01*
X133180497Y-75152116D01*
X133174091Y-75092517D01*
X133172345Y-75087835D01*
X133167360Y-75018143D01*
X133200844Y-74956820D01*
X133262167Y-74923334D01*
X133288526Y-74920500D01*
X133902257Y-74920500D01*
X133917877Y-74922224D01*
X133917904Y-74921939D01*
X133925660Y-74922671D01*
X133925667Y-74922673D01*
X133994814Y-74920500D01*
X134024350Y-74920500D01*
X134031228Y-74919630D01*
X134037041Y-74919172D01*
X134083627Y-74917709D01*
X134102869Y-74912117D01*
X134121912Y-74908174D01*
X134141792Y-74905664D01*
X134185122Y-74888507D01*
X134190646Y-74886617D01*
X134194396Y-74885527D01*
X134235390Y-74873618D01*
X134252629Y-74863422D01*
X134270103Y-74854862D01*
X134288727Y-74847488D01*
X134288727Y-74847487D01*
X134288732Y-74847486D01*
X134326449Y-74820082D01*
X134331305Y-74816892D01*
X134371420Y-74793170D01*
X134385589Y-74778999D01*
X134400379Y-74766368D01*
X134416587Y-74754594D01*
X134446299Y-74718676D01*
X134450212Y-74714376D01*
X138100107Y-71064482D01*
X138161428Y-71030999D01*
X138210570Y-71030276D01*
X138318757Y-71050500D01*
X138318759Y-71050500D01*
X138541241Y-71050500D01*
X138541243Y-71050500D01*
X138759940Y-71009618D01*
X138967401Y-70929247D01*
X139156562Y-70812124D01*
X139320981Y-70662236D01*
X139455058Y-70484689D01*
X139554229Y-70285528D01*
X139615115Y-70071536D01*
X139635643Y-69850000D01*
X139626822Y-69754810D01*
X139615115Y-69628464D01*
X139615114Y-69628462D01*
X139609225Y-69607765D01*
X139609224Y-69607763D01*
X142745787Y-69607763D01*
X142775413Y-69877013D01*
X142775415Y-69877024D01*
X142843926Y-70139082D01*
X142843928Y-70139088D01*
X142949870Y-70388390D01*
X143021998Y-70506575D01*
X143090979Y-70619605D01*
X143090986Y-70619615D01*
X143264253Y-70827819D01*
X143264259Y-70827824D01*
X143425649Y-70972429D01*
X143465998Y-71008582D01*
X143691910Y-71158044D01*
X143937176Y-71273020D01*
X143937183Y-71273022D01*
X143937185Y-71273023D01*
X144196557Y-71351057D01*
X144196564Y-71351058D01*
X144196569Y-71351060D01*
X144464561Y-71390500D01*
X144464566Y-71390500D01*
X144667636Y-71390500D01*
X144719133Y-71386730D01*
X144870156Y-71375677D01*
X144982758Y-71350593D01*
X145134546Y-71316782D01*
X145134548Y-71316781D01*
X145134553Y-71316780D01*
X145387558Y-71220014D01*
X145623777Y-71087441D01*
X145838177Y-70921888D01*
X146026186Y-70726881D01*
X146183799Y-70506579D01*
X146297449Y-70285528D01*
X146307649Y-70265690D01*
X146307651Y-70265684D01*
X146307656Y-70265675D01*
X146395118Y-70009305D01*
X146444319Y-69742933D01*
X146454212Y-69472235D01*
X146432437Y-69274334D01*
X162049500Y-69274334D01*
X162090429Y-69519616D01*
X162171169Y-69754802D01*
X162171172Y-69754811D01*
X162289524Y-69973506D01*
X162289526Y-69973509D01*
X162442262Y-70169744D01*
X162568032Y-70285523D01*
X162625217Y-70338166D01*
X162833393Y-70474173D01*
X163061118Y-70574063D01*
X163240959Y-70619605D01*
X163302179Y-70635108D01*
X163302181Y-70635108D01*
X163302186Y-70635109D01*
X163435376Y-70646145D01*
X163487933Y-70650500D01*
X163487935Y-70650500D01*
X165112065Y-70650500D01*
X165112067Y-70650500D01*
X165173284Y-70645427D01*
X165297813Y-70635109D01*
X165297816Y-70635108D01*
X165297821Y-70635108D01*
X165538881Y-70574063D01*
X165766607Y-70474173D01*
X165974785Y-70338164D01*
X166157738Y-70169744D01*
X166310474Y-69973509D01*
X166428828Y-69754810D01*
X166509571Y-69519614D01*
X166550500Y-69274335D01*
X166550500Y-69025665D01*
X166509571Y-68780386D01*
X166428828Y-68545190D01*
X166310474Y-68326491D01*
X166157738Y-68130256D01*
X165974785Y-67961836D01*
X165974782Y-67961833D01*
X165766606Y-67825826D01*
X165538881Y-67725936D01*
X165297824Y-67664892D01*
X165297813Y-67664890D01*
X165132548Y-67651197D01*
X165112067Y-67649500D01*
X163487933Y-67649500D01*
X163468521Y-67651108D01*
X163302186Y-67664890D01*
X163302175Y-67664892D01*
X163061118Y-67725936D01*
X162833393Y-67825826D01*
X162625217Y-67961833D01*
X162442261Y-68130257D01*
X162289524Y-68326493D01*
X162171172Y-68545188D01*
X162171169Y-68545197D01*
X162090429Y-68780383D01*
X162049500Y-69025665D01*
X162049500Y-69274334D01*
X146432437Y-69274334D01*
X146424586Y-69202982D01*
X146356072Y-68940912D01*
X146250130Y-68691610D01*
X146109018Y-68460390D01*
X146072384Y-68416369D01*
X145935746Y-68252180D01*
X145935740Y-68252175D01*
X145734002Y-68071418D01*
X145508092Y-67921957D01*
X145508090Y-67921956D01*
X145262824Y-67806980D01*
X145262819Y-67806978D01*
X145262814Y-67806976D01*
X145003442Y-67728942D01*
X145003428Y-67728939D01*
X144887791Y-67711921D01*
X144735439Y-67689500D01*
X144532369Y-67689500D01*
X144532364Y-67689500D01*
X144329844Y-67704323D01*
X144329831Y-67704325D01*
X144065453Y-67763217D01*
X144065446Y-67763220D01*
X143812439Y-67859987D01*
X143576226Y-67992557D01*
X143361822Y-68158112D01*
X143173822Y-68353109D01*
X143173816Y-68353116D01*
X143016202Y-68573419D01*
X143016199Y-68573424D01*
X142892350Y-68814309D01*
X142892343Y-68814327D01*
X142804884Y-69070685D01*
X142804882Y-69070695D01*
X142762988Y-69297510D01*
X142755681Y-69337068D01*
X142755680Y-69337075D01*
X142745787Y-69607763D01*
X139609224Y-69607763D01*
X139554229Y-69414472D01*
X139542246Y-69390407D01*
X139455061Y-69215316D01*
X139455056Y-69215308D01*
X139320979Y-69037761D01*
X139156562Y-68887876D01*
X139156560Y-68887874D01*
X138967404Y-68770754D01*
X138967398Y-68770752D01*
X138759940Y-68690382D01*
X138541243Y-68649500D01*
X138318757Y-68649500D01*
X138100060Y-68690382D01*
X138006914Y-68726467D01*
X137892601Y-68770752D01*
X137892595Y-68770754D01*
X137703439Y-68887874D01*
X137703437Y-68887876D01*
X137539020Y-69037761D01*
X137404943Y-69215308D01*
X137404938Y-69215316D01*
X137305775Y-69414461D01*
X137305769Y-69414476D01*
X137279266Y-69507627D01*
X137241987Y-69566721D01*
X137178677Y-69596278D01*
X137109438Y-69586916D01*
X137056251Y-69541606D01*
X137040734Y-69507627D01*
X137014230Y-69414476D01*
X137014229Y-69414472D01*
X137002246Y-69390407D01*
X136915061Y-69215316D01*
X136915056Y-69215308D01*
X136780979Y-69037761D01*
X136616562Y-68887876D01*
X136616560Y-68887874D01*
X136427404Y-68770754D01*
X136427398Y-68770752D01*
X136219940Y-68690382D01*
X136001243Y-68649500D01*
X135778757Y-68649500D01*
X135560060Y-68690382D01*
X135466914Y-68726467D01*
X135352601Y-68770752D01*
X135352595Y-68770754D01*
X135163439Y-68887874D01*
X135163437Y-68887876D01*
X134999020Y-69037761D01*
X134895212Y-69175227D01*
X134839103Y-69216863D01*
X134796258Y-69224500D01*
X119462743Y-69224500D01*
X119447122Y-69222775D01*
X119447096Y-69223061D01*
X119439334Y-69222327D01*
X119439333Y-69222327D01*
X119370186Y-69224500D01*
X119340649Y-69224500D01*
X119333766Y-69225369D01*
X119327949Y-69225826D01*
X119281373Y-69227290D01*
X119262129Y-69232881D01*
X119243079Y-69236825D01*
X119223211Y-69239334D01*
X119179884Y-69256488D01*
X119174358Y-69258379D01*
X119129614Y-69271379D01*
X119129610Y-69271381D01*
X119112366Y-69281579D01*
X119094905Y-69290133D01*
X119076274Y-69297510D01*
X119076262Y-69297517D01*
X119038570Y-69324902D01*
X119033687Y-69328109D01*
X118993580Y-69351829D01*
X118979414Y-69365995D01*
X118964624Y-69378627D01*
X118948414Y-69390404D01*
X118948411Y-69390407D01*
X118918710Y-69426309D01*
X118914777Y-69430631D01*
X113916208Y-74429199D01*
X113903951Y-74439020D01*
X113904134Y-74439241D01*
X113898123Y-74444213D01*
X113850772Y-74494636D01*
X113829889Y-74515519D01*
X113829877Y-74515532D01*
X113825621Y-74521017D01*
X113821837Y-74525447D01*
X113789937Y-74559418D01*
X113789936Y-74559420D01*
X113780284Y-74576976D01*
X113769610Y-74593226D01*
X113761821Y-74603269D01*
X113705181Y-74644180D01*
X113635414Y-74647975D01*
X113574671Y-74613448D01*
X113563518Y-74600162D01*
X113555094Y-74588566D01*
X113551889Y-74583685D01*
X113528172Y-74543582D01*
X113528171Y-74543581D01*
X113528170Y-74543579D01*
X113528165Y-74543574D01*
X113528163Y-74543571D01*
X113514005Y-74529413D01*
X113501370Y-74514620D01*
X113489593Y-74498412D01*
X113453693Y-74468713D01*
X113449381Y-74464790D01*
X112260803Y-73276212D01*
X112250980Y-73263950D01*
X112250759Y-73264134D01*
X112245786Y-73258123D01*
X112227159Y-73240631D01*
X112195364Y-73210773D01*
X112184919Y-73200328D01*
X112174475Y-73189883D01*
X112168986Y-73185625D01*
X112164561Y-73181847D01*
X112130582Y-73149938D01*
X112130580Y-73149936D01*
X112130577Y-73149935D01*
X112113029Y-73140288D01*
X112096763Y-73129604D01*
X112080936Y-73117327D01*
X112080935Y-73117326D01*
X112080933Y-73117325D01*
X112038168Y-73098818D01*
X112032922Y-73096248D01*
X111992093Y-73073803D01*
X111992092Y-73073802D01*
X111972693Y-73068822D01*
X111954281Y-73062518D01*
X111935898Y-73054562D01*
X111935892Y-73054560D01*
X111889874Y-73047272D01*
X111884152Y-73046087D01*
X111839021Y-73034500D01*
X111839019Y-73034500D01*
X111818984Y-73034500D01*
X111799586Y-73032973D01*
X111792162Y-73031797D01*
X111779805Y-73029840D01*
X111779804Y-73029840D01*
X111733416Y-73034225D01*
X111727578Y-73034500D01*
X97817638Y-73034500D01*
X97802021Y-73032776D01*
X97801994Y-73033062D01*
X97794232Y-73032327D01*
X97725104Y-73034500D01*
X97695550Y-73034500D01*
X97694829Y-73034590D01*
X97688657Y-73035369D01*
X97682845Y-73035826D01*
X97636273Y-73037290D01*
X97636272Y-73037290D01*
X97617029Y-73042881D01*
X97597979Y-73046825D01*
X97578111Y-73049334D01*
X97534784Y-73066488D01*
X97529258Y-73068379D01*
X97484514Y-73081379D01*
X97484510Y-73081381D01*
X97467266Y-73091579D01*
X97449805Y-73100133D01*
X97431174Y-73107510D01*
X97431162Y-73107517D01*
X97393470Y-73134902D01*
X97388587Y-73138109D01*
X97348480Y-73161829D01*
X97334314Y-73175995D01*
X97319524Y-73188627D01*
X97303314Y-73200404D01*
X97303311Y-73200407D01*
X97273610Y-73236309D01*
X97269677Y-73240631D01*
X96136208Y-74374099D01*
X96123951Y-74383920D01*
X96124134Y-74384141D01*
X96118123Y-74389113D01*
X96070772Y-74439536D01*
X96049889Y-74460419D01*
X96049877Y-74460432D01*
X96045621Y-74465917D01*
X96041837Y-74470347D01*
X96009937Y-74504318D01*
X96009936Y-74504320D01*
X96000284Y-74521876D01*
X95989610Y-74538126D01*
X95977329Y-74553961D01*
X95977324Y-74553968D01*
X95958815Y-74596738D01*
X95956245Y-74601984D01*
X95933803Y-74642806D01*
X95928822Y-74662207D01*
X95922521Y-74680610D01*
X95914562Y-74699002D01*
X95914561Y-74699005D01*
X95907271Y-74745027D01*
X95906087Y-74750746D01*
X95894501Y-74795872D01*
X95894500Y-74795882D01*
X95894500Y-74815916D01*
X95892972Y-74835322D01*
X95890371Y-74851737D01*
X95860437Y-74914870D01*
X95839828Y-74933337D01*
X95796050Y-74964511D01*
X95796040Y-74964520D01*
X95651014Y-75116620D01*
X95537388Y-75293425D01*
X95459274Y-75488544D01*
X95435070Y-75614130D01*
X95419500Y-75694915D01*
X95419500Y-76652425D01*
X95434472Y-76809218D01*
X95448582Y-76857272D01*
X95493628Y-77010686D01*
X95493684Y-77010875D01*
X95567049Y-77153185D01*
X95589991Y-77197686D01*
X95719905Y-77362883D01*
X95719909Y-77362887D01*
X95878746Y-77500521D01*
X96060750Y-77605601D01*
X96060752Y-77605601D01*
X96060756Y-77605604D01*
X96259367Y-77674344D01*
X96467398Y-77704254D01*
X96677330Y-77694254D01*
X96881576Y-77644704D01*
X96953267Y-77611963D01*
X97072743Y-77557401D01*
X97072746Y-77557399D01*
X97072753Y-77557396D01*
X97243952Y-77435486D01*
X97244317Y-77435104D01*
X97388985Y-77283379D01*
X97391897Y-77278848D01*
X97502613Y-77106572D01*
X97580725Y-76911457D01*
X97620500Y-76705085D01*
X97620500Y-76652398D01*
X97960000Y-76652398D01*
X97974965Y-76809122D01*
X97974966Y-76809126D01*
X98034149Y-77010686D01*
X98130413Y-77197414D01*
X98260268Y-77362537D01*
X98260271Y-77362540D01*
X98419030Y-77500105D01*
X98419041Y-77500114D01*
X98600960Y-77605144D01*
X98600967Y-77605147D01*
X98799487Y-77673856D01*
X98810000Y-77675367D01*
X98810000Y-76515686D01*
X98821955Y-76527641D01*
X98934852Y-76585165D01*
X99028519Y-76600000D01*
X99091481Y-76600000D01*
X99185148Y-76585165D01*
X99298045Y-76527641D01*
X99310000Y-76515686D01*
X99310000Y-77671257D01*
X99421409Y-77644229D01*
X99612507Y-77556959D01*
X99783619Y-77435110D01*
X99783625Y-77435104D01*
X99928592Y-77283067D01*
X100042166Y-77106342D01*
X100120244Y-76911314D01*
X100160000Y-76705037D01*
X100160000Y-76450000D01*
X99375686Y-76450000D01*
X99387641Y-76438045D01*
X99445165Y-76325148D01*
X99464986Y-76200000D01*
X99445165Y-76074852D01*
X99387641Y-75961955D01*
X99375686Y-75950000D01*
X100160000Y-75950000D01*
X100160000Y-75747601D01*
X100145034Y-75590877D01*
X100145033Y-75590873D01*
X100085850Y-75389313D01*
X99989586Y-75202585D01*
X99859731Y-75037462D01*
X99859728Y-75037459D01*
X99700969Y-74899894D01*
X99700958Y-74899885D01*
X99519039Y-74794855D01*
X99519032Y-74794852D01*
X99320516Y-74726144D01*
X99310000Y-74724632D01*
X99310000Y-75884314D01*
X99298045Y-75872359D01*
X99185148Y-75814835D01*
X99091481Y-75800000D01*
X99028519Y-75800000D01*
X98934852Y-75814835D01*
X98821955Y-75872359D01*
X98810000Y-75884314D01*
X98810000Y-74728740D01*
X98809999Y-74728740D01*
X98698594Y-74755768D01*
X98698582Y-74755772D01*
X98507497Y-74843037D01*
X98507496Y-74843038D01*
X98336380Y-74964889D01*
X98336374Y-74964895D01*
X98191407Y-75116932D01*
X98077833Y-75293657D01*
X97999755Y-75488685D01*
X97960000Y-75694962D01*
X97960000Y-75950000D01*
X98744314Y-75950000D01*
X98732359Y-75961955D01*
X98674835Y-76074852D01*
X98655014Y-76200000D01*
X98674835Y-76325148D01*
X98732359Y-76438045D01*
X98744314Y-76450000D01*
X97960000Y-76450000D01*
X97960000Y-76652398D01*
X97620500Y-76652398D01*
X97620500Y-75747575D01*
X97605528Y-75590782D01*
X97546316Y-75389125D01*
X97450011Y-75202318D01*
X97450009Y-75202316D01*
X97450008Y-75202313D01*
X97353913Y-75080120D01*
X97327945Y-75015256D01*
X97341167Y-74946649D01*
X97363698Y-74915791D01*
X97957672Y-74321819D01*
X98018995Y-74288334D01*
X98045353Y-74285500D01*
X104870546Y-74285500D01*
X104937585Y-74305185D01*
X104983340Y-74357989D01*
X104993284Y-74427147D01*
X104964259Y-74490703D01*
X104958227Y-74497181D01*
X104939889Y-74515519D01*
X104939877Y-74515532D01*
X104935621Y-74521017D01*
X104931837Y-74525447D01*
X104899937Y-74559418D01*
X104899936Y-74559420D01*
X104890284Y-74576976D01*
X104879610Y-74593226D01*
X104867329Y-74609061D01*
X104867324Y-74609068D01*
X104848815Y-74651838D01*
X104846245Y-74657084D01*
X104823803Y-74697906D01*
X104818822Y-74717307D01*
X104812521Y-74735711D01*
X104804843Y-74753455D01*
X104760154Y-74807164D01*
X104693522Y-74828186D01*
X104629040Y-74811598D01*
X104599249Y-74794398D01*
X104599245Y-74794396D01*
X104599244Y-74794396D01*
X104400633Y-74725656D01*
X104192602Y-74695746D01*
X104192598Y-74695746D01*
X103982672Y-74705745D01*
X103778421Y-74755296D01*
X103778417Y-74755298D01*
X103587256Y-74842598D01*
X103587251Y-74842601D01*
X103416046Y-74964515D01*
X103416040Y-74964520D01*
X103271014Y-75116620D01*
X103157388Y-75293425D01*
X103079274Y-75488544D01*
X103055070Y-75614130D01*
X103039500Y-75694915D01*
X103039500Y-76652425D01*
X103054472Y-76809218D01*
X103068582Y-76857272D01*
X103113628Y-77010686D01*
X103113684Y-77010875D01*
X103187049Y-77153185D01*
X103209991Y-77197686D01*
X103339905Y-77362883D01*
X103339908Y-77362886D01*
X103471704Y-77477088D01*
X103509477Y-77535865D01*
X103514500Y-77570800D01*
X103514500Y-77822096D01*
X103494815Y-77889135D01*
X103478181Y-77909777D01*
X94866208Y-86521749D01*
X94853951Y-86531570D01*
X94854134Y-86531791D01*
X94848123Y-86536763D01*
X94800772Y-86587186D01*
X94779889Y-86608069D01*
X94779877Y-86608082D01*
X94775621Y-86613567D01*
X94771837Y-86617997D01*
X94739937Y-86651968D01*
X94739936Y-86651970D01*
X94730284Y-86669526D01*
X94719610Y-86685776D01*
X94707329Y-86701611D01*
X94707324Y-86701618D01*
X94688815Y-86744388D01*
X94686245Y-86749634D01*
X94663803Y-86790456D01*
X94658822Y-86809857D01*
X94652521Y-86828260D01*
X94644562Y-86846652D01*
X94644561Y-86846655D01*
X94637271Y-86892677D01*
X94636087Y-86898396D01*
X94624501Y-86943522D01*
X94624500Y-86943532D01*
X94624500Y-86963566D01*
X94622973Y-86982965D01*
X94619840Y-87002744D01*
X94619840Y-87002745D01*
X94624225Y-87049133D01*
X94624500Y-87054971D01*
X94624500Y-100086578D01*
X94604815Y-100153617D01*
X94552011Y-100199372D01*
X94482853Y-100209316D01*
X94444927Y-100196192D01*
X94444626Y-100196853D01*
X94439251Y-100194398D01*
X94240633Y-100125656D01*
X94233511Y-100124632D01*
X94032602Y-100095746D01*
X94032598Y-100095746D01*
X93822672Y-100105745D01*
X93618421Y-100155296D01*
X93618417Y-100155298D01*
X93511011Y-100204349D01*
X93441853Y-100214293D01*
X93378297Y-100185268D01*
X93340523Y-100126490D01*
X93335500Y-100091555D01*
X93335500Y-87305451D01*
X93355185Y-87238412D01*
X93371814Y-87217775D01*
X101983786Y-78605802D01*
X101996048Y-78595980D01*
X101995865Y-78595759D01*
X102001867Y-78590792D01*
X102001877Y-78590786D01*
X102049241Y-78540348D01*
X102070120Y-78519470D01*
X102074373Y-78513986D01*
X102078150Y-78509563D01*
X102110062Y-78475582D01*
X102119714Y-78458023D01*
X102130389Y-78441772D01*
X102142674Y-78425936D01*
X102161186Y-78383152D01*
X102163742Y-78377935D01*
X102186197Y-78337092D01*
X102191180Y-78317680D01*
X102197477Y-78299291D01*
X102205438Y-78280895D01*
X102212729Y-78234853D01*
X102213908Y-78229162D01*
X102225500Y-78184019D01*
X102225500Y-78163983D01*
X102227027Y-78144582D01*
X102227271Y-78143044D01*
X102230160Y-78124804D01*
X102225775Y-78078415D01*
X102225500Y-78072577D01*
X102225500Y-77569519D01*
X102245185Y-77502480D01*
X102277572Y-77468512D01*
X102323952Y-77435486D01*
X102324317Y-77435104D01*
X102468985Y-77283379D01*
X102471897Y-77278848D01*
X102582613Y-77106572D01*
X102660725Y-76911457D01*
X102700500Y-76705085D01*
X102700500Y-75747575D01*
X102685528Y-75590782D01*
X102626316Y-75389125D01*
X102530011Y-75202318D01*
X102530009Y-75202316D01*
X102530008Y-75202313D01*
X102400094Y-75037116D01*
X102400090Y-75037112D01*
X102241253Y-74899478D01*
X102059249Y-74794398D01*
X102059245Y-74794396D01*
X102059244Y-74794396D01*
X101860633Y-74725656D01*
X101652602Y-74695746D01*
X101652598Y-74695746D01*
X101442672Y-74705745D01*
X101238421Y-74755296D01*
X101238417Y-74755298D01*
X101047256Y-74842598D01*
X101047251Y-74842601D01*
X100876046Y-74964515D01*
X100876040Y-74964520D01*
X100731014Y-75116620D01*
X100617388Y-75293425D01*
X100539274Y-75488544D01*
X100515070Y-75614130D01*
X100499500Y-75694915D01*
X100499500Y-76652425D01*
X100514472Y-76809218D01*
X100528582Y-76857272D01*
X100573628Y-77010686D01*
X100573684Y-77010875D01*
X100647049Y-77153185D01*
X100669991Y-77197686D01*
X100799905Y-77362883D01*
X100799908Y-77362886D01*
X100931704Y-77477088D01*
X100969477Y-77535865D01*
X100974500Y-77570800D01*
X100974500Y-77794546D01*
X100954815Y-77861585D01*
X100938181Y-77882227D01*
X92326208Y-86494199D01*
X92313951Y-86504020D01*
X92314134Y-86504241D01*
X92308123Y-86509213D01*
X92260772Y-86559636D01*
X92239889Y-86580519D01*
X92239877Y-86580532D01*
X92235621Y-86586017D01*
X92231837Y-86590447D01*
X92199937Y-86624418D01*
X92199936Y-86624420D01*
X92190284Y-86641976D01*
X92179610Y-86658226D01*
X92167329Y-86674061D01*
X92167324Y-86674068D01*
X92148815Y-86716838D01*
X92146245Y-86722084D01*
X92123803Y-86762906D01*
X92118822Y-86782307D01*
X92112521Y-86800710D01*
X92104562Y-86819102D01*
X92104561Y-86819105D01*
X92097271Y-86865127D01*
X92096087Y-86870846D01*
X92084501Y-86915972D01*
X92084500Y-86915982D01*
X92084500Y-86936016D01*
X92082973Y-86955415D01*
X92080137Y-86973323D01*
X92079840Y-86975196D01*
X92081742Y-86995316D01*
X92084225Y-87021583D01*
X92084500Y-87027421D01*
X92084500Y-100086578D01*
X92064815Y-100153617D01*
X92012011Y-100199372D01*
X91942853Y-100209316D01*
X91904927Y-100196192D01*
X91904626Y-100196853D01*
X91899251Y-100194398D01*
X91700633Y-100125656D01*
X91693511Y-100124632D01*
X91492602Y-100095746D01*
X91492598Y-100095746D01*
X91282672Y-100105745D01*
X91078421Y-100155296D01*
X91078417Y-100155298D01*
X90887256Y-100242598D01*
X90887251Y-100242601D01*
X90716046Y-100364515D01*
X90716040Y-100364520D01*
X90571014Y-100516620D01*
X90457388Y-100693425D01*
X90379274Y-100888544D01*
X90340209Y-101091234D01*
X90339500Y-101094915D01*
X90339500Y-102052425D01*
X90354121Y-102205537D01*
X90354472Y-102209217D01*
X90354473Y-102209221D01*
X90413628Y-102410686D01*
X90413684Y-102410875D01*
X90463019Y-102506572D01*
X90509991Y-102597686D01*
X90639905Y-102762883D01*
X90639909Y-102762887D01*
X90798746Y-102900521D01*
X90980750Y-103005601D01*
X90980752Y-103005601D01*
X90980756Y-103005604D01*
X91179367Y-103074344D01*
X91387398Y-103104254D01*
X91597330Y-103094254D01*
X91801576Y-103044704D01*
X91908989Y-102995649D01*
X91978146Y-102985706D01*
X92041702Y-103014731D01*
X92079477Y-103073508D01*
X92084500Y-103108444D01*
X92084500Y-105350950D01*
X92064815Y-105417989D01*
X92012011Y-105463744D01*
X91942853Y-105473688D01*
X91908099Y-105463334D01*
X91886498Y-105453262D01*
X91886488Y-105453258D01*
X91666697Y-105394366D01*
X91666693Y-105394365D01*
X91666692Y-105394365D01*
X91666691Y-105394364D01*
X91666686Y-105394364D01*
X91440002Y-105374532D01*
X91439998Y-105374532D01*
X91213313Y-105394364D01*
X91213302Y-105394366D01*
X90993511Y-105453258D01*
X90993502Y-105453261D01*
X90787267Y-105549431D01*
X90787265Y-105549432D01*
X90706902Y-105605703D01*
X90648631Y-105646505D01*
X90633535Y-105657075D01*
X90567329Y-105679402D01*
X90562412Y-105679500D01*
X88730782Y-105679500D01*
X88663743Y-105659815D01*
X88643101Y-105643181D01*
X86308229Y-103308309D01*
X86274744Y-103246986D01*
X86279728Y-103177294D01*
X86321600Y-103121361D01*
X86387064Y-103096944D01*
X86389978Y-103096769D01*
X86520050Y-103090574D01*
X86724296Y-103041024D01*
X86848979Y-102984083D01*
X86915463Y-102953721D01*
X86915466Y-102953719D01*
X86915473Y-102953716D01*
X87086672Y-102831806D01*
X87107043Y-102810442D01*
X87231705Y-102679699D01*
X87251780Y-102648462D01*
X87345333Y-102502892D01*
X87423445Y-102307777D01*
X87463220Y-102101405D01*
X87463220Y-102048745D01*
X87802220Y-102048745D01*
X87817192Y-102205538D01*
X87876404Y-102407195D01*
X87927636Y-102506572D01*
X87972711Y-102594006D01*
X88102625Y-102759203D01*
X88102629Y-102759207D01*
X88261466Y-102896841D01*
X88443470Y-103001921D01*
X88443472Y-103001921D01*
X88443476Y-103001924D01*
X88642087Y-103070664D01*
X88850118Y-103100574D01*
X89060050Y-103090574D01*
X89264296Y-103041024D01*
X89388979Y-102984083D01*
X89455463Y-102953721D01*
X89455466Y-102953719D01*
X89455473Y-102953716D01*
X89626672Y-102831806D01*
X89647043Y-102810442D01*
X89771705Y-102679699D01*
X89791780Y-102648462D01*
X89885333Y-102502892D01*
X89963445Y-102307777D01*
X90003220Y-102101405D01*
X90003220Y-101143895D01*
X89988248Y-100987102D01*
X89929036Y-100785445D01*
X89832731Y-100598638D01*
X89832729Y-100598636D01*
X89832728Y-100598633D01*
X89702814Y-100433436D01*
X89702810Y-100433432D01*
X89543973Y-100295798D01*
X89361969Y-100190718D01*
X89361965Y-100190716D01*
X89361964Y-100190716D01*
X89163353Y-100121976D01*
X88955322Y-100092066D01*
X88955318Y-100092066D01*
X88745392Y-100102065D01*
X88541141Y-100151616D01*
X88541137Y-100151618D01*
X88349976Y-100238918D01*
X88349971Y-100238921D01*
X88178766Y-100360835D01*
X88178760Y-100360840D01*
X88033734Y-100512940D01*
X87920108Y-100689745D01*
X87841994Y-100884864D01*
X87806092Y-101071143D01*
X87802220Y-101091235D01*
X87802220Y-102048745D01*
X87463220Y-102048745D01*
X87463220Y-101143895D01*
X87448248Y-100987102D01*
X87389036Y-100785445D01*
X87292731Y-100598638D01*
X87292729Y-100598636D01*
X87292728Y-100598633D01*
X87162814Y-100433436D01*
X87162810Y-100433432D01*
X87003973Y-100295798D01*
X86821969Y-100190718D01*
X86821965Y-100190716D01*
X86821964Y-100190716D01*
X86623353Y-100121976D01*
X86415322Y-100092066D01*
X86415318Y-100092066D01*
X86205392Y-100102065D01*
X86001141Y-100151616D01*
X86001137Y-100151618D01*
X85809976Y-100238918D01*
X85809971Y-100238921D01*
X85767484Y-100269175D01*
X85651425Y-100351820D01*
X85585400Y-100374672D01*
X85517500Y-100358199D01*
X85469284Y-100307632D01*
X85455500Y-100250812D01*
X85455500Y-80475781D01*
X85475185Y-80408742D01*
X85491814Y-80388105D01*
X87058468Y-78821451D01*
X87123053Y-78760059D01*
X87152517Y-78717726D01*
X87158099Y-78709706D01*
X87160938Y-78705941D01*
X87172962Y-78691195D01*
X87199698Y-78658407D01*
X87215601Y-78627960D01*
X87219674Y-78621239D01*
X87224489Y-78614320D01*
X87239295Y-78593049D01*
X87263492Y-78536660D01*
X87265498Y-78532435D01*
X87293909Y-78478049D01*
X87303360Y-78445015D01*
X87305991Y-78437628D01*
X87306575Y-78436268D01*
X87319540Y-78406058D01*
X87331893Y-78345940D01*
X87333006Y-78341412D01*
X87349887Y-78282418D01*
X87352495Y-78248155D01*
X87353587Y-78240376D01*
X87355313Y-78231982D01*
X87360500Y-78206741D01*
X87360500Y-78145401D01*
X87360679Y-78140692D01*
X87365337Y-78079526D01*
X87360997Y-78045442D01*
X87360500Y-78037603D01*
X87360500Y-77085791D01*
X87369382Y-77039705D01*
X87420725Y-76911457D01*
X87460500Y-76705085D01*
X87460500Y-76652425D01*
X87799500Y-76652425D01*
X87814472Y-76809218D01*
X87828582Y-76857272D01*
X87873628Y-77010686D01*
X87873684Y-77010875D01*
X87947049Y-77153185D01*
X87969991Y-77197686D01*
X88099905Y-77362883D01*
X88099909Y-77362887D01*
X88258746Y-77500521D01*
X88440750Y-77605601D01*
X88440752Y-77605601D01*
X88440756Y-77605604D01*
X88639367Y-77674344D01*
X88847398Y-77704254D01*
X89057330Y-77694254D01*
X89261576Y-77644704D01*
X89333267Y-77611963D01*
X89452743Y-77557401D01*
X89452746Y-77557399D01*
X89452753Y-77557396D01*
X89623952Y-77435486D01*
X89624317Y-77435104D01*
X89768985Y-77283379D01*
X89771897Y-77278848D01*
X89882613Y-77106572D01*
X89960725Y-76911457D01*
X90000500Y-76705085D01*
X90000500Y-76652425D01*
X90339500Y-76652425D01*
X90354472Y-76809218D01*
X90368582Y-76857272D01*
X90413628Y-77010686D01*
X90413684Y-77010875D01*
X90487049Y-77153185D01*
X90509991Y-77197686D01*
X90639905Y-77362883D01*
X90639909Y-77362887D01*
X90798746Y-77500521D01*
X90980750Y-77605601D01*
X90980752Y-77605601D01*
X90980756Y-77605604D01*
X91179367Y-77674344D01*
X91387398Y-77704254D01*
X91597330Y-77694254D01*
X91801576Y-77644704D01*
X91873267Y-77611963D01*
X91992743Y-77557401D01*
X91992746Y-77557399D01*
X91992753Y-77557396D01*
X92163952Y-77435486D01*
X92164317Y-77435104D01*
X92308985Y-77283379D01*
X92311897Y-77278848D01*
X92422613Y-77106572D01*
X92500725Y-76911457D01*
X92540500Y-76705085D01*
X92540500Y-76652425D01*
X92879500Y-76652425D01*
X92894472Y-76809218D01*
X92908582Y-76857272D01*
X92953628Y-77010686D01*
X92953684Y-77010875D01*
X93027049Y-77153185D01*
X93049991Y-77197686D01*
X93179905Y-77362883D01*
X93179909Y-77362887D01*
X93338746Y-77500521D01*
X93520750Y-77605601D01*
X93520752Y-77605601D01*
X93520756Y-77605604D01*
X93719367Y-77674344D01*
X93927398Y-77704254D01*
X94137330Y-77694254D01*
X94341576Y-77644704D01*
X94413267Y-77611963D01*
X94532743Y-77557401D01*
X94532746Y-77557399D01*
X94532753Y-77557396D01*
X94703952Y-77435486D01*
X94704317Y-77435104D01*
X94848985Y-77283379D01*
X94851897Y-77278848D01*
X94962613Y-77106572D01*
X95040725Y-76911457D01*
X95080500Y-76705085D01*
X95080500Y-75747575D01*
X95065528Y-75590782D01*
X95006316Y-75389125D01*
X94910011Y-75202318D01*
X94910009Y-75202316D01*
X94910008Y-75202313D01*
X94780094Y-75037116D01*
X94780090Y-75037112D01*
X94621253Y-74899478D01*
X94439249Y-74794398D01*
X94439245Y-74794396D01*
X94439244Y-74794396D01*
X94240633Y-74725656D01*
X94032602Y-74695746D01*
X94032598Y-74695746D01*
X93822672Y-74705745D01*
X93618421Y-74755296D01*
X93618417Y-74755298D01*
X93427256Y-74842598D01*
X93427251Y-74842601D01*
X93256046Y-74964515D01*
X93256040Y-74964520D01*
X93111014Y-75116620D01*
X92997388Y-75293425D01*
X92919274Y-75488544D01*
X92895070Y-75614130D01*
X92879500Y-75694915D01*
X92879500Y-76652425D01*
X92540500Y-76652425D01*
X92540500Y-75747575D01*
X92525528Y-75590782D01*
X92466316Y-75389125D01*
X92370011Y-75202318D01*
X92370009Y-75202316D01*
X92370008Y-75202313D01*
X92240094Y-75037116D01*
X92240090Y-75037112D01*
X92081253Y-74899478D01*
X91899249Y-74794398D01*
X91899245Y-74794396D01*
X91899244Y-74794396D01*
X91700633Y-74725656D01*
X91492602Y-74695746D01*
X91492598Y-74695746D01*
X91282672Y-74705745D01*
X91078421Y-74755296D01*
X91078417Y-74755298D01*
X90887256Y-74842598D01*
X90887251Y-74842601D01*
X90716046Y-74964515D01*
X90716040Y-74964520D01*
X90571014Y-75116620D01*
X90457388Y-75293425D01*
X90379274Y-75488544D01*
X90355070Y-75614130D01*
X90339500Y-75694915D01*
X90339500Y-76652425D01*
X90000500Y-76652425D01*
X90000500Y-75747575D01*
X89985528Y-75590782D01*
X89926316Y-75389125D01*
X89830011Y-75202318D01*
X89830009Y-75202316D01*
X89830008Y-75202313D01*
X89700094Y-75037116D01*
X89700090Y-75037112D01*
X89541253Y-74899478D01*
X89359249Y-74794398D01*
X89359245Y-74794396D01*
X89359244Y-74794396D01*
X89160633Y-74725656D01*
X88952602Y-74695746D01*
X88952598Y-74695746D01*
X88742672Y-74705745D01*
X88538421Y-74755296D01*
X88538417Y-74755298D01*
X88347256Y-74842598D01*
X88347251Y-74842601D01*
X88176046Y-74964515D01*
X88176040Y-74964520D01*
X88031014Y-75116620D01*
X87917388Y-75293425D01*
X87839274Y-75488544D01*
X87815070Y-75614130D01*
X87799500Y-75694915D01*
X87799500Y-76652425D01*
X87460500Y-76652425D01*
X87460500Y-75747575D01*
X87445528Y-75590782D01*
X87386316Y-75389125D01*
X87290011Y-75202318D01*
X87290009Y-75202316D01*
X87290008Y-75202313D01*
X87160094Y-75037116D01*
X87160090Y-75037112D01*
X87001253Y-74899478D01*
X86819249Y-74794398D01*
X86819245Y-74794396D01*
X86819244Y-74794396D01*
X86620633Y-74725656D01*
X86412602Y-74695746D01*
X86412598Y-74695746D01*
X86202672Y-74705745D01*
X85998421Y-74755296D01*
X85998417Y-74755298D01*
X85807256Y-74842598D01*
X85807251Y-74842601D01*
X85636046Y-74964515D01*
X85636040Y-74964520D01*
X85491014Y-75116620D01*
X85377388Y-75293425D01*
X85299274Y-75488544D01*
X85275070Y-75614130D01*
X85259500Y-75694915D01*
X85259500Y-76652425D01*
X85274472Y-76809218D01*
X85288582Y-76857272D01*
X85333628Y-77010686D01*
X85333684Y-77010875D01*
X85345716Y-77034213D01*
X85359500Y-77091033D01*
X85359500Y-77639217D01*
X85339815Y-77706256D01*
X85323181Y-77726898D01*
X83756532Y-79293546D01*
X83691946Y-79354942D01*
X83656899Y-79405294D01*
X83654062Y-79409056D01*
X83615302Y-79456592D01*
X83615299Y-79456597D01*
X83599392Y-79487047D01*
X83595324Y-79493761D01*
X83575702Y-79521954D01*
X83551509Y-79578330D01*
X83549488Y-79582584D01*
X83521091Y-79636951D01*
X83521090Y-79636952D01*
X83511640Y-79669975D01*
X83509007Y-79677371D01*
X83495459Y-79708943D01*
X83483113Y-79769019D01*
X83481990Y-79773595D01*
X83465113Y-79832577D01*
X83465113Y-79832579D01*
X83462503Y-79866841D01*
X83461414Y-79874608D01*
X83455980Y-79901052D01*
X83454500Y-79908258D01*
X83454500Y-79969597D01*
X83454321Y-79974306D01*
X83449662Y-80035474D01*
X83100500Y-80035474D01*
X83100500Y-69607763D01*
X84745787Y-69607763D01*
X84775413Y-69877013D01*
X84775415Y-69877024D01*
X84843926Y-70139082D01*
X84843928Y-70139088D01*
X84949870Y-70388390D01*
X85021998Y-70506575D01*
X85090979Y-70619605D01*
X85090986Y-70619615D01*
X85264253Y-70827819D01*
X85264259Y-70827824D01*
X85425649Y-70972429D01*
X85465998Y-71008582D01*
X85691910Y-71158044D01*
X85937176Y-71273020D01*
X85937183Y-71273022D01*
X85937185Y-71273023D01*
X86196557Y-71351057D01*
X86196564Y-71351058D01*
X86196569Y-71351060D01*
X86464561Y-71390500D01*
X86464566Y-71390500D01*
X86667636Y-71390500D01*
X86719133Y-71386730D01*
X86870156Y-71375677D01*
X86982758Y-71350593D01*
X87134546Y-71316782D01*
X87134548Y-71316781D01*
X87134553Y-71316780D01*
X87387558Y-71220014D01*
X87623777Y-71087441D01*
X87838177Y-70921888D01*
X88026186Y-70726881D01*
X88183799Y-70506579D01*
X88297449Y-70285528D01*
X88307649Y-70265690D01*
X88307651Y-70265684D01*
X88307656Y-70265675D01*
X88395118Y-70009305D01*
X88444319Y-69742933D01*
X88454212Y-69472235D01*
X88424586Y-69202982D01*
X88356072Y-68940912D01*
X88250130Y-68691610D01*
X88109018Y-68460390D01*
X88072384Y-68416369D01*
X87935746Y-68252180D01*
X87935740Y-68252175D01*
X87734002Y-68071418D01*
X87508092Y-67921957D01*
X87508090Y-67921956D01*
X87262824Y-67806980D01*
X87262819Y-67806978D01*
X87262814Y-67806976D01*
X87003442Y-67728942D01*
X87003428Y-67728939D01*
X86887791Y-67711921D01*
X86735439Y-67689500D01*
X86532369Y-67689500D01*
X86532364Y-67689500D01*
X86329844Y-67704323D01*
X86329831Y-67704325D01*
X86065453Y-67763217D01*
X86065446Y-67763220D01*
X85812439Y-67859987D01*
X85576226Y-67992557D01*
X85361822Y-68158112D01*
X85173822Y-68353109D01*
X85173816Y-68353116D01*
X85016202Y-68573419D01*
X85016199Y-68573424D01*
X84892350Y-68814309D01*
X84892343Y-68814327D01*
X84804884Y-69070685D01*
X84804882Y-69070695D01*
X84762988Y-69297510D01*
X84755681Y-69337068D01*
X84755680Y-69337075D01*
X84745787Y-69607763D01*
X83100500Y-69607763D01*
X83100500Y-69041622D01*
X83100585Y-69038376D01*
X83101251Y-69025665D01*
X83107497Y-68906486D01*
X83117803Y-68722968D01*
X83118464Y-68716791D01*
X83142611Y-68564331D01*
X83170227Y-68401796D01*
X83171451Y-68396196D01*
X83212425Y-68243279D01*
X83257083Y-68088268D01*
X83258764Y-68083254D01*
X83316127Y-67933815D01*
X83377366Y-67785972D01*
X83379379Y-67781606D01*
X83452511Y-67638078D01*
X83459688Y-67625090D01*
X83529655Y-67498494D01*
X83531867Y-67494808D01*
X83619980Y-67359127D01*
X83634130Y-67339182D01*
X83712154Y-67229220D01*
X83714486Y-67226143D01*
X83815655Y-67101209D01*
X83817537Y-67098998D01*
X83922773Y-66981239D01*
X83925092Y-66978787D01*
X84038787Y-66865092D01*
X84041239Y-66862773D01*
X84158998Y-66757537D01*
X84161209Y-66755655D01*
X84286143Y-66654486D01*
X84289220Y-66652154D01*
X84419127Y-66559980D01*
X84429046Y-66553537D01*
X84554808Y-66471867D01*
X84558494Y-66469655D01*
X84698078Y-66392511D01*
X84710063Y-66386403D01*
X84841606Y-66319379D01*
X84845972Y-66317366D01*
X84993815Y-66256127D01*
X85143254Y-66198764D01*
X85148268Y-66197083D01*
X85303279Y-66152425D01*
X85456196Y-66111451D01*
X85461796Y-66110227D01*
X85624284Y-66082618D01*
X85776791Y-66058464D01*
X85782968Y-66057803D01*
X85966566Y-66047493D01*
X86098380Y-66040584D01*
X86101622Y-66040500D01*
X165098378Y-66040500D01*
X165101619Y-66040584D01*
G37*
G04 #@! TD.AperFunction*
G04 #@! TD*
M02*
