M48
; DRILL file {KiCad 7.0.9} date Sun Nov 12 17:19:11 2023
; FORMAT={-:-/ absolute / metric / decimal}
; #@! TF.CreationDate,2023-11-12T17:19:11+09:00
; #@! TF.GenerationSoftware,Kicad,Pcbnew,7.0.9
; #@! TF.FileFunction,MixedPlating,1,2
FMAT,2
METRIC
; #@! TA.AperFunction,Plated,PTH,ViaDrill
T1C0.400
; #@! TA.AperFunction,Plated,PTH,ComponentDrill
T2C0.700
; #@! TA.AperFunction,Plated,PTH,ComponentDrill
T3C0.750
; #@! TA.AperFunction,Plated,PTH,ComponentDrill
T4C0.800
; #@! TA.AperFunction,Plated,PTH,ComponentDrill
T5C0.900
; #@! TA.AperFunction,Plated,PTH,ComponentDrill
T6C1.000
; #@! TA.AperFunction,Plated,PTH,ComponentDrill
T7C1.300
; #@! TA.AperFunction,NonPlated,NPTH,ComponentDrill
T8C3.200
%
G90
G05
T1
X116.84Y-95.25
T2
X125.73Y-116.84
X133.35Y-116.84
X135.89Y-69.85
X135.89Y-77.47
X138.43Y-69.85
X138.43Y-77.47
X142.24Y-80.01
X142.24Y-82.55
X142.24Y-87.63
X142.24Y-90.17
X142.24Y-92.71
X142.24Y-95.25
X142.24Y-97.79
X142.24Y-100.33
X142.24Y-102.87
X142.24Y-105.41
X142.24Y-107.95
X149.86Y-80.01
X149.86Y-82.55
X149.86Y-87.63
X149.86Y-90.17
X149.86Y-92.71
X149.86Y-95.25
X149.86Y-97.79
X149.86Y-100.33
X149.86Y-102.87
X149.86Y-105.41
X149.86Y-107.95
X157.48Y-86.36
X165.1Y-86.36
T3
X157.48Y-92.705
X157.48Y-100.325
T4
X86.36Y-76.2
X86.363Y-101.596
X88.9Y-76.2
X88.903Y-101.596
X91.44Y-76.2
X91.44Y-101.6
X91.44Y-106.68
X91.44Y-114.3
X93.98Y-76.2
X93.98Y-101.6
X93.98Y-106.68
X93.98Y-114.3
X96.52Y-76.2
X96.52Y-101.6
X96.52Y-106.68
X96.52Y-114.3
X99.06Y-76.2
X99.06Y-101.6
X99.06Y-106.68
X99.06Y-114.3
X101.6Y-76.2
X101.6Y-101.6
X101.6Y-106.68
X101.6Y-114.3
X104.14Y-76.2
X104.14Y-101.6
X104.14Y-106.68
X104.14Y-114.3
X106.68Y-76.2
X106.68Y-101.6
X106.68Y-106.68
X106.68Y-114.3
X109.22Y-76.2
X109.22Y-101.6
X109.22Y-106.68
X109.22Y-114.3
X111.76Y-76.2
X111.76Y-101.6
X114.3Y-76.2
X114.3Y-101.6
X116.84Y-76.2
X116.84Y-101.6
X119.38Y-76.2
X119.38Y-101.6
X121.92Y-76.2
X121.92Y-101.6
X124.46Y-76.2
X124.46Y-101.6
X127.0Y-76.2
X127.0Y-101.6
X129.54Y-76.2
X129.54Y-101.6
X132.08Y-76.2
X132.08Y-101.6
X153.71Y-118.11
X158.65Y-72.6
X158.65Y-79.4
X158.71Y-118.11
X161.45Y-72.6
X161.45Y-74.7
X161.45Y-77.3
X161.45Y-79.4
T5
X135.89Y-116.84
X138.43Y-116.84
T6
X142.24Y-74.93
X142.24Y-113.03
X144.78Y-74.93
X144.78Y-113.03
X147.32Y-74.93
X147.32Y-113.03
X149.86Y-74.93
X149.86Y-113.03
X157.48Y-104.145
X157.48Y-106.685
X157.48Y-109.225
X157.48Y-111.765
X157.48Y-114.305
X160.02Y-104.145
X160.02Y-106.685
X160.02Y-109.225
X160.02Y-111.765
X160.02Y-114.305
X165.1Y-91.44
X165.1Y-95.94
T7
X162.6Y-90.19
X162.6Y-97.19
T8
X86.6Y-69.54
X86.6Y-118.54
X144.6Y-69.54
X144.6Y-118.54
T6
G00X163.55Y-69.15
M15
G01X165.05Y-69.15
M16
G05
G00X163.55Y-82.85
M15
G01X165.05Y-82.85
M16
G05
G00X165.1Y-77.0
M15
G01X165.1Y-75.0
M16
G05
T0
M30
