G04 #@! TF.GenerationSoftware,KiCad,Pcbnew,7.0.9*
G04 #@! TF.CreationDate,2023-11-12T17:18:31+09:00*
G04 #@! TF.ProjectId,SharpKeyQ,53686172-704b-4657-9951-2e6b69636164,rev?*
G04 #@! TF.SameCoordinates,Original*
G04 #@! TF.FileFunction,Soldermask,Top*
G04 #@! TF.FilePolarity,Negative*
%FSLAX46Y46*%
G04 Gerber Fmt 4.6, Leading zero omitted, Abs format (unit mm)*
G04 Created by KiCad (PCBNEW 7.0.9) date 2023-11-12 17:18:31*
%MOMM*%
%LPD*%
G01*
G04 APERTURE LIST*
%ADD10C,1.400000*%
%ADD11O,1.400000X1.400000*%
%ADD12R,1.600000X1.600000*%
%ADD13O,1.600000X1.600000*%
%ADD14R,1.700000X1.700000*%
%ADD15O,1.700000X1.700000*%
%ADD16R,1.200000X2.000000*%
%ADD17O,1.200000X2.000000*%
%ADD18R,1.500000X1.500000*%
%ADD19O,1.500000X1.500000*%
%ADD20C,1.600000*%
%ADD21C,3.200000*%
%ADD22R,1.800000X1.800000*%
%ADD23C,1.800000*%
%ADD24C,2.200000*%
%ADD25C,1.700000*%
%ADD26O,3.500000X2.000000*%
%ADD27O,2.000000X4.000000*%
G04 APERTURE END LIST*
D10*
G04 #@! TO.C,R9*
X142240000Y-100330000D03*
D11*
X149860000Y-100330000D03*
G04 #@! TD*
D10*
G04 #@! TO.C,R4*
X138430000Y-77470000D03*
D11*
X138430000Y-69850000D03*
G04 #@! TD*
D10*
G04 #@! TO.C,R2*
X149860000Y-82550000D03*
D11*
X142240000Y-82550000D03*
G04 #@! TD*
D10*
G04 #@! TO.C,R5*
X157480000Y-86360000D03*
D11*
X165100000Y-86360000D03*
G04 #@! TD*
D10*
G04 #@! TO.C,R15*
X125730000Y-116840000D03*
D11*
X133350000Y-116840000D03*
G04 #@! TD*
D10*
G04 #@! TO.C,R14*
X149860000Y-97790000D03*
D11*
X142240000Y-97790000D03*
G04 #@! TD*
D12*
G04 #@! TO.C,U2*
X91440000Y-114300000D03*
D13*
X93980000Y-114300000D03*
X96520000Y-114300000D03*
X99060000Y-114300000D03*
X101600000Y-114300000D03*
X104140000Y-114300000D03*
X106680000Y-114300000D03*
X109220000Y-114300000D03*
X109220000Y-106680000D03*
X106680000Y-106680000D03*
X104140000Y-106680000D03*
X101600000Y-106680000D03*
X99060000Y-106680000D03*
X96520000Y-106680000D03*
X93980000Y-106680000D03*
X91440000Y-106680000D03*
G04 #@! TD*
D14*
G04 #@! TO.C,J3*
X149860000Y-113030000D03*
D15*
X147320000Y-113030000D03*
X144780000Y-113030000D03*
X142240000Y-113030000D03*
G04 #@! TD*
D16*
G04 #@! TO.C,U1*
X132080000Y-76200000D03*
D17*
X129540000Y-76200000D03*
X127000000Y-76200000D03*
X124460000Y-76200000D03*
X121920000Y-76200000D03*
X119380000Y-76200000D03*
X116840000Y-76200000D03*
X114300000Y-76200000D03*
X111760000Y-76200000D03*
X109220000Y-76200000D03*
X106680000Y-76200000D03*
X104140000Y-76200000D03*
X101600000Y-76200000D03*
X99060000Y-76200000D03*
X96520000Y-76200000D03*
X93980000Y-76200000D03*
X91440000Y-76200000D03*
X88900000Y-76200000D03*
X86360000Y-76200000D03*
X86362720Y-101596320D03*
X88902720Y-101596320D03*
X91440000Y-101600000D03*
X93980000Y-101600000D03*
X96520000Y-101600000D03*
X99060000Y-101600000D03*
X101600000Y-101600000D03*
X104140000Y-101600000D03*
X106680000Y-101600000D03*
X109220000Y-101600000D03*
X111760000Y-101600000D03*
X114300000Y-101600000D03*
X116840000Y-101600000D03*
X119380000Y-101600000D03*
X121920000Y-101600000D03*
X124460000Y-101600000D03*
X127000000Y-101600000D03*
X129540000Y-101600000D03*
X132080000Y-101600000D03*
G04 #@! TD*
D10*
G04 #@! TO.C,R12*
X149860000Y-107950000D03*
D11*
X142240000Y-107950000D03*
G04 #@! TD*
D18*
G04 #@! TO.C,D1*
X157480000Y-92705000D03*
D19*
X157480000Y-100325000D03*
G04 #@! TD*
D20*
G04 #@! TO.C,C1*
X153710000Y-118110000D03*
X158710000Y-118110000D03*
G04 #@! TD*
D21*
G04 #@! TO.C,REF3*
X86600000Y-118540000D03*
G04 #@! TD*
D10*
G04 #@! TO.C,R8*
X149860000Y-105410000D03*
D11*
X142240000Y-105410000D03*
G04 #@! TD*
D21*
G04 #@! TO.C,REF2*
X144600000Y-69540000D03*
G04 #@! TD*
G04 #@! TO.C,REF4*
X144600000Y-118540000D03*
G04 #@! TD*
D10*
G04 #@! TO.C,R10*
X142240000Y-95250000D03*
D11*
X149860000Y-95250000D03*
G04 #@! TD*
D10*
G04 #@! TO.C,R6*
X142240000Y-90170000D03*
D11*
X149860000Y-90170000D03*
G04 #@! TD*
D14*
G04 #@! TO.C,J2*
X142240000Y-74930000D03*
D15*
X144780000Y-74930000D03*
X147320000Y-74930000D03*
X149860000Y-74930000D03*
G04 #@! TD*
D10*
G04 #@! TO.C,R11*
X142240000Y-92710000D03*
D11*
X149860000Y-92710000D03*
G04 #@! TD*
D10*
G04 #@! TO.C,R1*
X149860000Y-80010000D03*
D11*
X142240000Y-80010000D03*
G04 #@! TD*
D10*
G04 #@! TO.C,R7*
X142240000Y-87630000D03*
D11*
X149860000Y-87630000D03*
G04 #@! TD*
D22*
G04 #@! TO.C,D2*
X138430000Y-116840000D03*
D23*
X135890000Y-116840000D03*
G04 #@! TD*
D21*
G04 #@! TO.C,REF1*
X86600000Y-69540000D03*
G04 #@! TD*
D24*
G04 #@! TO.C,SW1*
X162600000Y-90190000D03*
X162600000Y-97190000D03*
D25*
X165100000Y-91440000D03*
X165100000Y-95940000D03*
G04 #@! TD*
D14*
G04 #@! TO.C,J4*
X157480000Y-104145000D03*
D15*
X160020000Y-104145000D03*
X157480000Y-106685000D03*
X160020000Y-106685000D03*
X157480000Y-109225000D03*
X160020000Y-109225000D03*
X157480000Y-111765000D03*
X160020000Y-111765000D03*
X157480000Y-114305000D03*
X160020000Y-114305000D03*
G04 #@! TD*
D10*
G04 #@! TO.C,R3*
X135890000Y-77470000D03*
D11*
X135890000Y-69850000D03*
G04 #@! TD*
D12*
G04 #@! TO.C,J1*
X161450000Y-74700000D03*
D20*
X161450000Y-77300000D03*
X161450000Y-72600000D03*
X161450000Y-79400000D03*
X158650000Y-72600000D03*
X158650000Y-79400000D03*
D26*
X164300000Y-82850000D03*
D27*
X165100000Y-76000000D03*
D26*
X164300000Y-69150000D03*
G04 #@! TD*
D10*
G04 #@! TO.C,R13*
X149860000Y-102870000D03*
D11*
X142240000Y-102870000D03*
G04 #@! TD*
M02*
